M48
;DRILL file {KiCad no-vcs-found-product} date Tue Sep  6 23:27:01 2016
;FORMAT={-:-/ absolute / inch / decimal}
FMAT,2
INCH,TZ
T1C0.012
T2C0.024
T3C0.028
T4C0.030
T5C0.031
T6C0.032
T7C0.032
T8C0.035
T9C0.039
T10C0.039
T11C0.040
T12C0.045
T13C0.059
T14C0.050
T15C0.118
T16C0.126
%
G90
G05
M72
T1
X3.315Y-2.905
X8.685Y-2.905
T2
X4.1574Y-4.0804
X4.5946Y-4.2089
X4.6863Y-5.2652
X5.04Y-2.94
X5.04Y-2.99
X5.04Y-3.04
X5.0465Y-3.4751
X5.0955Y-3.899
X5.3488Y-4.1887
X5.46Y-3.21
X5.51Y-3.21
X5.56Y-3.21
X6.075Y-4.68
X6.145Y-3.73
X6.325Y-3.94
X6.3296Y-4.3112
X6.3659Y-4.8816
X6.3714Y-5.0351
X6.465Y-4.985
X6.535Y-4.43
X6.69Y-4.035
X6.7659Y-5.2817
X6.86Y-4.83
X6.86Y-4.88
X6.86Y-4.93
X7.015Y-3.15
X7.7Y-3.905
X7.76Y-4.775
X7.8025Y-4.3325
X7.8025Y-4.3825
X7.8025Y-4.4325
X7.81Y-4.775
X7.86Y-4.775
X8.21Y-4.77
X8.2225Y-3.205
X8.2225Y-3.255
X8.2225Y-3.305
X8.24Y-2.94
X8.24Y-2.99
X8.24Y-3.04
X8.2425Y-2.6825
X8.2425Y-2.7325
X8.2425Y-2.7825
X8.26Y-4.77
X8.31Y-4.77
X8.325Y-3.605
X8.4144Y-3.6202
X8.645Y-3.38
T3
X3.7999Y-3.8
X3.7999Y-4.2
X3.9201Y-3.8
X3.9201Y-4.2
X5.07Y-4.9301
X5.47Y-4.9301
X5.58Y-5.1199
X5.98Y-5.1199
X6.7Y-5.1301
X7.1Y-5.1301
T4
X6.82Y-4.35
X7.02Y-4.35
T5
X4.16Y-3.34
X4.16Y-3.4778
X4.16Y-3.74
X4.16Y-3.8778
X4.16Y-4.14
X4.16Y-4.2778
X4.16Y-4.5422
X4.16Y-4.68
X4.54Y-4.5422
X4.54Y-4.68
X4.56Y-3.32
X4.56Y-3.4578
X4.56Y-3.74
X4.56Y-3.8778
X4.56Y-4.14
X4.56Y-4.2778
X4.7816Y-4.78
X4.88Y-4.78
X4.9422Y-3.36
X5.08Y-3.36
X5.12Y-3.98
X5.12Y-4.28
X5.22Y-3.98
X5.22Y-4.28
X5.32Y-3.98
X5.32Y-4.28
X5.42Y-3.98
X5.42Y-4.28
X5.5916Y-4.42
X5.66Y-4.22
X5.69Y-4.42
X5.7766Y-3.715
X6.07Y-3.84
X6.07Y-4.14
X6.17Y-3.84
X6.17Y-4.14
X6.2022Y-4.41
X6.27Y-3.84
X6.27Y-4.14
X6.34Y-4.41
X6.37Y-3.84
X6.37Y-4.14
X6.47Y-3.84
X6.47Y-4.14
X6.5322Y-3.02
X6.57Y-3.84
X6.57Y-4.14
X6.67Y-3.02
X6.67Y-3.84
X6.67Y-4.14
X6.77Y-3.84
X6.77Y-4.14
X6.87Y-3.84
X6.87Y-4.14
X6.87Y-4.56
X6.97Y-3.84
X6.97Y-4.14
X6.97Y-4.56
X7.07Y-3.84
X7.07Y-4.14
X7.12Y-2.67
X7.12Y-3.18
X7.17Y-3.84
X7.17Y-4.14
X7.22Y-2.67
X7.22Y-3.18
X7.27Y-3.84
X7.27Y-4.14
X7.32Y-2.67
X7.32Y-3.18
X7.37Y-3.84
X7.37Y-4.14
X7.42Y-2.67
X7.42Y-3.18
T6
X5.66Y-4.1216
X5.875Y-3.715
X6.7716Y-4.56
X7.0684Y-4.56
T7
X5.13Y-4.57
X5.53Y-4.57
X6.0675Y-3.165
X6.0675Y-3.565
T8
X3.8Y-2.9044
X3.8Y-3.18
X3.8Y-3.32
X3.8Y-3.5956
X3.8Y-4.4
X3.8Y-4.6756
X3.8Y-4.8244
X3.8Y-5.1
X4.8244Y-3.66
X5.1Y-3.66
X6.3944Y-3.31
X6.3944Y-3.555
X6.57Y-4.29
X6.57Y-4.5656
X6.67Y-3.31
X6.67Y-3.555
X7.63Y-3.52
X7.63Y-3.7956
X7.69Y-2.7
X7.9656Y-2.7
T9
X8.4125Y-3.69
X8.4125Y-3.79
X8.4125Y-3.89
X8.5125Y-3.64
X8.5125Y-3.74
X8.5125Y-3.84
T10
X4.78Y-2.69
X4.78Y-3.09
X4.86Y-3.9
X4.86Y-4.3
X5.04Y-2.69
X5.04Y-2.79
X5.08Y-4.76
X5.28Y-2.97
X5.28Y-3.37
X5.4504Y-2.75
X5.48Y-4.76
X5.7496Y-2.75
X5.765Y-3.085
X5.765Y-3.485
X5.8Y-4.57
X5.8Y-4.97
X5.93Y-3.
X5.93Y-3.16
X5.93Y-3.56
X5.96Y-2.83
X5.97Y-4.43
X5.97Y-4.83
X6.23Y-3.255
X6.23Y-3.655
X6.33Y-3.
X6.36Y-2.83
X6.56Y-4.71
X6.56Y-5.11
X6.9Y-2.93
X6.9Y-3.33
X7.0875Y-3.325
X7.1175Y-4.81
X7.22Y-4.32
X7.22Y-4.4825
X7.22Y-4.65
X7.4875Y-3.325
X7.5175Y-4.81
X7.6Y-4.
X7.6Y-4.16
X7.62Y-4.32
X7.62Y-4.4825
X7.62Y-4.65
X7.63Y-2.88
X7.63Y-3.04
X7.63Y-3.2
X7.63Y-3.36
X7.75Y-4.58
X7.84Y-3.52
X7.84Y-3.68
X7.84Y-3.84
X8.Y-4.
X8.Y-4.16
X8.03Y-2.88
X8.03Y-3.04
X8.03Y-3.2
X8.03Y-3.36
X8.15Y-4.58
X8.16Y-4.03
X8.16Y-4.43
X8.24Y-3.52
X8.24Y-3.68
X8.24Y-3.84
X8.33Y-4.14
X8.33Y-4.54
X8.415Y-3.2225
X8.415Y-3.3925
X8.45Y-2.65
X8.45Y-3.05
X8.62Y-2.65
X8.62Y-3.05
X8.815Y-3.2225
X8.815Y-3.3925
T11
X4.14Y-2.72
X4.14Y-5.28
X4.34Y-2.72
X4.34Y-5.28
X4.6Y-5.34
X4.7Y-5.34
X4.88Y-4.51
X4.96Y-5.28
X4.98Y-4.51
X5.16Y-5.28
X5.26Y-3.58
X5.26Y-3.68
X5.36Y-5.28
X5.42Y-3.58
X5.42Y-3.68
X5.58Y-3.58
X5.58Y-3.68
X5.82Y-3.96
X5.82Y-4.06
X6.06Y-5.29
X6.16Y-5.29
X6.17Y-4.83
X6.26Y-5.29
X6.27Y-4.83
X6.36Y-5.29
X6.44Y-2.66
X6.46Y-5.29
X6.54Y-2.66
X6.56Y-5.29
X6.64Y-2.66
X6.66Y-5.29
X6.74Y-2.66
X6.84Y-2.66
X6.97Y-3.54
X6.97Y-3.64
X7.16Y-3.54
X7.16Y-3.64
X7.35Y-3.5375
X7.35Y-3.6375
X8.6725Y-4.2075
X8.6725Y-4.4075
X8.675Y-4.635
X8.675Y-4.835
T12
X3.42Y-3.26
X3.42Y-3.36
X3.42Y-3.46
X3.42Y-4.54
X3.42Y-4.64
X3.42Y-4.74
X3.98Y-3.08
X3.98Y-4.92
X4.58Y-3.08
X4.58Y-4.92
T13
X7.28Y-5.0047
X7.28Y-5.3
X8.0792Y-5.0047
X8.0792Y-5.3
X8.2776Y-5.0047
X8.2776Y-5.3
T14
X3.195Y-2.903
X3.195Y-3.817
X3.195Y-4.183
X3.195Y-5.097
T15
X3.86Y-2.64
X3.86Y-5.36
X8.855Y-2.64
X8.855Y-5.36
T16
X8.7625Y-3.565
X8.7625Y-3.965
T0
M30
