G04 #@! TF.FileFunction,Copper,L2,Bot,Signal*
%FSLAX46Y46*%
G04 Gerber Fmt 4.6, Leading zero omitted, Abs format (unit mm)*
G04 Created by KiCad (PCBNEW no-vcs-found-product) date Tue Sep  6 23:30:38 2016*
%MOMM*%
%LPD*%
G01*
G04 APERTURE LIST*
%ADD10C,0.100000*%
%ADD11C,1.998980*%
%ADD12R,1.300000X1.300000*%
%ADD13C,1.300000*%
%ADD14C,1.524000*%
%ADD15O,0.899160X1.501140*%
%ADD16O,1.501140X0.899160*%
%ADD17R,1.400000X1.400000*%
%ADD18C,1.400000*%
%ADD19C,1.699260*%
%ADD20R,1.699260X1.699260*%
%ADD21O,2.540000X2.032000*%
%ADD22C,2.540000*%
%ADD23C,1.778000*%
%ADD24C,2.000000*%
%ADD25C,1.500000*%
%ADD26R,1.600000X2.300000*%
%ADD27O,1.600000X2.300000*%
%ADD28R,2.000000X1.900000*%
%ADD29C,1.900000*%
%ADD30C,3.000000*%
%ADD31R,1.727200X2.032000*%
%ADD32O,1.727200X2.032000*%
%ADD33C,1.422400*%
%ADD34R,2.032000X2.032000*%
%ADD35O,2.032000X2.032000*%
%ADD36C,0.500000*%
%ADD37C,0.700000*%
G04 APERTURE END LIST*
D10*
D11*
X123444000Y-109220000D03*
X123444000Y-99060000D03*
D12*
X143764000Y-107188000D03*
D13*
X143764000Y-104688000D03*
D14*
X140462000Y-116078000D03*
X130302000Y-116078000D03*
D11*
X129032000Y-120904000D03*
X139192000Y-120904000D03*
D15*
X139954000Y-81534000D03*
X138684000Y-81534000D03*
X141224000Y-81534000D03*
D12*
X146725000Y-94361000D03*
D13*
X149225000Y-94361000D03*
D16*
X128016000Y-75946000D03*
X128016000Y-74676000D03*
X128016000Y-77216000D03*
D17*
X129540000Y-92964000D03*
D18*
X122540000Y-92964000D03*
D11*
X146431000Y-78359000D03*
X146431000Y-88519000D03*
X134112000Y-85598000D03*
X134112000Y-75438000D03*
X150622000Y-80264000D03*
X150622000Y-90424000D03*
X161544000Y-71882000D03*
X151384000Y-71882000D03*
D17*
X169418000Y-84074000D03*
D18*
X162418000Y-84074000D03*
D11*
X150622000Y-76200000D03*
X160782000Y-76200000D03*
X175260000Y-84582000D03*
X175260000Y-74422000D03*
D17*
X169418000Y-90297000D03*
D18*
X162418000Y-90297000D03*
D11*
X158242000Y-82677000D03*
X158242000Y-92837000D03*
D14*
X154114000Y-80391000D03*
X154114000Y-90551000D03*
D19*
X170179480Y-130304540D03*
D20*
X180339480Y-130304540D03*
D16*
X174244000Y-123952000D03*
X174244000Y-125222000D03*
X174244000Y-122682000D03*
D11*
X166624000Y-129794000D03*
X166624000Y-119634000D03*
X211582000Y-115316000D03*
X211582000Y-105156000D03*
X207264000Y-112522000D03*
X207264000Y-102362000D03*
D17*
X166878000Y-108966000D03*
D18*
X166878000Y-115966000D03*
D12*
X177038000Y-115824000D03*
D13*
X179538000Y-115824000D03*
D12*
X174498000Y-115824000D03*
D13*
X171998000Y-115824000D03*
D11*
X193548000Y-118110000D03*
X183388000Y-118110000D03*
D15*
X209804000Y-121158000D03*
X211074000Y-121158000D03*
X208534000Y-121158000D03*
X198374000Y-121285000D03*
X197104000Y-121285000D03*
X199644000Y-121285000D03*
D11*
X190944000Y-122174000D03*
X180784000Y-122174000D03*
X193548000Y-113856000D03*
X183388000Y-113856000D03*
X207010000Y-116332000D03*
X196850000Y-116332000D03*
X203962000Y-77216000D03*
X193802000Y-77216000D03*
X199136000Y-89408000D03*
X209296000Y-89408000D03*
X203962000Y-81280000D03*
X193802000Y-81280000D03*
X193802000Y-85344000D03*
X203962000Y-85344000D03*
X190182000Y-84455000D03*
X180022000Y-84455000D03*
X203962000Y-73152000D03*
X193802000Y-73152000D03*
X214630000Y-77470000D03*
X214630000Y-67310000D03*
X213741000Y-81851500D03*
X223901000Y-81851500D03*
D16*
X209296000Y-75946000D03*
X209296000Y-74676000D03*
X209296000Y-77216000D03*
X209360000Y-69405500D03*
X209360000Y-68135500D03*
X209360000Y-70675500D03*
D11*
X213741000Y-86169500D03*
X223901000Y-86169500D03*
X218948000Y-67310000D03*
X218948000Y-77470000D03*
D16*
X208852000Y-82677000D03*
X208852000Y-83947000D03*
X208852000Y-81407000D03*
X198184000Y-111316000D03*
X198184000Y-112586000D03*
X198184000Y-110046000D03*
D11*
X199136000Y-97536000D03*
X209296000Y-97536000D03*
X193040000Y-105664000D03*
X203200000Y-105664000D03*
X193040000Y-101600000D03*
X203200000Y-101600000D03*
X183388000Y-109728000D03*
X193548000Y-109728000D03*
X209296000Y-93472000D03*
X199136000Y-93472000D03*
D17*
X96520000Y-129540000D03*
D18*
X96520000Y-122540000D03*
D19*
X99570540Y-106680520D03*
D20*
X99570540Y-96520520D03*
D19*
X96517460Y-96519480D03*
D20*
X96517460Y-106679480D03*
D17*
X96520000Y-111760000D03*
D18*
X96520000Y-118760000D03*
D21*
X86868000Y-117856000D03*
X86868000Y-115316000D03*
X86868000Y-120396000D03*
D22*
X81153000Y-106248200D03*
X81153000Y-129463800D03*
D11*
X151638000Y-122682000D03*
X151638000Y-112522000D03*
X147320000Y-126238000D03*
X147320000Y-116078000D03*
D19*
X128777480Y-125224540D03*
D20*
X138937480Y-125224540D03*
D19*
X151892520Y-130045460D03*
D20*
X141732520Y-130045460D03*
D11*
X121412000Y-78486000D03*
X121412000Y-68326000D03*
D23*
X116332000Y-78232000D03*
X101092000Y-78232000D03*
D24*
X146039840Y-69850000D03*
X138440160Y-69850000D03*
D17*
X96520000Y-80772000D03*
D18*
X96520000Y-73772000D03*
D17*
X96520000Y-84328000D03*
D18*
X96520000Y-91328000D03*
D21*
X86868000Y-85344000D03*
X86868000Y-82804000D03*
X86868000Y-87884000D03*
D22*
X81153000Y-73736200D03*
X81153000Y-96951800D03*
D23*
X101092000Y-124968000D03*
X116332000Y-124968000D03*
D17*
X193802000Y-89408000D03*
D18*
X193802000Y-96408000D03*
D17*
X195326000Y-68580000D03*
D18*
X202326000Y-68580000D03*
D25*
X220599000Y-73787000D03*
X84201000Y-73787000D03*
D26*
X130048000Y-108712000D03*
D27*
X132588000Y-108712000D03*
X135128000Y-108712000D03*
X137668000Y-108712000D03*
X137668000Y-101092000D03*
X135128000Y-101092000D03*
X132588000Y-101092000D03*
X130048000Y-101092000D03*
D26*
X154178000Y-105156000D03*
D27*
X156718000Y-105156000D03*
X159258000Y-105156000D03*
X161798000Y-105156000D03*
X164338000Y-105156000D03*
X166878000Y-105156000D03*
X169418000Y-105156000D03*
X171958000Y-105156000D03*
X174498000Y-105156000D03*
X177038000Y-105156000D03*
X179578000Y-105156000D03*
X182118000Y-105156000D03*
X184658000Y-105156000D03*
X187198000Y-105156000D03*
X187198000Y-97536000D03*
X184658000Y-97536000D03*
X182118000Y-97536000D03*
X179578000Y-97536000D03*
X177038000Y-97536000D03*
X174498000Y-97536000D03*
X171958000Y-97536000D03*
X169418000Y-97536000D03*
X166878000Y-97536000D03*
X164338000Y-97536000D03*
X161798000Y-97536000D03*
X159258000Y-97536000D03*
X156718000Y-97536000D03*
X154178000Y-97536000D03*
D13*
X105664000Y-108656000D03*
D12*
X105664000Y-105156000D03*
D13*
X105664000Y-115372000D03*
D12*
X105664000Y-118872000D03*
D13*
X115316000Y-115372000D03*
D12*
X115316000Y-118872000D03*
D13*
X115824000Y-108656000D03*
D12*
X115824000Y-105156000D03*
D13*
X105664000Y-88336000D03*
D12*
X105664000Y-84836000D03*
D13*
X105664000Y-98496000D03*
D12*
X105664000Y-94996000D03*
D13*
X115824000Y-87828000D03*
D12*
X115824000Y-84328000D03*
D13*
X115824000Y-98496000D03*
D12*
X115824000Y-94996000D03*
D13*
X157536000Y-112014000D03*
D12*
X161036000Y-112014000D03*
D13*
X165918000Y-76708000D03*
D12*
X169418000Y-76708000D03*
D13*
X125532000Y-85344000D03*
D12*
X129032000Y-85344000D03*
X144526000Y-112268000D03*
D13*
X142026000Y-112268000D03*
D22*
X105156000Y-134112000D03*
X110236000Y-134112000D03*
X110236000Y-69088000D03*
X105156000Y-69088000D03*
X220282000Y-111950000D03*
X220282000Y-106870000D03*
X220345000Y-122809000D03*
X220345000Y-117729000D03*
D28*
X128016000Y-70866000D03*
D29*
X128016000Y-68326000D03*
D26*
X188468000Y-67818000D03*
D27*
X185928000Y-67818000D03*
X183388000Y-67818000D03*
X180848000Y-67818000D03*
X180848000Y-80772000D03*
X183388000Y-80772000D03*
X185928000Y-80772000D03*
X188468000Y-80772000D03*
D24*
X213678000Y-98806000D03*
X216218000Y-97536000D03*
X213678000Y-96266000D03*
X216218000Y-94996000D03*
X213678000Y-93726000D03*
X216218000Y-92456000D03*
D30*
X184912000Y-127120000D03*
X184912000Y-134620000D03*
X205212000Y-134620000D03*
X205212000Y-127120000D03*
X210252000Y-134620000D03*
X210252000Y-127120000D03*
D31*
X169164000Y-134366000D03*
D32*
X166624000Y-134366000D03*
X164084000Y-134366000D03*
X161544000Y-134366000D03*
X159004000Y-134366000D03*
X156464000Y-134366000D03*
X153924000Y-134366000D03*
D33*
X173228000Y-110490000D03*
X178308000Y-110490000D03*
D34*
X116840000Y-135636000D03*
D35*
X119380000Y-135636000D03*
D34*
X181864000Y-92456000D03*
D35*
X181864000Y-89916000D03*
D34*
X186690000Y-92392500D03*
D35*
X186690000Y-89852500D03*
D34*
X156718000Y-122682000D03*
D35*
X159258000Y-122682000D03*
D34*
X177038000Y-92456000D03*
D35*
X177038000Y-89916000D03*
D34*
X133604000Y-90932000D03*
D35*
X133604000Y-93472000D03*
D34*
X137668000Y-93472000D03*
D35*
X137668000Y-90932000D03*
D34*
X141732000Y-93472000D03*
D35*
X141732000Y-90932000D03*
D34*
X126492000Y-114554000D03*
D35*
X123952000Y-114554000D03*
D34*
X147828000Y-103124000D03*
D35*
X147828000Y-100584000D03*
D22*
X125984000Y-134112000D03*
X131064000Y-134112000D03*
X136144000Y-134112000D03*
D12*
X123952000Y-121412000D03*
D13*
X121452000Y-121412000D03*
D31*
X163576000Y-67564000D03*
D32*
X166116000Y-67564000D03*
X168656000Y-67564000D03*
X171196000Y-67564000D03*
X173736000Y-67564000D03*
D25*
X219583000Y-85852000D03*
X211455000Y-91567000D03*
X178181000Y-80010000D03*
X169926000Y-102489000D03*
X116703800Y-106906000D03*
X119032100Y-133737200D03*
X128180200Y-88266900D03*
X129426600Y-99034500D03*
X105597000Y-103642900D03*
X213726400Y-91953700D03*
X171854100Y-134156200D03*
X160772200Y-109504300D03*
X160655000Y-100076000D03*
X156083000Y-94742008D03*
X135859800Y-106391900D03*
X161693600Y-123991500D03*
X161833300Y-127892800D03*
X165989000Y-112522000D03*
X154305000Y-118872000D03*
X164211000Y-126619000D03*
X195580000Y-99187000D03*
D36*
X213678000Y-96266000D02*
X211455000Y-94043000D01*
X211455000Y-94043000D02*
X211455000Y-91567000D01*
D37*
X102075700Y-98070500D02*
X101086200Y-99060000D01*
X101086200Y-99060000D02*
X95758000Y-99060000D01*
X95758000Y-99060000D02*
X93980000Y-97282000D01*
X93980000Y-97282000D02*
X93980000Y-82550000D01*
X93980000Y-82550000D02*
X95758000Y-80772000D01*
X95758000Y-80772000D02*
X97220200Y-80772000D01*
X125984000Y-134112000D02*
X127970000Y-136098000D01*
X127970000Y-136098000D02*
X172996100Y-136098000D01*
X180596500Y-130304500D02*
X184912000Y-134620000D01*
X172996100Y-136098000D02*
X178789600Y-130304500D01*
X178789600Y-130304500D02*
X180596500Y-130304500D01*
X105664000Y-84836000D02*
X105664000Y-83485700D01*
X116332000Y-78232000D02*
X110236000Y-78232000D01*
X110236000Y-69088000D02*
X110236000Y-78232000D01*
X110236000Y-78913700D02*
X105664000Y-83485700D01*
X110236000Y-78232000D02*
X110236000Y-78913700D01*
X100634000Y-83485700D02*
X97920300Y-80772000D01*
X105664000Y-83485700D02*
X100634000Y-83485700D01*
X96520000Y-80772000D02*
X97220200Y-80772000D01*
X97220200Y-80772000D02*
X97920300Y-80772000D01*
X105664000Y-94996000D02*
X104313700Y-94996000D01*
X102075700Y-97234000D02*
X104313700Y-94996000D01*
X102075700Y-98070500D02*
X102075700Y-97234000D01*
X125984000Y-132372200D02*
X125984000Y-134112000D01*
X116922700Y-123310900D02*
X125984000Y-132372200D01*
X116922700Y-112917500D02*
X116922700Y-123310900D01*
X102075700Y-98070500D02*
X116922700Y-112917500D01*
X86868000Y-82804000D02*
X87884000Y-82804000D01*
X89408000Y-84328000D02*
X89408000Y-118841200D01*
X87884000Y-82804000D02*
X89408000Y-84328000D01*
X89408000Y-118841200D02*
X87853200Y-120396000D01*
X96520000Y-129540000D02*
X96520000Y-129062800D01*
X96520000Y-129062800D02*
X87853200Y-120396000D01*
X101092000Y-124794300D02*
X101092000Y-124968000D01*
X105664000Y-120222300D02*
X101092000Y-124794300D01*
X96520000Y-129540000D02*
X97920300Y-129540000D01*
X101092000Y-129540000D02*
X97920300Y-129540000D01*
X101092000Y-129540000D02*
X101092000Y-124968000D01*
X101092000Y-130048000D02*
X101092000Y-129540000D01*
X105156000Y-134112000D02*
X101092000Y-130048000D01*
X86868000Y-120396000D02*
X87853200Y-120396000D01*
X105664000Y-118872000D02*
X105664000Y-119547100D01*
X105664000Y-119547100D02*
X105664000Y-120222300D01*
X113290600Y-119547100D02*
X113965700Y-118872000D01*
X105664000Y-119547100D02*
X113290600Y-119547100D01*
X115316000Y-118872000D02*
X113965700Y-118872000D01*
X166116000Y-67564000D02*
X166116000Y-68326000D01*
X166116000Y-68326000D02*
X164592000Y-69850000D01*
X164592000Y-69850000D02*
X160274000Y-69850000D01*
X160274000Y-69850000D02*
X151892000Y-78232000D01*
X151892000Y-78232000D02*
X149352000Y-78232000D01*
X149352000Y-78232000D02*
X148463000Y-79121000D01*
X148463000Y-79121000D02*
X148463000Y-81407000D01*
X148463000Y-81407000D02*
X145796000Y-84074000D01*
X145796000Y-84074000D02*
X137541000Y-84074000D01*
X137541000Y-84074000D02*
X135763000Y-82296000D01*
X135763000Y-82296000D02*
X119206300Y-82296000D01*
X119206300Y-82296000D02*
X117174300Y-84328000D01*
X117174300Y-84328000D02*
X115824000Y-84328000D01*
X191313300Y-65967600D02*
X193925700Y-68580000D01*
X182698400Y-65967600D02*
X191313300Y-65967600D01*
X180848000Y-67818000D02*
X182698400Y-65967600D01*
X195326000Y-68580000D02*
X193925700Y-68580000D01*
X180848000Y-67818000D02*
X179347700Y-67818000D01*
X115824000Y-94996000D02*
X115824000Y-93645700D01*
X167875700Y-65804300D02*
X166116000Y-67564000D01*
X177334000Y-65804300D02*
X167875700Y-65804300D01*
X179347700Y-67818000D02*
X177334000Y-65804300D01*
X115824000Y-84328000D02*
X115824000Y-85678300D01*
X96520000Y-84328000D02*
X96520000Y-85728300D01*
X99570500Y-88778800D02*
X99570500Y-89927600D01*
X96520000Y-85728300D02*
X99570500Y-88778800D01*
X99570500Y-89927600D02*
X99570500Y-96520500D01*
X114473700Y-89927600D02*
X99570500Y-89927600D01*
X114473700Y-87028600D02*
X114473700Y-89927600D01*
X115824000Y-85678300D02*
X114473700Y-87028600D01*
X114473700Y-92295400D02*
X115824000Y-93645700D01*
X114473700Y-89927600D02*
X114473700Y-92295400D01*
D36*
X178930999Y-80759999D02*
X178181000Y-80010000D01*
X178943000Y-80772000D02*
X178930999Y-80759999D01*
X180848000Y-80772000D02*
X178943000Y-80772000D01*
X169418000Y-102997000D02*
X169926000Y-102489000D01*
X169418000Y-105156000D02*
X169418000Y-102997000D01*
X116103800Y-106306000D02*
X115824000Y-106306000D01*
X116703800Y-106906000D02*
X116103800Y-106306000D01*
X115824000Y-105156000D02*
X115824000Y-106306000D01*
X119380000Y-134085100D02*
X119380000Y-135636000D01*
X119032100Y-133737200D02*
X119380000Y-134085100D01*
X129032000Y-87415100D02*
X129032000Y-85344000D01*
X128180200Y-88266900D02*
X129032000Y-87415100D01*
X129834100Y-99442000D02*
X130048000Y-99442000D01*
X129426600Y-99034500D02*
X129834100Y-99442000D01*
X130048000Y-101092000D02*
X130048000Y-99442000D01*
X105597000Y-103939000D02*
X105664000Y-104006000D01*
X105597000Y-103642900D02*
X105597000Y-103939000D01*
X105664000Y-105156000D02*
X105664000Y-104006000D01*
X213678000Y-92002100D02*
X213678000Y-93726000D01*
X213726400Y-91953700D02*
X213678000Y-92002100D01*
X170737400Y-134156200D02*
X170527600Y-134366000D01*
X171854100Y-134156200D02*
X170737400Y-134156200D01*
X169164000Y-134366000D02*
X170527600Y-134366000D01*
X161036000Y-109768100D02*
X161036000Y-112014000D01*
X160772200Y-109504300D02*
X161036000Y-109768100D01*
X174498000Y-90454300D02*
X169418000Y-85374300D01*
X174498000Y-97536000D02*
X174498000Y-90454300D01*
X169418000Y-84074000D02*
X169418000Y-85374300D01*
X169418000Y-84074000D02*
X169418000Y-76708000D01*
X171958000Y-94137300D02*
X169418000Y-91597300D01*
X171958000Y-97536000D02*
X171958000Y-94137300D01*
X169418000Y-90297000D02*
X169418000Y-91597300D01*
X123952000Y-120904000D02*
X129032000Y-120904000D01*
X123952000Y-121412000D02*
X123952000Y-120904000D01*
X123952000Y-120904000D02*
X123952000Y-114554000D01*
X146174500Y-100584000D02*
X145288000Y-99697500D01*
X145288000Y-99697500D02*
X145288000Y-90551000D01*
X145288000Y-90551000D02*
X143637000Y-88900000D01*
X143637000Y-88900000D02*
X139700000Y-88900000D01*
X139700000Y-88900000D02*
X138683999Y-89916001D01*
X138683999Y-89916001D02*
X137668000Y-90932000D01*
X146174500Y-100584000D02*
X145542000Y-101216500D01*
X145542000Y-101216500D02*
X145542000Y-110001700D01*
X145542000Y-110001700D02*
X144526000Y-111017700D01*
X144526000Y-111017700D02*
X144526000Y-112268000D01*
X144526000Y-112268000D02*
X144526000Y-113284000D01*
X144526000Y-113284000D02*
X147320000Y-116078000D01*
X147828000Y-100584000D02*
X146424300Y-100584000D01*
X146424300Y-100584000D02*
X146174500Y-100584000D01*
X132588000Y-113792000D02*
X132588000Y-108712000D01*
X130302000Y-116078000D02*
X132588000Y-113792000D01*
X134861700Y-104688000D02*
X132588000Y-106961700D01*
X143764000Y-104688000D02*
X134861700Y-104688000D01*
X132588000Y-108712000D02*
X132588000Y-106961700D01*
X154114000Y-90551000D02*
X156083000Y-88582000D01*
X156083000Y-88582000D02*
X156083000Y-84836000D01*
X156083000Y-84836000D02*
X158242000Y-82677000D01*
X154114000Y-95721700D02*
X154114000Y-90551000D01*
X154178000Y-95785700D02*
X154114000Y-95721700D01*
X154178000Y-97536000D02*
X154178000Y-95785700D01*
X174498000Y-109220000D02*
X173228000Y-110490000D01*
X174498000Y-105156000D02*
X174498000Y-109220000D01*
X173228000Y-114594000D02*
X171998000Y-115824000D01*
X173228000Y-110490000D02*
X173228000Y-114594000D01*
X177038000Y-109220000D02*
X178308000Y-110490000D01*
X177038000Y-105156000D02*
X177038000Y-109220000D01*
X179538000Y-111720000D02*
X178308000Y-110490000D01*
X179538000Y-115824000D02*
X179538000Y-111720000D01*
X128076300Y-102845000D02*
X128609300Y-103378000D01*
X128609300Y-103378000D02*
X138557000Y-103378000D01*
X138557000Y-103378000D02*
X143891000Y-98044000D01*
X143891000Y-98044000D02*
X143891000Y-91440000D01*
X143891000Y-91440000D02*
X143383000Y-90932000D01*
X143383000Y-90932000D02*
X141732000Y-90932000D01*
X128076300Y-102845000D02*
X126009000Y-102845000D01*
X126009000Y-102845000D02*
X120182900Y-108671100D01*
X120182900Y-108671100D02*
X120182900Y-121948600D01*
X120182900Y-121948600D02*
X123458800Y-125224500D01*
X123458800Y-125224500D02*
X128777500Y-125224500D01*
X128076300Y-91633700D02*
X128076300Y-102845000D01*
X134112000Y-85598000D02*
X128076300Y-91633700D01*
X138937500Y-125224500D02*
X138937500Y-124968500D01*
X138937500Y-124968500D02*
X138938000Y-124968000D01*
X138938000Y-125801100D02*
X141732500Y-128595600D01*
X138938000Y-124968000D02*
X138938000Y-125801100D01*
X141732500Y-128595600D02*
X141732500Y-130045500D01*
X172466000Y-123952000D02*
X166624000Y-129794000D01*
X174244000Y-123952000D02*
X172466000Y-123952000D01*
X160908000Y-100076000D02*
X160655000Y-100076000D01*
X161798000Y-99186000D02*
X160908000Y-100076000D01*
X161798000Y-97536000D02*
X161798000Y-99186000D01*
X128016000Y-70866000D02*
X128016000Y-74676000D01*
X128016000Y-68326000D02*
X121412000Y-68326000D01*
X175092100Y-127120000D02*
X174244000Y-126271900D01*
X184912000Y-127120000D02*
X175092100Y-127120000D01*
X174244000Y-125222000D02*
X174244000Y-126271900D01*
X174212100Y-126271900D02*
X174244000Y-126271900D01*
X170179500Y-130304500D02*
X174212100Y-126271900D01*
X151476300Y-105156000D02*
X149444300Y-103124000D01*
X154178000Y-105156000D02*
X151476300Y-105156000D01*
X147828000Y-103124000D02*
X149444300Y-103124000D01*
X156718000Y-105156000D02*
X156718000Y-106906300D01*
X156718000Y-122682000D02*
X156718000Y-121065700D01*
X156283800Y-107340500D02*
X156718000Y-106906300D01*
X156283800Y-120631500D02*
X156283800Y-107340500D01*
X156718000Y-121065700D02*
X156283800Y-120631500D01*
X159258000Y-106906300D02*
X159258000Y-121065700D01*
X159258000Y-105156000D02*
X159258000Y-106906300D01*
X159258000Y-122682000D02*
X159258000Y-121065700D01*
X216218000Y-97536000D02*
X216218000Y-100012000D01*
X216218000Y-100012000D02*
X215758900Y-100471100D01*
X215758900Y-100471100D02*
X204328900Y-100471100D01*
X204328900Y-100471100D02*
X203200000Y-101600000D01*
X216218000Y-94996000D02*
X217170000Y-94996000D01*
X217170000Y-94996000D02*
X218440000Y-93726000D01*
X218440000Y-93726000D02*
X218440000Y-91186000D01*
X215062100Y-87808100D02*
X207339900Y-87808100D01*
X218440000Y-91186000D02*
X215062100Y-87808100D01*
X206248000Y-88900000D02*
X206248000Y-94488000D01*
X206248000Y-94488000D02*
X209296000Y-97536000D01*
X207339900Y-87808100D02*
X206248000Y-88900000D01*
X213170000Y-89408000D02*
X209296000Y-89408000D01*
X216218000Y-92456000D02*
X213170000Y-89408000D01*
X186690000Y-92392500D02*
X186245500Y-92392500D01*
X186245500Y-92392500D02*
X182118000Y-96520000D01*
X182118000Y-96520000D02*
X182118000Y-97536000D01*
X179578000Y-97536000D02*
X179578000Y-96358300D01*
X179578000Y-96358300D02*
X181864000Y-94072300D01*
X181864000Y-94072300D02*
X181864000Y-92456000D01*
X177038000Y-97536000D02*
X177038000Y-92456000D01*
X133604000Y-90932000D02*
X133858000Y-90932000D01*
X133858000Y-90932000D02*
X138430000Y-86360000D01*
X138430000Y-86360000D02*
X147320000Y-86360000D01*
X147320000Y-86360000D02*
X148463100Y-87503100D01*
X148463100Y-87503100D02*
X148463100Y-91059100D01*
X148463100Y-91059100D02*
X151257000Y-93853000D01*
X151257000Y-93853000D02*
X151257000Y-99060000D01*
X151257000Y-99060000D02*
X154305000Y-102108000D01*
X166878000Y-98552000D02*
X166878000Y-97536000D01*
X154305000Y-102108000D02*
X163322000Y-102108000D01*
X163322000Y-102108000D02*
X166878000Y-98552000D01*
X164338000Y-97186000D02*
X165638000Y-95886000D01*
X165638000Y-81056000D02*
X161781489Y-77199489D01*
X165638000Y-95886000D02*
X165638000Y-81056000D01*
X164338000Y-97536000D02*
X164338000Y-97186000D01*
X161781489Y-77199489D02*
X160782000Y-76200000D01*
X159258000Y-97536000D02*
X159258000Y-95785700D01*
X159258000Y-95785700D02*
X160401000Y-94642700D01*
X160401000Y-94642700D02*
X160401000Y-80137000D01*
X160401000Y-80137000D02*
X158623000Y-78359000D01*
X158623000Y-78359000D02*
X158623000Y-75311000D01*
X158623000Y-75311000D02*
X159766000Y-74168000D01*
X174117000Y-78359000D02*
X192659000Y-78359000D01*
X192659000Y-78359000D02*
X193802000Y-77216000D01*
X159766000Y-74168000D02*
X169926000Y-74168000D01*
X169926000Y-74168000D02*
X174117000Y-78359000D01*
X156718000Y-95377008D02*
X156083000Y-94742008D01*
X156718000Y-97536000D02*
X156718000Y-95377008D01*
X130048000Y-108712000D02*
X130048000Y-109381700D01*
X130048000Y-109381700D02*
X126492000Y-112937700D01*
X126492000Y-112937700D02*
X126492000Y-114554000D01*
X135128000Y-108712000D02*
X135128000Y-107123700D01*
X135128000Y-107123700D02*
X135859800Y-106391900D01*
X135128000Y-130048000D02*
X135128000Y-108712000D01*
X131064000Y-134112000D02*
X135128000Y-130048000D01*
X137668000Y-101092000D02*
X138176000Y-101092000D01*
X138176000Y-101092000D02*
X139068300Y-100199700D01*
X139068300Y-100199700D02*
X139068300Y-97752000D01*
X139068300Y-97752000D02*
X141732000Y-95088300D01*
X141732000Y-95088300D02*
X141732000Y-93472000D01*
X135128000Y-97628300D02*
X137668000Y-95088300D01*
X135128000Y-101092000D02*
X135128000Y-97628300D01*
X137668000Y-93472000D02*
X137668000Y-95088300D01*
X132588000Y-96104300D02*
X133604000Y-95088300D01*
X132588000Y-101092000D02*
X132588000Y-96104300D01*
X133604000Y-93472000D02*
X133604000Y-95088300D01*
X202685600Y-114352500D02*
X197104000Y-119934100D01*
X209751500Y-114352500D02*
X202685600Y-114352500D01*
X212154000Y-111950000D02*
X209751500Y-114352500D01*
X220282000Y-111950000D02*
X212154000Y-111950000D01*
X197104000Y-121285000D02*
X197104000Y-119934100D01*
X220282000Y-106870000D02*
X220282000Y-90488000D01*
X220282000Y-90488000D02*
X215963500Y-86169500D01*
X215963500Y-86169500D02*
X213741000Y-86169500D01*
X211518500Y-83947000D02*
X213741000Y-86169500D01*
X208852000Y-83947000D02*
X211518500Y-83947000D01*
X177038000Y-89916000D02*
X177038000Y-89704100D01*
X183388000Y-83354100D02*
X183388000Y-80772000D01*
X177038000Y-89704100D02*
X183388000Y-83354100D01*
X190182000Y-84744200D02*
X190182000Y-84455000D01*
X186690000Y-88236200D02*
X190182000Y-84744200D01*
X186690000Y-89852500D02*
X186690000Y-88236200D01*
X185928000Y-84235700D02*
X181864000Y-88299700D01*
X185928000Y-80772000D02*
X185928000Y-84235700D01*
X181864000Y-89916000D02*
X181864000Y-88299700D01*
X183388000Y-67818000D02*
X183388000Y-69088000D01*
X183388000Y-69088000D02*
X181483000Y-70993000D01*
X181483000Y-70993000D02*
X178628900Y-70993000D01*
X178628900Y-70993000D02*
X175199900Y-67564000D01*
X175199900Y-67564000D02*
X173736000Y-67564000D01*
X175260000Y-71628000D02*
X175260000Y-74422000D01*
X171196000Y-67564000D02*
X175260000Y-71628000D01*
X168656000Y-67564000D02*
X168656000Y-70866000D01*
X168656000Y-70866000D02*
X173839300Y-76049300D01*
X173839300Y-76049300D02*
X179855700Y-76049300D01*
X179855700Y-76049300D02*
X185928000Y-69977000D01*
X185928000Y-69977000D02*
X185928000Y-67818000D01*
X206058000Y-111316000D02*
X207264000Y-112522000D01*
X198184000Y-111316000D02*
X206058000Y-111316000D01*
X196850000Y-112586000D02*
X196850000Y-116332000D01*
X196406000Y-112586000D02*
X196850000Y-112586000D01*
X193548000Y-109728000D02*
X196406000Y-112586000D01*
X196850000Y-112586000D02*
X198184000Y-112586000D01*
X209804000Y-117094000D02*
X211582000Y-115316000D01*
X209804000Y-121158000D02*
X209804000Y-117094000D01*
X207708500Y-69405500D02*
X203962000Y-73152000D01*
X209360000Y-69405500D02*
X207708500Y-69405500D01*
X196266100Y-82879900D02*
X193802000Y-85344000D01*
X196266100Y-80847900D02*
X196266100Y-82879900D01*
X203962000Y-73152000D02*
X196266100Y-80847900D01*
X196266100Y-78815900D02*
X193802000Y-81280000D01*
X196266200Y-78815900D02*
X196266100Y-78815900D01*
X196266200Y-78583400D02*
X196266200Y-78815900D01*
X206714100Y-68135500D02*
X196266200Y-78583400D01*
X209360000Y-68135500D02*
X206714100Y-68135500D01*
X209296000Y-71789400D02*
X209296000Y-74676000D01*
X209360000Y-71725400D02*
X209296000Y-71789400D01*
X209360000Y-70675500D02*
X209360000Y-71725400D01*
X210646900Y-75611100D02*
X218948000Y-67310000D01*
X210646900Y-75946000D02*
X210646900Y-75611100D01*
X209296000Y-75946000D02*
X210646900Y-75946000D01*
X143937100Y-76200000D02*
X150622000Y-76200000D01*
X139954000Y-80183100D02*
X143937100Y-76200000D01*
X139954000Y-81534000D02*
X139954000Y-80183100D01*
X138440200Y-79939300D02*
X138684000Y-80183100D01*
X138440200Y-69850000D02*
X138440200Y-79939300D01*
X138684000Y-81534000D02*
X138684000Y-80183100D01*
X183134000Y-101600000D02*
X193040000Y-101600000D01*
X179578000Y-105156000D02*
X183134000Y-101600000D01*
X199136000Y-97784800D02*
X199136000Y-97536000D01*
X193558800Y-103362000D02*
X199136000Y-97784800D01*
X183912000Y-103362000D02*
X193558800Y-103362000D01*
X182118000Y-105156000D02*
X183912000Y-103362000D01*
X184658000Y-105156000D02*
X184658000Y-106172000D01*
X184658000Y-106172000D02*
X185759400Y-107273400D01*
X195144400Y-106353600D02*
X195144400Y-104067600D01*
X185759400Y-107273400D02*
X194224600Y-107273400D01*
X201168000Y-98044000D02*
X201168000Y-91440000D01*
X201168000Y-91440000D02*
X199136000Y-89408000D01*
X194224600Y-107273400D02*
X195144400Y-106353600D01*
X195144400Y-104067600D02*
X201168000Y-98044000D01*
X192532000Y-105156000D02*
X193040000Y-105664000D01*
X187198000Y-105156000D02*
X192532000Y-105156000D01*
X201598600Y-104062600D02*
X203200000Y-105664000D01*
X201598600Y-100921600D02*
X201598600Y-104062600D01*
X203384300Y-99135900D02*
X201598600Y-100921600D01*
X213348100Y-99135900D02*
X203384300Y-99135900D01*
X213678000Y-98806000D02*
X213348100Y-99135900D01*
X151638000Y-129791000D02*
X151638000Y-122682000D01*
X151892500Y-130045500D02*
X151638000Y-129791000D01*
X210252000Y-127120000D02*
X210252000Y-134620000D01*
X216034000Y-127120000D02*
X220345000Y-122809000D01*
X210252000Y-127120000D02*
X216034000Y-127120000D01*
X162286400Y-123398700D02*
X161693600Y-123991500D01*
X162286400Y-107394700D02*
X162286400Y-123398700D01*
X161798000Y-106906300D02*
X162286400Y-107394700D01*
X161833300Y-132460400D02*
X161544000Y-132749700D01*
X161833300Y-127892800D02*
X161833300Y-132460400D01*
X161544000Y-134366000D02*
X161544000Y-132749700D01*
X161798000Y-105156000D02*
X161798000Y-106906300D01*
X164338000Y-105156000D02*
X163830000Y-105664000D01*
X163830000Y-105664000D02*
X163830000Y-123796600D01*
X163830000Y-123796600D02*
X159004000Y-128622600D01*
X159004000Y-128622600D02*
X159004000Y-134366000D01*
X165239001Y-107144999D02*
X165239001Y-111772001D01*
X166878000Y-105506000D02*
X165239001Y-107144999D01*
X166878000Y-105156000D02*
X166878000Y-105506000D01*
X165239001Y-111772001D02*
X165989000Y-112522000D01*
X154305000Y-132054600D02*
X154305000Y-119932660D01*
X156464000Y-134213600D02*
X154305000Y-132054600D01*
X156464000Y-134366000D02*
X156464000Y-134213600D01*
X154305000Y-119932660D02*
X154305000Y-118872000D01*
X187198000Y-97536000D02*
X188598300Y-97536000D01*
X188598300Y-97536000D02*
X198380800Y-87753500D01*
X198380800Y-87753500D02*
X199817800Y-87753500D01*
X199817800Y-87753500D02*
X202184000Y-90119700D01*
X174955100Y-119126000D02*
X165011100Y-129070000D01*
X202184000Y-90119700D02*
X202184000Y-98936600D01*
X191826000Y-108123900D02*
X184125900Y-115824000D01*
X202184000Y-98936600D02*
X199136000Y-101984600D01*
X199136000Y-101984600D02*
X199136000Y-103886000D01*
X199136000Y-103886000D02*
X194898100Y-108123900D01*
X194898100Y-108123900D02*
X191826000Y-108123900D01*
X184125900Y-115824000D02*
X182179800Y-115824000D01*
X182179800Y-115824000D02*
X178877800Y-119126000D01*
X178877800Y-119126000D02*
X174955100Y-119126000D01*
X165011100Y-129070000D02*
X165011100Y-132753100D01*
X165011100Y-132753100D02*
X166624000Y-134366000D01*
X164211000Y-126619000D02*
X163576000Y-127254000D01*
X184658000Y-97536000D02*
X184658000Y-97886000D01*
X184658000Y-97886000D02*
X186058010Y-99286010D01*
X186058010Y-99286010D02*
X195480990Y-99286010D01*
X195480990Y-99286010D02*
X195580000Y-99187000D01*
X163576000Y-127254000D02*
X163576000Y-133858000D01*
X163576000Y-133858000D02*
X164084000Y-134366000D01*
X216391500Y-117729000D02*
X220345000Y-117729000D01*
X207000500Y-127120000D02*
X216391500Y-117729000D01*
X205212000Y-127120000D02*
X207000500Y-127120000D01*
X205212000Y-127120000D02*
X205212000Y-134620000D01*
M02*
