<?xml version="1.0" standalone="no"?>
 <!DOCTYPE svg PUBLIC "-//W3C//DTD SVG 1.1//EN" 
 "http://www.w3.org/Graphics/SVG/1.1/DTD/svg11.dtd"> 
<svg xmlns="http://www.w3.org/2000/svg" version="1.1" 
    width="20.574cm" height="10.6172cm" viewBox="0 0 81000 41800 ">
<title>SVG Picture created as Weather Balloon-B.CrtYd.svg date 2016/09/29 15:18:57 </title>
  <desc>Picture generated by PCBNEW </desc>
<g style="fill:#000000; fill-opacity:1;stroke:#000000; stroke-opacity:1;
stroke-linecap:round; stroke-linejoin:round; "
 transform="translate(0 0) scale(1 1)">
</g>
<g style="fill:#000000; fill-opacity:0.0; 
stroke:#000000; stroke-width:-0.000393701; stroke-opacity:1; 
stroke-linecap:round; stroke-linejoin:round;">
</g>
<g style="fill:#000000; fill-opacity:0.0; 
stroke:#000000; stroke-width:59.0551; stroke-opacity:1; 
stroke-linecap:round; stroke-linejoin:round;">
<path d="M76495 41079
L76495 3079
" />
<path d="M4695 41079
L76495 41079
" />
<path d="M4695 3079
L4695 41079
" />
<path d="M76495 3079
L4695 3079
" />
<path d="M15995 12129
L15995 8879
" />
<path d="M15995 8879
L17995 8879
" />
<path d="M17995 8879
L17995 6479
" />
<path d="M17995 6479
L15995 6479
" />
<path d="M15995 6479
L15995 3979
" />
<path d="M15995 3979
L7395 3979
" />
<path d="M7395 3979
L7395 6529
" />
<path d="M7395 6529
L5395 6529
" />
<path d="M5395 6529
L5395 8879
" />
<path d="M5395 8879
L7395 8879
" />
<path d="M7395 8879
L7395 12079
" />
<path d="M7395 12079
L15995 12129
" />
</g>
<g style="fill:#000000; fill-opacity:0.0; 
stroke:#000000; stroke-width:19.685; stroke-opacity:1; 
stroke-linecap:round; stroke-linejoin:round;">
<path d="M6656 19140
L6656 23530
" />
<path d="M8034 19140
L8034 23530
" />
<path d="M6656 19140
L8034 19140
" />
<path d="M6656 23530
L8034 23530
" />
<path d="M6906 26790
L6906 34172
" />
<path d="M8284 26790
L8284 34172
" />
<path d="M6906 26790
L8284 26790
" />
<path d="M6906 34172
L8284 34172
" />
<path d="M75184 27968
L75184 24583
" />
<path d="M73806 27968
L73806 24583
" />
<path d="M75184 27968
L73806 27968
" />
<path d="M75184 24583
L73806 24583
" />
<path d="M41546 11444
L41546 4511
" />
<path d="M37452 11444
L37452 4511
" />
<path d="M41546 11444
L37452 11444
" />
<path d="M41546 4511
L37452 4511
" />
<path d="M39146 36044
L39146 32107
" />
<path d="M35052 36044
L35052 32107
" />
<path d="M39146 36044
L35052 36044
" />
<path d="M39146 32107
L35052 32107
" />
</g> 
</svg>
