<?xml version="1.0" standalone="no"?>
 <!DOCTYPE svg PUBLIC "-//W3C//DTD SVG 1.1//EN" 
 "http://www.w3.org/Graphics/SVG/1.1/DTD/svg11.dtd"> 
<svg xmlns="http://www.w3.org/2000/svg" version="1.1" 
    width="16.5227cm" height="8.21182cm" viewBox="0 0 65050 32330 ">
<title>SVG Picture created as Weather Balloon-F.SilkS.svg date 2016/10/01 16:35:18 </title>
  <desc>Picture generated by PCBNEW </desc>
<g style="fill:#000000; fill-opacity:1;stroke:#000000; stroke-opacity:1;
stroke-linecap:round; stroke-linejoin:round; "
 transform="translate(0 0) scale(1 1)">
</g>
<g style="fill:#000000; fill-opacity:0.0; 
stroke:#000000; stroke-width:-0.000393701; stroke-opacity:1; 
stroke-linecap:round; stroke-linejoin:round;">
</g>
<g style="fill:#000000; fill-opacity:0.0; 
stroke:#000000; stroke-width:59.0551; stroke-opacity:1; 
stroke-linecap:round; stroke-linejoin:round;">
<path d="M20 28598
L65020 28598
" />
<path d="M20 998
L20 28598
" />
<path d="M65020 998
L20 998
" />
<path d="M65020 998
L65020 28598
" />
<path d="M53129 20270
L53073 20289
L53054 20308
L53036 20345
L53036 20401
L53054 20439
L53073 20458
L53111 20476
L53261 20476
L53261 20083
L53129 20083
L53092 20101
L53073 20120
L53054 20158
L53054 20195
L53073 20233
L53092 20251
L53129 20270
L53261 20270
" />
<path d="M52923 20083
L52698 20083
" />
<path d="M52811 20476
L52811 20083
" />
<path d="M52361 20476
L52586 20476
" />
<path d="M52473 20476
L52473 20083
L52511 20139
L52548 20176
L52586 20195
" />
<path d="M33643 24223
L33662 24242
L33718 24261
L33756 24261
L33812 24242
L33850 24204
L33868 24167
L33887 24092
L33887 24036
L33868 23961
L33850 23923
L33812 23886
L33756 23867
L33718 23867
L33662 23886
L33643 23904
" />
<path d="M33306 23867
L33381 23867
L33418 23886
L33437 23904
L33475 23961
L33493 24036
L33493 24186
L33475 24223
L33456 24242
L33418 24261
L33344 24261
L33306 24242
L33287 24223
L33269 24186
L33269 24092
L33287 24054
L33306 24036
L33344 24017
L33418 24017
L33456 24036
L33475 24054
L33493 24092
" />
<path d="M31828 22255
L31846 22273
L31903 22292
L31940 22292
L31996 22273
L32034 22236
L32053 22198
L32071 22123
L32071 22067
L32053 21992
L32034 21955
L31996 21917
L31940 21898
L31903 21898
L31846 21917
L31828 21936
" />
<path d="M31696 21898
L31434 21898
L31603 22292
" />
<path d="M42251 27031
L42269 27050
L42326 27069
L42363 27069
L42419 27050
L42457 27012
L42476 26975
L42494 26900
L42494 26844
L42476 26769
L42457 26731
L42419 26694
L42363 26675
L42326 26675
L42269 26694
L42251 26712
" />
<path d="M42026 26844
L42063 26825
L42082 26806
L42101 26769
L42101 26750
L42082 26712
L42063 26694
L42026 26675
L41951 26675
L41913 26694
L41894 26712
L41876 26750
L41876 26769
L41894 26806
L41913 26825
L41951 26844
L42026 26844
L42063 26862
L42082 26881
L42101 26919
L42101 26994
L42082 27031
L42063 27050
L42026 27069
L41951 27069
L41913 27050
L41894 27031
L41876 26994
L41876 26919
L41894 26881
L41913 26862
L41951 26844
" />
<path d="M27022 24906
L27041 24924
L27097 24943
L27135 24943
L27191 24924
L27229 24887
L27247 24849
L27266 24775
L27266 24718
L27247 24643
L27229 24606
L27191 24568
L27135 24550
L27097 24550
L27041 24568
L27022 24587
" />
<path d="M26647 24943
L26872 24943
" />
<path d="M26760 24943
L26760 24550
L26797 24606
L26835 24643
L26872 24662
" />
<path d="M26497 24587
L26479 24568
L26441 24550
L26347 24550
L26310 24568
L26291 24587
L26272 24625
L26272 24662
L26291 24718
L26516 24943
L26272 24943
" />
<path d="M25851 22709
L25851 22409
" />
<path d="M25701 22559
L26001 22559
" />
<path d="M6611 3758
L6630 3739
L6648 3683
L6648 3646
L6630 3589
L6592 3552
L6555 3533
L6480 3514
L6423 3514
L6348 3533
L6311 3552
L6273 3589
L6255 3646
L6255 3683
L6273 3739
L6292 3758
" />
<path d="M6648 4133
L6648 3908
" />
<path d="M6648 4021
L6255 4021
L6311 3983
L6348 3946
L6367 3908
" />
<path d="M6255 4264
L6255 4508
L6405 4377
L6405 4433
L6423 4471
L6442 4489
L6480 4508
L6573 4508
L6611 4489
L6630 4471
L6648 4433
L6648 4321
L6630 4283
L6611 4264
" />
<path d="M8878 3160
L8578 3160
" />
<path d="M8728 3310
L8728 3010
" />
<path d="M59666 4263
L59685 4281
L59741 4300
L59779 4300
L59835 4281
L59873 4244
L59891 4206
L59910 4131
L59910 4075
L59891 4000
L59873 3963
L59835 3925
L59779 3906
L59741 3906
L59685 3925
L59666 3944
" />
<path d="M59291 4300
L59516 4300
" />
<path d="M59404 4300
L59404 3906
L59441 3963
L59479 4000
L59516 4019
" />
<path d="M58954 3906
L59029 3906
L59066 3925
L59085 3944
L59123 4000
L59141 4075
L59141 4225
L59123 4263
L59104 4281
L59066 4300
L58991 4300
L58954 4281
L58935 4263
L58916 4225
L58916 4131
L58935 4094
L58954 4075
L58991 4056
L59066 4056
L59104 4075
L59123 4094
L59141 4131
" />
<path d="M58526 2040
L58526 1740
" />
<path d="M58376 1890
L58676 1890
" />
<path d="M4442 12076
L4423 12095
L4404 12151
L4404 12189
L4423 12245
L4461 12283
L4498 12301
L4573 12320
L4629 12320
L4704 12301
L4742 12283
L4779 12245
L4798 12189
L4798 12151
L4779 12095
L4761 12076
" />
<path d="M4761 11926
L4779 11908
L4798 11870
L4798 11776
L4779 11739
L4761 11720
L4723 11701
L4686 11701
L4629 11720
L4404 11945
L4404 11701
" />
<path d="M4798 11458
L4798 11420
L4779 11383
L4761 11364
L4723 11345
L4648 11326
L4554 11326
L4479 11345
L4442 11364
L4423 11383
L4404 11420
L4404 11458
L4423 11495
L4442 11514
L4479 11533
L4554 11551
L4648 11551
L4723 11533
L4761 11514
L4779 11495
L4798 11458
" />
<path d="M4935 22969
L4954 22988
L5010 23007
L5048 23007
L5104 22988
L5141 22951
L5160 22913
L5179 22838
L5179 22782
L5160 22707
L5141 22669
L5104 22632
L5048 22613
L5010 22613
L4954 22632
L4935 22651
" />
<path d="M4785 22651
L4767 22632
L4729 22613
L4635 22613
L4598 22632
L4579 22651
L4560 22688
L4560 22726
L4579 22782
L4804 23007
L4560 23007
" />
<path d="M4204 22613
L4392 22613
L4410 22801
L4392 22782
L4354 22763
L4260 22763
L4223 22782
L4204 22801
L4185 22838
L4185 22932
L4204 22969
L4223 22988
L4260 23007
L4354 23007
L4392 22988
L4410 22969
" />
<path d="M8286 25608
L8304 25627
L8361 25646
L8398 25646
L8454 25627
L8492 25590
L8511 25552
L8529 25477
L8529 25421
L8511 25346
L8492 25308
L8454 25271
L8398 25252
L8361 25252
L8304 25271
L8286 25290
" />
<path d="M8136 25290
L8117 25271
L8079 25252
L7986 25252
L7948 25271
L7929 25290
L7911 25327
L7911 25365
L7929 25421
L8154 25646
L7911 25646
" />
<path d="M7573 25252
L7648 25252
L7686 25271
L7704 25290
L7742 25346
L7761 25421
L7761 25571
L7742 25608
L7723 25627
L7686 25646
L7611 25646
L7573 25627
L7555 25608
L7536 25571
L7536 25477
L7555 25440
L7573 25421
L7611 25402
L7686 25402
L7723 25421
L7742 25440
L7761 25477
" />
<path d="M18635 18494
L18654 18513
L18710 18532
L18748 18532
L18804 18513
L18841 18476
L18860 18438
L18879 18363
L18879 18307
L18860 18232
L18841 18194
L18804 18157
L18748 18138
L18710 18138
L18654 18157
L18635 18176
" />
<path d="M18504 18138
L18260 18138
L18392 18288
L18335 18288
L18298 18307
L18279 18326
L18260 18363
L18260 18457
L18279 18494
L18298 18513
L18335 18532
L18448 18532
L18485 18513
L18504 18494
" />
<path d="M17885 18532
L18110 18532
" />
<path d="M17998 18532
L17998 18138
L18035 18194
L18073 18232
L18110 18251
" />
<path d="M18636 17469
L18654 17488
L18711 17507
L18748 17507
L18804 17488
L18842 17451
L18861 17413
L18879 17338
L18879 17282
L18861 17207
L18842 17169
L18804 17132
L18748 17113
L18711 17113
L18654 17132
L18636 17151
" />
<path d="M18504 17113
L18261 17113
L18392 17263
L18336 17263
L18298 17282
L18279 17301
L18261 17338
L18261 17432
L18279 17469
L18298 17488
L18336 17507
L18448 17507
L18486 17488
L18504 17469
" />
<path d="M18111 17151
L18092 17132
L18054 17113
L17961 17113
L17923 17132
L17905 17151
L17886 17188
L17886 17226
L17905 17282
L18129 17507
L17886 17507
" />
<path d="M55679 18551
L55661 18570
L55642 18626
L55642 18664
L55661 18720
L55698 18758
L55736 18776
L55811 18795
L55867 18795
L55942 18776
L55979 18758
L56017 18720
L56036 18664
L56036 18626
L56017 18570
L55998 18551
" />
<path d="M55904 18214
L55642 18214
" />
<path d="M56054 18308
L55773 18401
L55773 18158
" />
<path d="M55642 17801
L55642 18026
" />
<path d="M55642 17914
L56036 17914
L55979 17951
L55942 17989
L55923 18026
" />
<path d="M61173 20639
L61192 20658
L61248 20676
L61286 20676
L61342 20658
L61379 20620
L61398 20583
L61417 20508
L61417 20451
L61398 20376
L61379 20339
L61342 20301
L61286 20283
L61248 20283
L61192 20301
L61173 20320
" />
<path d="M60836 20414
L60836 20676
" />
<path d="M60929 20264
L61023 20545
L60779 20545
" />
<path d="M60648 20320
L60629 20301
L60592 20283
L60498 20283
L60461 20301
L60442 20320
L60423 20358
L60423 20395
L60442 20451
L60667 20676
L60423 20676
" />
<path d="M22942 7801
L22923 7820
L22904 7876
L22904 7914
L22923 7970
L22960 8008
L22998 8026
L23073 8045
L23129 8045
L23204 8026
L23242 8008
L23279 7970
L23298 7914
L23298 7876
L23279 7820
L23260 7801
" />
<path d="M23167 7464
L22904 7464
" />
<path d="M23317 7558
L23035 7651
L23035 7408
" />
<path d="M23298 7070
L23298 7258
L23110 7276
L23129 7258
L23148 7220
L23148 7126
L23129 7089
L23110 7070
L23073 7051
L22979 7051
L22942 7070
L22923 7089
L22904 7126
L22904 7220
L22923 7258
L22942 7276
" />
<path d="M33204 11656
L33204 11262
" />
<path d="M32792 11618
L32811 11637
L32867 11656
L32904 11656
L32961 11637
L32998 11600
L33017 11562
L33036 11487
L33036 11431
L33017 11356
L32998 11318
L32961 11281
L32904 11262
L32867 11262
L32811 11281
L32792 11300
" />
<path d="M32642 11300
L32623 11281
L32586 11262
L32492 11262
L32454 11281
L32436 11300
L32417 11337
L32417 11375
L32436 11431
L32661 11656
L32417 11656
" />
<path d="M36135 24995
L35948 24864
" />
<path d="M36135 24770
L35742 24770
L35742 24920
L35761 24958
L35779 24976
L35817 24995
L35873 24995
L35911 24976
L35929 24958
L35948 24920
L35948 24770
" />
<path d="M36135 25370
L36135 25145
" />
<path d="M36135 25258
L35742 25258
L35798 25220
L35836 25183
L35854 25145
" />
<path d="M35742 25614
L35742 25651
L35761 25689
L35779 25708
L35817 25726
L35892 25745
L35985 25745
L36060 25726
L36098 25708
L36117 25689
L36135 25651
L36135 25614
L36117 25576
L36098 25558
L36060 25539
L35985 25520
L35892 25520
L35817 25539
L35779 25558
L35761 25576
L35742 25614
" />
<path d="M9754 8101
L9942 8233
" />
<path d="M9754 8326
L10148 8326
L10148 8176
L10129 8139
L10111 8120
L10073 8101
L10017 8101
L9979 8120
L9961 8139
L9942 8176
L9942 8326
" />
<path d="M9754 7726
L9754 7951
" />
<path d="M9754 7839
L10148 7839
L10092 7876
L10054 7914
L10036 7951
" />
<path d="M9754 7351
L9754 7576
" />
<path d="M9754 7464
L10148 7464
L10092 7501
L10054 7539
L10036 7576
" />
<path d="M36135 26045
L35948 25914
" />
<path d="M36135 25820
L35742 25820
L35742 25970
L35761 26008
L35779 26026
L35817 26045
L35873 26045
L35911 26026
L35929 26008
L35948 25970
L35948 25820
" />
<path d="M36135 26420
L36135 26195
" />
<path d="M36135 26308
L35742 26308
L35798 26270
L35836 26233
L35854 26195
" />
<path d="M35779 26570
L35761 26589
L35742 26626
L35742 26720
L35761 26758
L35779 26776
L35817 26795
L35854 26795
L35911 26776
L36135 26551
L36135 26795
" />
<path d="M10111 6395
L9923 6264
" />
<path d="M10111 6170
L9717 6170
L9717 6320
L9736 6358
L9754 6376
L9792 6395
L9848 6395
L9886 6376
L9904 6358
L9923 6320
L9923 6170
" />
<path d="M10111 6770
L10111 6545
" />
<path d="M10111 6658
L9717 6658
L9773 6620
L9811 6583
L9829 6545
" />
<path d="M9717 6901
L9717 7145
L9867 7014
L9867 7070
L9886 7108
L9904 7126
L9942 7145
L10036 7145
L10073 7126
L10092 7108
L10111 7070
L10111 6958
L10092 6920
L10073 6901
" />
<path d="M53510 3745
L53323 3614
" />
<path d="M53510 3520
L53117 3520
L53117 3670
L53136 3708
L53154 3726
L53192 3745
L53248 3745
L53286 3726
L53304 3708
L53323 3670
L53323 3520
" />
<path d="M53510 4120
L53510 3895
" />
<path d="M53510 4008
L53117 4008
L53173 3970
L53211 3933
L53229 3895
" />
<path d="M53286 4345
L53267 4308
L53248 4289
L53211 4270
L53192 4270
L53154 4289
L53136 4308
L53117 4345
L53117 4420
L53136 4458
L53154 4476
L53192 4495
L53211 4495
L53248 4476
L53267 4458
L53286 4420
L53286 4345
L53304 4308
L53323 4289
L53360 4270
L53435 4270
L53473 4289
L53492 4308
L53510 4345
L53510 4420
L53492 4458
L53473 4476
L53435 4495
L53360 4495
L53323 4476
L53304 4458
L53286 4420
" />
<path d="M53511 2545
L53323 2414
" />
<path d="M53511 2320
L53117 2320
L53117 2470
L53136 2508
L53154 2526
L53192 2545
L53248 2545
L53286 2526
L53304 2508
L53323 2470
L53323 2320
" />
<path d="M53511 2920
L53511 2695
" />
<path d="M53511 2808
L53117 2808
L53173 2770
L53211 2733
L53229 2695
" />
<path d="M53511 3108
L53511 3183
L53492 3220
L53473 3239
L53417 3276
L53342 3295
L53192 3295
L53154 3276
L53136 3258
L53117 3220
L53117 3145
L53136 3108
L53154 3089
L53192 3070
L53286 3070
L53323 3089
L53342 3108
L53361 3145
L53361 3220
L53342 3258
L53323 3276
L53286 3295
" />
<path d="M28385 4195
L28198 4064
" />
<path d="M28385 3970
L27992 3970
L27992 4120
L28011 4158
L28029 4176
L28067 4195
L28123 4195
L28161 4176
L28179 4158
L28198 4120
L28198 3970
" />
<path d="M28029 4345
L28011 4364
L27992 4401
L27992 4495
L28011 4533
L28029 4551
L28067 4570
L28104 4570
L28161 4551
L28385 4326
L28385 4570
" />
<path d="M28029 4720
L28011 4739
L27992 4776
L27992 4870
L28011 4908
L28029 4926
L28067 4945
L28104 4945
L28161 4926
L28385 4701
L28385 4945
" />
<path d="M8461 12395
L8273 12264
" />
<path d="M8461 12170
L8067 12170
L8067 12320
L8086 12358
L8104 12376
L8142 12395
L8198 12395
L8236 12376
L8254 12358
L8273 12320
L8273 12170
" />
<path d="M8104 12545
L8086 12564
L8067 12601
L8067 12695
L8086 12733
L8104 12751
L8142 12770
L8179 12770
L8236 12751
L8461 12526
L8461 12770
" />
<path d="M8067 12901
L8067 13145
L8217 13014
L8217 13070
L8236 13108
L8254 13126
L8292 13145
L8386 13145
L8423 13126
L8442 13108
L8461 13070
L8461 12958
L8442 12920
L8423 12901
" />
<path d="M28411 5295
L28223 5164
" />
<path d="M28411 5070
L28017 5070
L28017 5220
L28036 5258
L28054 5276
L28092 5295
L28148 5295
L28186 5276
L28204 5258
L28223 5220
L28223 5070
" />
<path d="M28054 5445
L28036 5464
L28017 5501
L28017 5595
L28036 5633
L28054 5651
L28092 5670
L28129 5670
L28186 5651
L28411 5426
L28411 5670
" />
<path d="M28148 6008
L28411 6008
" />
<path d="M27998 5914
L28279 5820
L28279 6064
" />
<path d="M8461 13845
L8273 13714
" />
<path d="M8461 13620
L8067 13620
L8067 13770
L8086 13808
L8104 13826
L8142 13845
L8198 13845
L8236 13826
L8254 13808
L8273 13770
L8273 13620
" />
<path d="M8104 13995
L8086 14014
L8067 14051
L8067 14145
L8086 14183
L8104 14201
L8142 14220
L8179 14220
L8236 14201
L8461 13976
L8461 14220
" />
<path d="M8067 14576
L8067 14389
L8254 14370
L8236 14389
L8217 14426
L8217 14520
L8236 14558
L8254 14576
L8292 14595
L8386 14595
L8423 14576
L8442 14558
L8461 14520
L8461 14426
L8442 14389
L8423 14370
" />
<path d="M46479 7451
L46667 7583
" />
<path d="M46479 7676
L46873 7676
L46873 7526
L46854 7489
L46835 7470
L46798 7451
L46742 7451
L46704 7470
L46685 7489
L46667 7526
L46667 7676
" />
<path d="M46835 7301
L46854 7283
L46873 7245
L46873 7151
L46854 7114
L46835 7095
L46798 7076
L46760 7076
L46704 7095
L46479 7320
L46479 7076
" />
<path d="M46704 6851
L46723 6889
L46742 6908
L46779 6926
L46798 6926
L46835 6908
L46854 6889
L46873 6851
L46873 6776
L46854 6739
L46835 6720
L46798 6701
L46779 6701
L46742 6720
L46723 6739
L46704 6776
L46704 6851
L46685 6889
L46667 6908
L46629 6926
L46554 6926
L46517 6908
L46498 6889
L46479 6851
L46479 6776
L46498 6739
L46517 6720
L46554 6701
L46629 6701
L46667 6720
L46685 6739
L46704 6776
" />
<path d="M46811 5745
L46623 5614
" />
<path d="M46811 5520
L46417 5520
L46417 5670
L46436 5708
L46454 5726
L46492 5745
L46548 5745
L46586 5726
L46604 5708
L46623 5670
L46623 5520
" />
<path d="M46454 5895
L46436 5914
L46417 5951
L46417 6045
L46436 6083
L46454 6101
L46492 6120
L46529 6120
L46586 6101
L46811 5876
L46811 6120
" />
<path d="M46811 6308
L46811 6383
L46792 6420
L46773 6439
L46717 6476
L46642 6495
L46492 6495
L46454 6476
L46436 6458
L46417 6420
L46417 6345
L46436 6308
L46454 6289
L46492 6270
L46586 6270
L46623 6289
L46642 6308
L46661 6345
L46661 6420
L46642 6458
L46623 6476
L46586 6495
" />
<path d="M16223 9589
L16354 9401
" />
<path d="M16448 9589
L16448 9195
L16298 9195
L16261 9214
L16242 9233
L16223 9270
L16223 9326
L16242 9364
L16261 9383
L16298 9401
L16448 9401
" />
<path d="M16092 9195
L15848 9195
L15979 9345
L15923 9345
L15886 9364
L15867 9383
L15848 9420
L15848 9514
L15867 9551
L15886 9570
L15923 9589
L16036 9589
L16073 9570
L16092 9551
" />
<path d="M15473 9589
L15698 9589
" />
<path d="M15586 9589
L15586 9195
L15623 9251
L15661 9289
L15698 9308
" />
<path d="M14923 9564
L15054 9376
" />
<path d="M15148 9564
L15148 9170
L14998 9170
L14961 9189
L14942 9208
L14923 9245
L14923 9301
L14942 9339
L14961 9357
L14998 9376
L15148 9376
" />
<path d="M14792 9170
L14548 9170
L14679 9320
L14623 9320
L14586 9339
L14567 9357
L14548 9395
L14548 9489
L14567 9526
L14586 9545
L14623 9564
L14736 9564
L14773 9545
L14792 9526
" />
<path d="M14417 9170
L14173 9170
L14304 9320
L14248 9320
L14211 9339
L14192 9357
L14173 9395
L14173 9489
L14192 9526
L14211 9545
L14248 9564
L14361 9564
L14398 9545
L14417 9526
" />
<path d="M8686 20432
L8817 20244
" />
<path d="M8911 20432
L8911 20038
L8761 20038
L8723 20057
L8704 20076
L8686 20113
L8686 20169
L8704 20207
L8723 20226
L8761 20244
L8911 20244
" />
<path d="M8554 20038
L8311 20038
L8442 20188
L8386 20188
L8348 20207
L8329 20226
L8311 20263
L8311 20357
L8329 20394
L8348 20413
L8386 20432
L8498 20432
L8536 20413
L8554 20394
" />
<path d="M8123 20432
L8048 20432
L8011 20413
L7992 20394
L7955 20338
L7936 20263
L7936 20113
L7955 20076
L7973 20057
L8011 20038
L8086 20038
L8123 20057
L8142 20076
L8161 20113
L8161 20207
L8142 20244
L8123 20263
L8086 20282
L8011 20282
L7973 20263
L7955 20244
L7936 20207
" />
<path d="M8710 19671
L8842 19483
" />
<path d="M8935 19671
L8935 19277
L8785 19277
L8748 19296
L8729 19315
L8710 19352
L8710 19408
L8729 19446
L8748 19465
L8785 19483
L8935 19483
" />
<path d="M8373 19408
L8373 19671
" />
<path d="M8467 19258
L8560 19540
L8317 19540
" />
<path d="M7961 19671
L8186 19671
" />
<path d="M8073 19671
L8073 19277
L8111 19333
L8148 19371
L8186 19390
" />
<path d="M19673 13714
L19804 13526
" />
<path d="M19898 13714
L19898 13320
L19748 13320
L19711 13339
L19692 13358
L19673 13395
L19673 13451
L19692 13489
L19711 13507
L19748 13526
L19898 13526
" />
<path d="M19317 13320
L19504 13320
L19523 13507
L19504 13489
L19467 13470
L19373 13470
L19336 13489
L19317 13507
L19298 13545
L19298 13639
L19317 13676
L19336 13695
L19373 13714
L19467 13714
L19504 13695
L19523 13676
" />
<path d="M18923 13714
L19148 13714
" />
<path d="M19036 13714
L19036 13320
L19073 13376
L19111 13414
L19148 13433
" />
<path d="M20823 13689
L20954 13501
" />
<path d="M21048 13689
L21048 13295
L20898 13295
L20861 13314
L20842 13333
L20823 13370
L20823 13426
L20842 13464
L20861 13483
L20898 13501
L21048 13501
" />
<path d="M20467 13295
L20654 13295
L20673 13483
L20654 13464
L20617 13445
L20523 13445
L20486 13464
L20467 13483
L20448 13520
L20448 13614
L20467 13651
L20486 13670
L20523 13689
L20617 13689
L20654 13670
L20673 13651
" />
<path d="M20298 13333
L20279 13314
L20242 13295
L20148 13295
L20111 13314
L20092 13333
L20073 13370
L20073 13408
L20092 13464
L20317 13689
L20073 13689
" />
<path d="M41745 5008
L41689 5026
L41595 5026
L41557 5008
L41539 4989
L41520 4951
L41520 4914
L41539 4876
L41557 4858
L41595 4839
L41670 4820
L41707 4801
L41726 4783
L41745 4745
L41745 4708
L41726 4670
L41707 4651
L41670 4633
L41576 4633
L41520 4651
" />
<path d="M41389 4633
L41295 5026
L41220 4745
L41145 5026
L41051 4633
" />
<path d="M40695 5026
L40920 5026
" />
<path d="M40808 5026
L40808 4633
L40845 4689
L40883 4726
L40920 4745
" />
<path d="M38445 10598
L38126 10598
L38088 10579
L38070 10561
L38051 10523
L38051 10448
L38070 10411
L38088 10392
L38126 10373
L38445 10373
" />
<path d="M38051 9980
L38051 10204
" />
<path d="M38051 10092
L38445 10092
L38388 10129
L38351 10167
L38332 10204
" />
<path d="M13320 14533
L13320 14851
L13301 14889
L13282 14908
L13245 14926
L13170 14926
L13132 14908
L13114 14889
L13095 14851
L13095 14533
" />
<path d="M12739 14664
L12739 14926
" />
<path d="M12832 14514
L12926 14795
L12683 14795
" />
<path d="M59507 8933
L59507 9251
L59489 9289
L59470 9308
L59432 9326
L59357 9326
L59320 9308
L59301 9289
L59282 9251
L59282 8933
" />
<path d="M58889 9326
L59114 9326
" />
<path d="M59001 9326
L59001 8933
L59039 8989
L59076 9026
L59114 9045
" />
<path d="M58514 9326
L58739 9326
" />
<path d="M58626 9326
L58626 8933
L58664 8989
L58701 9026
L58739 9045
" />
<path d="M59507 11283
L59507 11601
L59489 11639
L59470 11658
L59432 11676
L59357 11676
L59320 11658
L59301 11639
L59282 11601
L59282 11283
" />
<path d="M58889 11676
L59114 11676
" />
<path d="M59001 11676
L59001 11283
L59039 11339
L59076 11376
L59114 11395
" />
<path d="M58739 11320
L58720 11301
L58683 11283
L58589 11283
L58551 11301
L58533 11320
L58514 11358
L58514 11395
L58533 11451
L58758 11676
L58514 11676
" />
<path d="M59507 13583
L59507 13901
L59489 13939
L59470 13958
L59432 13976
L59357 13976
L59320 13958
L59301 13939
L59282 13901
L59282 13583
" />
<path d="M58889 13976
L59114 13976
" />
<path d="M59001 13976
L59001 13583
L59039 13639
L59076 13676
L59114 13695
" />
<path d="M58758 13583
L58514 13583
L58645 13733
L58589 13733
L58551 13751
L58533 13770
L58514 13808
L58514 13901
L58533 13939
L58551 13958
L58589 13976
L58701 13976
L58739 13958
L58758 13939
" />
<path d="M59507 15883
L59507 16201
L59489 16239
L59470 16258
L59432 16276
L59357 16276
L59320 16258
L59301 16239
L59282 16201
L59282 15883
" />
<path d="M58889 16276
L59114 16276
" />
<path d="M59001 16276
L59001 15883
L59039 15939
L59076 15976
L59114 15995
" />
<path d="M58551 16014
L58551 16276
" />
<path d="M58645 15864
L58739 16145
L58495 16145
" />
<path d="M59507 18183
L59507 18501
L59489 18539
L59470 18558
L59432 18576
L59357 18576
L59320 18558
L59301 18539
L59282 18501
L59282 18183
" />
<path d="M58889 18576
L59114 18576
" />
<path d="M59001 18576
L59001 18183
L59039 18239
L59076 18276
L59114 18295
" />
<path d="M58533 18183
L58720 18183
L58739 18370
L58720 18351
L58683 18333
L58589 18333
L58551 18351
L58533 18370
L58514 18408
L58514 18501
L58533 18539
L58551 18558
L58589 18576
L58683 18576
L58720 18558
L58739 18539
" />
<path d="M46642 27026
L46623 27045
L46604 27101
L46604 27139
L46623 27195
L46661 27233
L46698 27251
L46773 27270
L46829 27270
L46904 27251
L46942 27233
L46979 27195
L46998 27139
L46998 27101
L46979 27045
L46961 27026
" />
<path d="M46961 26876
L46979 26858
L46998 26820
L46998 26726
L46979 26689
L46961 26670
L46923 26651
L46886 26651
L46829 26670
L46604 26895
L46604 26651
" />
<path d="M46604 26276
L46604 26501
" />
<path d="M46604 26389
L46998 26389
L46942 26426
L46904 26464
L46886 26501
" />
<path d="M13607 17583
L13607 17901
L13589 17939
L13570 17958
L13532 17976
L13457 17976
L13420 17958
L13401 17939
L13382 17901
L13382 17583
" />
<path d="M12989 17976
L13214 17976
" />
<path d="M13101 17976
L13101 17583
L13139 17639
L13176 17676
L13214 17695
" />
<path d="M12651 17583
L12726 17583
L12764 17601
L12783 17620
L12820 17676
L12839 17751
L12839 17901
L12820 17939
L12801 17958
L12764 17976
L12689 17976
L12651 17958
L12633 17939
L12614 17901
L12614 17808
L12633 17770
L12651 17751
L12689 17733
L12764 17733
L12801 17751
L12820 17770
L12839 17808
" />
<path d="M29865 25836
L29884 25873
L29922 25911
L29978 25967
L29997 26004
L29997 26042
" />
<path d="M29903 26023
L29922 26061
L29959 26098
L30034 26117
L30165 26117
L30240 26098
L30278 26061
L30297 26023
L30297 25948
L30278 25911
L30240 25873
L30165 25854
L30034 25854
L29959 25873
L29922 25911
L29903 25948
L29903 26023
" />
<path d="M29903 25480
L29903 25704
" />
<path d="M29903 25592
L30297 25592
L30240 25629
L30203 25667
L30184 25704
" />
<path d="M4143 7761
L4161 7798
L4199 7836
L4255 7892
L4274 7929
L4274 7967
" />
<path d="M4180 7948
L4199 7986
L4236 8023
L4311 8042
L4443 8042
L4518 8023
L4555 7986
L4574 7948
L4574 7873
L4555 7836
L4518 7798
L4443 7779
L4311 7779
L4236 7798
L4199 7836
L4180 7873
L4180 7948
" />
<path d="M4536 7629
L4555 7611
L4574 7573
L4574 7479
L4555 7442
L4536 7423
L4499 7405
L4461 7405
L4405 7423
L4180 7648
L4180 7405
" />
<path d="M58331 3411
L58349 3448
L58387 3486
L58443 3542
L58462 3579
L58462 3617
" />
<path d="M58368 3598
L58387 3636
L58424 3673
L58499 3692
L58631 3692
L58706 3673
L58743 3636
L58762 3598
L58762 3523
L58743 3486
L58706 3448
L58631 3429
L58499 3429
L58424 3448
L58387 3486
L58368 3523
L58368 3598
" />
<path d="M58762 3073
L58762 3261
L58574 3279
L58593 3261
L58612 3223
L58612 3129
L58593 3092
L58574 3073
L58537 3055
L58443 3055
L58406 3073
L58387 3092
L58368 3129
L58368 3223
L58387 3261
L58406 3279
" />
<path d="M33600 4836
L33619 4873
L33656 4911
L33713 4967
L33731 5004
L33731 5042
" />
<path d="M33638 5023
L33656 5061
L33694 5098
L33769 5117
L33900 5117
L33975 5098
L34012 5061
L34031 5023
L34031 4948
L34012 4911
L33975 4873
L33900 4854
L33769 4854
L33694 4873
L33656 4911
L33638 4948
L33638 5023
" />
<path d="M34031 4723
L34031 4461
L33638 4629
" />
<path d="M2793 13536
L2811 13573
L2849 13611
L2905 13667
L2924 13704
L2924 13742
" />
<path d="M2830 13723
L2849 13761
L2886 13798
L2961 13817
L3093 13817
L3168 13798
L3205 13761
L3224 13723
L3224 13648
L3205 13611
L3168 13573
L3093 13554
L2961 13554
L2886 13573
L2849 13611
L2830 13648
L2830 13723
" />
<path d="M3055 13329
L3074 13367
L3093 13386
L3130 13404
L3149 13404
L3186 13386
L3205 13367
L3224 13329
L3224 13254
L3205 13217
L3186 13198
L3149 13180
L3130 13180
L3093 13198
L3074 13217
L3055 13254
L3055 13329
L3036 13367
L3018 13386
L2980 13404
L2905 13404
L2868 13386
L2849 13367
L2830 13329
L2830 13254
L2849 13217
L2868 13198
L2905 13180
L2980 13180
L3018 13198
L3036 13217
L3055 13254
" />
<path d="M49795 3718
L49832 3699
L49870 3662
L49926 3606
L49964 3587
L50001 3587
" />
<path d="M49982 3681
L50020 3662
L50057 3624
L50076 3549
L50076 3418
L50057 3343
L50020 3306
L49982 3287
L49907 3287
L49870 3306
L49832 3343
L49814 3418
L49814 3549
L49832 3624
L49870 3662
L49907 3681
L49982 3681
" />
<path d="M49439 3681
L49664 3681
" />
<path d="M49551 3681
L49551 3287
L49589 3343
L49626 3381
L49664 3399
" />
<path d="M49064 3681
L49289 3681
" />
<path d="M49176 3681
L49176 3287
L49214 3343
L49251 3381
L49289 3399
" />
<path d="M15395 4202
L15432 4183
L15470 4146
L15526 4090
L15564 4071
L15601 4071
" />
<path d="M15582 4165
L15620 4146
L15657 4108
L15676 4033
L15676 3902
L15657 3827
L15620 3790
L15582 3771
L15507 3771
L15470 3790
L15432 3827
L15414 3902
L15414 4033
L15432 4108
L15470 4146
L15507 4165
L15582 4165
" />
<path d="M15039 4165
L15264 4165
" />
<path d="M15151 4165
L15151 3771
L15189 3827
L15226 3865
L15264 3883
" />
<path d="M14908 3771
L14664 3771
L14795 3921
L14739 3921
L14701 3940
L14683 3958
L14664 3996
L14664 4090
L14683 4127
L14701 4146
L14739 4165
L14851 4165
L14889 4146
L14908 4127
" />
<path d="M20145 8563
L20182 8544
L20220 8506
L20276 8450
L20314 8431
L20351 8431
" />
<path d="M20332 8525
L20370 8506
L20407 8469
L20426 8394
L20426 8263
L20407 8188
L20370 8150
L20332 8131
L20257 8131
L20220 8150
L20182 8188
L20164 8263
L20164 8394
L20182 8469
L20220 8506
L20257 8525
L20332 8525
" />
<path d="M19789 8525
L20014 8525
" />
<path d="M19901 8525
L19901 8131
L19939 8188
L19976 8225
L20014 8244
" />
<path d="M19433 8131
L19620 8131
L19639 8319
L19620 8300
L19583 8281
L19489 8281
L19451 8300
L19433 8319
L19414 8356
L19414 8450
L19433 8488
L19451 8506
L19489 8525
L19583 8525
L19620 8506
L19639 8488
" />
<path d="M2893 20373
L2911 20411
L2949 20448
L3005 20504
L3024 20542
L3024 20579
" />
<path d="M2930 20561
L2949 20598
L2986 20636
L3061 20654
L3193 20654
L3268 20636
L3305 20598
L3324 20561
L3324 20486
L3305 20448
L3268 20411
L3193 20392
L3061 20392
L2986 20411
L2949 20448
L2930 20486
L2930 20561
" />
<path d="M2930 20017
L2930 20242
" />
<path d="M2930 20129
L3324 20129
L3268 20167
L3230 20204
L3211 20242
" />
<path d="M3324 19886
L3324 19623
L2930 19792
" />
<path d="M25179 4930
L25573 4930
L25573 4836
L25554 4780
L25517 4742
L25479 4724
L25404 4705
L25348 4705
L25273 4724
L25236 4742
L25198 4780
L25179 4836
L25179 4930
" />
<path d="M25179 4330
L25179 4555
" />
<path d="M25179 4442
L25573 4442
L25517 4480
L25479 4517
L25460 4555
" />
<path d="M23979 4930
L24373 4930
L24373 4836
L24354 4780
L24317 4742
L24279 4724
L24204 4705
L24148 4705
L24073 4724
L24036 4742
L23998 4780
L23979 4836
L23979 4930
" />
<path d="M24335 4555
L24354 4536
L24373 4499
L24373 4405
L24354 4367
L24335 4349
L24298 4330
L24260 4330
L24204 4349
L23979 4574
L23979 4330
" />
<path d="M22779 4930
L23173 4930
L23173 4836
L23154 4780
L23117 4742
L23079 4724
L23004 4705
L22948 4705
L22873 4724
L22836 4742
L22798 4780
L22779 4836
L22779 4930
" />
<path d="M23173 4574
L23173 4330
L23023 4461
L23023 4405
L23004 4367
L22985 4349
L22948 4330
L22854 4330
L22817 4349
L22798 4367
L22779 4405
L22779 4517
L22798 4555
L22817 4574
" />
<path d="M2795 16998
L3188 16998
L3188 16904
L3170 16848
L3132 16810
L3095 16792
L3020 16773
L2963 16773
L2888 16792
L2851 16810
L2813 16848
L2795 16904
L2795 16998
" />
<path d="M3057 16435
L2795 16435
" />
<path d="M3207 16529
L2926 16623
L2926 16379
" />
<path d="M5058 15531
L5452 15531
" />
<path d="M5058 15306
L5283 15475
" />
<path d="M5452 15306
L5227 15531
" />
<path d="M5151 18002
L5151 17814
" />
<path d="M5039 18039
L5432 17908
L5039 17777
" />
<path d="M7011 4629
L7011 4236
L6917 4236
L6861 4254
L6823 4292
L6804 4329
L6786 4404
L6786 4461
L6804 4536
L6823 4573
L6861 4611
L6917 4629
L7011 4629
" />
<path d="M6429 4236
L6617 4236
L6636 4423
L6617 4404
L6579 4386
L6486 4386
L6448 4404
L6429 4423
L6411 4461
L6411 4554
L6429 4592
L6448 4611
L6486 4629
L6579 4629
L6617 4611
L6636 4592
" />
<path d="M8103 6893
L8103 6499
" />
<path d="M7878 6893
L8046 6668
" />
<path d="M7878 6499
L8103 6724
" />
<path d="M5613 6761
L5425 6761
" />
<path d="M5650 6873
L5519 6480
L5388 6873
" />
<path d="M59820 4223
L60214 4223
L60214 4129
L60195 4073
L60157 4035
L60120 4017
L60045 3998
L59989 3998
L59914 4017
L59876 4035
L59839 4073
L59820 4129
L59820 4223
" />
<path d="M60045 3773
L60064 3810
L60082 3829
L60120 3848
L60139 3848
L60176 3829
L60195 3810
L60214 3773
L60214 3698
L60195 3660
L60176 3642
L60139 3623
L60120 3623
L60082 3642
L60064 3660
L60045 3698
L60045 3773
L60026 3810
L60007 3829
L59970 3848
L59895 3848
L59857 3829
L59839 3810
L59820 3773
L59820 3698
L59839 3660
L59857 3642
L59895 3623
L59970 3623
L60007 3642
L60026 3660
L60045 3698
" />
<path d="M62084 2756
L62477 2756
" />
<path d="M62084 2531
L62309 2700
" />
<path d="M62477 2531
L62252 2756
" />
<path d="M62176 5227
L62176 5039
" />
<path d="M62064 5264
L62458 5133
L62064 5002
" />
<path d="M40441 25054
L40441 24661
" />
<path d="M40029 25017
L40048 25036
L40104 25054
L40141 25054
L40198 25036
L40235 24998
L40254 24961
L40273 24886
L40273 24829
L40254 24754
L40235 24717
L40198 24679
L40141 24661
L40104 24661
L40048 24679
L40029 24698
" />
<path d="M39654 25054
L39879 25054
" />
<path d="M39766 25054
L39766 24661
L39804 24717
L39841 24754
L39879 24773
" />
<path d="M39236 26276
L39424 26408
" />
<path d="M39236 26501
L39630 26501
L39630 26351
L39611 26314
L39593 26295
L39555 26276
L39499 26276
L39461 26295
L39443 26314
L39424 26351
L39424 26501
" />
<path d="M39630 26145
L39630 25901
L39480 26033
L39480 25976
L39461 25939
L39443 25920
L39405 25901
L39311 25901
L39274 25920
L39255 25939
L39236 25976
L39236 26089
L39255 26126
L39274 26145
" />
<path d="M40623 20071
L40754 19883
" />
<path d="M40848 20071
L40848 19677
L40698 19677
L40660 19696
L40642 19715
L40623 19752
L40623 19808
L40642 19846
L40660 19865
L40698 19883
L40848 19883
" />
<path d="M40286 19808
L40286 20071
" />
<path d="M40379 19658
L40473 19940
L40229 19940
" />
<path d="M28123 2121
L28254 1933
" />
<path d="M28348 2121
L28348 1727
L28198 1727
L28160 1746
L28142 1765
L28123 1802
L28123 1858
L28142 1896
L28160 1915
L28198 1933
L28348 1933
" />
<path d="M27767 1727
L27954 1727
L27973 1915
L27954 1896
L27917 1877
L27823 1877
L27786 1896
L27767 1915
L27748 1952
L27748 2046
L27767 2083
L27786 2102
L27823 2121
L27917 2121
L27954 2102
L27973 2083
" />
<path d="M45498 20076
L45629 19889
" />
<path d="M45723 20076
L45723 19683
L45573 19683
L45536 19701
L45517 19720
L45498 19758
L45498 19814
L45517 19851
L45536 19870
L45573 19889
L45723 19889
" />
<path d="M45161 19683
L45236 19683
L45273 19701
L45292 19720
L45329 19776
L45348 19851
L45348 20001
L45329 20039
L45311 20058
L45273 20076
L45198 20076
L45161 20058
L45142 20039
L45123 20001
L45123 19908
L45142 19870
L45161 19851
L45198 19833
L45273 19833
L45311 19851
L45329 19870
L45348 19908
" />
<path d="M24523 1821
L24654 1633
" />
<path d="M24748 1821
L24748 1427
L24598 1427
L24560 1446
L24542 1465
L24523 1502
L24523 1558
L24542 1596
L24560 1615
L24598 1633
L24748 1633
" />
<path d="M24392 1427
L24129 1427
L24298 1821
" />
<path d="M21498 3632
L21629 3444
" />
<path d="M21723 3632
L21723 3238
L21573 3238
L21536 3257
L21517 3276
L21498 3313
L21498 3369
L21517 3407
L21536 3426
L21573 3444
L21723 3444
" />
<path d="M21273 3407
L21311 3388
L21329 3369
L21348 3332
L21348 3313
L21329 3276
L21311 3257
L21273 3238
L21198 3238
L21161 3257
L21142 3276
L21123 3313
L21123 3332
L21142 3369
L21161 3388
L21198 3407
L21273 3407
L21311 3426
L21329 3444
L21348 3482
L21348 3557
L21329 3594
L21311 3613
L21273 3632
L21198 3632
L21161 3613
L21142 3594
L21123 3557
L21123 3482
L21142 3444
L21161 3426
L21198 3407
" />
<path d="M39860 16376
L39992 16189
" />
<path d="M40085 16376
L40085 15983
L39935 15983
L39898 16001
L39879 16020
L39860 16058
L39860 16114
L39879 16151
L39898 16170
L39935 16189
L40085 16189
" />
<path d="M39523 16114
L39523 16376
" />
<path d="M39617 15964
L39710 16245
L39467 16245
" />
<path d="M39354 15983
L39111 15983
L39242 16133
L39186 16133
L39148 16151
L39129 16170
L39111 16208
L39111 16301
L39129 16339
L39148 16358
L39186 16376
L39298 16376
L39336 16358
L39354 16339
" />
<path d="M11635 22076
L11767 21889
" />
<path d="M11860 22076
L11860 21683
L11710 21683
L11673 21701
L11654 21720
L11635 21758
L11635 21814
L11654 21851
L11673 21870
L11710 21889
L11860 21889
" />
<path d="M11298 21814
L11298 22076
" />
<path d="M11392 21664
L11485 21945
L11242 21945
" />
<path d="M10923 21683
L10998 21683
L11035 21701
L11054 21720
L11092 21776
L11110 21851
L11110 22001
L11092 22039
L11073 22058
L11035 22076
L10960 22076
L10923 22058
L10904 22039
L10885 22001
L10885 21908
L10904 21870
L10923 21851
L10960 21833
L11035 21833
L11073 21851
L11092 21870
L11110 21908
" />
<path d="M11611 22732
L11742 22544
" />
<path d="M11836 22732
L11836 22338
L11686 22338
L11648 22357
L11630 22376
L11611 22413
L11611 22469
L11630 22507
L11648 22526
L11686 22544
L11836 22544
" />
<path d="M11273 22469
L11273 22732
" />
<path d="M11367 22319
L11461 22601
L11217 22601
" />
<path d="M11105 22338
L10842 22338
L11011 22732
" />
<path d="M27986 21682
L28117 21494
" />
<path d="M28211 21682
L28211 21288
L28061 21288
L28023 21307
L28004 21326
L27986 21363
L27986 21419
L28004 21457
L28023 21476
L28061 21494
L28211 21494
" />
<path d="M27648 21288
L27723 21288
L27761 21307
L27779 21326
L27817 21382
L27836 21457
L27836 21607
L27817 21644
L27798 21663
L27761 21682
L27686 21682
L27648 21663
L27629 21644
L27611 21607
L27611 21513
L27629 21476
L27648 21457
L27686 21438
L27761 21438
L27798 21457
L27817 21476
L27836 21513
" />
<path d="M27273 21419
L27273 21682
" />
<path d="M27367 21269
L27461 21551
L27217 21551
" />
<path d="M14786 22732
L14917 22544
" />
<path d="M15011 22732
L15011 22338
L14861 22338
L14823 22357
L14804 22376
L14786 22413
L14786 22469
L14804 22507
L14823 22526
L14861 22544
L15011 22544
" />
<path d="M14448 22338
L14523 22338
L14561 22357
L14579 22376
L14617 22432
L14636 22507
L14636 22657
L14617 22694
L14598 22713
L14561 22732
L14486 22732
L14448 22713
L14429 22694
L14411 22657
L14411 22563
L14429 22526
L14448 22507
L14486 22488
L14561 22488
L14598 22507
L14617 22526
L14636 22563
" />
<path d="M14055 22338
L14242 22338
L14261 22526
L14242 22507
L14204 22488
L14111 22488
L14073 22507
L14055 22526
L14036 22563
L14036 22657
L14055 22694
L14073 22713
L14111 22732
L14204 22732
L14242 22713
L14261 22694
" />
<path d="M27986 22732
L28117 22544
" />
<path d="M28211 22732
L28211 22338
L28061 22338
L28023 22357
L28004 22376
L27986 22413
L27986 22469
L28004 22507
L28023 22526
L28061 22544
L28211 22544
" />
<path d="M27648 22338
L27723 22338
L27761 22357
L27779 22376
L27817 22432
L27836 22507
L27836 22657
L27817 22694
L27798 22713
L27761 22732
L27686 22732
L27648 22713
L27629 22694
L27611 22657
L27611 22563
L27629 22526
L27648 22507
L27686 22488
L27761 22488
L27798 22507
L27817 22526
L27836 22563
" />
<path d="M27273 22338
L27348 22338
L27386 22357
L27404 22376
L27442 22432
L27461 22507
L27461 22657
L27442 22694
L27423 22713
L27386 22732
L27311 22732
L27273 22713
L27255 22694
L27236 22657
L27236 22563
L27255 22526
L27273 22507
L27311 22488
L27386 22488
L27423 22507
L27442 22526
L27461 22563
" />
<path d="M14810 23782
L14942 23594
" />
<path d="M15035 23782
L15035 23388
L14885 23388
L14848 23407
L14829 23426
L14810 23463
L14810 23519
L14829 23557
L14848 23576
L14885 23594
L15035 23594
" />
<path d="M14473 23388
L14548 23388
L14585 23407
L14604 23426
L14642 23482
L14660 23557
L14660 23707
L14642 23744
L14623 23763
L14585 23782
L14511 23782
L14473 23763
L14454 23744
L14436 23707
L14436 23613
L14454 23576
L14473 23557
L14511 23538
L14585 23538
L14623 23557
L14642 23576
L14660 23613
" />
<path d="M14304 23388
L14042 23388
L14211 23782
" />
<path d="M50710 16721
L50842 16533
" />
<path d="M50935 16721
L50935 16327
L50785 16327
L50748 16346
L50729 16365
L50710 16402
L50710 16458
L50729 16496
L50748 16515
L50785 16533
L50935 16533
" />
<path d="M50373 16327
L50448 16327
L50485 16346
L50504 16365
L50542 16421
L50560 16496
L50560 16646
L50542 16683
L50523 16702
L50485 16721
L50411 16721
L50373 16702
L50354 16683
L50336 16646
L50336 16552
L50354 16515
L50373 16496
L50411 16477
L50485 16477
L50523 16496
L50542 16515
L50560 16552
" />
<path d="M50111 16496
L50148 16477
L50167 16458
L50186 16421
L50186 16402
L50167 16365
L50148 16346
L50111 16327
L50036 16327
L49998 16346
L49979 16365
L49961 16402
L49961 16421
L49979 16458
L49998 16477
L50036 16496
L50111 16496
L50148 16515
L50167 16533
L50186 16571
L50186 16646
L50167 16683
L50148 16702
L50111 16721
L50036 16721
L49998 16702
L49979 16683
L49961 16646
L49961 16571
L49979 16533
L49998 16515
L50036 16496
" />
<path d="M50736 17721
L50867 17533
" />
<path d="M50961 17721
L50961 17327
L50811 17327
L50773 17346
L50754 17365
L50736 17402
L50736 17458
L50754 17496
L50773 17515
L50811 17533
L50961 17533
" />
<path d="M50398 17327
L50473 17327
L50511 17346
L50529 17365
L50567 17421
L50586 17496
L50586 17646
L50567 17683
L50548 17702
L50511 17721
L50436 17721
L50398 17702
L50379 17683
L50361 17646
L50361 17552
L50379 17515
L50398 17496
L50436 17477
L50511 17477
L50548 17496
L50567 17515
L50586 17552
" />
<path d="M50173 17721
L50098 17721
L50061 17702
L50042 17683
L50005 17627
L49986 17552
L49986 17402
L50005 17365
L50023 17346
L50061 17327
L50136 17327
L50173 17346
L50192 17365
L50211 17402
L50211 17496
L50192 17533
L50173 17552
L50136 17571
L50061 17571
L50023 17552
L50005 17533
L49986 17496
" />
<path d="M50736 13721
L50867 13533
" />
<path d="M50961 13721
L50961 13327
L50811 13327
L50773 13346
L50754 13365
L50736 13402
L50736 13458
L50754 13496
L50773 13515
L50811 13533
L50961 13533
" />
<path d="M50604 13327
L50342 13327
L50511 13721
" />
<path d="M50117 13327
L50079 13327
L50042 13346
L50023 13365
L50005 13402
L49986 13477
L49986 13571
L50005 13646
L50023 13683
L50042 13702
L50079 13721
L50117 13721
L50154 13702
L50173 13683
L50192 13646
L50211 13571
L50211 13477
L50192 13402
L50173 13365
L50154 13346
L50117 13327
" />
<path d="M50723 12721
L50854 12533
" />
<path d="M50948 12721
L50948 12327
L50798 12327
L50761 12346
L50742 12365
L50723 12402
L50723 12458
L50742 12496
L50761 12515
L50798 12533
L50948 12533
" />
<path d="M50592 12327
L50329 12327
L50498 12721
" />
<path d="M49973 12721
L50198 12721
" />
<path d="M50086 12721
L50086 12327
L50123 12383
L50161 12421
L50198 12440
" />
<path d="M25034 7239
L25428 7239
L25428 7089
L25409 7051
L25390 7033
L25353 7014
L25296 7014
L25259 7033
L25240 7051
L25221 7089
L25221 7239
" />
<path d="M25390 6864
L25409 6845
L25428 6808
L25428 6714
L25409 6676
L25390 6658
L25353 6639
L25315 6639
L25259 6658
L25034 6883
L25034 6639
" />
<path d="M43842 9576
L44236 9576
L44236 9426
L44217 9389
L44198 9370
L44161 9351
L44104 9351
L44067 9370
L44048 9389
L44029 9426
L44029 9576
" />
<path d="M44198 9201
L44217 9183
L44236 9145
L44236 9051
L44217 9014
L44198 8995
L44161 8976
L44123 8976
L44067 8995
L43842 9220
L43842 8976
" />
<path d="M43842 8601
L43842 8826
" />
<path d="M43842 8714
L44236 8714
L44179 8751
L44142 8789
L44123 8826
" />
<path d="M22748 21101
L22748 20708
L22598 20708
L22561 20726
L22542 20745
L22523 20783
L22523 20839
L22542 20876
L22561 20895
L22598 20914
L22748 20914
" />
<path d="M22373 20745
L22354 20726
L22317 20708
L22223 20708
L22186 20726
L22167 20745
L22148 20783
L22148 20820
L22167 20876
L22392 21101
L22148 21101
" />
<path d="M21998 20745
L21979 20726
L21942 20708
L21848 20708
L21811 20726
L21792 20745
L21773 20783
L21773 20820
L21792 20876
L22017 21101
L21773 21101
" />
<path d="M19920 20083
L19920 20401
L19901 20439
L19882 20458
L19845 20476
L19770 20476
L19732 20458
L19714 20439
L19695 20401
L19695 20083
" />
<path d="M19526 20120
L19507 20101
L19470 20083
L19376 20083
L19339 20101
L19320 20120
L19301 20158
L19301 20195
L19320 20251
L19545 20476
L19301 20476
" />
<path d="M45820 19533
L45820 19851
L45801 19889
L45782 19908
L45745 19926
L45670 19926
L45632 19908
L45614 19889
L45595 19851
L45595 19533
" />
<path d="M45445 19533
L45201 19533
L45332 19683
L45276 19683
L45239 19701
L45220 19720
L45201 19758
L45201 19851
L45220 19889
L45239 19908
L45276 19926
L45389 19926
L45426 19908
L45445 19889
" />
<path d="M43260 25351
L43260 24958
L43110 24958
L43073 24976
L43054 24995
L43035 25033
L43035 25089
L43054 25126
L43073 25145
L43110 25164
L43260 25164
" />
<path d="M42660 25351
L42885 25351
" />
<path d="M42773 25351
L42773 24958
L42810 25014
L42848 25051
L42885 25070
" />
<path d="M37011 19143
L37011 18750
L36861 18750
L36823 18768
L36804 18787
L36786 18825
L36786 18881
L36804 18918
L36823 18937
L36861 18956
L37011 18956
" />
<path d="M36448 18881
L36448 19143
" />
<path d="M36542 18731
L36636 19012
L36392 19012
" />
<path d="M40234 16889
L40628 16889
L40628 16739
L40609 16701
L40590 16683
L40553 16664
L40496 16664
L40459 16683
L40440 16701
L40421 16739
L40421 16889
" />
<path d="M40628 16308
L40628 16495
L40440 16514
L40459 16495
L40478 16458
L40478 16364
L40459 16326
L40440 16308
L40403 16289
L40309 16289
L40271 16308
L40253 16326
L40234 16364
L40234 16458
L40253 16495
L40271 16514
" />
<path d="M40234 18389
L40628 18389
L40628 18239
L40609 18201
L40590 18183
L40553 18164
L40496 18164
L40459 18183
L40440 18201
L40421 18239
L40421 18389
" />
<path d="M40628 17826
L40628 17901
L40609 17939
L40590 17958
L40534 17995
L40459 18014
L40309 18014
L40271 17995
L40253 17976
L40234 17939
L40234 17864
L40253 17826
L40271 17808
L40309 17789
L40403 17789
L40440 17808
L40459 17826
L40478 17864
L40478 17939
L40459 17976
L40440 17995
L40403 18014
" />
<path d="M37034 19389
L37428 19389
L37428 19239
L37409 19201
L37390 19183
L37353 19164
L37296 19164
L37259 19183
L37240 19201
L37221 19239
L37221 19389
" />
<path d="M37428 19033
L37428 18770
L37034 18939
" />
<path d="M39085 25176
L39085 24783
L38935 24783
L38898 24801
L38879 24820
L38860 24858
L38860 24914
L38879 24951
L38898 24970
L38935 24989
L39085 24989
" />
<path d="M38635 24951
L38673 24933
L38692 24914
L38710 24876
L38710 24858
L38692 24820
L38673 24801
L38635 24783
L38560 24783
L38523 24801
L38504 24820
L38485 24858
L38485 24876
L38504 24914
L38523 24933
L38560 24951
L38635 24951
L38673 24970
L38692 24989
L38710 25026
L38710 25101
L38692 25139
L38673 25158
L38635 25176
L38560 25176
L38523 25158
L38504 25139
L38485 25101
L38485 25026
L38504 24989
L38523 24970
L38560 24951
" />
<path d="M20184 9389
L20578 9389
L20578 9239
L20559 9201
L20540 9183
L20503 9164
L20446 9164
L20409 9183
L20390 9201
L20371 9239
L20371 9389
" />
<path d="M20184 8976
L20184 8901
L20203 8864
L20221 8845
L20278 8808
L20353 8789
L20503 8789
L20540 8808
L20559 8826
L20578 8864
L20578 8939
L20559 8976
L20540 8995
L20503 9014
L20409 9014
L20371 8995
L20353 8976
L20334 8939
L20334 8864
L20353 8826
L20371 8808
L20409 8789
" />
<path d="M42842 8676
L43236 8676
L43236 8526
L43217 8489
L43198 8470
L43161 8451
L43104 8451
L43067 8470
L43048 8489
L43029 8526
L43029 8676
" />
<path d="M42842 8076
L42842 8301
" />
<path d="M42842 8189
L43236 8189
L43179 8226
L43142 8264
L43123 8301
" />
<path d="M43236 7833
L43236 7795
L43217 7758
L43198 7739
L43161 7720
L43086 7701
L42992 7701
L42917 7720
L42879 7739
L42861 7758
L42842 7795
L42842 7833
L42861 7870
L42879 7889
L42917 7908
L42992 7926
L43086 7926
L43161 7908
L43198 7889
L43217 7870
L43236 7833
" />
<path d="M4034 2926
L4428 2926
L4428 2776
L4409 2739
L4390 2720
L4353 2701
L4296 2701
L4259 2720
L4240 2739
L4221 2776
L4221 2926
" />
<path d="M4034 2326
L4034 2551
" />
<path d="M4034 2439
L4428 2439
L4371 2476
L4334 2514
L4315 2551
" />
<path d="M4390 2176
L4409 2158
L4428 2120
L4428 2026
L4409 1989
L4390 1970
L4353 1951
L4315 1951
L4259 1970
L4034 2195
L4034 1951
" />
<path d="M57084 7326
L57478 7326
L57478 7176
L57459 7139
L57440 7120
L57403 7101
L57346 7101
L57309 7120
L57290 7139
L57271 7176
L57271 7326
" />
<path d="M57084 6726
L57084 6951
" />
<path d="M57084 6839
L57478 6839
L57421 6876
L57384 6914
L57365 6951
" />
<path d="M57478 6595
L57478 6351
L57328 6483
L57328 6426
L57309 6389
L57290 6370
L57253 6351
L57159 6351
L57121 6370
L57103 6389
L57084 6426
L57084 6539
L57103 6576
L57121 6595
" />
<path d="M63648 5884
L63648 5490
L63498 5490
L63461 5509
L63442 5528
L63423 5565
L63423 5622
L63442 5659
L63461 5678
L63498 5697
L63648 5697
" />
<path d="M63048 5884
L63273 5884
" />
<path d="M63161 5884
L63161 5490
L63198 5547
L63236 5584
L63273 5603
" />
<path d="M62711 5622
L62711 5884
" />
<path d="M62804 5472
L62898 5753
L62654 5753
" />
<path d="M63598 3968
L63598 3575
L63448 3575
L63411 3593
L63392 3612
L63373 3650
L63373 3706
L63392 3743
L63411 3762
L63448 3781
L63598 3781
" />
<path d="M62998 3968
L63223 3968
" />
<path d="M63111 3968
L63111 3575
L63148 3631
L63186 3668
L63223 3687
" />
<path d="M62642 3575
L62829 3575
L62848 3762
L62829 3743
L62792 3725
L62698 3725
L62661 3743
L62642 3762
L62623 3800
L62623 3893
L62642 3931
L62661 3950
L62698 3968
L62792 3968
L62829 3950
L62848 3931
" />
<path d="M63273 22184
L63273 21790
L63123 21790
L63086 21809
L63067 21828
L63048 21865
L63048 21922
L63067 21959
L63086 21978
L63123 21997
L63273 21997
" />
<path d="M62673 22184
L62898 22184
" />
<path d="M62786 22184
L62786 21790
L62823 21847
L62861 21884
L62898 21903
" />
<path d="M62336 21790
L62411 21790
L62448 21809
L62467 21828
L62504 21884
L62523 21959
L62523 22109
L62504 22147
L62486 22165
L62448 22184
L62373 22184
L62336 22165
L62317 22147
L62298 22109
L62298 22015
L62317 21978
L62336 21959
L62373 21940
L62448 21940
L62486 21959
L62504 21978
L62523 22015
" />
<path d="M37350 3276
L37743 3276
L37743 3126
L37725 3089
L37706 3070
L37668 3051
L37612 3051
L37575 3070
L37556 3089
L37537 3126
L37537 3276
" />
<path d="M37350 2676
L37350 2901
" />
<path d="M37350 2789
L37743 2789
L37687 2826
L37650 2864
L37631 2901
" />
<path d="M37575 2451
L37593 2489
L37612 2508
L37650 2526
L37668 2526
L37706 2508
L37725 2489
L37743 2451
L37743 2376
L37725 2339
L37706 2320
L37668 2301
L37650 2301
L37612 2320
L37593 2339
L37575 2376
L37575 2451
L37556 2489
L37537 2508
L37500 2526
L37425 2526
L37387 2508
L37368 2489
L37350 2451
L37350 2376
L37368 2339
L37387 2320
L37425 2301
L37500 2301
L37537 2320
L37556 2339
L37575 2376
" />
<path d="M44442 3376
L44836 3376
L44836 3226
L44817 3189
L44798 3170
L44761 3151
L44704 3151
L44667 3170
L44648 3189
L44629 3226
L44629 3376
" />
<path d="M44798 3001
L44817 2983
L44836 2945
L44836 2851
L44817 2814
L44798 2795
L44761 2776
L44723 2776
L44667 2795
L44442 3020
L44442 2776
" />
<path d="M44836 2533
L44836 2495
L44817 2458
L44798 2439
L44761 2420
L44686 2401
L44592 2401
L44517 2420
L44479 2439
L44461 2458
L44442 2495
L44442 2533
L44461 2570
L44479 2589
L44517 2608
L44592 2626
L44686 2626
L44761 2608
L44798 2589
L44817 2570
L44836 2533
" />
<path d="M16350 26926
L16743 26926
L16743 26776
L16725 26739
L16706 26720
L16668 26701
L16612 26701
L16575 26720
L16556 26739
L16537 26776
L16537 26926
" />
<path d="M16706 26551
L16725 26533
L16743 26495
L16743 26401
L16725 26364
L16706 26345
L16668 26326
L16631 26326
L16575 26345
L16350 26570
L16350 26326
" />
<path d="M16743 26195
L16743 25933
L16350 26101
" />
<path d="M28811 28234
L28811 27840
L28661 27840
L28623 27859
L28604 27878
L28586 27915
L28586 27972
L28604 28009
L28623 28028
L28661 28047
L28811 28047
" />
<path d="M28454 27840
L28211 27840
L28342 27990
L28286 27990
L28248 28009
L28229 28028
L28211 28065
L28211 28159
L28229 28197
L28248 28215
L28286 28234
L28398 28234
L28436 28215
L28454 28197
" />
<path d="M39148 7276
L39148 6883
L38998 6883
L38961 6901
L38942 6920
L38923 6958
L38923 7014
L38942 7051
L38961 7070
L38998 7089
L39148 7089
" />
<path d="M38548 7276
L38773 7276
" />
<path d="M38661 7276
L38661 6883
L38698 6939
L38736 6976
L38773 6995
" />
<path d="M38173 7276
L38398 7276
" />
<path d="M38286 7276
L38286 6883
L38323 6939
L38361 6976
L38398 6995
" />
<path d="M22236 26621
L22424 26752
" />
<path d="M22236 26846
L22630 26846
L22630 26696
L22611 26658
L22593 26640
L22555 26621
L22499 26621
L22461 26640
L22443 26658
L22424 26696
L22424 26846
" />
<path d="M22630 26490
L22630 26227
L22236 26396
" />
<path d="M22630 26115
L22630 25871
L22480 26002
L22480 25946
L22461 25908
L22443 25890
L22405 25871
L22311 25871
L22274 25890
L22255 25908
L22236 25946
L22236 26058
L22255 26096
L22274 26115
" />
<path d="M4962 16896
L5149 17027
" />
<path d="M4962 17121
L5355 17121
L5355 16971
L5337 16933
L5318 16915
L5280 16896
L5224 16896
L5187 16915
L5168 16933
L5149 16971
L5149 17121
" />
<path d="M5355 16765
L5355 16502
L4962 16671
" />
<path d="M5224 16183
L4962 16183
" />
<path d="M5374 16277
L5093 16371
L5093 16127
" />
<path d="M31957 22589
L31957 22776
" />
<path d="M32089 22383
L31957 22589
L31826 22383
" />
<path d="M31489 22776
L31714 22776
" />
<path d="M31601 22776
L31601 22383
L31639 22439
L31676 22476
L31714 22495
" />
<path d="M15542 3176
L15936 3176
L15936 3026
L15917 2989
L15898 2970
L15861 2951
L15804 2951
L15767 2970
L15748 2989
L15729 3026
L15729 3176
" />
<path d="M15898 2801
L15917 2783
L15936 2745
L15936 2651
L15917 2614
L15898 2595
L15861 2576
L15823 2576
L15767 2595
L15542 2820
L15542 2576
" />
<path d="M15936 2445
L15936 2201
L15786 2333
L15786 2276
L15767 2239
L15748 2220
L15711 2201
L15617 2201
L15579 2220
L15561 2239
L15542 2276
L15542 2389
L15561 2426
L15579 2445
" />
<path d="M53820.5 28448.7 A1343.5 1343.5 0.0 0 0 51920.5 28448.7 " />
<path d="M56974 20607
L56974 28481
" />
<path d="M56974 20607
L48666 20607
" />
<path d="M48666 20607
L48666 28481
" />
<path d="M48666 28481
L56974 28481
" />
<path d="M32987 23590
L34168 23590
" />
<path d="M34168 22606
L32987 22606
" />
<path d="M32353 22606
L31172 22606
" />
<path d="M31172 23590
L32353 23590
" />
<path d="M42601 27252
L41814 27252
" />
<path d="M41814 26445
L42601 26445
" />
<path d="M26076 22756
L27414 22756
" />
<path d="M27414 26004
L27414 23642
" />
<path d="M26076 26004
L26076 23642
" />
<path d="M25681 22558
L26114 22558
" />
<path d="M25878 22322
L25878 22794
" />
<path d="M8531 3329
L8531 4667
" />
<path d="M5283 4667
L7645 4667
" />
<path d="M5283 3329
L7645 3329
" />
<path d="M8729 2934
L8729 3367
" />
<path d="M8965 3131
L8493 3131
" />
<path d="M58751 2087
L60089 2087
" />
<path d="M60089 5335
L60089 2973
" />
<path d="M58751 5335
L58751 2973
" />
<path d="M58356 1889
L58789 1889
" />
<path d="M58553 1653
L58553 2125
" />
<path d="M4976 12077
L4189 12077
" />
<path d="M4189 11270
L4976 11270
" />
<path d="M5076 22327
L4288 22327
" />
<path d="M4288 21520
L5076 21520
" />
<path d="M7639 25970
L8426 25970
" />
<path d="M8426 26777
L7639 26777
" />
<path d="M18776 17852
L17988 17852
" />
<path d="M17988 17045
L18776 17045
" />
<path d="M18776 16827
L17989 16827
" />
<path d="M17989 16020
L18776 16020
" />
<path d="M56156 17036
L56156 16760
" />
<path d="M55684 16760
L55684 17036
" />
<path d="M59658 20262
L59382 20262
" />
<path d="M59382 20734
L59658 20734
" />
<path d="M23476 7952
L22688 7952
" />
<path d="M22688 7145
L23476 7145
" />
<path d="M35645 12373
L35645 12659
" />
<path d="M29995 12373
L29995 12688
" />
<path d="M29995 18023
L29995 17708
" />
<path d="M35645 18023
L35645 17708
" />
<path d="M35645 12373
L35330 12373
" />
<path d="M35645 18023
L35330 18023
" />
<path d="M29995 18023
L30310 18023
" />
<path d="M29995 12373
L30310 12373
" />
<path d="M35645 12659
L36147 12659
" />
<path d="M36351 24825
L35564 24825
" />
<path d="M35564 25671
L36351 25671
" />
<path d="M10326 7425
L9539 7425
" />
<path d="M9539 8271
L10326 8271
" />
<path d="M36351 25875
L35564 25875
" />
<path d="M35564 26721
L36351 26721
" />
<path d="M10326 6225
L9539 6225
" />
<path d="M9539 7071
L10326 7071
" />
<path d="M52939 4421
L53726 4421
" />
<path d="M53726 3575
L52939 3575
" />
<path d="M52939 3321
L53726 3321
" />
<path d="M53726 2475
L52939 2475
" />
<path d="M27814 4871
L28601 4871
" />
<path d="M28601 4025
L27814 4025
" />
<path d="M8676 12375
L7889 12375
" />
<path d="M7889 13221
L8676 13221
" />
<path d="M28626 5175
L27839 5175
" />
<path d="M27839 6021
L28626 6021
" />
<path d="M7889 14371
L8676 14371
" />
<path d="M8676 13525
L7889 13525
" />
<path d="M46264 7621
L47051 7621
" />
<path d="M47051 6775
L46264 6775
" />
<path d="M47026 5575
L46239 5575
" />
<path d="M46239 6421
L47026 6421
" />
<path d="M16243 9805
L16243 9017
" />
<path d="M15397 9017
L15397 9805
" />
<path d="M14247 8992
L14247 9779
" />
<path d="M15093 9779
L15093 8992
" />
<path d="M8826 18925
L8039 18925
" />
<path d="M8039 19771
L8826 19771
" />
<path d="M8064 20821
L8851 20821
" />
<path d="M8851 19975
L8064 19975
" />
<path d="M19843 13929
L19843 13142
" />
<path d="M18997 13142
L18997 13929
" />
<path d="M20147 13117
L20147 13905
" />
<path d="M20993 13905
L20993 13117
" />
<circle cx="41220.5" cy="4548.72" r="1802.78" /> 
<path d="M38720 7048
L43720 7048
" />
<path d="M43720 7048
L43720 2048
" />
<path d="M43720 2048
L38720 2048
" />
<path d="M38720 2048
L38720 7048
" />
<path d="M36709 10889
L36985 10889
" />
<path d="M36985 10889
L36985 10791
" />
<path d="M36985 9787
L36985 9708
" />
<path d="M36985 9708
L36709 9708
" />
<path d="M15270 16648
L15270 13498
" />
<path d="M10970 13498
L10970 16648
" />
<path d="M15270 13498
L10970 13498
" />
<path d="M10970 16648
L15270 16648
" />
<path d="M15270 14898
L14970 14898
" />
<path d="M14970 14898
L14970 15298
" />
<path d="M14970 15298
L15270 15298
" />
<path d="M59837 8734
L59837 8754
" />
<path d="M58203 8734
L58203 8792
" />
<path d="M58203 10762
L58203 10705
" />
<path d="M59837 10762
L59837 10705
" />
<path d="M59837 8734
L58203 8734
" />
<path d="M59837 10762
L58203 10762
" />
<path d="M59837 8754
L60388 8754
" />
<path d="M59837 11084
L59837 11104
" />
<path d="M58203 11084
L58203 11142
" />
<path d="M58203 13112
L58203 13055
" />
<path d="M59837 13112
L59837 13055
" />
<path d="M59837 11084
L58203 11084
" />
<path d="M59837 13112
L58203 13112
" />
<path d="M59837 11104
L60388 11104
" />
<path d="M59837 13384
L59837 13404
" />
<path d="M58203 13384
L58203 13442
" />
<path d="M58203 15412
L58203 15355
" />
<path d="M59837 15412
L59837 15355
" />
<path d="M59837 13384
L58203 13384
" />
<path d="M59837 15412
L58203 15412
" />
<path d="M59837 13404
L60388 13404
" />
<path d="M59837 15684
L59837 15704
" />
<path d="M58203 15684
L58203 15742
" />
<path d="M58203 17712
L58203 17655
" />
<path d="M59837 17712
L59837 17655
" />
<path d="M59837 15684
L58203 15684
" />
<path d="M59837 17712
L58203 17712
" />
<path d="M59837 15704
L60388 15704
" />
<path d="M59837 17984
L59837 18004
" />
<path d="M58203 17984
L58203 18042
" />
<path d="M58203 20012
L58203 19955
" />
<path d="M59837 20012
L59837 19955
" />
<path d="M59837 17984
L58203 17984
" />
<path d="M59837 20012
L58203 20012
" />
<path d="M59837 18004
L60388 18004
" />
<path d="M47176 27177
L46389 27177
" />
<path d="M46389 26370
L47176 26370
" />
<path d="M11220 18848
L11220 20198
" />
<path d="M15020 18848
L15020 20198
" />
<path d="M11020 18398
L15220 18398
" />
<path d="M12420 18798
L12420 18298
" />
<path d="M13820 18798
L13820 18298
" />
<path d="M15220 18848
L11020 18848
" />
<path d="M11020 20198
L15220 20198
" />
<path d="M15220 18298
L15220 20198
" />
<path d="M11020 18298
L11020 20198
" />
<path d="M11020 18298
L15220 18298
" />
<path d="M30485 25011
L30406 25011
" />
<path d="M30406 25011
L30406 26586
" />
<path d="M30406 26586
L30485 26586
" />
<path d="M33555 26428
L33634 26428
" />
<path d="M33634 26428
L33634 26664
" />
<path d="M33634 26664
L33555 26664
" />
<path d="M33555 25916
L33634 25916
" />
<path d="M33634 25916
L33634 26153
" />
<path d="M33634 26153
L33555 26153
" />
<path d="M33555 25444
L33634 25444
" />
<path d="M33634 25444
L33634 25680
" />
<path d="M33634 25680
L33555 25680
" />
<path d="M33555 24932
L33634 24932
" />
<path d="M33634 24932
L33634 25168
" />
<path d="M33634 25168
L33555 25168
" />
<path d="M30485 24696
L30485 26901
" />
<path d="M30485 26901
L33555 26901
" />
<path d="M33555 26901
L33555 24696
" />
<path d="M33555 24696
L30485 24696
" />
<path d="M4762 6936
L4683 6936
" />
<path d="M4683 6936
L4683 8511
" />
<path d="M4683 8511
L4762 8511
" />
<path d="M7833 8353
L7911 8353
" />
<path d="M7911 8353
L7911 8589
" />
<path d="M7911 8589
L7833 8589
" />
<path d="M7833 7841
L7911 7841
" />
<path d="M7911 7841
L7911 8078
" />
<path d="M7911 8078
L7833 8078
" />
<path d="M7833 7369
L7911 7369
" />
<path d="M7911 7369
L7911 7605
" />
<path d="M7911 7605
L7833 7605
" />
<path d="M7833 6857
L7911 6857
" />
<path d="M7911 6857
L7911 7093
" />
<path d="M7911 7093
L7833 7093
" />
<path d="M4762 6621
L4762 8826
" />
<path d="M4762 8826
L7833 8826
" />
<path d="M7833 8826
L7833 6621
" />
<path d="M7833 6621
L4762 6621
" />
<path d="M58143 4161
L58221 4161
" />
<path d="M58221 4161
L58221 2586
" />
<path d="M58221 2586
L58143 2586
" />
<path d="M55072 2743
L54993 2743
" />
<path d="M54993 2743
L54993 2507
" />
<path d="M54993 2507
L55072 2507
" />
<path d="M55072 3255
L54993 3255
" />
<path d="M54993 3255
L54993 3019
" />
<path d="M54993 3019
L55072 3019
" />
<path d="M55072 3728
L54993 3728
" />
<path d="M54993 3728
L54993 3491
" />
<path d="M54993 3491
L55072 3491
" />
<path d="M55072 4239
L54993 4239
" />
<path d="M54993 4239
L54993 4003
" />
<path d="M54993 4003
L55072 4003
" />
<path d="M58143 4476
L58143 2271
" />
<path d="M58143 2271
L55072 2271
" />
<path d="M55072 2271
L55072 4476
" />
<path d="M55072 4476
L58143 4476
" />
<path d="M33412 5586
L33491 5586
" />
<path d="M33491 5586
L33491 4011
" />
<path d="M33491 4011
L33412 4011
" />
<path d="M30341 4168
L30262 4168
" />
<path d="M30262 4168
L30262 3932
" />
<path d="M30262 3932
L30341 3932
" />
<path d="M30341 4680
L30262 4680
" />
<path d="M30262 4680
L30262 4444
" />
<path d="M30262 4444
L30341 4444
" />
<path d="M30341 5153
L30262 5153
" />
<path d="M30262 5153
L30262 4916
" />
<path d="M30262 4916
L30341 4916
" />
<path d="M30341 5664
L30262 5664
" />
<path d="M30262 5664
L30262 5428
" />
<path d="M30262 5428
L30341 5428
" />
<path d="M33412 5901
L33412 3696
" />
<path d="M33412 3696
L30341 3696
" />
<path d="M30341 3696
L30341 5901
" />
<path d="M30341 5901
L33412 5901
" />
<path d="M3412 12711
L3333 12711
" />
<path d="M3333 12711
L3333 14286
" />
<path d="M3333 14286
L3412 14286
" />
<path d="M6483 14128
L6561 14128
" />
<path d="M6561 14128
L6561 14364
" />
<path d="M6561 14364
L6483 14364
" />
<path d="M6483 13616
L6561 13616
" />
<path d="M6561 13616
L6561 13853
" />
<path d="M6561 13853
L6483 13853
" />
<path d="M6483 13144
L6561 13144
" />
<path d="M6561 13144
L6561 13380
" />
<path d="M6561 13380
L6483 13380
" />
<path d="M6483 12632
L6561 12632
" />
<path d="M6561 12632
L6561 12868
" />
<path d="M6561 12868
L6483 12868
" />
<path d="M3412 12396
L3412 14601
" />
<path d="M3412 14601
L6483 14601
" />
<path d="M6483 14601
L6483 12396
" />
<path d="M6483 12396
L3412 12396
" />
<path d="M50357 3906
L50357 3827
" />
<path d="M50357 3827
L48783 3827
" />
<path d="M48783 3827
L48783 3906
" />
<path d="M48940 6977
L48940 7056
" />
<path d="M48940 7056
L48704 7056
" />
<path d="M48704 7056
L48704 6977
" />
<path d="M49452 6977
L49452 7056
" />
<path d="M49452 7056
L49216 7056
" />
<path d="M49216 7056
L49216 6977
" />
<path d="M49924 6977
L49924 7056
" />
<path d="M49924 7056
L49688 7056
" />
<path d="M49688 7056
L49688 6977
" />
<path d="M50436 6977
L50436 7056
" />
<path d="M50436 7056
L50200 7056
" />
<path d="M50200 7056
L50200 6977
" />
<path d="M50672 3906
L48468 3906
" />
<path d="M48468 3906
L48468 6977
" />
<path d="M48468 6977
L50672 6977
" />
<path d="M50672 6977
L50672 3906
" />
<path d="M15957 4390
L15957 4311
" />
<path d="M15957 4311
L14383 4311
" />
<path d="M14383 4311
L14383 4390
" />
<path d="M14540 7461
L14540 7540
" />
<path d="M14540 7540
L14304 7540
" />
<path d="M14304 7540
L14304 7461
" />
<path d="M15052 7461
L15052 7540
" />
<path d="M15052 7540
L14816 7540
" />
<path d="M14816 7540
L14816 7461
" />
<path d="M15524 7461
L15524 7540
" />
<path d="M15524 7540
L15288 7540
" />
<path d="M15288 7540
L15288 7461
" />
<path d="M16036 7461
L16036 7540
" />
<path d="M16036 7540
L15800 7540
" />
<path d="M15800 7540
L15800 7461
" />
<path d="M16272 4390
L14068 4390
" />
<path d="M14068 4390
L14068 7461
" />
<path d="M14068 7461
L16272 7461
" />
<path d="M16272 7461
L16272 4390
" />
<path d="M20707 8751
L20707 8672
" />
<path d="M20707 8672
L19133 8672
" />
<path d="M19133 8672
L19133 8751
" />
<path d="M19290 11821
L19290 11900
" />
<path d="M19290 11900
L19054 11900
" />
<path d="M19054 11900
L19054 11821
" />
<path d="M19802 11821
L19802 11900
" />
<path d="M19802 11900
L19566 11900
" />
<path d="M19566 11900
L19566 11821
" />
<path d="M20274 11821
L20274 11900
" />
<path d="M20274 11900
L20038 11900
" />
<path d="M20038 11900
L20038 11821
" />
<path d="M20786 11821
L20786 11900
" />
<path d="M20786 11900
L20550 11900
" />
<path d="M20550 11900
L20550 11821
" />
<path d="M21022 8751
L18818 8751
" />
<path d="M18818 8751
L18818 11821
" />
<path d="M18818 11821
L21022 11821
" />
<path d="M21022 11821
L21022 8751
" />
<path d="M3512 19361
L3433 19361
" />
<path d="M3433 19361
L3433 20936
" />
<path d="M3433 20936
L3512 20936
" />
<path d="M6583 20778
L6661 20778
" />
<path d="M6661 20778
L6661 21014
" />
<path d="M6661 21014
L6583 21014
" />
<path d="M6583 20266
L6661 20266
" />
<path d="M6661 20266
L6661 20503
" />
<path d="M6661 20503
L6583 20503
" />
<path d="M6583 19794
L6661 19794
" />
<path d="M6661 19794
L6661 20030
" />
<path d="M6661 20030
L6583 20030
" />
<path d="M6583 19282
L6661 19282
" />
<path d="M6661 19282
L6661 19518
" />
<path d="M6661 19518
L6583 19518
" />
<path d="M3512 19046
L3512 21251
" />
<path d="M3512 21251
L6583 21251
" />
<path d="M6583 21251
L6583 19046
" />
<path d="M6583 19046
L3512 19046
" />
<path d="M24157 5486
L24157 4068
" />
<path d="M24983 5486
L24983 4068
" />
<path d="M24688 4679
L24452 4679
" />
<path d="M24452 4679
L24570 4797
" />
<path d="M24570 4797
L24649 4718
" />
<path d="M24649 4718
L24550 4718
" />
<path d="M24550 4718
L24570 4738
" />
<path d="M24767 4836
L24373 4836
" />
<path d="M24570 4639
L24570 4442
" />
<path d="M24570 4836
L24767 4639
" />
<path d="M24767 4639
L24373 4639
" />
<path d="M24373 4639
L24570 4836
" />
<path d="M22957 5486
L22957 4068
" />
<path d="M23783 5486
L23783 4068
" />
<path d="M23488 4679
L23252 4679
" />
<path d="M23252 4679
L23370 4797
" />
<path d="M23370 4797
L23449 4718
" />
<path d="M23449 4718
L23350 4718
" />
<path d="M23350 4718
L23370 4738
" />
<path d="M23567 4836
L23173 4836
" />
<path d="M23370 4639
L23370 4442
" />
<path d="M23370 4836
L23567 4639
" />
<path d="M23567 4639
L23173 4639
" />
<path d="M23173 4639
L23370 4836
" />
<path d="M21757 5486
L21757 4068
" />
<path d="M22583 5486
L22583 4068
" />
<path d="M22288 4679
L22052 4679
" />
<path d="M22052 4679
L22170 4797
" />
<path d="M22170 4797
L22249 4718
" />
<path d="M22249 4718
L22150 4718
" />
<path d="M22150 4718
L22170 4738
" />
<path d="M22367 4836
L21973 4836
" />
<path d="M22170 4639
L22170 4442
" />
<path d="M22170 4836
L22367 4639
" />
<path d="M22367 4639
L21973 4639
" />
<path d="M21973 4639
L22170 4836
" />
<path d="M4095 16609
L3918 16825
" />
<path d="M3918 16825
L4272 16825
" />
<path d="M4272 16825
L4095 16609
" />
<path d="M3878 16609
L4311 16609
" />
<path d="M4784 15999
L4646 15999
" />
<path d="M3406 15999
L3544 15999
" />
<path d="M4784 17593
L4646 17593
" />
<path d="M4784 15821
L4646 15821
" />
<path d="M3406 15821
L3544 15821
" />
<path d="M3406 17593
L3544 17593
" />
<path d="M4784 15821
L4784 17593
" />
<path d="M3406 15821
L3406 17593
" />
<path d="M6818 5573
L6602 5396
" />
<path d="M6602 5396
L6602 5750
" />
<path d="M6602 5750
L6818 5573
" />
<path d="M6818 5357
L6818 5790
" />
<path d="M7428 6262
L7428 6124
" />
<path d="M7428 4884
L7428 5022
" />
<path d="M5834 6262
L5834 6124
" />
<path d="M7606 6262
L7606 6124
" />
<path d="M7606 4884
L7606 5022
" />
<path d="M5834 4884
L5834 5022
" />
<path d="M7606 6262
L5834 6262
" />
<path d="M7606 4884
L5834 4884
" />
<path d="M61120 3834
L60943 4050
" />
<path d="M60943 4050
L61297 4050
" />
<path d="M61297 4050
L61120 3834
" />
<path d="M60903 3834
L61337 3834
" />
<path d="M61809 3224
L61671 3224
" />
<path d="M60431 3224
L60569 3224
" />
<path d="M61809 4818
L61671 4818
" />
<path d="M61809 3046
L61671 3046
" />
<path d="M60431 3046
L60569 3046
" />
<path d="M60431 4818
L60569 4818
" />
<path d="M61809 3046
L61809 4818
" />
<path d="M60431 3046
L60431 4818
" />
<path d="M39240 24512
L39240 24492
" />
<path d="M40874 24512
L40874 24455
" />
<path d="M40874 22484
L40874 22542
" />
<path d="M39240 22484
L39240 22542
" />
<path d="M39240 24512
L40874 24512
" />
<path d="M39240 22484
L40874 22484
" />
<path d="M39240 24492
L38689 24492
" />
<path d="M40743 26605
L40743 25817
" />
<path d="M39897 25817
L39897 26605
" />
<path d="M40164 21221
L40951 21221
" />
<path d="M40951 20375
L40164 20375
" />
<path d="M27664 3271
L28451 3271
" />
<path d="M28451 2425
L27664 2425
" />
<path d="M45039 20421
L45826 20421
" />
<path d="M45826 19575
L45039 19575
" />
<path d="M24064 2971
L24851 2971
" />
<path d="M24851 2125
L24064 2125
" />
<path d="M21826 2125
L21039 2125
" />
<path d="M21039 2971
L21826 2971
" />
<path d="M40101 15075
L39314 15075
" />
<path d="M39314 15921
L40101 15921
" />
<path d="M11776 22275
L10988 22275
" />
<path d="M10988 23121
L11776 23121
" />
<path d="M11751 21225
L10964 21225
" />
<path d="M10964 22071
L11751 22071
" />
<path d="M28126 20175
L27339 20175
" />
<path d="M27339 21021
L28126 21021
" />
<path d="M14926 21225
L14139 21225
" />
<path d="M14139 22071
L14926 22071
" />
<path d="M28126 21225
L27339 21225
" />
<path d="M27339 22071
L28126 22071
" />
<path d="M14951 22275
L14164 22275
" />
<path d="M14164 23121
L14951 23121
" />
<path d="M50064 17871
L50851 17871
" />
<path d="M50851 17025
L50064 17025
" />
<path d="M50089 18871
L50876 18871
" />
<path d="M50876 18025
L50089 18025
" />
<path d="M50089 14871
L50876 14871
" />
<path d="M50876 14025
L50089 14025
" />
<path d="M50076 13871
L50864 13871
" />
<path d="M50864 13025
L50076 13025
" />
<path d="M27720 7448
L36720 7448
" />
<path d="M36720 7448
L36720 6448
" />
<path d="M36720 6448
L27720 6448
" />
<path d="M26610 7558
L27220 7558
" />
<path d="M27720 7448
L27720 6448
" />
<path d="M27220 6338
L26610 6338
" />
<path d="M26610 6338
L26610 7558
" />
<path d="M45620 8598
L47620 8598
" />
<path d="M47620 8598
L47620 9598
" />
<path d="M47620 9598
L45620 9598
" />
<path d="M44510 9708
L45120 9708
" />
<path d="M45620 9598
L45620 8598
" />
<path d="M45120 8488
L44510 8488
" />
<path d="M44510 8488
L44510 9708
" />
<path d="M22820 19398
L22820 10398
" />
<path d="M22820 10398
L21820 10398
" />
<path d="M21820 10398
L21820 19398
" />
<path d="M22930 20508
L22930 19898
" />
<path d="M22820 19398
L21820 19398
" />
<path d="M21710 19898
L21710 20508
" />
<path d="M21710 20508
L22930 20508
" />
<path d="M19817 20745
L19817 21245
" />
<path d="M16923 20745
L16923 21245
" />
<path d="M16923 27502
L16923 27002
" />
<path d="M19817 27502
L19817 27002
" />
<path d="M19817 20745
L16923 20745
" />
<path d="M19817 27502
L16923 27502
" />
<path d="M19817 21245
L20323 21245
" />
<path d="M45323 19302
L45323 18802
" />
<path d="M48217 19302
L48217 18802
" />
<path d="M48217 12545
L48217 13045
" />
<path d="M45323 12545
L45323 13045
" />
<path d="M45323 19302
L48217 19302
" />
<path d="M45323 12545
L48217 12545
" />
<path d="M45323 18802
L44817 18802
" />
<path d="M42385 24448
L42385 25058
" />
<path d="M42385 25058
L43605 25058
" />
<path d="M43605 25058
L43605 24448
" />
<path d="M43495 23948
L43495 19948
" />
<path d="M43495 19948
L42495 19948
" />
<path d="M42495 19948
L42495 23948
" />
<path d="M43495 23948
L42495 23948
" />
<path d="M36220 21473
L36220 22473
" />
<path d="M36110 20363
L36110 20973
" />
<path d="M36220 21473
L37220 21473
" />
<path d="M37330 20973
L37330 20363
" />
<path d="M37330 20363
L36110 20363
" />
<path d="M37220 21473
L37220 22473
" />
<path d="M37220 22473
L36220 22473
" />
<path d="M42920 17098
L43920 17098
" />
<path d="M41810 17208
L42420 17208
" />
<path d="M42920 17098
L42920 16098
" />
<path d="M42420 15988
L41810 15988
" />
<path d="M41810 15988
L41810 17208
" />
<path d="M42920 16098
L43920 16098
" />
<path d="M43920 16098
L43920 17098
" />
<path d="M42920 18598
L43920 18598
" />
<path d="M41810 18708
L42420 18708
" />
<path d="M42920 18598
L42920 17598
" />
<path d="M42420 17488
L41810 17488
" />
<path d="M41810 17488
L41810 18708
" />
<path d="M42920 17598
L43920 17598
" />
<path d="M43920 17598
L43920 18598
" />
<path d="M39720 19598
L40720 19598
" />
<path d="M38610 19708
L39220 19708
" />
<path d="M39720 19598
L39720 18598
" />
<path d="M39220 18488
L38610 18488
" />
<path d="M38610 18488
L38610 19708
" />
<path d="M39720 18598
L40720 18598
" />
<path d="M40720 18598
L40720 19598
" />
<path d="M38295 26498
L38295 27498
" />
<path d="M38185 25388
L38185 25998
" />
<path d="M38295 26498
L39295 26498
" />
<path d="M39405 25998
L39405 25388
" />
<path d="M39405 25388
L38185 25388
" />
<path d="M39295 26498
L39295 27498
" />
<path d="M39295 27498
L38295 27498
" />
<path d="M22370 8488
L21760 8488
" />
<path d="M21760 8488
L21760 9708
" />
<path d="M21760 9708
L22370 9708
" />
<path d="M22870 9598
L26870 9598
" />
<path d="M26870 9598
L26870 8598
" />
<path d="M26870 8598
L22870 8598
" />
<path d="M22870 9598
L22870 8598
" />
<path d="M41420 8698
L42420 8698
" />
<path d="M40310 8808
L40920 8808
" />
<path d="M41420 8698
L41420 7698
" />
<path d="M40920 7588
L40310 7588
" />
<path d="M40310 7588
L40310 8808
" />
<path d="M41420 7698
L42420 7698
" />
<path d="M42420 7698
L42420 8698
" />
<path d="M6720 2948
L7720 2948
" />
<path d="M5610 3058
L6220 3058
" />
<path d="M6720 2948
L6720 1948
" />
<path d="M6220 1838
L5610 1838
" />
<path d="M5610 1838
L5610 3058
" />
<path d="M6720 1948
L7720 1948
" />
<path d="M7720 1948
L7720 2948
" />
<path d="M59770 7348
L60770 7348
" />
<path d="M58660 7458
L59270 7458
" />
<path d="M59770 7348
L59770 6348
" />
<path d="M59270 6238
L58660 6238
" />
<path d="M58660 6238
L58660 7458
" />
<path d="M59770 6348
L60770 6348
" />
<path d="M60770 6348
L60770 7348
" />
<path d="M63670 3198
L63670 2198
" />
<path d="M63780 4308
L63780 3698
" />
<path d="M63670 3198
L62670 3198
" />
<path d="M62560 3698
L62560 4308
" />
<path d="M62560 4308
L63780 4308
" />
<path d="M62670 3198
L62670 2198
" />
<path d="M62670 2198
L63670 2198
" />
<path d="M62620 6298
L62620 7298
" />
<path d="M62510 5188
L62510 5798
" />
<path d="M62620 6298
L63620 6298
" />
<path d="M63730 5798
L63730 5188
" />
<path d="M63730 5188
L62510 5188
" />
<path d="M63620 6298
L63620 7298
" />
<path d="M63620 7298
L62620 7298
" />
<path d="M63295 19498
L63295 18498
" />
<path d="M63405 20608
L63405 19998
" />
<path d="M63295 19498
L62295 19498
" />
<path d="M62185 19998
L62185 20608
" />
<path d="M62185 20608
L63405 20608
" />
<path d="M62295 19498
L62295 18498
" />
<path d="M62295 18498
L63295 18498
" />
<path d="M35020 3298
L33020 3298
" />
<path d="M33020 3298
L33020 2298
" />
<path d="M33020 2298
L35020 2298
" />
<path d="M36130 2188
L35520 2188
" />
<path d="M35020 2298
L35020 3298
" />
<path d="M35520 3408
L36130 3408
" />
<path d="M36130 3408
L36130 2188
" />
<path d="M46220 3448
L47220 3448
" />
<path d="M45110 3558
L45720 3558
" />
<path d="M46220 3448
L46220 2448
" />
<path d="M45720 2338
L45110 2338
" />
<path d="M45110 2338
L45110 3558
" />
<path d="M46220 2448
L47220 2448
" />
<path d="M47220 2448
L47220 3448
" />
<path d="M14520 27058
L15130 27058
" />
<path d="M15130 27058
L15130 25838
" />
<path d="M15130 25838
L14520 25838
" />
<path d="M14020 25948
L10020 25948
" />
<path d="M10020 25948
L10020 26948
" />
<path d="M10020 26948
L14020 26948
" />
<path d="M14020 25948
L14020 26948
" />
<path d="M28020 25548
L28020 22548
" />
<path d="M29020 25548
L29020 22548
" />
<path d="M29130 26658
L29130 26048
" />
<path d="M28020 22548
L29020 22548
" />
<path d="M29020 25548
L28020 25548
" />
<path d="M27910 26048
L27910 26658
" />
<path d="M27910 26658
L29130 26658
" />
<path d="M38060 7588
L38060 8198
" />
<path d="M39280 8198
L39280 7588
" />
<path d="M39280 7588
L38060 7588
" />
<path d="M39170 8698
L38170 8698
" />
<path d="M23743 26761
L23743 25974
" />
<path d="M22897 25974
L22897 26761
" />
<path d="M6468 17036
L6468 16249
" />
<path d="M5622 16249
L5622 17036
" />
<path d="M33870.5 22248.7 A900 900 0.0 0 0 33870.5 20448.7 " />
<path d="M31670.5 20448.7 A900 900 0.0 0 0 31670.5 22248.7 " />
<path d="M31670 20448
L33870 20448
" />
<path d="M31670 22248
L33870 22248
" />
<path d="M18420 3148
L16420 3148
" />
<path d="M16420 3148
L16420 2148
" />
<path d="M16420 2148
L18420 2148
" />
<path d="M19530 2038
L18920 2038
" />
<path d="M18420 2148
L18420 3148
" />
<path d="M18920 3258
L19530 3258
" />
<path d="M19530 3258
L19530 2038
" />
</g>
<g style="fill:#000000; fill-opacity:0.0; 
stroke:#000000; stroke-width:0; stroke-opacity:1; 
stroke-linecap:round; stroke-linejoin:round;">
</g>
<g style="fill:#000000; fill-opacity:1.0; 
stroke:#000000; stroke-width:0; stroke-opacity:1; 
stroke-linecap:round; stroke-linejoin:round;">
<polyline style="fill-rule:evenodd;"
points="32830,22842
32830,23354
33342,23354
33342,22842
32830,22842
" /> 
<circle cx="34070.5" cy="23098.7" r="255.906" /> 
</g>
<g style="fill:#000000; fill-opacity:1.0; 
stroke:#000000; stroke-width:19.685; stroke-opacity:1; 
stroke-linecap:round; stroke-linejoin:round;">
</g>
<g style="fill:#000000; fill-opacity:1.0; 
stroke:#000000; stroke-width:0; stroke-opacity:1; 
stroke-linecap:round; stroke-linejoin:round;">
<polyline style="fill-rule:evenodd;"
points="32510,23354
32510,22842
31998,22842
31998,23354
32510,23354
" /> 
<circle cx="31270.5" cy="23098.7" r="255.906" /> 
</g>
<g style="fill:#000000; fill-opacity:1.0; 
stroke:#000000; stroke-width:19.685; stroke-opacity:1; 
stroke-linecap:round; stroke-linejoin:round;">
</g>
<g style="fill:#000000; fill-opacity:1.0; 
stroke:#000000; stroke-width:680; stroke-opacity:1; 
stroke-linecap:round; stroke-linejoin:round;">
</g>
<g style="fill:#000000; fill-opacity:0.0; 
stroke:#000000; stroke-width:680; stroke-opacity:1; 
stroke-linecap:round; stroke-linejoin:round;">
<path d="M43460 5548
L43980 5548
" />
<path d="M43460 3548
L43980 3548
" />
<path d="M38460 5548
L38980 5548
" />
<path d="M38460 3548
L38980 3548
" />
</g>
<g style="fill:#000000; fill-opacity:0.0; 
stroke:#000000; stroke-width:800; stroke-opacity:1; 
stroke-linecap:round; stroke-linejoin:round;">
<path d="M13120 19398
L13120 19598
" />
<path d="M12120 19398
L12120 19598
" />
<path d="M14120 19398
L14120 19598
" />
</g>
<g style="fill:#000000; fill-opacity:0.0; 
stroke:#000000; stroke-width:0; stroke-opacity:1; 
stroke-linecap:round; stroke-linejoin:round;">
</g>
<g style="fill:#000000; fill-opacity:1.0; 
stroke:#000000; stroke-width:0; stroke-opacity:1; 
stroke-linecap:round; stroke-linejoin:round;">
<polyline style="fill-rule:evenodd;"
points="27560,6548
26880,6548
26880,7348
27560,7348
27560,6548
" /> 
</g>
<g style="fill:#000000; fill-opacity:1.0; 
stroke:#000000; stroke-width:680; stroke-opacity:1; 
stroke-linecap:round; stroke-linejoin:round;">
</g>
<g style="fill:#000000; fill-opacity:0.0; 
stroke:#000000; stroke-width:680; stroke-opacity:1; 
stroke-linecap:round; stroke-linejoin:round;">
<path d="M28220 6888
L28220 7008
" />
<path d="M29220 6888
L29220 7008
" />
<path d="M30220 6888
L30220 7008
" />
<path d="M31220 6888
L31220 7008
" />
<path d="M32220 6888
L32220 7008
" />
<path d="M33220 6888
L33220 7008
" />
<path d="M34220 6888
L34220 7008
" />
<path d="M35220 6888
L35220 7008
" />
<path d="M36220 6888
L36220 7008
" />
</g>
<g style="fill:#000000; fill-opacity:0.0; 
stroke:#000000; stroke-width:0; stroke-opacity:1; 
stroke-linecap:round; stroke-linejoin:round;">
</g>
<g style="fill:#000000; fill-opacity:1.0; 
stroke:#000000; stroke-width:0; stroke-opacity:1; 
stroke-linecap:round; stroke-linejoin:round;">
<polyline style="fill-rule:evenodd;"
points="45460,8698
44780,8698
44780,9498
45460,9498
45460,8698
" /> 
</g>
<g style="fill:#000000; fill-opacity:1.0; 
stroke:#000000; stroke-width:680; stroke-opacity:1; 
stroke-linecap:round; stroke-linejoin:round;">
</g>
<g style="fill:#000000; fill-opacity:0.0; 
stroke:#000000; stroke-width:680; stroke-opacity:1; 
stroke-linecap:round; stroke-linejoin:round;">
<path d="M46120 9038
L46120 9158
" />
<path d="M47120 9038
L47120 9158
" />
</g>
<g style="fill:#000000; fill-opacity:0.0; 
stroke:#000000; stroke-width:0; stroke-opacity:1; 
stroke-linecap:round; stroke-linejoin:round;">
</g>
<g style="fill:#000000; fill-opacity:1.0; 
stroke:#000000; stroke-width:0; stroke-opacity:1; 
stroke-linecap:round; stroke-linejoin:round;">
<polyline style="fill-rule:evenodd;"
points="21920,19558
21920,20238
22720,20238
22720,19558
21920,19558
" /> 
</g>
<g style="fill:#000000; fill-opacity:1.0; 
stroke:#000000; stroke-width:680; stroke-opacity:1; 
stroke-linecap:round; stroke-linejoin:round;">
</g>
<g style="fill:#000000; fill-opacity:0.0; 
stroke:#000000; stroke-width:680; stroke-opacity:1; 
stroke-linecap:round; stroke-linejoin:round;">
<path d="M22260 18898
L22380 18898
" />
<path d="M22260 17898
L22380 17898
" />
<path d="M22260 16898
L22380 16898
" />
<path d="M22260 15898
L22380 15898
" />
<path d="M22260 14898
L22380 14898
" />
<path d="M22260 13898
L22380 13898
" />
<path d="M22260 12898
L22380 12898
" />
<path d="M22260 11898
L22380 11898
" />
<path d="M22260 10898
L22380 10898
" />
</g>
<g style="fill:#000000; fill-opacity:0.0; 
stroke:#000000; stroke-width:629.921; stroke-opacity:1; 
stroke-linecap:round; stroke-linejoin:round;">
<path d="M20008 21648
L19732 21648
" />
<path d="M20008 22648
L19732 22648
" />
<path d="M20008 23648
L19732 23648
" />
<path d="M20008 24648
L19732 24648
" />
<path d="M20008 25648
L19732 25648
" />
<path d="M20008 26648
L19732 26648
" />
<path d="M17008 26648
L16732 26648
" />
<path d="M17008 25648
L16732 25648
" />
<path d="M17008 24648
L16732 24648
" />
<path d="M17008 23648
L16732 23648
" />
<path d="M17008 22648
L16732 22648
" />
<path d="M17008 21648
L16732 21648
" />
<path d="M45132 18398
L45408 18398
" />
<path d="M45132 17398
L45408 17398
" />
<path d="M45132 16398
L45408 16398
" />
<path d="M45132 15398
L45408 15398
" />
<path d="M45132 14398
L45408 14398
" />
<path d="M45132 13398
L45408 13398
" />
<path d="M48132 13398
L48408 13398
" />
<path d="M48132 14398
L48408 14398
" />
<path d="M48132 15398
L48408 15398
" />
<path d="M48132 16398
L48408 16398
" />
<path d="M48132 17398
L48408 17398
" />
<path d="M48132 18398
L48408 18398
" />
</g>
<g style="fill:#000000; fill-opacity:0.0; 
stroke:#000000; stroke-width:0; stroke-opacity:1; 
stroke-linecap:round; stroke-linejoin:round;">
</g>
<g style="fill:#000000; fill-opacity:1.0; 
stroke:#000000; stroke-width:0; stroke-opacity:1; 
stroke-linecap:round; stroke-linejoin:round;">
<polyline style="fill-rule:evenodd;"
points="42595,24108
42595,24788
43395,24788
43395,24108
42595,24108
" /> 
</g>
<g style="fill:#000000; fill-opacity:1.0; 
stroke:#000000; stroke-width:680; stroke-opacity:1; 
stroke-linecap:round; stroke-linejoin:round;">
</g>
<g style="fill:#000000; fill-opacity:0.0; 
stroke:#000000; stroke-width:680; stroke-opacity:1; 
stroke-linecap:round; stroke-linejoin:round;">
<path d="M42935 23448
L43055 23448
" />
<path d="M42935 22448
L43055 22448
" />
<path d="M42935 21448
L43055 21448
" />
<path d="M42935 20448
L43055 20448
" />
</g>
<g style="fill:#000000; fill-opacity:0.0; 
stroke:#000000; stroke-width:0; stroke-opacity:1; 
stroke-linecap:round; stroke-linejoin:round;">
</g>
<g style="fill:#000000; fill-opacity:1.0; 
stroke:#000000; stroke-width:0; stroke-opacity:1; 
stroke-linecap:round; stroke-linejoin:round;">
<polyline style="fill-rule:evenodd;"
points="37120,21373
37120,20573
36320,20573
36320,21373
37120,21373
" /> 
</g>
<g style="fill:#000000; fill-opacity:1.0; 
stroke:#000000; stroke-width:800; stroke-opacity:1; 
stroke-linecap:round; stroke-linejoin:round;">
</g>
<g style="fill:#000000; fill-opacity:0.0; 
stroke:#000000; stroke-width:800; stroke-opacity:1; 
stroke-linecap:round; stroke-linejoin:round;">
<path d="M36720 21973
L36720 21973
" />
</g>
<g style="fill:#000000; fill-opacity:0.0; 
stroke:#000000; stroke-width:0; stroke-opacity:1; 
stroke-linecap:round; stroke-linejoin:round;">
</g>
<g style="fill:#000000; fill-opacity:1.0; 
stroke:#000000; stroke-width:0; stroke-opacity:1; 
stroke-linecap:round; stroke-linejoin:round;">
<polyline style="fill-rule:evenodd;"
points="42820,16198
42020,16198
42020,16998
42820,16998
42820,16198
" /> 
</g>
<g style="fill:#000000; fill-opacity:1.0; 
stroke:#000000; stroke-width:800; stroke-opacity:1; 
stroke-linecap:round; stroke-linejoin:round;">
</g>
<g style="fill:#000000; fill-opacity:0.0; 
stroke:#000000; stroke-width:800; stroke-opacity:1; 
stroke-linecap:round; stroke-linejoin:round;">
<path d="M43420 16598
L43420 16598
" />
</g>
<g style="fill:#000000; fill-opacity:0.0; 
stroke:#000000; stroke-width:0; stroke-opacity:1; 
stroke-linecap:round; stroke-linejoin:round;">
</g>
<g style="fill:#000000; fill-opacity:1.0; 
stroke:#000000; stroke-width:0; stroke-opacity:1; 
stroke-linecap:round; stroke-linejoin:round;">
<polyline style="fill-rule:evenodd;"
points="42820,17698
42020,17698
42020,18498
42820,18498
42820,17698
" /> 
</g>
<g style="fill:#000000; fill-opacity:1.0; 
stroke:#000000; stroke-width:800; stroke-opacity:1; 
stroke-linecap:round; stroke-linejoin:round;">
</g>
<g style="fill:#000000; fill-opacity:0.0; 
stroke:#000000; stroke-width:800; stroke-opacity:1; 
stroke-linecap:round; stroke-linejoin:round;">
<path d="M43420 18098
L43420 18098
" />
</g>
<g style="fill:#000000; fill-opacity:0.0; 
stroke:#000000; stroke-width:0; stroke-opacity:1; 
stroke-linecap:round; stroke-linejoin:round;">
</g>
<g style="fill:#000000; fill-opacity:1.0; 
stroke:#000000; stroke-width:0; stroke-opacity:1; 
stroke-linecap:round; stroke-linejoin:round;">
<polyline style="fill-rule:evenodd;"
points="39620,18698
38820,18698
38820,19498
39620,19498
39620,18698
" /> 
</g>
<g style="fill:#000000; fill-opacity:1.0; 
stroke:#000000; stroke-width:800; stroke-opacity:1; 
stroke-linecap:round; stroke-linejoin:round;">
</g>
<g style="fill:#000000; fill-opacity:0.0; 
stroke:#000000; stroke-width:800; stroke-opacity:1; 
stroke-linecap:round; stroke-linejoin:round;">
<path d="M40220 19098
L40220 19098
" />
</g>
<g style="fill:#000000; fill-opacity:0.0; 
stroke:#000000; stroke-width:0; stroke-opacity:1; 
stroke-linecap:round; stroke-linejoin:round;">
</g>
<g style="fill:#000000; fill-opacity:1.0; 
stroke:#000000; stroke-width:0; stroke-opacity:1; 
stroke-linecap:round; stroke-linejoin:round;">
<polyline style="fill-rule:evenodd;"
points="39195,26398
39195,25598
38395,25598
38395,26398
39195,26398
" /> 
</g>
<g style="fill:#000000; fill-opacity:1.0; 
stroke:#000000; stroke-width:800; stroke-opacity:1; 
stroke-linecap:round; stroke-linejoin:round;">
</g>
<g style="fill:#000000; fill-opacity:0.0; 
stroke:#000000; stroke-width:800; stroke-opacity:1; 
stroke-linecap:round; stroke-linejoin:round;">
<path d="M38795 26998
L38795 26998
" />
</g>
<g style="fill:#000000; fill-opacity:0.0; 
stroke:#000000; stroke-width:0; stroke-opacity:1; 
stroke-linecap:round; stroke-linejoin:round;">
</g>
<g style="fill:#000000; fill-opacity:1.0; 
stroke:#000000; stroke-width:0; stroke-opacity:1; 
stroke-linecap:round; stroke-linejoin:round;">
<polyline style="fill-rule:evenodd;"
points="22710,8698
22030,8698
22030,9498
22710,9498
22710,8698
" /> 
</g>
<g style="fill:#000000; fill-opacity:1.0; 
stroke:#000000; stroke-width:680; stroke-opacity:1; 
stroke-linecap:round; stroke-linejoin:round;">
</g>
<g style="fill:#000000; fill-opacity:0.0; 
stroke:#000000; stroke-width:680; stroke-opacity:1; 
stroke-linecap:round; stroke-linejoin:round;">
<path d="M23370 9038
L23370 9158
" />
<path d="M24370 9038
L24370 9158
" />
<path d="M25370 9038
L25370 9158
" />
<path d="M26370 9038
L26370 9158
" />
</g>
<g style="fill:#000000; fill-opacity:0.0; 
stroke:#000000; stroke-width:0; stroke-opacity:1; 
stroke-linecap:round; stroke-linejoin:round;">
</g>
<g style="fill:#000000; fill-opacity:1.0; 
stroke:#000000; stroke-width:0; stroke-opacity:1; 
stroke-linecap:round; stroke-linejoin:round;">
<polyline style="fill-rule:evenodd;"
points="41320,7798
40520,7798
40520,8598
41320,8598
41320,7798
" /> 
</g>
<g style="fill:#000000; fill-opacity:1.0; 
stroke:#000000; stroke-width:800; stroke-opacity:1; 
stroke-linecap:round; stroke-linejoin:round;">
</g>
<g style="fill:#000000; fill-opacity:0.0; 
stroke:#000000; stroke-width:800; stroke-opacity:1; 
stroke-linecap:round; stroke-linejoin:round;">
<path d="M41920 8198
L41920 8198
" />
</g>
<g style="fill:#000000; fill-opacity:0.0; 
stroke:#000000; stroke-width:0; stroke-opacity:1; 
stroke-linecap:round; stroke-linejoin:round;">
</g>
<g style="fill:#000000; fill-opacity:1.0; 
stroke:#000000; stroke-width:0; stroke-opacity:1; 
stroke-linecap:round; stroke-linejoin:round;">
<polyline style="fill-rule:evenodd;"
points="6620,2048
5820,2048
5820,2848
6620,2848
6620,2048
" /> 
</g>
<g style="fill:#000000; fill-opacity:1.0; 
stroke:#000000; stroke-width:800; stroke-opacity:1; 
stroke-linecap:round; stroke-linejoin:round;">
</g>
<g style="fill:#000000; fill-opacity:0.0; 
stroke:#000000; stroke-width:800; stroke-opacity:1; 
stroke-linecap:round; stroke-linejoin:round;">
<path d="M7220 2448
L7220 2448
" />
</g>
<g style="fill:#000000; fill-opacity:0.0; 
stroke:#000000; stroke-width:0; stroke-opacity:1; 
stroke-linecap:round; stroke-linejoin:round;">
</g>
<g style="fill:#000000; fill-opacity:1.0; 
stroke:#000000; stroke-width:0; stroke-opacity:1; 
stroke-linecap:round; stroke-linejoin:round;">
<polyline style="fill-rule:evenodd;"
points="59670,6448
58870,6448
58870,7248
59670,7248
59670,6448
" /> 
</g>
<g style="fill:#000000; fill-opacity:1.0; 
stroke:#000000; stroke-width:800; stroke-opacity:1; 
stroke-linecap:round; stroke-linejoin:round;">
</g>
<g style="fill:#000000; fill-opacity:0.0; 
stroke:#000000; stroke-width:800; stroke-opacity:1; 
stroke-linecap:round; stroke-linejoin:round;">
<path d="M60270 6848
L60270 6848
" />
</g>
<g style="fill:#000000; fill-opacity:0.0; 
stroke:#000000; stroke-width:0; stroke-opacity:1; 
stroke-linecap:round; stroke-linejoin:round;">
</g>
<g style="fill:#000000; fill-opacity:1.0; 
stroke:#000000; stroke-width:0; stroke-opacity:1; 
stroke-linecap:round; stroke-linejoin:round;">
<polyline style="fill-rule:evenodd;"
points="62770,3298
62770,4098
63570,4098
63570,3298
62770,3298
" /> 
</g>
<g style="fill:#000000; fill-opacity:1.0; 
stroke:#000000; stroke-width:800; stroke-opacity:1; 
stroke-linecap:round; stroke-linejoin:round;">
</g>
<g style="fill:#000000; fill-opacity:0.0; 
stroke:#000000; stroke-width:800; stroke-opacity:1; 
stroke-linecap:round; stroke-linejoin:round;">
<path d="M63170 2698
L63170 2698
" />
</g>
<g style="fill:#000000; fill-opacity:0.0; 
stroke:#000000; stroke-width:0; stroke-opacity:1; 
stroke-linecap:round; stroke-linejoin:round;">
</g>
<g style="fill:#000000; fill-opacity:1.0; 
stroke:#000000; stroke-width:0; stroke-opacity:1; 
stroke-linecap:round; stroke-linejoin:round;">
<polyline style="fill-rule:evenodd;"
points="63520,6198
63520,5398
62720,5398
62720,6198
63520,6198
" /> 
</g>
<g style="fill:#000000; fill-opacity:1.0; 
stroke:#000000; stroke-width:800; stroke-opacity:1; 
stroke-linecap:round; stroke-linejoin:round;">
</g>
<g style="fill:#000000; fill-opacity:0.0; 
stroke:#000000; stroke-width:800; stroke-opacity:1; 
stroke-linecap:round; stroke-linejoin:round;">
<path d="M63120 6798
L63120 6798
" />
</g>
<g style="fill:#000000; fill-opacity:0.0; 
stroke:#000000; stroke-width:0; stroke-opacity:1; 
stroke-linecap:round; stroke-linejoin:round;">
</g>
<g style="fill:#000000; fill-opacity:1.0; 
stroke:#000000; stroke-width:0; stroke-opacity:1; 
stroke-linecap:round; stroke-linejoin:round;">
<polyline style="fill-rule:evenodd;"
points="62395,19598
62395,20398
63195,20398
63195,19598
62395,19598
" /> 
</g>
<g style="fill:#000000; fill-opacity:1.0; 
stroke:#000000; stroke-width:800; stroke-opacity:1; 
stroke-linecap:round; stroke-linejoin:round;">
</g>
<g style="fill:#000000; fill-opacity:0.0; 
stroke:#000000; stroke-width:800; stroke-opacity:1; 
stroke-linecap:round; stroke-linejoin:round;">
<path d="M62795 18998
L62795 18998
" />
</g>
<g style="fill:#000000; fill-opacity:0.0; 
stroke:#000000; stroke-width:0; stroke-opacity:1; 
stroke-linecap:round; stroke-linejoin:round;">
</g>
<g style="fill:#000000; fill-opacity:1.0; 
stroke:#000000; stroke-width:0; stroke-opacity:1; 
stroke-linecap:round; stroke-linejoin:round;">
<polyline style="fill-rule:evenodd;"
points="35180,3198
35860,3198
35860,2398
35180,2398
35180,3198
" /> 
</g>
<g style="fill:#000000; fill-opacity:1.0; 
stroke:#000000; stroke-width:680; stroke-opacity:1; 
stroke-linecap:round; stroke-linejoin:round;">
</g>
<g style="fill:#000000; fill-opacity:0.0; 
stroke:#000000; stroke-width:680; stroke-opacity:1; 
stroke-linecap:round; stroke-linejoin:round;">
<path d="M34520 2858
L34520 2738
" />
<path d="M33520 2858
L33520 2738
" />
</g>
<g style="fill:#000000; fill-opacity:0.0; 
stroke:#000000; stroke-width:0; stroke-opacity:1; 
stroke-linecap:round; stroke-linejoin:round;">
</g>
<g style="fill:#000000; fill-opacity:1.0; 
stroke:#000000; stroke-width:0; stroke-opacity:1; 
stroke-linecap:round; stroke-linejoin:round;">
<polyline style="fill-rule:evenodd;"
points="46120,2548
45320,2548
45320,3348
46120,3348
46120,2548
" /> 
</g>
<g style="fill:#000000; fill-opacity:1.0; 
stroke:#000000; stroke-width:800; stroke-opacity:1; 
stroke-linecap:round; stroke-linejoin:round;">
</g>
<g style="fill:#000000; fill-opacity:0.0; 
stroke:#000000; stroke-width:800; stroke-opacity:1; 
stroke-linecap:round; stroke-linejoin:round;">
<path d="M46720 2948
L46720 2948
" />
</g>
<g style="fill:#000000; fill-opacity:0.0; 
stroke:#000000; stroke-width:0; stroke-opacity:1; 
stroke-linecap:round; stroke-linejoin:round;">
</g>
<g style="fill:#000000; fill-opacity:1.0; 
stroke:#000000; stroke-width:0; stroke-opacity:1; 
stroke-linecap:round; stroke-linejoin:round;">
<polyline style="fill-rule:evenodd;"
points="14180,26848
14860,26848
14860,26048
14180,26048
14180,26848
" /> 
</g>
<g style="fill:#000000; fill-opacity:1.0; 
stroke:#000000; stroke-width:680; stroke-opacity:1; 
stroke-linecap:round; stroke-linejoin:round;">
</g>
<g style="fill:#000000; fill-opacity:0.0; 
stroke:#000000; stroke-width:680; stroke-opacity:1; 
stroke-linecap:round; stroke-linejoin:round;">
<path d="M13520 26508
L13520 26388
" />
<path d="M12520 26508
L12520 26388
" />
<path d="M11520 26508
L11520 26388
" />
<path d="M10520 26508
L10520 26388
" />
</g>
<g style="fill:#000000; fill-opacity:0.0; 
stroke:#000000; stroke-width:0; stroke-opacity:1; 
stroke-linecap:round; stroke-linejoin:round;">
</g>
<g style="fill:#000000; fill-opacity:1.0; 
stroke:#000000; stroke-width:0; stroke-opacity:1; 
stroke-linecap:round; stroke-linejoin:round;">
<polyline style="fill-rule:evenodd;"
points="28120,25708
28120,26388
28920,26388
28920,25708
28120,25708
" /> 
</g>
<g style="fill:#000000; fill-opacity:1.0; 
stroke:#000000; stroke-width:680; stroke-opacity:1; 
stroke-linecap:round; stroke-linejoin:round;">
</g>
<g style="fill:#000000; fill-opacity:0.0; 
stroke:#000000; stroke-width:680; stroke-opacity:1; 
stroke-linecap:round; stroke-linejoin:round;">
<path d="M28460 25048
L28580 25048
" />
<path d="M28460 24048
L28580 24048
" />
<path d="M28460 23048
L28580 23048
" />
</g>
<g style="fill:#000000; fill-opacity:0.0; 
stroke:#000000; stroke-width:0; stroke-opacity:1; 
stroke-linecap:round; stroke-linejoin:round;">
</g>
<g style="fill:#000000; fill-opacity:1.0; 
stroke:#000000; stroke-width:0; stroke-opacity:1; 
stroke-linecap:round; stroke-linejoin:round;">
<polyline style="fill-rule:evenodd;"
points="39110,8638
39110,7758
38230,7758
38230,8638
39110,8638
" /> 
<circle cx="31770.5" cy="21348.7" r="280" /> 
</g>
<g style="fill:#000000; fill-opacity:1.0; 
stroke:#000000; stroke-width:19.685; stroke-opacity:1; 
stroke-linecap:round; stroke-linejoin:round;">
</g>
<g style="fill:#000000; fill-opacity:1.0; 
stroke:#000000; stroke-width:0; stroke-opacity:1; 
stroke-linecap:round; stroke-linejoin:round;">
<circle cx="33770.5" cy="21348.7" r="280" /> 
</g>
<g style="fill:#000000; fill-opacity:1.0; 
stroke:#000000; stroke-width:19.685; stroke-opacity:1; 
stroke-linecap:round; stroke-linejoin:round;">
</g>
<g style="fill:#000000; fill-opacity:1.0; 
stroke:#000000; stroke-width:0; stroke-opacity:1; 
stroke-linecap:round; stroke-linejoin:round;">
<polyline style="fill-rule:evenodd;"
points="18580,3048
19260,3048
19260,2248
18580,2248
18580,3048
" /> 
</g>
<g style="fill:#000000; fill-opacity:1.0; 
stroke:#000000; stroke-width:680; stroke-opacity:1; 
stroke-linecap:round; stroke-linejoin:round;">
</g>
<g style="fill:#000000; fill-opacity:0.0; 
stroke:#000000; stroke-width:680; stroke-opacity:1; 
stroke-linecap:round; stroke-linejoin:round;">
<path d="M17920 2708
L17920 2588
" />
<path d="M16920 2708
L16920 2588
" />
</g> 
</svg>
