<?xml version="1.0" standalone="no"?>
 <!DOCTYPE svg PUBLIC "-//W3C//DTD SVG 1.1//EN" 
 "http://www.w3.org/Graphics/SVG/1.1/DTD/svg11.dtd"> 
<svg xmlns="http://www.w3.org/2000/svg" version="1.1" 
    width="20.574cm" height="10.6172cm" viewBox="0 0 81000 41800 ">
<title>SVG Picture created as Weather Balloon-F.CrtYd.svg date 2016/09/29 15:18:57 </title>
  <desc>Picture generated by PCBNEW </desc>
<g style="fill:#000000; fill-opacity:1;stroke:#000000; stroke-opacity:1;
stroke-linecap:round; stroke-linejoin:round; "
 transform="translate(0 0) scale(1 1)">
</g>
<g style="fill:#000000; fill-opacity:0.0; 
stroke:#000000; stroke-width:-0.000393701; stroke-opacity:1; 
stroke-linecap:round; stroke-linejoin:round;">
</g>
<g style="fill:#000000; fill-opacity:0.0; 
stroke:#000000; stroke-width:59.0551; stroke-opacity:1; 
stroke-linecap:round; stroke-linejoin:round;">
<path d="M76495 41079
L76495 3079
" />
<path d="M4695 41079
L76495 41079
" />
<path d="M4695 3079
L4695 41079
" />
<path d="M76495 3079
L4695 3079
" />
</g>
<g style="fill:#000000; fill-opacity:0.0; 
stroke:#000000; stroke-width:19.685; stroke-opacity:1; 
stroke-linecap:round; stroke-linejoin:round;">
<path d="M48348 32379
L48348 29780
" />
<path d="M47443 32379
L47443 29780
" />
<path d="M48348 32379
L47443 32379
" />
<path d="M48348 29780
L47443 29780
" />
<path d="M38343 11893
L38343 14491
" />
<path d="M39248 11893
L39248 14491
" />
<path d="M38343 11893
L39248 11893
" />
<path d="M38343 14491
L39248 14491
" />
<path d="M54207 29327
L51609 29327
" />
<path d="M54207 30232
L51609 30232
" />
<path d="M54207 29327
L54207 30232
" />
<path d="M51609 29327
L51609 30232
" />
<path d="M46250 29089
L44557 29089
" />
<path d="M44557 29089
L44557 30270
" />
<path d="M44557 30270
L46250 30270
" />
<path d="M46250 30270
L46250 29089
" />
<path d="M37441 30870
L39134 30870
" />
<path d="M39134 30870
L39134 29689
" />
<path d="M39134 29689
L37441 29689
" />
<path d="M37441 29689
L37441 30870
" />
<path d="M58696 31732
L61294 31732
" />
<path d="M58696 30827
L61294 30827
" />
<path d="M58696 31732
L58696 30827
" />
<path d="M61294 31732
L61294 30827
" />
<path d="M44594 11827
L41996 11827
" />
<path d="M44594 12732
L41996 12732
" />
<path d="M44594 11827
L44594 12732
" />
<path d="M41996 11827
L41996 12732
" />
<path d="M30007 35227
L27409 35227
" />
<path d="M30007 36132
L27409 36132
" />
<path d="M30007 35227
L30007 36132
" />
<path d="M27409 35227
L27409 36132
" />
<path d="M17596 36332
L20194 36332
" />
<path d="M17596 35427
L20194 35427
" />
<path d="M17596 36332
L17596 35427
" />
<path d="M20194 36332
L20194 35427
" />
<path d="M40048 7266
L40048 4668
" />
<path d="M39143 7266
L39143 4668
" />
<path d="M40048 7266
L39143 7266
" />
<path d="M40048 4668
L39143 4668
" />
<path d="M39043 8168
L39043 10766
" />
<path d="M39948 8168
L39948 10766
" />
<path d="M39043 8168
L39948 8168
" />
<path d="M39043 10766
L39948 10766
" />
<path d="M8883 22732
L11482 22732
" />
<path d="M8883 21827
L11482 21827
" />
<path d="M8883 22732
L8883 21827
" />
<path d="M11482 22732
L11482 21827
" />
<path d="M73643 18580
L73643 21179
" />
<path d="M74548 18580
L74548 21179
" />
<path d="M73643 18580
L74548 18580
" />
<path d="M73643 21179
L74548 21179
" />
<path d="M72948 7579
L72948 4980
" />
<path d="M72043 7579
L72043 4980
" />
<path d="M72948 7579
L72043 7579
" />
<path d="M72948 4980
L72043 4980
" />
<path d="M28507 14927
L25909 14927
" />
<path d="M28507 15832
L25909 15832
" />
<path d="M28507 14927
L28507 15832
" />
<path d="M25909 14927
L25909 15832
" />
<path d="M9996 34932
L12594 34932
" />
<path d="M9996 34027
L12594 34027
" />
<path d="M9996 34932
L9996 34027
" />
<path d="M12594 34932
L12594 34027
" />
<path d="M16794 35427
L14196 35427
" />
<path d="M16794 36332
L14196 36332
" />
<path d="M16794 35427
L16794 36332
" />
<path d="M14196 35427
L14196 36332
" />
<path d="M45609 22132
L48207 22132
" />
<path d="M45609 21227
L48207 21227
" />
<path d="M45609 22132
L45609 21227
" />
<path d="M48207 22132
L48207 21227
" />
<path d="M43796 33132
L46394 33132
" />
<path d="M43796 32227
L46394 32227
" />
<path d="M43796 33132
L43796 32227
" />
<path d="M46394 33132
L46394 32227
" />
<path d="M39796 35732
L42394 35732
" />
<path d="M39796 34827
L42394 34827
" />
<path d="M39796 35732
L39796 34827
" />
<path d="M42394 35732
L42394 34827
" />
<path d="M39796 33732
L42394 33732
" />
<path d="M39796 32827
L42394 32827
" />
<path d="M39796 33732
L39796 32827
" />
<path d="M42394 33732
L42394 32827
" />
<path d="M28109 12232
L30707 12232
" />
<path d="M28109 11327
L30707 11327
" />
<path d="M28109 12232
L28109 11327
" />
<path d="M30707 12232
L30707 11327
" />
<path d="M33583 12732
L36182 12732
" />
<path d="M33583 11827
L36182 11827
" />
<path d="M33583 12732
L33583 11827
" />
<path d="M36182 12732
L36182 11827
" />
<path d="M68591 6608
L68591 5151
" />
<path d="M68000 6608
L68000 5151
" />
<path d="M68591 6608
L68000 6608
" />
<path d="M68591 5151
L68000 5151
" />
<path d="M64791 6208
L64791 4751
" />
<path d="M64200 6208
L64200 4751
" />
<path d="M64791 6208
L64200 6208
" />
<path d="M64791 4751
L64200 4751
" />
<path d="M60491 6208
L60491 4751
" />
<path d="M59900 6208
L59900 4751
" />
<path d="M60491 6208
L59900 6208
" />
<path d="M60491 4751
L59900 4751
" />
<path d="M55791 6308
L55791 4851
" />
<path d="M55200 6308
L55200 4851
" />
<path d="M55791 6308
L55200 6308
" />
<path d="M55791 4851
L55200 4851
" />
<path d="M50991 6208
L50991 4751
" />
<path d="M50400 6208
L50400 4751
" />
<path d="M50991 6208
L50400 6208
" />
<path d="M50991 4751
L50400 4751
" />
<path d="M68791 11008
L68791 9551
" />
<path d="M68200 11008
L68200 9551
" />
<path d="M68791 11008
L68200 11008
" />
<path d="M68791 9551
L68200 9551
" />
<path d="M64891 10834
L64891 9377
" />
<path d="M64300 10834
L64300 9377
" />
<path d="M64891 10834
L64300 10834
" />
<path d="M64891 9377
L64300 9377
" />
<path d="M60991 10808
L60991 9351
" />
<path d="M60400 10808
L60400 9351
" />
<path d="M60991 10808
L60400 10808
" />
<path d="M60991 9351
L60400 9351
" />
<path d="M56691 10834
L56691 9377
" />
<path d="M56100 10834
L56100 9377
" />
<path d="M56691 10834
L56100 10834
" />
<path d="M56691 9377
L56100 9377
" />
<path d="M51991 10934
L51991 9477
" />
<path d="M51400 10934
L51400 9477
" />
<path d="M51991 10934
L51400 10934
" />
<path d="M51991 9477
L51400 9477
" />
<path d="M25507 27227
L22909 27227
" />
<path d="M25507 28132
L22909 28132
" />
<path d="M25507 27227
L25507 28132
" />
<path d="M22909 27227
L22909 28132
" />
<path d="M43020 20254
L43020 27105
" />
<path d="M36170 20254
L36170 27105
" />
<path d="M43020 20254
L36170 20254
" />
<path d="M43020 27105
L36170 27105
" />
<path d="M14223 19293
L14223 21891
" />
<path d="M15168 19293
L15168 21891
" />
<path d="M14223 19293
L15168 19293
" />
<path d="M14223 21891
L15168 21891
" />
<path d="M72068 34791
L72068 32193
" />
<path d="M71123 34791
L71123 32193
" />
<path d="M72068 34791
L71123 34791
" />
<path d="M72068 32193
L71123 32193
" />
<path d="M12723 19293
L12723 21891
" />
<path d="M13668 19293
L13668 21891
" />
<path d="M12723 19293
L13668 19293
" />
<path d="M12723 21891
L13668 21891
" />
<path d="M73468 34791
L73468 32193
" />
<path d="M72523 34791
L72523 32193
" />
<path d="M73468 34791
L72523 34791
" />
<path d="M73468 32193
L72523 32193
" />
<path d="M61323 17693
L61323 20291
" />
<path d="M62268 17693
L62268 20291
" />
<path d="M61323 17693
L62268 17693
" />
<path d="M61323 20291
L62268 20291
" />
<path d="M65423 24980
L65423 27579
" />
<path d="M66368 24980
L66368 27579
" />
<path d="M65423 24980
L66368 24980
" />
<path d="M65423 27579
L66368 27579
" />
<path d="M59923 17693
L59923 20291
" />
<path d="M60868 17693
L60868 20291
" />
<path d="M59923 17693
L60868 17693
" />
<path d="M59923 20291
L60868 20291
" />
<path d="M64223 24993
L64223 27591
" />
<path d="M65168 24993
L65168 27591
" />
<path d="M64223 24993
L65168 24993
" />
<path d="M64223 27591
L65168 27591
" />
<path d="M55023 36268
L55023 38866
" />
<path d="M55968 36268
L55968 38866
" />
<path d="M55023 36268
L55968 36268
" />
<path d="M55023 38866
L55968 38866
" />
<path d="M56723 36268
L56723 38866
" />
<path d="M57668 36268
L57668 38866
" />
<path d="M56723 36268
L57668 36268
" />
<path d="M56723 38866
L57668 38866
" />
<path d="M64873 32380
L64873 34979
" />
<path d="M65818 32380
L65818 34979
" />
<path d="M64873 32380
L65818 32380
" />
<path d="M64873 34979
L65818 34979
" />
<path d="M63323 32393
L63323 34991
" />
<path d="M64268 32393
L64268 34991
" />
<path d="M63323 32393
L64268 32393
" />
<path d="M63323 34991
L64268 34991
" />
<path d="M11223 10780
L11223 13379
" />
<path d="M12168 10780
L12168 13379
" />
<path d="M11223 10780
L12168 10780
" />
<path d="M11223 13379
L12168 13379
" />
<path d="M10623 18593
L10623 21191
" />
<path d="M11568 18593
L11568 21191
" />
<path d="M10623 18593
L11568 18593
" />
<path d="M10623 21191
L11568 21191
" />
<path d="M10268 13366
L10268 10768
" />
<path d="M9323 13366
L9323 10768
" />
<path d="M10268 13366
L9323 13366
" />
<path d="M10268 10768
L9323 10768
" />
<path d="M9968 21166
L9968 18568
" />
<path d="M9023 21166
L9023 18568
" />
<path d="M9968 21166
L9023 21166
" />
<path d="M9968 18568
L9023 18568
" />
<path d="M19368 11179
L19368 8580
" />
<path d="M18423 11179
L18423 8580
" />
<path d="M19368 11179
L18423 11179
" />
<path d="M19368 8580
L18423 8580
" />
<path d="M17968 11191
L17968 8593
" />
<path d="M17023 11191
L17023 8593
" />
<path d="M17968 11191
L17023 11191
" />
<path d="M17968 8593
L17023 8593
" />
<path d="M15468 29679
L15468 27080
" />
<path d="M14523 29679
L14523 27080
" />
<path d="M15468 29679
L14523 29679
" />
<path d="M15468 27080
L14523 27080
" />
<path d="M12523 27080
L12523 29679
" />
<path d="M13468 27080
L13468 29679
" />
<path d="M12523 27080
L13468 27080
" />
<path d="M12523 29679
L13468 29679
" />
<path d="M71923 18580
L71923 21179
" />
<path d="M72868 18580
L72868 21179
" />
<path d="M71923 18580
L72868 18580
" />
<path d="M71923 21179
L72868 21179
" />
<path d="M68123 17580
L68123 20179
" />
<path d="M69068 17580
L69068 20179
" />
<path d="M68123 17580
L69068 17580
" />
<path d="M68123 20179
L69068 20179
" />
<path d="M69923 17680
L69923 20279
" />
<path d="M70868 17680
L70868 20279
" />
<path d="M69923 17680
L70868 17680
" />
<path d="M69923 20279
L70868 20279
" />
<path d="M67123 13380
L67123 15979
" />
<path d="M68068 13380
L68068 15979
" />
<path d="M67123 13380
L68068 13380
" />
<path d="M67123 15979
L68068 15979
" />
<path d="M31123 15993
L31123 18591
" />
<path d="M32068 15993
L32068 18591
" />
<path d="M31123 15993
L32068 15993
" />
<path d="M31123 18591
L32068 18591
" />
<path d="M30768 18591
L30768 15993
" />
<path d="M29823 18591
L29823 15993
" />
<path d="M30768 18591
L29823 18591
" />
<path d="M30768 15993
L29823 15993
" />
<path d="M71023 8980
L71023 11579
" />
<path d="M71968 8980
L71968 11579
" />
<path d="M71023 8980
L71968 8980
" />
<path d="M71023 11579
L71968 11579
" />
<path d="M70368 11579
L70368 8980
" />
<path d="M69423 11579
L69423 8980
" />
<path d="M70368 11579
L69423 11579
" />
<path d="M70368 8980
L69423 8980
" />
<path d="M12796 25352
L15394 25352
" />
<path d="M12796 24407
L15394 24407
" />
<path d="M12796 25352
L12796 24407
" />
<path d="M15394 25352
L15394 24407
" />
<path d="M27409 38152
L30007 38152
" />
<path d="M27409 37207
L30007 37207
" />
<path d="M27409 38152
L27409 37207
" />
<path d="M30007 38152
L30007 37207
" />
<path d="M15394 23007
L12796 23007
" />
<path d="M15394 23952
L12796 23952
" />
<path d="M15394 23007
L15394 23952
" />
<path d="M12796 23007
L12796 23952
" />
<path d="M29982 38407
L27383 38407
" />
<path d="M29982 39352
L27383 39352
" />
<path d="M29982 38407
L29982 39352
" />
<path d="M27383 38407
L27383 39352
" />
<path d="M32423 27468
L32423 30066
" />
<path d="M33368 27468
L33368 30066
" />
<path d="M32423 27468
L33368 27468
" />
<path d="M32423 30066
L33368 30066
" />
<path d="M31868 30091
L31868 27493
" />
<path d="M30923 30091
L30923 27493
" />
<path d="M31868 30091
L30923 30091
" />
<path d="M31868 27493
L30923 27493
" />
<path d="M67578 8156
L65413 8156
" />
<path d="M67578 5203
L65413 5203
" />
<path d="M67578 8156
L67578 5203
" />
<path d="M65413 8156
L65413 5203
" />
<path d="M63578 8156
L61413 8156
" />
<path d="M63578 5203
L61413 5203
" />
<path d="M63578 8156
L63578 5203
" />
<path d="M61413 8156
L61413 5203
" />
<path d="M58978 8056
L56813 8056
" />
<path d="M58978 5103
L56813 5103
" />
<path d="M58978 8056
L58978 5103
" />
<path d="M56813 8056
L56813 5103
" />
<path d="M54278 8156
L52113 8156
" />
<path d="M54278 5203
L52113 5203
" />
<path d="M54278 8156
L54278 5203
" />
<path d="M52113 8156
L52113 5203
" />
<path d="M49278 8156
L47113 8156
" />
<path d="M49278 5203
L47113 5203
" />
<path d="M49278 8156
L49278 5203
" />
<path d="M47113 8156
L47113 5203
" />
<path d="M67778 12556
L65613 12556
" />
<path d="M67778 9603
L65613 9603
" />
<path d="M67778 12556
L67778 9603
" />
<path d="M65613 12556
L65613 9603
" />
<path d="M63778 12456
L61613 12456
" />
<path d="M63778 9503
L61613 9503
" />
<path d="M63778 12456
L63778 9503
" />
<path d="M61613 12456
L61613 9503
" />
<path d="M59678 12556
L57513 12556
" />
<path d="M59678 9603
L57513 9603
" />
<path d="M59678 12556
L59678 9603
" />
<path d="M57513 12556
L57513 9603
" />
<path d="M55278 12556
L53113 12556
" />
<path d="M55278 9603
L53113 9603
" />
<path d="M55278 12556
L55278 9603
" />
<path d="M53113 12556
L53113 9603
" />
<path d="M50478 12656
L48313 12656
" />
<path d="M50478 9703
L48313 9703
" />
<path d="M50478 12656
L50478 9703
" />
<path d="M48313 12656
L48313 9703
" />
<path d="M24807 7127
L22209 7127
" />
<path d="M24807 8032
L22209 8032
" />
<path d="M24807 7127
L24807 8032
" />
<path d="M22209 7127
L22209 8032
" />
<path d="M12594 35827
L9996 35827
" />
<path d="M12594 36732
L9996 36732
" />
<path d="M12594 35827
L12594 36732
" />
<path d="M9996 35827
L9996 36732
" />
<path d="M12634 14983
L12634 18330
" />
<path d="M14957 18330
L14957 14983
" />
<path d="M14957 18330
L12634 18330
" />
<path d="M14957 14983
L12634 14983
" />
<path d="M73757 38953
L73757 35606
" />
<path d="M71434 35606
L71434 38953
" />
<path d="M71434 35606
L73757 35606
" />
<path d="M71434 38953
L73757 38953
" />
<path d="M59634 13806
L59634 17153
" />
<path d="M61957 17153
L61957 13806
" />
<path d="M61957 17153
L59634 17153
" />
<path d="M61957 13806
L59634 13806
" />
<path d="M64184 21106
L64184 24453
" />
<path d="M66507 24453
L66507 21106
" />
<path d="M66507 24453
L64184 24453
" />
<path d="M66507 21106
L64184 21106
" />
<path d="M54734 32083
L54734 35430
" />
<path d="M57057 35430
L57057 32083
" />
<path d="M57057 35430
L54734 35430
" />
<path d="M57057 32083
L54734 32083
" />
<path d="M63334 28406
L63334 31753
" />
<path d="M65657 31753
L65657 28406
" />
<path d="M65657 31753
L63334 31753
" />
<path d="M65657 28406
L63334 28406
" />
<path d="M13868 7118
L10522 7118
" />
<path d="M10522 9441
L13868 9441
" />
<path d="M10522 9441
L10522 7118
" />
<path d="M13868 9441
L13868 7118
" />
<path d="M7234 14606
L7234 17953
" />
<path d="M9557 17953
L9557 14606
" />
<path d="M9557 17953
L7234 17953
" />
<path d="M9557 14606
L7234 14606
" />
<path d="M16534 4406
L16534 7753
" />
<path d="M18857 7753
L18857 4406
" />
<path d="M18857 7753
L16534 7753
" />
<path d="M18857 4406
L16534 4406
" />
<path d="M26022 18441
L29368 18441
" />
<path d="M29368 16118
L26022 16118
" />
<path d="M29368 16118
L29368 18441
" />
<path d="M26022 16118
L26022 18441
" />
<path d="M15157 33853
L15157 30506
" />
<path d="M12834 30506
L12834 33853
" />
<path d="M12834 30506
L15157 30506
" />
<path d="M12834 33853
L15157 33853
" />
<path d="M68934 5006
L68934 8353
" />
<path d="M71257 8353
L71257 5006
" />
<path d="M71257 8353
L68934 8353
" />
<path d="M71257 5006
L68934 5006
" />
<path d="M71934 14306
L71934 17653
" />
<path d="M74257 17653
L74257 14306
" />
<path d="M74257 17653
L71934 17653
" />
<path d="M74257 14306
L71934 14306
" />
<path d="M68734 13206
L68734 16553
" />
<path d="M71057 16553
L71057 13206
" />
<path d="M71057 16553
L68734 16553
" />
<path d="M71057 13206
L68734 13206
" />
<path d="M27122 29841
L30468 29841
" />
<path d="M30468 27518
L27122 27518
" />
<path d="M30468 27518
L30468 29841
" />
<path d="M27122 27518
L27122 29841
" />
<path d="M23222 39441
L26568 39441
" />
<path d="M26568 37118
L23222 37118
" />
<path d="M26568 37118
L26568 39441
" />
<path d="M23222 37118
L23222 39441
" />
<path d="M11457 27353
L11457 24006
" />
<path d="M9134 24006
L9134 27353
" />
<path d="M9134 24006
L11457 24006
" />
<path d="M9134 27353
L11457 27353
" />
<circle cx="75495.8" cy="4079.92" r="1082.68" /> 
<circle cx="5695.76" cy="4079.92" r="1082.68" /> 
<circle cx="5695.76" cy="40079.9" r="1082.68" /> 
<circle cx="75495.8" cy="40079.9" r="1082.68" /> 
<circle cx="75495.8" cy="15079.9" r="393.701" /> 
<circle cx="5495.76" cy="15079.9" r="393.701" /> 
<path d="M53120 32172
L51152 32172
" />
<path d="M51152 32172
L51152 31187
" />
<path d="M51152 31187
L53120 31187
" />
<path d="M53120 31187
L53120 32172
" />
<path d="M53080 33772
L51111 33772
" />
<path d="M51111 33772
L51111 32787
" />
<path d="M51111 32787
L53080 32787
" />
<path d="M53080 32787
L53080 33772
" />
<path d="M46680 38972
L44711 38972
" />
<path d="M44711 38972
L44711 37987
" />
<path d="M44711 37987
L46680 37987
" />
<path d="M46680 37987
L46680 38972
" />
<path d="M18583 26667
L18583 23124
" />
<path d="M18583 23124
L17008 23124
" />
<path d="M17008 23124
L17008 26667
" />
<path d="M17008 26667
L18583 26667
" />
<path d="M66808 30708
L66808 34251
" />
<path d="M66808 34251
L68383 34251
" />
<path d="M68383 34251
L68383 30708
" />
<path d="M68383 30708
L66808 30708
" />
<path d="M66483 17551
L66483 14008
" />
<path d="M66483 14008
L64908 14008
" />
<path d="M64908 14008
L64908 17551
" />
<path d="M64908 17551
L66483 17551
" />
<path d="M69624 25467
L73167 25467
" />
<path d="M73167 25467
L73167 23892
" />
<path d="M73167 23892
L69624 23892
" />
<path d="M69624 23892
L69624 25467
" />
<path d="M62183 36651
L62183 33108
" />
<path d="M62183 33108
L60608 33108
" />
<path d="M60608 33108
L60608 36651
" />
<path d="M60608 36651
L62183 36651
" />
<path d="M71983 30851
L71983 27308
" />
<path d="M71983 27308
L70408 27308
" />
<path d="M70408 27308
L70408 30851
" />
<path d="M70408 30851
L71983 30851
" />
<path d="M49719 25062
L49719 22897
" />
<path d="M52672 25062
L52672 22897
" />
<path d="M49719 25062
L52672 25062
" />
<path d="M49719 22897
L52672 22897
" />
<path d="M39823 11893
L39823 14491
" />
<path d="M40768 11893
L40768 14491
" />
<path d="M39823 11893
L40768 11893
" />
<path d="M39823 14491
L40768 14491
" />
<path d="M48423 35393
L48423 37991
" />
<path d="M49368 35393
L49368 37991
" />
<path d="M48423 35393
L49368 35393
" />
<path d="M48423 37991
L49368 37991
" />
<path d="M61194 29107
L58596 29107
" />
<path d="M61194 30052
L58596 30052
" />
<path d="M61194 29107
L61194 30052
" />
<path d="M58596 29107
L58596 30052
" />
<path d="M42596 8952
L45194 8952
" />
<path d="M42596 8007
L45194 8007
" />
<path d="M42596 8952
L42596 8007
" />
<path d="M45194 8952
L45194 8007
" />
<path d="M53468 37966
L53468 35368
" />
<path d="M52523 37966
L52523 35368
" />
<path d="M53468 37966
L52523 37966
" />
<path d="M53468 35368
L52523 35368
" />
<path d="M45194 6307
L42596 6307
" />
<path d="M45194 7252
L42596 7252
" />
<path d="M45194 6307
L45194 7252
" />
<path d="M42596 6307
L42596 7252
" />
<path d="M50423 35293
L50423 37891
" />
<path d="M51368 35293
L51368 37891
" />
<path d="M50423 35293
L51368 35293
" />
<path d="M50423 37891
L51368 37891
" />
<path d="M38396 38952
L40994 38952
" />
<path d="M38396 38007
L40994 38007
" />
<path d="M38396 38952
L38396 38007
" />
<path d="M40994 38952
L40994 38007
" />
<path d="M58094 19507
L55496 19507
" />
<path d="M58094 20452
L55496 20452
" />
<path d="M58094 19507
L58094 20452
" />
<path d="M55496 19507
L55496 20452
" />
<path d="M26709 26852
L29307 26852
" />
<path d="M26709 25907
L29307 25907
" />
<path d="M26709 26852
L26709 25907
" />
<path d="M29307 26852
L29307 25907
" />
<path d="M45194 4707
L42596 4707
" />
<path d="M45194 5652
L42596 5652
" />
<path d="M45194 4707
L45194 5652
" />
<path d="M42596 4707
L42596 5652
" />
<path d="M36168 39091
L36168 36493
" />
<path d="M35223 39091
L35223 36493
" />
<path d="M36168 39091
L35223 39091
" />
<path d="M36168 36493
L35223 36493
" />
<path d="M31207 32707
L28609 32707
" />
<path d="M31207 33652
L28609 33652
" />
<path d="M31207 32707
L31207 33652
" />
<path d="M28609 32707
L28609 33652
" />
<path d="M19794 33407
L17196 33407
" />
<path d="M19794 34352
L17196 34352
" />
<path d="M19794 33407
L19794 34352
" />
<path d="M17196 33407
L17196 34352
" />
<path d="M19794 27807
L17196 27807
" />
<path d="M19794 28752
L17196 28752
" />
<path d="M19794 27807
L19794 28752
" />
<path d="M17196 27807
L17196 28752
" />
<path d="M31582 6607
L28983 6607
" />
<path d="M31582 7552
L28983 7552
" />
<path d="M31582 6607
L31582 7552
" />
<path d="M28983 6607
L28983 7552
" />
<path d="M36007 8407
L33409 8407
" />
<path d="M36007 9352
L33409 9352
" />
<path d="M36007 8407
L36007 9352
" />
<path d="M33409 8407
L33409 9352
" />
<path d="M31607 4907
L29009 4907
" />
<path d="M31607 5852
L29009 5852
" />
<path d="M31607 4907
L31607 5852
" />
<path d="M29009 4907
L29009 5852
" />
<path d="M47323 18380
L47323 20979
" />
<path d="M48268 18380
L48268 20979
" />
<path d="M47323 18380
L48268 18380
" />
<path d="M47323 20979
L48268 20979
" />
<path d="M49623 18380
L49623 20979
" />
<path d="M50568 18380
L50568 20979
" />
<path d="M49623 18380
L50568 18380
" />
<path d="M49623 20979
L50568 20979
" />
<path d="M21809 24252
L24407 24252
" />
<path d="M21809 23307
L24407 23307
" />
<path d="M21809 24252
L21809 23307
" />
<path d="M24407 24252
L24407 23307
" />
<path d="M52123 18380
L52123 20979
" />
<path d="M53068 18380
L53068 20979
" />
<path d="M52123 18380
L53068 18380
" />
<path d="M52123 20979
L53068 20979
" />
<path d="M21809 22952
L24407 22952
" />
<path d="M21809 22007
L24407 22007
" />
<path d="M21809 22952
L21809 22007
" />
<path d="M24407 22952
L24407 22007
" />
<path d="M21809 21652
L24407 21652
" />
<path d="M21809 20707
L24407 20707
" />
<path d="M21809 21652
L21809 20707
" />
<path d="M24407 21652
L24407 20707
" />
<path d="M21809 20352
L24407 20352
" />
<path d="M21809 19407
L24407 19407
" />
<path d="M21809 20352
L21809 19407
" />
<path d="M24407 20352
L24407 19407
" />
<path d="M21809 19052
L24407 19052
" />
<path d="M21809 18107
L24407 18107
" />
<path d="M21809 19052
L21809 18107
" />
<path d="M24407 19052
L24407 18107
" />
<path d="M21809 17752
L24407 17752
" />
<path d="M21809 16807
L24407 16807
" />
<path d="M21809 17752
L21809 16807
" />
<path d="M24407 17752
L24407 16807
" />
<path d="M21809 16452
L24407 16452
" />
<path d="M21809 15507
L24407 15507
" />
<path d="M21809 16452
L21809 15507
" />
<path d="M24407 16452
L24407 15507
" />
<path d="M21809 15152
L24407 15152
" />
<path d="M21809 14207
L24407 14207
" />
<path d="M21809 15152
L21809 14207
" />
<path d="M24407 15152
L24407 14207
" />
<path d="M28709 31852
L31307 31852
" />
<path d="M28709 30907
L31307 30907
" />
<path d="M28709 31852
L28709 30907
" />
<path d="M31307 31852
L31307 30907
" />
<path d="M17196 30552
L19794 30552
" />
<path d="M17196 29607
L19794 29607
" />
<path d="M17196 30552
L17196 29607
" />
<path d="M19794 30552
L19794 29607
" />
<path d="M33468 33266
L33468 30668
" />
<path d="M32523 33266
L32523 30668
" />
<path d="M33468 33266
L32523 33266
" />
<path d="M33468 30668
L32523 30668
" />
<path d="M17196 32552
L19794 32552
" />
<path d="M17196 31607
L19794 31607
" />
<path d="M17196 32552
L17196 31607
" />
<path d="M19794 32552
L19794 31607
" />
<path d="M29083 10052
L31682 10052
" />
<path d="M29083 9107
L31682 9107
" />
<path d="M29083 10052
L29083 9107
" />
<path d="M31682 10052
L31682 9107
" />
<path d="M33609 10952
L36207 10952
" />
<path d="M33609 10007
L36207 10007
" />
<path d="M33609 10952
L33609 10007
" />
<path d="M36207 10952
L36207 10007
" />
<path d="M33509 7452
L36107 7452
" />
<path d="M33509 6507
L36107 6507
" />
<path d="M33509 7452
L33509 6507
" />
<path d="M36107 7452
L36107 6507
" />
<path d="M33509 5952
L36107 5952
" />
<path d="M33509 5007
L36107 5007
" />
<path d="M33509 5952
L33509 5007
" />
<path d="M36107 5952
L36107 5007
" />
<path d="M42596 10652
L45194 10652
" />
<path d="M42596 9707
L45194 9707
" />
<path d="M42596 10652
L42596 9707
" />
<path d="M45194 10652
L45194 9707
" />
<path d="M21868 27991
L21868 25393
" />
<path d="M20923 27991
L20923 25393
" />
<path d="M21868 27991
L20923 27991
" />
<path d="M21868 25393
L20923 25393
" />
<path d="M24482 9607
L21883 9607
" />
<path d="M24482 10552
L21883 10552
" />
<path d="M24482 9607
L24482 10552
" />
<path d="M21883 9607
L21883 10552
" />
<path d="M46968 12479
L46968 9880
" />
<path d="M46023 12479
L46023 9880
" />
<path d="M46968 12479
L46023 12479
" />
<path d="M46968 9880
L46023 9880
" />
<path d="M26306 13290
L36700 13290
" />
<path d="M26306 14668
L36700 14668
" />
<path d="M26306 13290
L26306 14668
" />
<path d="M36700 13290
L36700 14668
" />
<path d="M26484 23090
L26484 26476
" />
<path d="M25106 23090
L25106 26476
" />
<path d="M26484 23090
L25106 23090
" />
<path d="M26484 26476
L25106 26476
" />
<path d="M19806 24368
L19806 13975
" />
<path d="M21184 24368
L21184 13975
" />
<path d="M19806 24368
L21184 24368
" />
<path d="M19806 13975
L21184 13975
" />
<path d="M74984 6690
L74984 12084
" />
<path d="M73606 6690
L73606 12084
" />
<path d="M74984 6690
L73606 6690
" />
<path d="M74984 12084
L73606 12084
" />
<path d="M25646 29315
L25646 36248
" />
<path d="M21552 29315
L21552 36248
" />
<path d="M25646 29315
L21552 29315
" />
<path d="M25646 36248
L21552 36248
" />
<path d="M55406 26968
L55406 21575
" />
<path d="M56784 26968
L56784 21575
" />
<path d="M55406 26968
L56784 26968
" />
<path d="M55406 21575
L56784 21575
" />
<path d="M48584 26590
L48584 28972
" />
<path d="M47206 26590
L47206 28972
" />
<path d="M48584 26590
L47206 26590
" />
<path d="M48584 28972
L47206 28972
" />
<path d="M48806 16968
L48806 14587
" />
<path d="M50184 16968
L50184 14587
" />
<path d="M48806 16968
L50184 16968
" />
<path d="M48806 14587
L50184 14587
" />
<path d="M50606 16968
L50606 14587
" />
<path d="M51984 16968
L51984 14587
" />
<path d="M50606 16968
L51984 16968
" />
<path d="M50606 14587
L51984 14587
" />
<path d="M52606 16968
L52606 14587
" />
<path d="M53984 16968
L53984 14587
" />
<path d="M52606 16968
L53984 16968
" />
<path d="M52606 14587
L53984 14587
" />
<path d="M50384 26590
L50384 28972
" />
<path d="M49006 26590
L49006 28972
" />
<path d="M50384 26590
L49006 26590
" />
<path d="M50384 28972
L49006 28972
" />
<path d="M29506 20490
L34900 20490
" />
<path d="M29506 21868
L34900 21868
" />
<path d="M29506 20490
L29506 21868
" />
<path d="M34900 20490
L34900 21868
" />
<path d="M44684 15890
L44684 18272
" />
<path d="M43306 15890
L43306 18272
" />
<path d="M44684 15890
L43306 15890
" />
<path d="M44684 18272
L43306 18272
" />
<path d="M65406 38768
L65406 36387
" />
<path d="M66784 38768
L66784 36387
" />
<path d="M65406 38768
L66784 38768
" />
<path d="M65406 36387
L66784 36387
" />
<path d="M64806 19040
L67188 19040
" />
<path d="M64806 20418
L67188 20418
" />
<path d="M64806 19040
L64806 20418
" />
<path d="M67188 19040
L67188 20418
" />
<path d="M72606 21890
L74988 21890
" />
<path d="M72606 23268
L74988 23268
" />
<path d="M72606 21890
L72606 23268
" />
<path d="M74988 21890
L74988 23268
" />
<path d="M64584 36390
L64584 38772
" />
<path d="M63206 36390
L63206 38772
" />
<path d="M64584 36390
L63206 36390
" />
<path d="M64584 38772
L63206 38772
" />
<path d="M75184 29790
L75184 32172
" />
<path d="M73806 29790
L73806 32172
" />
<path d="M75184 29790
L73806 29790
" />
<path d="M75184 32172
L73806 32172
" />
<path d="M17584 14268
L14198 14268
" />
<path d="M17584 12890
L14198 12890
" />
<path d="M17584 14268
L17584 12890
" />
<path d="M14198 14268
L14198 12890
" />
<path d="M13406 37990
L15788 37990
" />
<path d="M13406 39368
L15788 39368
" />
<path d="M13406 37990
L13406 39368
" />
<path d="M15788 37990
L15788 39368
" />
<path d="M22184 39368
L16791 39368
" />
<path d="M22184 37990
L16791 37990
" />
<path d="M22184 39368
L22184 37990
" />
<path d="M16791 39368
L16791 37990
" />
<path d="M32684 35390
L32684 39780
" />
<path d="M31306 35390
L31306 39780
" />
<path d="M32684 35390
L31306 35390
" />
<path d="M32684 39780
L31306 39780
" />
<path d="M38184 14640
L38184 16018
" />
<path d="M36806 14640
L36806 16018
" />
<path d="M38184 14640
L36806 14640
" />
<path d="M38184 16018
L36806 16018
" />
<path d="M43152 29027
L40947 29027
" />
<path d="M40947 31232
L43152 31232
" />
<path d="M40947.3 29027.6 A1102.36 1102.36 0.0 0 0 40947.3 31232.3 " />
<path d="M43152.1 31232.3 A1102.36 1102.36 0.0 0 0 43152.1 29027.6 " />
</g> 
</svg>
