<?xml version="1.0" standalone="no"?>
 <!DOCTYPE svg PUBLIC "-//W3C//DTD SVG 1.1//EN" 
 "http://www.w3.org/Graphics/SVG/1.1/DTD/svg11.dtd"> 
<svg xmlns="http://www.w3.org/2000/svg" version="1.1" 
    width="20.574cm" height="10.6172cm" viewBox="0 0 81000 41800 ">
<title>SVG Picture created as Weather Balloon-B.SilkS.svg date 2016/09/29 17:20:11 </title>
  <desc>Picture generated by PCBNEW </desc>
<g style="fill:#000000; fill-opacity:1;stroke:#000000; stroke-opacity:1;
stroke-linecap:round; stroke-linejoin:round; "
 transform="translate(0 0) scale(1 1)">
</g>
<g style="fill:#000000; fill-opacity:0.0; 
stroke:#000000; stroke-width:-0.000393701; stroke-opacity:1; 
stroke-linecap:round; stroke-linejoin:round;">
</g>
<g style="fill:#000000; fill-opacity:0.0; 
stroke:#000000; stroke-width:59.0551; stroke-opacity:1; 
stroke-linecap:round; stroke-linejoin:round;">
<path d="M4504 41079
L4504 3079
" />
<path d="M76304 41079
L4504 41079
" />
<path d="M76304 3079
L76304 41079
" />
<path d="M4504 3079
L76304 3079
" />
<path d="M69613 12251
L69557 12270
L69538 12289
L69519 12326
L69519 12383
L69538 12420
L69557 12439
L69594 12458
L69744 12458
L69744 12064
L69613 12064
L69576 12083
L69557 12101
L69538 12139
L69538 12176
L69557 12214
L69576 12233
L69613 12251
L69744 12251
" />
<path d="M69407 12064
L69182 12064
" />
<path d="M69294 12458
L69294 12064
" />
<path d="M68844 12458
L69069 12458
" />
<path d="M68957 12458
L68957 12064
L68994 12120
L69032 12158
L69069 12176
" />
<path d="M74232 16008
L74232 15614
L74082 15614
L74044 15633
L74026 15651
L74007 15689
L74007 15745
L74026 15783
L74044 15801
L74082 15820
L74232 15820
" />
<path d="M73632 16008
L73857 16008
" />
<path d="M73744 16008
L73744 15614
L73782 15670
L73819 15708
L73857 15726
" />
<path d="M73501 15614
L73238 15614
L73407 16008
" />
<path d="M54682 13308
L54682 12914
L54532 12914
L54494 12933
L54476 12951
L54457 12989
L54457 13045
L54476 13083
L54494 13101
L54532 13120
L54682 13120
" />
<path d="M54082 13308
L54307 13308
" />
<path d="M54194 13308
L54194 12914
L54232 12970
L54269 13008
L54307 13026
" />
<path d="M53894 13308
L53819 13308
L53782 13289
L53763 13270
L53726 13214
L53707 13139
L53707 12989
L53726 12951
L53744 12933
L53782 12914
L53857 12914
L53894 12933
L53913 12951
L53932 12989
L53932 13083
L53913 13120
L53894 13139
L53857 13158
L53782 13158
L53744 13139
L53726 13120
L53707 13083
" />
<path d="M73982 26008
L73982 25614
L73832 25614
L73794 25633
L73776 25651
L73757 25689
L73757 25745
L73776 25783
L73794 25801
L73832 25820
L73982 25820
" />
<path d="M73607 25651
L73588 25633
L73551 25614
L73457 25614
L73419 25633
L73401 25651
L73382 25689
L73382 25726
L73401 25783
L73626 26008
L73382 26008
" />
<path d="M73044 25614
L73119 25614
L73157 25633
L73176 25651
L73213 25708
L73232 25783
L73232 25933
L73213 25970
L73194 25989
L73157 26008
L73082 26008
L73044 25989
L73026 25970
L73007 25933
L73007 25839
L73026 25801
L73044 25783
L73082 25764
L73157 25764
L73194 25783
L73213 25801
L73232 25839
" />
<path d="M6932 29558
L6932 29164
L6782 29164
L6744 29183
L6726 29201
L6707 29239
L6707 29295
L6726 29333
L6744 29351
L6782 29370
L6932 29370
" />
<path d="M6557 29201
L6538 29183
L6501 29164
L6407 29164
L6369 29183
L6351 29201
L6332 29239
L6332 29276
L6351 29333
L6576 29558
L6332 29558
" />
<path d="M6107 29333
L6144 29314
L6163 29295
L6182 29258
L6182 29239
L6163 29201
L6144 29183
L6107 29164
L6032 29164
L5994 29183
L5976 29201
L5957 29239
L5957 29258
L5976 29295
L5994 29314
L6032 29333
L6107 29333
L6144 29351
L6163 29370
L6182 29408
L6182 29483
L6163 29520
L6144 29539
L6107 29558
L6032 29558
L5994 29539
L5976 29520
L5957 29483
L5957 29408
L5976 29370
L5994 29351
L6032 29333
" />
<path d="M40554 11614
L40554 11933
L40535 11970
L40516 11989
L40479 12008
L40404 12008
L40366 11989
L40347 11970
L40329 11933
L40329 11614
" />
<path d="M40179 11614
L39935 11614
L40066 11764
L40010 11764
L39973 11783
L39954 11801
L39935 11839
L39935 11933
L39954 11970
L39973 11989
L40010 12008
L40123 12008
L40160 11989
L40179 11970
" />
<path d="M44204 31664
L44204 31983
L44185 32020
L44166 32039
L44129 32058
L44054 32058
L44016 32039
L43997 32020
L43979 31983
L43979 31664
" />
<path d="M43604 31664
L43791 31664
L43810 31851
L43791 31833
L43754 31814
L43660 31814
L43623 31833
L43604 31851
L43585 31889
L43585 31983
L43604 32020
L43623 32039
L43660 32058
L43754 32058
L43791 32039
L43810 32020
" />
<path d="M68304.2 4129.92 A1343.5 1343.5 0.0 0 0 70204.2 4129.92 " />
<path d="M65150 11971
L65150 4097
" />
<path d="M65150 11971
L73457 11971
" />
<path d="M73457 11971
L73457 4097
" />
<path d="M73457 4097
L65150 4097
" />
<path d="M64964 16179
L64964 25329
" />
<path d="M74264 25329
L64964 25329
" />
<path d="M74264 25329
L74264 16179
" />
<path d="M74264 16179
L64964 16179
" />
<path d="M60844 29
L60844 4679
" />
<path d="M60844 4679
L62204 4679
" />
<path d="M56344 29
L56344 4679
" />
<path d="M56344 4679
L53604 4679
" />
<path d="M60844 29
L56344 29
" />
<path d="M62204 12779
L62204 4679
" />
<path d="M53594 4679
L53594 12779
" />
<path d="M53594 12779
L62204 12779
" />
<path d="M66004 34829
L74304 34829
" />
<path d="M66004 26129
L66004 34829
" />
<path d="M74304 34829
L74304 26129
" />
<path d="M74304 26129
L66004 26129
" />
<path d="M5894 23527
L12644 23527
" />
<path d="M12644 29031
L12644 23527
" />
<path d="M5894 29031
L5894 23527
" />
<path d="M5894 29031
L12644 29031
" />
<path d="M40057 11383
L40057 10883
" />
<path d="M42951 11383
L42951 10883
" />
<path d="M42951 4626
L42951 5126
" />
<path d="M40057 4626
L40057 5126
" />
<path d="M40057 11383
L42951 11383
" />
<path d="M40057 4626
L42951 4626
" />
<path d="M40057 10883
L39551 10883
" />
<path d="M45904 30829
L45904 40829
" />
<path d="M41904 30829
L41904 40829
" />
<path d="M41904 40829
L45904 40829
" />
<path d="M41904 30829
L45904 30829
" />
</g>
<g style="fill:#000000; fill-opacity:0.0; 
stroke:#000000; stroke-width:680; stroke-opacity:1; 
stroke-linecap:round; stroke-linejoin:round;">
<path d="M73714 19829
L73594 19829
" />
<path d="M73714 20829
L73594 20829
" />
<path d="M73714 21829
L73594 21829
" />
</g>
<g style="fill:#000000; fill-opacity:0.0; 
stroke:#000000; stroke-width:0; stroke-opacity:1; 
stroke-linecap:round; stroke-linejoin:round;">
</g>
<g style="fill:#000000; fill-opacity:1.0; 
stroke:#000000; stroke-width:0; stroke-opacity:1; 
stroke-linecap:round; stroke-linejoin:round;">
<polyline style="fill-rule:evenodd;"
points="74054,22489
74054,23169
73254,23169
73254,22489
74054,22489
" /> 
<polyline style="fill-rule:evenodd;"
points="53804,11019
53804,10339
54604,10339
54604,11019
53804,11019
" /> 
</g>
<g style="fill:#000000; fill-opacity:1.0; 
stroke:#000000; stroke-width:680; stroke-opacity:1; 
stroke-linecap:round; stroke-linejoin:round;">
</g>
<g style="fill:#000000; fill-opacity:0.0; 
stroke:#000000; stroke-width:680; stroke-opacity:1; 
stroke-linecap:round; stroke-linejoin:round;">
<path d="M54144 9679
L54264 9679
" />
<path d="M54144 8679
L54264 8679
" />
<path d="M54144 7679
L54264 7679
" />
<path d="M54144 6679
L54264 6679
" />
<path d="M54144 5679
L54264 5679
" />
</g>
<g style="fill:#000000; fill-opacity:0.0; 
stroke:#000000; stroke-width:0; stroke-opacity:1; 
stroke-linecap:round; stroke-linejoin:round;">
</g>
<g style="fill:#000000; fill-opacity:1.0; 
stroke:#000000; stroke-width:0; stroke-opacity:1; 
stroke-linecap:round; stroke-linejoin:round;">
<polyline style="fill-rule:evenodd;"
points="73804,27139
73804,27819
73004,27819
73004,27139
73804,27139
" /> 
</g>
<g style="fill:#000000; fill-opacity:1.0; 
stroke:#000000; stroke-width:680; stroke-opacity:1; 
stroke-linecap:round; stroke-linejoin:round;">
</g>
<g style="fill:#000000; fill-opacity:0.0; 
stroke:#000000; stroke-width:680; stroke-opacity:1; 
stroke-linecap:round; stroke-linejoin:round;">
<path d="M73464 28479
L73344 28479
" />
<path d="M73464 29479
L73344 29479
" />
<path d="M73464 30479
L73344 30479
" />
<path d="M73464 31479
L73344 31479
" />
<path d="M73464 32479
L73344 32479
" />
<path d="M73464 33479
L73344 33479
" />
</g>
<g style="fill:#000000; fill-opacity:0.0; 
stroke:#000000; stroke-width:0; stroke-opacity:1; 
stroke-linecap:round; stroke-linejoin:round;">
</g>
<g style="fill:#000000; fill-opacity:1.0; 
stroke:#000000; stroke-width:0; stroke-opacity:1; 
stroke-linecap:round; stroke-linejoin:round;">
<polyline style="fill-rule:evenodd;"
points="6104,27619
6104,26939
6904,26939
6904,27619
6104,27619
" /> 
</g>
<g style="fill:#000000; fill-opacity:1.0; 
stroke:#000000; stroke-width:680; stroke-opacity:1; 
stroke-linecap:round; stroke-linejoin:round;">
</g>
<g style="fill:#000000; fill-opacity:0.0; 
stroke:#000000; stroke-width:680; stroke-opacity:1; 
stroke-linecap:round; stroke-linejoin:round;">
<path d="M6444 26279
L6564 26279
" />
<path d="M6444 25279
L6564 25279
" />
</g>
<g style="fill:#000000; fill-opacity:0.0; 
stroke:#000000; stroke-width:629.921; stroke-opacity:1; 
stroke-linecap:round; stroke-linejoin:round;">
<path d="M39866 10479
L40142 10479
" />
<path d="M39866 9479
L40142 9479
" />
<path d="M39866 8479
L40142 8479
" />
<path d="M39866 7479
L40142 7479
" />
<path d="M39866 6479
L40142 6479
" />
<path d="M39866 5479
L40142 5479
" />
<path d="M42866 5479
L43142 5479
" />
<path d="M42866 6479
L43142 6479
" />
<path d="M42866 7479
L43142 7479
" />
<path d="M42866 8479
L43142 8479
" />
<path d="M42866 9479
L43142 9479
" />
<path d="M42866 10479
L43142 10479
" />
</g>
<g style="fill:#000000; fill-opacity:0.0; 
stroke:#000000; stroke-width:0; stroke-opacity:1; 
stroke-linecap:round; stroke-linejoin:round;">
</g>
<g style="fill:#000000; fill-opacity:1.0; 
stroke:#000000; stroke-width:0; stroke-opacity:1; 
stroke-linecap:round; stroke-linejoin:round;">
<polyline style="fill-rule:evenodd;"
points="41951,35394
41951,34764
42856,34764
42856,35394
41951,35394
" /> 
</g>
<g style="fill:#000000; fill-opacity:1.0; 
stroke:#000000; stroke-width:629.921; stroke-opacity:1; 
stroke-linecap:round; stroke-linejoin:round;">
</g>
<g style="fill:#000000; fill-opacity:0.0; 
stroke:#000000; stroke-width:629.921; stroke-opacity:1; 
stroke-linecap:round; stroke-linejoin:round;">
<path d="M42266 34079
L42542 34079
" />
<path d="M42266 33079
L42542 33079
" />
<path d="M45266 33079
L45542 33079
" />
<path d="M45266 34079
L45542 34079
" />
<path d="M45266 35079
L45542 35079
" />
</g> 
</svg>
