M48
;DRILL file {KiCad no-vcs-found-product} date Thu Sep 29 15:37:56 2016
;FORMAT={3:3/ absolute / metric / suppress leading zeros}
FMAT,2
METRIC,TZ
T1C0.300
T2C0.500
T3C0.762
T4C0.800
T5C0.800
T6C0.813
T7C1.016
T8C1.143
T9C2.500
%
G90
G05
M71
T1
X59690Y-78232
X237490Y-78232
T2
X60960Y-91567
X64872Y-55740
X67945Y-119634
X68834Y-95504
X70104Y-84074
X71882Y-122936
X73292Y-70523
X76159Y-61195
X77013Y-71730
X77470Y-77470
X78486Y-70383
X78673Y-67301
X78867Y-60198
X81788Y-61976
X81896Y-73552
X85372Y-71591
X86106Y-68072
X86233Y-57404
X86487Y-60325
X88392Y-60198
X88398Y-102451
X88646Y-71882
X88707Y-66597
X89087Y-55134
X89154Y-108712
X90424Y-104902
X91440Y-121158
X94488Y-113030
X94731Y-119671
X95926Y-66463
X96139Y-70104
X96979Y-57347
X98806Y-70612
X99568Y-57404
X100391Y-55122
X101600Y-88900
X103886Y-137922
X104394Y-74676
X106966Y-66442
X107438Y-71337
X108711Y-60313
X108712Y-52451
X108966Y-109728
X109547Y-88321
X109982Y-69759
X110490Y-110490
X110998Y-88392
X111094Y-130711
X111252Y-59690
X112268Y-73406
X112328Y-55061
X112398Y-88429
X112747Y-112021
X112776Y-83312
X115003Y-113963
X115570Y-85725
X116332Y-84455
X116332Y-98806
X116586Y-97282
X116840Y-104013
X117729Y-107569
X118364Y-74549
X118712Y-66724
X119804Y-71464
X120396Y-96012
X120523Y-87376
X121158Y-97282
X121793Y-59563
X121920Y-70739
X122047Y-108204
X122555Y-104267
X122682Y-97028
X122936Y-115062
X124774Y-55061
X125095Y-52324
X125495Y-116313
X127381Y-118198
X127508Y-104267
X127762Y-93980
X128778Y-97028
X129032Y-81951
X129540Y-79756
X130302Y-98806
X131064Y-66802
X131572Y-137668
X131572Y-140589
X132015Y-119551
X132020Y-114137
X132933Y-89288
X132969Y-63881
X133096Y-52578
X133096Y-112014
X133350Y-85852
X134069Y-101762
X134678Y-99659
X134747Y-59563
X134860Y-125520
X134874Y-54229
X135128Y-72644
X135431Y-119795
X135439Y-66022
X135509Y-56642
X135636Y-68453
X135763Y-70739
X136144Y-92710
X136144Y-130937
X136652Y-111252
X137160Y-93726
X137278Y-68025
X137716Y-79400
X137922Y-106680
X138176Y-77343
X138176Y-110998
X138544Y-117983
X139192Y-96266
X139954Y-106501
X140045Y-111506
X140256Y-98562
X141351Y-74041
X141859Y-68580
X142748Y-85090
X142748Y-90678
X143002Y-119126
X144018Y-63500
X144054Y-79315
X144082Y-73598
X144272Y-89408
X144780Y-84328
X145606Y-112916
X146304Y-77343
X147155Y-113309
X149098Y-127038
X149606Y-111506
X149606Y-118999
X149860Y-113030
X150114Y-78613
X150368Y-114554
X151384Y-115824
X152400Y-114554
X155574Y-125746
X156022Y-71170
X160274Y-108204
X161163Y-106934
X161798Y-94107
X162306Y-115062
X162814Y-85217
X163792Y-121539
X164122Y-119913
X164846Y-85852
X165862Y-115062
X168148Y-107188
X168656Y-84201
X168656Y-89535
X169164Y-108204
X170180Y-101346
X171351Y-69576
X173736Y-109347
X174244Y-140462
X174498Y-116078
X174498Y-133350
X176525Y-86426
X178927Y-86920
X179972Y-57429
X180975Y-102489
X181102Y-93091
X181229Y-88900
X181991Y-90170
X182245Y-126619
X182340Y-78962
X182499Y-129667
X183261Y-91821
X183642Y-110490
X183674Y-69164
X188218Y-108575
X188856Y-112029
X190210Y-116213
X190551Y-67598
X195072Y-56515
X197231Y-65659
X200065Y-106656
X201435Y-128664
X202540Y-105614
X204470Y-89408
X207304Y-96056
X209677Y-63881
X209918Y-120091
X210058Y-110871
X211150Y-116154
X211709Y-83820
X211836Y-94996
X212090Y-119380
X213424Y-133286
X218948Y-73533
X219611Y-129794
X220309Y-84808
X220726Y-96266
X220726Y-105283
X230886Y-87376
X231648Y-71882
T3
X142113Y-116459
X147193Y-116459
T4
X134874Y-115316
X147320Y-53848
X147320Y-56388
X147320Y-58928
X147320Y-61468
X147320Y-64008
X147320Y-66548
X153416Y-123952
X153416Y-126492
X153416Y-129032
X154940Y-53848
X154940Y-56388
X154940Y-58928
X154940Y-61468
X154940Y-64008
X154940Y-66548
X155448Y-116840
X161036Y-123952
X161036Y-126492
X161036Y-129032
X187706Y-116840
X187706Y-119380
X187706Y-121920
X187706Y-124460
X187706Y-127000
X187706Y-129540
X195326Y-116840
X195326Y-119380
X195326Y-121920
X195326Y-124460
X195326Y-127000
X195326Y-129540
T5
X137374Y-115316
X152948Y-116840
T6
X95250Y-94996
X95250Y-107696
X100330Y-94996
X100330Y-107696
T7
X62230Y-104140
X62230Y-106680
X62230Y-109220
X62230Y-117348
X62230Y-119888
X62738Y-58674
X62738Y-61214
X62738Y-63754
X62738Y-66294
X62738Y-68834
X62738Y-97282
X65278Y-97282
X82550Y-90043
X83566Y-134112
X83566Y-136652
X85090Y-90043
X89154Y-134112
X89154Y-136652
X108966Y-96520
X108966Y-99060
X108966Y-101600
X108966Y-104140
X108966Y-106680
X116078Y-78740
X116078Y-81280
X121158Y-78740
X121158Y-81280
X125222Y-109220
X125222Y-111760
X125730Y-78740
X125730Y-81280
X129794Y-109220
X129794Y-111760
X139700Y-82042
X139700Y-84582
X156210Y-78867
X160020Y-75438
X162560Y-75438
X164592Y-93726
X165100Y-75438
X167132Y-93726
X167640Y-75438
X169672Y-93726
X170180Y-75438
X170180Y-131572
X170180Y-134112
X170180Y-136652
X170180Y-139192
X172212Y-93726
X172720Y-75438
X174752Y-93726
X175260Y-75438
X177800Y-75438
X180340Y-75438
X182880Y-75438
X183388Y-54356
X183388Y-56896
X183388Y-59436
X183388Y-61976
X183388Y-64516
X183388Y-67056
X185928Y-100330
X185928Y-102870
X185928Y-105410
X196850Y-138176
X199390Y-77216
X199390Y-79756
X199390Y-82296
X199390Y-84836
X199390Y-87376
X199390Y-89916
X199390Y-92456
X199390Y-94996
X199390Y-97536
X199390Y-100076
X199390Y-138176
X201930Y-138176
X204470Y-138176
X207010Y-138176
X208534Y-74422
X211074Y-74422
X213106Y-138176
X213614Y-74422
X215646Y-138176
X232156Y-109728
X232156Y-112268
X232156Y-114808
X232156Y-117348
X232156Y-119888
X232156Y-122428
X232156Y-124968
X232791Y-90297
X232791Y-92837
X232791Y-95377
X232791Y-97917
T8
X223266Y-138684
X225806Y-138684
X228346Y-138684
T9
X59690Y-50292
X59690Y-141732
X236982Y-50292
X236982Y-141732
T0
M30
