<?xml version="1.0" standalone="no"?>
 <!DOCTYPE svg PUBLIC "-//W3C//DTD SVG 1.1//EN" 
 "http://www.w3.org/Graphics/SVG/1.1/DTD/svg11.dtd"> 
<svg xmlns="http://www.w3.org/2000/svg" version="1.1" 
    width="20.574cm" height="10.6172cm" viewBox="0 0 81000 41800 ">
<title>SVG Picture created as Weather Balloon-B.Fab.svg date 2016/09/29 17:20:11 </title>
  <desc>Picture generated by PCBNEW </desc>
<g style="fill:#000000; fill-opacity:1;stroke:#000000; stroke-opacity:1;
stroke-linecap:round; stroke-linejoin:round; "
 transform="translate(0 0) scale(1 1)">
</g>
<g style="fill:#000000; fill-opacity:0.0; 
stroke:#000000; stroke-width:-0.000393701; stroke-opacity:1; 
stroke-linecap:round; stroke-linejoin:round;">
</g>
<g style="fill:#000000; fill-opacity:0.0; 
stroke:#000000; stroke-width:59.0551; stroke-opacity:1; 
stroke-linecap:round; stroke-linejoin:round;">
<path d="M4504 41079
L4504 3079
" />
<path d="M76304 41079
L4504 41079
" />
<path d="M76304 3079
L76304 41079
" />
<path d="M4504 3079
L76304 3079
" />
<path d="M70504 3564
L70260 3564
L70391 3714
L70335 3714
L70297 3733
L70279 3751
L70260 3789
L70260 3883
L70279 3920
L70297 3939
L70335 3958
L70447 3958
L70485 3939
L70504 3920
" />
<path d="M70147 3564
L70016 3958
L69885 3564
" />
<path d="M69472 3601
L69454 3583
L69416 3564
L69322 3564
L69285 3583
L69266 3601
L69247 3639
L69247 3676
L69266 3733
L69491 3958
L69247 3958
" />
<path d="M69004 3564
L68966 3564
L68929 3583
L68910 3601
L68891 3639
L68873 3714
L68873 3808
L68891 3883
L68910 3920
L68929 3939
L68966 3958
L69004 3958
L69041 3939
L69060 3920
L69079 3883
L69098 3808
L69098 3714
L69079 3639
L69060 3601
L69041 3583
L69004 3564
" />
<path d="M68741 3564
L68498 3564
L68629 3714
L68573 3714
L68535 3733
L68516 3751
L68498 3789
L68498 3883
L68516 3920
L68535 3939
L68573 3958
L68685 3958
L68723 3939
L68741 3920
" />
<path d="M68348 3601
L68329 3583
L68291 3564
L68198 3564
L68160 3583
L68141 3601
L68123 3639
L68123 3676
L68141 3733
L68366 3958
L68123 3958
" />
<path d="M70504 16808
L70691 16808
L70691 16414
" />
<path d="M70391 16789
L70335 16808
L70241 16808
L70204 16789
L70185 16770
L70166 16733
L70166 16695
L70185 16658
L70204 16639
L70241 16620
L70316 16601
L70354 16583
L70372 16564
L70391 16526
L70391 16489
L70372 16451
L70354 16433
L70316 16414
L70222 16414
L70166 16433
" />
<path d="M69997 16808
L69997 16414
L69866 16695
L69735 16414
L69735 16808
" />
<path d="M69529 16808
L69454 16808
L69416 16789
L69397 16770
L69360 16714
L69341 16639
L69341 16489
L69360 16451
L69379 16433
L69416 16414
L69491 16414
L69529 16433
L69547 16451
L69566 16489
L69566 16583
L69547 16620
L69529 16639
L69491 16658
L69416 16658
L69379 16639
L69360 16620
L69341 16583
" />
<path d="M69173 16808
L69173 16414
L69079 16414
L69023 16433
L68985 16470
L68966 16508
L68948 16583
L68948 16639
L68966 16714
L68985 16751
L69023 16789
L69079 16808
L69173 16808
" />
<path d="M68798 16789
L68741 16808
L68648 16808
L68610 16789
L68591 16770
L68573 16733
L68573 16695
L68591 16658
L68610 16639
L68648 16620
L68723 16601
L68760 16583
L68779 16564
L68798 16526
L68798 16489
L68779 16451
L68760 16433
L68723 16414
L68629 16414
L68573 16433
" />
<path d="M68198 16808
L68423 16808
" />
<path d="M68310 16808
L68310 16414
L68348 16470
L68385 16508
L68423 16526
" />
<path d="M60122 12558
L60122 12164
L59991 12445
L59860 12164
L59860 12558
" />
<path d="M59672 12558
L59672 12164
" />
<path d="M59260 12520
L59279 12539
L59335 12558
L59372 12558
L59429 12539
L59466 12501
L59485 12464
L59504 12389
L59504 12333
L59485 12258
L59466 12220
L59429 12183
L59372 12164
L59335 12164
L59279 12183
L59260 12201
" />
<path d="M58866 12558
L58997 12370
" />
<path d="M59091 12558
L59091 12164
L58941 12164
L58904 12183
L58885 12201
L58866 12239
L58866 12295
L58885 12333
L58904 12351
L58941 12370
L59091 12370
" />
<path d="M58622 12164
L58547 12164
L58510 12183
L58472 12220
L58454 12295
L58454 12426
L58472 12501
L58510 12539
L58547 12558
L58622 12558
L58660 12539
L58697 12501
L58716 12426
L58716 12295
L58697 12220
L58660 12183
L58622 12164
" />
<path d="M58379 12595
L58079 12595
" />
<path d="M58004 12539
L57947 12558
L57854 12558
L57816 12539
L57797 12520
L57779 12483
L57779 12445
L57797 12408
L57816 12389
L57854 12370
L57929 12351
L57966 12333
L57985 12314
L58004 12276
L58004 12239
L57985 12201
L57966 12183
L57929 12164
L57835 12164
L57779 12183
" />
<path d="M57610 12558
L57610 12164
L57516 12164
L57460 12183
L57423 12220
L57404 12258
L57385 12333
L57385 12389
L57404 12464
L57423 12501
L57460 12539
L57516 12558
L57610 12558
" />
<path d="M57310 12595
L57010 12595
" />
<path d="M56691 12520
L56710 12539
L56766 12558
L56804 12558
L56860 12539
L56898 12501
L56916 12464
L56935 12389
L56935 12333
L56916 12258
L56898 12220
L56860 12183
L56804 12164
L56766 12164
L56710 12183
L56691 12201
" />
<path d="M56541 12445
L56354 12445
" />
<path d="M56579 12558
L56448 12164
L56316 12558
" />
<path d="M55960 12558
L56091 12370
" />
<path d="M56185 12558
L56185 12164
L56035 12164
L55998 12183
L55979 12201
L55960 12239
L55960 12295
L55979 12333
L55998 12351
L56035 12370
L56185 12370
" />
<path d="M55791 12558
L55791 12164
L55698 12164
L55642 12183
L55604 12220
L55585 12258
L55567 12333
L55567 12389
L55585 12464
L55604 12501
L55642 12539
L55698 12558
L55791 12558
" />
<path d="M71272 26658
L71272 26264
L71141 26545
L71010 26264
L71010 26658
" />
<path d="M70841 26639
L70785 26658
L70691 26658
L70654 26639
L70635 26620
L70616 26583
L70616 26545
L70635 26508
L70654 26489
L70691 26470
L70766 26451
L70804 26433
L70822 26414
L70841 26376
L70841 26339
L70822 26301
L70804 26283
L70766 26264
L70672 26264
L70616 26283
" />
<path d="M70260 26264
L70447 26264
L70466 26451
L70447 26433
L70410 26414
L70316 26414
L70279 26433
L70260 26451
L70241 26489
L70241 26583
L70260 26620
L70279 26639
L70316 26658
L70410 26658
L70447 26639
L70466 26620
" />
<path d="M69904 26264
L69979 26264
L70016 26283
L70035 26301
L70073 26358
L70091 26433
L70091 26583
L70073 26620
L70054 26639
L70016 26658
L69941 26658
L69904 26639
L69885 26620
L69866 26583
L69866 26489
L69885 26451
L69904 26433
L69941 26414
L70016 26414
L70054 26433
L70073 26451
L70091 26489
" />
<path d="M69623 26264
L69585 26264
L69548 26283
L69529 26301
L69510 26339
L69491 26414
L69491 26508
L69510 26583
L69529 26620
L69548 26639
L69585 26658
L69623 26658
L69660 26639
L69679 26620
L69698 26583
L69716 26508
L69716 26414
L69698 26339
L69679 26301
L69660 26283
L69623 26264
" />
<path d="M69360 26264
L69098 26264
L69266 26658
" />
<path d="M10575 29114
L10763 29114
L10782 29301
L10763 29283
L10725 29264
L10632 29264
L10594 29283
L10575 29301
L10557 29339
L10557 29433
L10575 29470
L10594 29489
L10632 29508
L10725 29508
L10763 29489
L10782 29470
" />
<path d="M10444 29114
L10313 29508
L10182 29114
" />
<path d="M10144 29545
L9844 29545
" />
<path d="M9619 29301
L9563 29320
L9544 29339
L9526 29376
L9526 29433
L9544 29470
L9563 29489
L9601 29508
L9751 29508
L9751 29114
L9619 29114
L9582 29133
L9563 29151
L9544 29189
L9544 29226
L9563 29264
L9582 29283
L9619 29301
L9751 29301
" />
<path d="M9282 29114
L9207 29114
L9169 29133
L9132 29170
L9113 29245
L9113 29376
L9132 29451
L9169 29489
L9207 29508
L9282 29508
L9319 29489
L9357 29451
L9376 29376
L9376 29245
L9357 29170
L9319 29133
L9282 29114
" />
<path d="M8869 29114
L8794 29114
L8757 29133
L8719 29170
L8701 29245
L8701 29376
L8719 29451
L8757 29489
L8794 29508
L8869 29508
L8907 29489
L8944 29451
L8963 29376
L8963 29245
L8944 29170
L8907 29133
L8869 29114
" />
<path d="M8551 29489
L8494 29508
L8401 29508
L8363 29489
L8344 29470
L8326 29433
L8326 29395
L8344 29358
L8363 29339
L8401 29320
L8476 29301
L8513 29283
L8532 29264
L8551 29226
L8551 29189
L8532 29151
L8513 29133
L8476 29114
L8382 29114
L8326 29133
" />
<path d="M8213 29114
L7988 29114
" />
<path d="M8101 29508
L8101 29114
" />
<path d="M43469 4201
L43413 4220
L43394 4239
L43375 4276
L43375 4333
L43394 4370
L43413 4389
L43450 4408
L43600 4408
L43600 4014
L43469 4014
L43432 4033
L43413 4051
L43394 4089
L43394 4126
L43413 4164
L43432 4183
L43469 4201
L43600 4201
" />
<path d="M43207 4408
L43207 4014
" />
<path d="M42832 4408
L43019 4408
L43019 4014
" />
<path d="M42700 4201
L42569 4201
" />
<path d="M42513 4408
L42700 4408
L42700 4014
L42513 4014
" />
<path d="M42401 4014
L42269 4408
L42138 4014
" />
<path d="M42007 4201
L41876 4201
" />
<path d="M41819 4408
L42007 4408
L42007 4014
L41819 4014
" />
<path d="M41463 4408
L41651 4408
L41651 4014
" />
<path d="M41426 4445
L41126 4445
" />
<path d="M41051 4389
L40994 4408
L40901 4408
L40863 4389
L40844 4370
L40826 4333
L40826 4295
L40844 4258
L40863 4239
L40901 4220
L40976 4201
L41013 4183
L41032 4164
L41051 4126
L41051 4089
L41032 4051
L41013 4033
L40976 4014
L40882 4014
L40826 4033
" />
<path d="M40657 4408
L40657 4014
" />
<path d="M40657 4201
L40432 4201
" />
<path d="M40432 4408
L40432 4014
" />
<path d="M40245 4408
L40245 4014
" />
<path d="M39926 4201
L40057 4201
" />
<path d="M40057 4408
L40057 4014
L39870 4014
" />
<path d="M39776 4014
L39551 4014
" />
<path d="M39663 4408
L39663 4014
" />
<path d="M45488 36451
L45619 36451
" />
<path d="M45619 36658
L45619 36264
L45432 36264
" />
<path d="M45282 36264
L45282 36583
L45263 36620
L45244 36639
L45207 36658
L45132 36658
L45094 36639
L45075 36620
L45057 36583
L45057 36264
" />
<path d="M44869 36451
L44738 36451
" />
<path d="M44682 36658
L44869 36658
L44869 36264
L44682 36264
" />
<path d="M44326 36658
L44513 36658
L44513 36264
" />
<path d="M44288 36695
L43988 36695
" />
<path d="M43688 36283
L43726 36264
L43782 36264
L43838 36283
L43876 36320
L43894 36358
L43913 36433
L43913 36489
L43894 36564
L43876 36601
L43838 36639
L43782 36658
L43744 36658
L43688 36639
L43669 36620
L43669 36489
L43744 36489
" />
<path d="M43519 36545
L43332 36545
" />
<path d="M43557 36658
L43426 36264
L43294 36658
" />
<path d="M43163 36264
L43163 36583
L43144 36620
L43126 36639
L43088 36658
L43013 36658
L42976 36639
L42957 36620
L42938 36583
L42938 36264
" />
<path d="M42545 36283
L42582 36264
L42638 36264
L42695 36283
L42732 36320
L42751 36358
L42770 36433
L42770 36489
L42751 36564
L42732 36601
L42695 36639
L42638 36658
L42601 36658
L42545 36639
L42526 36620
L42526 36489
L42601 36489
" />
<path d="M42357 36451
L42226 36451
" />
<path d="M42170 36658
L42357 36658
L42357 36264
L42170 36264
" />
</g> 
</svg>
