%FSLAX45Y45*%
G04 Gerber Fmt 4.5, Leading zero omitted, Abs format (unit mm)*
G04 Created by KiCad (PCBNEW no-vcs-found-product) date Thu Sep 29 15:37:55 2016*
%MOMM*%
%LPD*%
G01*
G04 APERTURE LIST*
%ADD10C,0.127000*%
%ADD11C,0.150000*%
%ADD12C,0.200000*%
%ADD13C,0.300000*%
G04 APERTURE END LIST*
D10*
D11*
X5715000Y-14427200D02*
X5715000Y-4775200D01*
X23952200Y-14427200D02*
X5715000Y-14427200D01*
X23952200Y-4775200D02*
X23952200Y-14427200D01*
X5715000Y-4775200D02*
X23952200Y-4775200D01*
D12*
X5954000Y-7808200D02*
X5984000Y-7838200D01*
X5984000Y-7808200D02*
X5954000Y-7838200D01*
X23734000Y-7808200D02*
X23764000Y-7838200D01*
X23764000Y-7808200D02*
X23734000Y-7838200D01*
X6121000Y-9156700D02*
G75*
G03X6121000Y-9156700I-25000J0D01*
G01*
X6512160Y-5574030D02*
G75*
G03X6512160Y-5574030I-25000J0D01*
G01*
X6819500Y-11963400D02*
G75*
G03X6819500Y-11963400I-25000J0D01*
G01*
X6908400Y-9550400D02*
G75*
G03X6908400Y-9550400I-25000J0D01*
G01*
X7035400Y-8407400D02*
G75*
G03X7035400Y-8407400I-25000J0D01*
G01*
X7213200Y-12293600D02*
G75*
G03X7213200Y-12293600I-25000J0D01*
G01*
X7354170Y-7052310D02*
G75*
G03X7354170Y-7052310I-25000J0D01*
G01*
X7640880Y-6119550D02*
G75*
G03X7640880Y-6119550I-25000J0D01*
G01*
X7726280Y-7172960D02*
G75*
G03X7726280Y-7172960I-25000J0D01*
G01*
X7772000Y-7747000D02*
G75*
G03X7772000Y-7747000I-25000J0D01*
G01*
X7873600Y-7038340D02*
G75*
G03X7873600Y-7038340I-25000J0D01*
G01*
X7892350Y-6730100D02*
G75*
G03X7892350Y-6730100I-25000J0D01*
G01*
X7911700Y-6019800D02*
G75*
G03X7911700Y-6019800I-25000J0D01*
G01*
X8203800Y-6197600D02*
G75*
G03X8203800Y-6197600I-25000J0D01*
G01*
X8214590Y-7355210D02*
G75*
G03X8214590Y-7355210I-25000J0D01*
G01*
X8562230Y-7159070D02*
G75*
G03X8562230Y-7159070I-25000J0D01*
G01*
X8635600Y-6807200D02*
G75*
G03X8635600Y-6807200I-25000J0D01*
G01*
X8648300Y-5740400D02*
G75*
G03X8648300Y-5740400I-25000J0D01*
G01*
X8673700Y-6032500D02*
G75*
G03X8673700Y-6032500I-25000J0D01*
G01*
X8864200Y-6019800D02*
G75*
G03X8864200Y-6019800I-25000J0D01*
G01*
X8864830Y-10245100D02*
G75*
G03X8864830Y-10245100I-25000J0D01*
G01*
X8889600Y-7188200D02*
G75*
G03X8889600Y-7188200I-25000J0D01*
G01*
X8895650Y-6659750D02*
G75*
G03X8895650Y-6659750I-25000J0D01*
G01*
X8933750Y-5513410D02*
G75*
G03X8933750Y-5513410I-25000J0D01*
G01*
X8940400Y-10871200D02*
G75*
G03X8940400Y-10871200I-25000J0D01*
G01*
X9067400Y-10490200D02*
G75*
G03X9067400Y-10490200I-25000J0D01*
G01*
X9169000Y-12115800D02*
G75*
G03X9169000Y-12115800I-25000J0D01*
G01*
X9473800Y-11303000D02*
G75*
G03X9473800Y-11303000I-25000J0D01*
G01*
X9498100Y-11967050D02*
G75*
G03X9498100Y-11967050I-25000J0D01*
G01*
X9617620Y-6646280D02*
G75*
G03X9617620Y-6646280I-25000J0D01*
G01*
X9638900Y-7010400D02*
G75*
G03X9638900Y-7010400I-25000J0D01*
G01*
X9722940Y-5734650D02*
G75*
G03X9722940Y-5734650I-25000J0D01*
G01*
X9905600Y-7061200D02*
G75*
G03X9905600Y-7061200I-25000J0D01*
G01*
X9981800Y-5740400D02*
G75*
G03X9981800Y-5740400I-25000J0D01*
G01*
X10064050Y-5512210D02*
G75*
G03X10064050Y-5512210I-25000J0D01*
G01*
X10185000Y-8890000D02*
G75*
G03X10185000Y-8890000I-25000J0D01*
G01*
X10413600Y-13792200D02*
G75*
G03X10413600Y-13792200I-25000J0D01*
G01*
X10464400Y-7467600D02*
G75*
G03X10464400Y-7467600I-25000J0D01*
G01*
X10721640Y-6644160D02*
G75*
G03X10721640Y-6644160I-25000J0D01*
G01*
X10768830Y-7133670D02*
G75*
G03X10768830Y-7133670I-25000J0D01*
G01*
X10896120Y-6031320D02*
G75*
G03X10896120Y-6031320I-25000J0D01*
G01*
X10896200Y-5245100D02*
G75*
G03X10896200Y-5245100I-25000J0D01*
G01*
X10921600Y-10972800D02*
G75*
G03X10921600Y-10972800I-25000J0D01*
G01*
X10979680Y-8832140D02*
G75*
G03X10979680Y-8832140I-25000J0D01*
G01*
X11023200Y-6975900D02*
G75*
G03X11023200Y-6975900I-25000J0D01*
G01*
X11074000Y-11049000D02*
G75*
G03X11074000Y-11049000I-25000J0D01*
G01*
X11124800Y-8839200D02*
G75*
G03X11124800Y-8839200I-25000J0D01*
G01*
X11134400Y-13071100D02*
G75*
G03X11134400Y-13071100I-25000J0D01*
G01*
X11150200Y-5969000D02*
G75*
G03X11150200Y-5969000I-25000J0D01*
G01*
X11251800Y-7340600D02*
G75*
G03X11251800Y-7340600I-25000J0D01*
G01*
X11257850Y-5506140D02*
G75*
G03X11257850Y-5506140I-25000J0D01*
G01*
X11264800Y-8842930D02*
G75*
G03X11264800Y-8842930I-25000J0D01*
G01*
X11299680Y-11202070D02*
G75*
G03X11299680Y-11202070I-25000J0D01*
G01*
X11302600Y-8331200D02*
G75*
G03X11302600Y-8331200I-25000J0D01*
G01*
X11525350Y-11396250D02*
G75*
G03X11525350Y-11396250I-25000J0D01*
G01*
X11582000Y-8572500D02*
G75*
G03X11582000Y-8572500I-25000J0D01*
G01*
X11658200Y-8445500D02*
G75*
G03X11658200Y-8445500I-25000J0D01*
G01*
X11658200Y-9880600D02*
G75*
G03X11658200Y-9880600I-25000J0D01*
G01*
X11683600Y-9728200D02*
G75*
G03X11683600Y-9728200I-25000J0D01*
G01*
X11709000Y-10401300D02*
G75*
G03X11709000Y-10401300I-25000J0D01*
G01*
X11797900Y-10756900D02*
G75*
G03X11797900Y-10756900I-25000J0D01*
G01*
X11861400Y-7454900D02*
G75*
G03X11861400Y-7454900I-25000J0D01*
G01*
X11896240Y-6672450D02*
G75*
G03X11896240Y-6672450I-25000J0D01*
G01*
X12005440Y-7146370D02*
G75*
G03X12005440Y-7146370I-25000J0D01*
G01*
X12064600Y-9601200D02*
G75*
G03X12064600Y-9601200I-25000J0D01*
G01*
X12077300Y-8737600D02*
G75*
G03X12077300Y-8737600I-25000J0D01*
G01*
X12140800Y-9728200D02*
G75*
G03X12140800Y-9728200I-25000J0D01*
G01*
X12204300Y-5956300D02*
G75*
G03X12204300Y-5956300I-25000J0D01*
G01*
X12217000Y-7073900D02*
G75*
G03X12217000Y-7073900I-25000J0D01*
G01*
X12229700Y-10820400D02*
G75*
G03X12229700Y-10820400I-25000J0D01*
G01*
X12280500Y-10426700D02*
G75*
G03X12280500Y-10426700I-25000J0D01*
G01*
X12293200Y-9702800D02*
G75*
G03X12293200Y-9702800I-25000J0D01*
G01*
X12318600Y-11506200D02*
G75*
G03X12318600Y-11506200I-25000J0D01*
G01*
X12502450Y-5506140D02*
G75*
G03X12502450Y-5506140I-25000J0D01*
G01*
X12534500Y-5232400D02*
G75*
G03X12534500Y-5232400I-25000J0D01*
G01*
X12574508Y-11631292D02*
G75*
G03X12574508Y-11631292I-25000J0D01*
G01*
X12763100Y-11819800D02*
G75*
G03X12763100Y-11819800I-25000J0D01*
G01*
X12775800Y-10426700D02*
G75*
G03X12775800Y-10426700I-25000J0D01*
G01*
X12801200Y-9398000D02*
G75*
G03X12801200Y-9398000I-25000J0D01*
G01*
X12902800Y-9702800D02*
G75*
G03X12902800Y-9702800I-25000J0D01*
G01*
X12928200Y-8195100D02*
G75*
G03X12928200Y-8195100I-25000J0D01*
G01*
X12979000Y-7975600D02*
G75*
G03X12979000Y-7975600I-25000J0D01*
G01*
X13055200Y-9880600D02*
G75*
G03X13055200Y-9880600I-25000J0D01*
G01*
X13131400Y-6680200D02*
G75*
G03X13131400Y-6680200I-25000J0D01*
G01*
X13182200Y-13766800D02*
G75*
G03X13182200Y-13766800I-25000J0D01*
G01*
X13182200Y-14058900D02*
G75*
G03X13182200Y-14058900I-25000J0D01*
G01*
X13226480Y-11955100D02*
G75*
G03X13226480Y-11955100I-25000J0D01*
G01*
X13227000Y-11413700D02*
G75*
G03X13227000Y-11413700I-25000J0D01*
G01*
X13318300Y-8928840D02*
G75*
G03X13318300Y-8928840I-25000J0D01*
G01*
X13321900Y-6388100D02*
G75*
G03X13321900Y-6388100I-25000J0D01*
G01*
X13334600Y-5257800D02*
G75*
G03X13334600Y-5257800I-25000J0D01*
G01*
X13334600Y-11201400D02*
G75*
G03X13334600Y-11201400I-25000J0D01*
G01*
X13360000Y-8585200D02*
G75*
G03X13360000Y-8585200I-25000J0D01*
G01*
X13431900Y-10176200D02*
G75*
G03X13431900Y-10176200I-25000J0D01*
G01*
X13492800Y-9965900D02*
G75*
G03X13492800Y-9965900I-25000J0D01*
G01*
X13499700Y-5956300D02*
G75*
G03X13499700Y-5956300I-25000J0D01*
G01*
X13511000Y-12551970D02*
G75*
G03X13511000Y-12551970I-25000J0D01*
G01*
X13512400Y-5422900D02*
G75*
G03X13512400Y-5422900I-25000J0D01*
G01*
X13537800Y-7264400D02*
G75*
G03X13537800Y-7264400I-25000J0D01*
G01*
X13568090Y-11979540D02*
G75*
G03X13568090Y-11979540I-25000J0D01*
G01*
X13568900Y-6602250D02*
G75*
G03X13568900Y-6602250I-25000J0D01*
G01*
X13575900Y-5664200D02*
G75*
G03X13575900Y-5664200I-25000J0D01*
G01*
X13588600Y-6845300D02*
G75*
G03X13588600Y-6845300I-25000J0D01*
G01*
X13601300Y-7073900D02*
G75*
G03X13601300Y-7073900I-25000J0D01*
G01*
X13639400Y-9271000D02*
G75*
G03X13639400Y-9271000I-25000J0D01*
G01*
X13639400Y-13093700D02*
G75*
G03X13639400Y-13093700I-25000J0D01*
G01*
X13690200Y-11125200D02*
G75*
G03X13690200Y-11125200I-25000J0D01*
G01*
X13741000Y-9372600D02*
G75*
G03X13741000Y-9372600I-25000J0D01*
G01*
X13752800Y-6802530D02*
G75*
G03X13752800Y-6802530I-25000J0D01*
G01*
X13796560Y-7940030D02*
G75*
G03X13796560Y-7940030I-25000J0D01*
G01*
X13817200Y-10668000D02*
G75*
G03X13817200Y-10668000I-25000J0D01*
G01*
X13842600Y-7734300D02*
G75*
G03X13842600Y-7734300I-25000J0D01*
G01*
X13842600Y-11099800D02*
G75*
G03X13842600Y-11099800I-25000J0D01*
G01*
X13879430Y-11798300D02*
G75*
G03X13879430Y-11798300I-25000J0D01*
G01*
X13944200Y-9626600D02*
G75*
G03X13944200Y-9626600I-25000J0D01*
G01*
X14020400Y-10650100D02*
G75*
G03X14020400Y-10650100I-25000J0D01*
G01*
X14029500Y-11150600D02*
G75*
G03X14029500Y-11150600I-25000J0D01*
G01*
X14050600Y-9856190D02*
G75*
G03X14050600Y-9856190I-25000J0D01*
G01*
X14160100Y-7404100D02*
G75*
G03X14160100Y-7404100I-25000J0D01*
G01*
X14210900Y-6858000D02*
G75*
G03X14210900Y-6858000I-25000J0D01*
G01*
X14299800Y-8509000D02*
G75*
G03X14299800Y-8509000I-25000J0D01*
G01*
X14299800Y-9067800D02*
G75*
G03X14299800Y-9067800I-25000J0D01*
G01*
X14325200Y-11912600D02*
G75*
G03X14325200Y-11912600I-25000J0D01*
G01*
X14426800Y-6350000D02*
G75*
G03X14426800Y-6350000I-25000J0D01*
G01*
X14430401Y-7931543D02*
G75*
G03X14430401Y-7931543I-25000J0D01*
G01*
X14433240Y-7359840D02*
G75*
G03X14433240Y-7359840I-25000J0D01*
G01*
X14452200Y-8940800D02*
G75*
G03X14452200Y-8940800I-25000J0D01*
G01*
X14503000Y-8432800D02*
G75*
G03X14503000Y-8432800I-25000J0D01*
G01*
X14585550Y-11291570D02*
G75*
G03X14585550Y-11291570I-25000J0D01*
G01*
X14655400Y-7734300D02*
G75*
G03X14655400Y-7734300I-25000J0D01*
G01*
X14740490Y-11330940D02*
G75*
G03X14740490Y-11330940I-25000J0D01*
G01*
X14934800Y-12703810D02*
G75*
G03X14934800Y-12703810I-25000J0D01*
G01*
X14985600Y-11150600D02*
G75*
G03X14985600Y-11150600I-25000J0D01*
G01*
X14985601Y-11899900D02*
G75*
G03X14985601Y-11899900I-25000J0D01*
G01*
X15011000Y-11303000D02*
G75*
G03X15011000Y-11303000I-25000J0D01*
G01*
X15036400Y-7861300D02*
G75*
G03X15036400Y-7861300I-25000J0D01*
G01*
X15061800Y-11455400D02*
G75*
G03X15061800Y-11455400I-25000J0D01*
G01*
X15163400Y-11582400D02*
G75*
G03X15163400Y-11582400I-25000J0D01*
G01*
X15265000Y-11455400D02*
G75*
G03X15265000Y-11455400I-25000J0D01*
G01*
X15582390Y-12574560D02*
G75*
G03X15582390Y-12574560I-25000J0D01*
G01*
X15627199Y-7117013D02*
G75*
G03X15627199Y-7117013I-25000J0D01*
G01*
X16052400Y-10820400D02*
G75*
G03X16052400Y-10820400I-25000J0D01*
G01*
X16141300Y-10693400D02*
G75*
G03X16141300Y-10693400I-25000J0D01*
G01*
X16204800Y-9410700D02*
G75*
G03X16204800Y-9410700I-25000J0D01*
G01*
X16255600Y-11506200D02*
G75*
G03X16255600Y-11506200I-25000J0D01*
G01*
X16306400Y-8521700D02*
G75*
G03X16306400Y-8521700I-25000J0D01*
G01*
X16404190Y-12153900D02*
G75*
G03X16404190Y-12153900I-25000J0D01*
G01*
X16437210Y-11991340D02*
G75*
G03X16437210Y-11991340I-25000J0D01*
G01*
X16509600Y-8585200D02*
G75*
G03X16509600Y-8585200I-25000J0D01*
G01*
X16611200Y-11506200D02*
G75*
G03X16611200Y-11506200I-25000J0D01*
G01*
X16839800Y-10718800D02*
G75*
G03X16839800Y-10718800I-25000J0D01*
G01*
X16890600Y-8420100D02*
G75*
G03X16890600Y-8420100I-25000J0D01*
G01*
X16890600Y-8953500D02*
G75*
G03X16890600Y-8953500I-25000J0D01*
G01*
X16941400Y-10820400D02*
G75*
G03X16941400Y-10820400I-25000J0D01*
G01*
X17043000Y-10134600D02*
G75*
G03X17043000Y-10134600I-25000J0D01*
G01*
X17160130Y-6957601D02*
G75*
G03X17160130Y-6957601I-25000J0D01*
G01*
X17398600Y-10934700D02*
G75*
G03X17398600Y-10934700I-25000J0D01*
G01*
X17449400Y-14046200D02*
G75*
G03X17449400Y-14046200I-25000J0D01*
G01*
X17474800Y-11607800D02*
G75*
G03X17474800Y-11607800I-25000J0D01*
G01*
X17474800Y-13335000D02*
G75*
G03X17474800Y-13335000I-25000J0D01*
G01*
X17677500Y-8642600D02*
G75*
G03X17677500Y-8642600I-25000J0D01*
G01*
X17917730Y-8692040D02*
G75*
G03X17917730Y-8692040I-25000J0D01*
G01*
X18022170Y-5742940D02*
G75*
G03X18022170Y-5742940I-25000J0D01*
G01*
X18122500Y-10248900D02*
G75*
G03X18122500Y-10248900I-25000J0D01*
G01*
X18135200Y-9309100D02*
G75*
G03X18135200Y-9309100I-25000J0D01*
G01*
X18147900Y-8890000D02*
G75*
G03X18147900Y-8890000I-25000J0D01*
G01*
X18224100Y-9017000D02*
G75*
G03X18224100Y-9017000I-25000J0D01*
G01*
X18249500Y-12661900D02*
G75*
G03X18249500Y-12661900I-25000J0D01*
G01*
X18259000Y-7896200D02*
G75*
G03X18259000Y-7896200I-25000J0D01*
G01*
X18274900Y-12966700D02*
G75*
G03X18274900Y-12966700I-25000J0D01*
G01*
X18351100Y-9182100D02*
G75*
G03X18351100Y-9182100I-25000J0D01*
G01*
X18389200Y-11049000D02*
G75*
G03X18389200Y-11049000I-25000J0D01*
G01*
X18392430Y-6916400D02*
G75*
G03X18392430Y-6916400I-25000J0D01*
G01*
X18846810Y-10857460D02*
G75*
G03X18846810Y-10857460I-25000J0D01*
G01*
X18910610Y-11202900D02*
G75*
G03X18910610Y-11202900I-25000J0D01*
G01*
X19046000Y-11621300D02*
G75*
G03X19046000Y-11621300I-25000J0D01*
G01*
X19080080Y-6759800D02*
G75*
G03X19080080Y-6759800I-25000J0D01*
G01*
X19532200Y-5651500D02*
G75*
G03X19532200Y-5651500I-25000J0D01*
G01*
X19748100Y-6565900D02*
G75*
G03X19748100Y-6565900I-25000J0D01*
G01*
X20031510Y-10665550D02*
G75*
G03X20031510Y-10665550I-25000J0D01*
G01*
X20168470Y-12866370D02*
G75*
G03X20168470Y-12866370I-25000J0D01*
G01*
X20279010Y-10561430D02*
G75*
G03X20279010Y-10561430I-25000J0D01*
G01*
X20472000Y-8940800D02*
G75*
G03X20472000Y-8940800I-25000J0D01*
G01*
X20755370Y-9605590D02*
G75*
G03X20755370Y-9605590I-25000J0D01*
G01*
X20992700Y-6388100D02*
G75*
G03X20992700Y-6388100I-25000J0D01*
G01*
X21016830Y-12009120D02*
G75*
G03X21016830Y-12009120I-25000J0D01*
G01*
X21030800Y-11087100D02*
G75*
G03X21030800Y-11087100I-25000J0D01*
G01*
X21140020Y-11615420D02*
G75*
G03X21140020Y-11615420I-25000J0D01*
G01*
X21195900Y-8382000D02*
G75*
G03X21195900Y-8382000I-25000J0D01*
G01*
X21208600Y-9499600D02*
G75*
G03X21208600Y-9499600I-25000J0D01*
G01*
X21234000Y-11938000D02*
G75*
G03X21234000Y-11938000I-25000J0D01*
G01*
X21367350Y-13328650D02*
G75*
G03X21367350Y-13328650I-25000J0D01*
G01*
X21919800Y-7353300D02*
G75*
G03X21919800Y-7353300I-25000J0D01*
G01*
X21986100Y-12979400D02*
G75*
G03X21986100Y-12979400I-25000J0D01*
G01*
X22055950Y-8480750D02*
G75*
G03X22055950Y-8480750I-25000J0D01*
G01*
X22097600Y-9626600D02*
G75*
G03X22097600Y-9626600I-25000J0D01*
G01*
X22097600Y-10528300D02*
G75*
G03X22097600Y-10528300I-25000J0D01*
G01*
X23113600Y-8737600D02*
G75*
G03X23113600Y-8737600I-25000J0D01*
G01*
X23189800Y-7188200D02*
G75*
G03X23189800Y-7188200I-25000J0D01*
G01*
X14211300Y-11607800D02*
X14211300Y-11684000D01*
X14173200Y-11645900D02*
X14249400Y-11645900D01*
X14719300Y-11607800D02*
X14719300Y-11684000D01*
X14681200Y-11645900D02*
X14757400Y-11645900D01*
X13515684Y-11559884D02*
X13515684Y-11503315D01*
X13459115Y-11503315D01*
X13459115Y-11559884D01*
X13515684Y-11559884D01*
X14760284Y-5413085D02*
X14760284Y-5356516D01*
X14703715Y-5356516D01*
X14703715Y-5413085D01*
X14760284Y-5413085D01*
X14760284Y-5667084D02*
X14760284Y-5610515D01*
X14703715Y-5610515D01*
X14703715Y-5667084D01*
X14760284Y-5667084D01*
X14760284Y-5921084D02*
X14760284Y-5864515D01*
X14703715Y-5864515D01*
X14703715Y-5921084D01*
X14760284Y-5921084D01*
X14760284Y-6175084D02*
X14760284Y-6118515D01*
X14703715Y-6118515D01*
X14703715Y-6175084D01*
X14760284Y-6175084D01*
X14760284Y-6429084D02*
X14760284Y-6372515D01*
X14703715Y-6372515D01*
X14703715Y-6429084D01*
X14760284Y-6429084D01*
X14760284Y-6683084D02*
X14760284Y-6626515D01*
X14703715Y-6626515D01*
X14703715Y-6683084D01*
X14760284Y-6683084D01*
X15369884Y-12423484D02*
X15369884Y-12366915D01*
X15313315Y-12366915D01*
X15313315Y-12423484D01*
X15369884Y-12423484D01*
X15369884Y-12677484D02*
X15369884Y-12620915D01*
X15313315Y-12620915D01*
X15313315Y-12677484D01*
X15369884Y-12677484D01*
X15369884Y-12931484D02*
X15369884Y-12874915D01*
X15313315Y-12874915D01*
X15313315Y-12931484D01*
X15369884Y-12931484D01*
X15522284Y-5413085D02*
X15522284Y-5356516D01*
X15465715Y-5356516D01*
X15465715Y-5413085D01*
X15522284Y-5413085D01*
X15522284Y-5667084D02*
X15522284Y-5610515D01*
X15465715Y-5610515D01*
X15465715Y-5667084D01*
X15522284Y-5667084D01*
X15522284Y-5921084D02*
X15522284Y-5864515D01*
X15465715Y-5864515D01*
X15465715Y-5921084D01*
X15522284Y-5921084D01*
X15522284Y-6175084D02*
X15522284Y-6118515D01*
X15465715Y-6118515D01*
X15465715Y-6175084D01*
X15522284Y-6175084D01*
X15522284Y-6429084D02*
X15522284Y-6372515D01*
X15465715Y-6372515D01*
X15465715Y-6429084D01*
X15522284Y-6429084D01*
X15522284Y-6683084D02*
X15522284Y-6626515D01*
X15465715Y-6626515D01*
X15465715Y-6683084D01*
X15522284Y-6683084D01*
X15573084Y-11712284D02*
X15573084Y-11655715D01*
X15516515Y-11655715D01*
X15516515Y-11712284D01*
X15573084Y-11712284D01*
X16131884Y-12423484D02*
X16131884Y-12366915D01*
X16075315Y-12366915D01*
X16075315Y-12423484D01*
X16131884Y-12423484D01*
X16131884Y-12677484D02*
X16131884Y-12620915D01*
X16075315Y-12620915D01*
X16075315Y-12677484D01*
X16131884Y-12677484D01*
X16131884Y-12931484D02*
X16131884Y-12874915D01*
X16075315Y-12874915D01*
X16075315Y-12931484D01*
X16131884Y-12931484D01*
X18798885Y-11712284D02*
X18798885Y-11655715D01*
X18742316Y-11655715D01*
X18742316Y-11712284D01*
X18798885Y-11712284D01*
X18798885Y-11966284D02*
X18798885Y-11909715D01*
X18742316Y-11909715D01*
X18742316Y-11966284D01*
X18798885Y-11966284D01*
X18798885Y-12220284D02*
X18798885Y-12163715D01*
X18742316Y-12163715D01*
X18742316Y-12220284D01*
X18798885Y-12220284D01*
X18798885Y-12474284D02*
X18798885Y-12417715D01*
X18742316Y-12417715D01*
X18742316Y-12474284D01*
X18798885Y-12474284D01*
X18798885Y-12728284D02*
X18798885Y-12671715D01*
X18742316Y-12671715D01*
X18742316Y-12728284D01*
X18798885Y-12728284D01*
X18798885Y-12982284D02*
X18798885Y-12925715D01*
X18742316Y-12925715D01*
X18742316Y-12982284D01*
X18798885Y-12982284D01*
X19560885Y-11712284D02*
X19560885Y-11655715D01*
X19504316Y-11655715D01*
X19504316Y-11712284D01*
X19560885Y-11712284D01*
X19560885Y-11966284D02*
X19560885Y-11909715D01*
X19504316Y-11909715D01*
X19504316Y-11966284D01*
X19560885Y-11966284D01*
X19560885Y-12220284D02*
X19560885Y-12163715D01*
X19504316Y-12163715D01*
X19504316Y-12220284D01*
X19560885Y-12220284D01*
X19560885Y-12474284D02*
X19560885Y-12417715D01*
X19504316Y-12417715D01*
X19504316Y-12474284D01*
X19560885Y-12474284D01*
X19560885Y-12728284D02*
X19560885Y-12671715D01*
X19504316Y-12671715D01*
X19504316Y-12728284D01*
X19560885Y-12728284D01*
X19560885Y-12982284D02*
X19560885Y-12925715D01*
X19504316Y-12925715D01*
X19504316Y-12982284D01*
X19560885Y-12982284D01*
X13737400Y-11571605D02*
X13777405Y-11531600D01*
X13737400Y-11491595D01*
X13697395Y-11531600D01*
X13737400Y-11571605D01*
X15294800Y-11724005D02*
X15334805Y-11684000D01*
X15294800Y-11643995D01*
X15254795Y-11684000D01*
X15294800Y-11724005D01*
X9484360Y-9458960D02*
X9565640Y-9540240D01*
X9565640Y-9458960D02*
X9484360Y-9540240D01*
X9565640Y-9499600D02*
G75*
G03X9565640Y-9499600I-40640J0D01*
G01*
X9484360Y-10728960D02*
X9565640Y-10810240D01*
X9565640Y-10728960D02*
X9484360Y-10810240D01*
X9565640Y-10769600D02*
G75*
G03X9565640Y-10769600I-40640J0D01*
G01*
X9992360Y-9458960D02*
X10073640Y-9540240D01*
X10073640Y-9458960D02*
X9992360Y-9540240D01*
X10073640Y-9499600D02*
G75*
G03X10073640Y-9499600I-40640J0D01*
G01*
X9992360Y-10728960D02*
X10073640Y-10810240D01*
X10073640Y-10728960D02*
X9992360Y-10810240D01*
X10073640Y-10769600D02*
G75*
G03X10073640Y-10769600I-40640J0D01*
G01*
X6172200Y-10363200D02*
X6273800Y-10464800D01*
X6273800Y-10363200D02*
X6172200Y-10464800D01*
X6223000Y-10363200D02*
X6223000Y-10464800D01*
X6172200Y-10414000D02*
X6273800Y-10414000D01*
X6172200Y-10617200D02*
X6273800Y-10718800D01*
X6273800Y-10617200D02*
X6172200Y-10718800D01*
X6223000Y-10617200D02*
X6223000Y-10718800D01*
X6172200Y-10668000D02*
X6273800Y-10668000D01*
X6172200Y-10871200D02*
X6273800Y-10972800D01*
X6273800Y-10871200D02*
X6172200Y-10972800D01*
X6223000Y-10871200D02*
X6223000Y-10972800D01*
X6172200Y-10922000D02*
X6273800Y-10922000D01*
X6172200Y-11684000D02*
X6273800Y-11785600D01*
X6273800Y-11684000D02*
X6172200Y-11785600D01*
X6223000Y-11684000D02*
X6223000Y-11785600D01*
X6172200Y-11734800D02*
X6273800Y-11734800D01*
X6172200Y-11938000D02*
X6273800Y-12039600D01*
X6273800Y-11938000D02*
X6172200Y-12039600D01*
X6223000Y-11938000D02*
X6223000Y-12039600D01*
X6172200Y-11988800D02*
X6273800Y-11988800D01*
X6223000Y-5816600D02*
X6324600Y-5918200D01*
X6324600Y-5816600D02*
X6223000Y-5918200D01*
X6273800Y-5816600D02*
X6273800Y-5918200D01*
X6223000Y-5867400D02*
X6324600Y-5867400D01*
X6223000Y-6070600D02*
X6324600Y-6172200D01*
X6324600Y-6070600D02*
X6223000Y-6172200D01*
X6273800Y-6070600D02*
X6273800Y-6172200D01*
X6223000Y-6121400D02*
X6324600Y-6121400D01*
X6223000Y-6324600D02*
X6324600Y-6426200D01*
X6324600Y-6324600D02*
X6223000Y-6426200D01*
X6273800Y-6324600D02*
X6273800Y-6426200D01*
X6223000Y-6375400D02*
X6324600Y-6375400D01*
X6223000Y-6578600D02*
X6324600Y-6680200D01*
X6324600Y-6578600D02*
X6223000Y-6680200D01*
X6273800Y-6578600D02*
X6273800Y-6680200D01*
X6223000Y-6629400D02*
X6324600Y-6629400D01*
X6223000Y-6832600D02*
X6324600Y-6934200D01*
X6324600Y-6832600D02*
X6223000Y-6934200D01*
X6273800Y-6832600D02*
X6273800Y-6934200D01*
X6223000Y-6883400D02*
X6324600Y-6883400D01*
X6223000Y-9677400D02*
X6324600Y-9779000D01*
X6324600Y-9677400D02*
X6223000Y-9779000D01*
X6273800Y-9677400D02*
X6273800Y-9779000D01*
X6223000Y-9728200D02*
X6324600Y-9728200D01*
X6477000Y-9677400D02*
X6578600Y-9779000D01*
X6578600Y-9677400D02*
X6477000Y-9779000D01*
X6527800Y-9677400D02*
X6527800Y-9779000D01*
X6477000Y-9728200D02*
X6578600Y-9728200D01*
X8204200Y-8953500D02*
X8305800Y-9055100D01*
X8305800Y-8953500D02*
X8204200Y-9055100D01*
X8255000Y-8953500D02*
X8255000Y-9055100D01*
X8204200Y-9004300D02*
X8305800Y-9004300D01*
X8305800Y-13360400D02*
X8407400Y-13462000D01*
X8407400Y-13360400D02*
X8305800Y-13462000D01*
X8356600Y-13360400D02*
X8356600Y-13462000D01*
X8305800Y-13411200D02*
X8407400Y-13411200D01*
X8305800Y-13614400D02*
X8407400Y-13716000D01*
X8407400Y-13614400D02*
X8305800Y-13716000D01*
X8356600Y-13614400D02*
X8356600Y-13716000D01*
X8305800Y-13665200D02*
X8407400Y-13665200D01*
X8458200Y-8953500D02*
X8559800Y-9055100D01*
X8559800Y-8953500D02*
X8458200Y-9055100D01*
X8509000Y-8953500D02*
X8509000Y-9055100D01*
X8458200Y-9004300D02*
X8559800Y-9004300D01*
X8864600Y-13360400D02*
X8966200Y-13462000D01*
X8966200Y-13360400D02*
X8864600Y-13462000D01*
X8915400Y-13360400D02*
X8915400Y-13462000D01*
X8864600Y-13411200D02*
X8966200Y-13411200D01*
X8864600Y-13614400D02*
X8966200Y-13716000D01*
X8966200Y-13614400D02*
X8864600Y-13716000D01*
X8915400Y-13614400D02*
X8915400Y-13716000D01*
X8864600Y-13665200D02*
X8966200Y-13665200D01*
X10845800Y-9601200D02*
X10947400Y-9702800D01*
X10947400Y-9601200D02*
X10845800Y-9702800D01*
X10896600Y-9601200D02*
X10896600Y-9702800D01*
X10845800Y-9652000D02*
X10947400Y-9652000D01*
X10845800Y-9855200D02*
X10947400Y-9956800D01*
X10947400Y-9855200D02*
X10845800Y-9956800D01*
X10896600Y-9855200D02*
X10896600Y-9956800D01*
X10845800Y-9906000D02*
X10947400Y-9906000D01*
X10845800Y-10109200D02*
X10947400Y-10210800D01*
X10947400Y-10109200D02*
X10845800Y-10210800D01*
X10896600Y-10109200D02*
X10896600Y-10210800D01*
X10845800Y-10160000D02*
X10947400Y-10160000D01*
X10845800Y-10363200D02*
X10947400Y-10464800D01*
X10947400Y-10363200D02*
X10845800Y-10464800D01*
X10896600Y-10363200D02*
X10896600Y-10464800D01*
X10845800Y-10414000D02*
X10947400Y-10414000D01*
X10845800Y-10617200D02*
X10947400Y-10718800D01*
X10947400Y-10617200D02*
X10845800Y-10718800D01*
X10896600Y-10617200D02*
X10896600Y-10718800D01*
X10845800Y-10668000D02*
X10947400Y-10668000D01*
X11557000Y-7823200D02*
X11658600Y-7924800D01*
X11658600Y-7823200D02*
X11557000Y-7924800D01*
X11607800Y-7823200D02*
X11607800Y-7924800D01*
X11557000Y-7874000D02*
X11658600Y-7874000D01*
X11557000Y-8077200D02*
X11658600Y-8178800D01*
X11658600Y-8077200D02*
X11557000Y-8178800D01*
X11607800Y-8077200D02*
X11607800Y-8178800D01*
X11557000Y-8128000D02*
X11658600Y-8128000D01*
X12065000Y-7823200D02*
X12166600Y-7924800D01*
X12166600Y-7823200D02*
X12065000Y-7924800D01*
X12115800Y-7823200D02*
X12115800Y-7924800D01*
X12065000Y-7874000D02*
X12166600Y-7874000D01*
X12065000Y-8077200D02*
X12166600Y-8178800D01*
X12166600Y-8077200D02*
X12065000Y-8178800D01*
X12115800Y-8077200D02*
X12115800Y-8178800D01*
X12065000Y-8128000D02*
X12166600Y-8128000D01*
X12471400Y-10871200D02*
X12573000Y-10972800D01*
X12573000Y-10871200D02*
X12471400Y-10972800D01*
X12522200Y-10871200D02*
X12522200Y-10972800D01*
X12471400Y-10922000D02*
X12573000Y-10922000D01*
X12471400Y-11125200D02*
X12573000Y-11226800D01*
X12573000Y-11125200D02*
X12471400Y-11226800D01*
X12522200Y-11125200D02*
X12522200Y-11226800D01*
X12471400Y-11176000D02*
X12573000Y-11176000D01*
X12522200Y-7823200D02*
X12623800Y-7924800D01*
X12623800Y-7823200D02*
X12522200Y-7924800D01*
X12573000Y-7823200D02*
X12573000Y-7924800D01*
X12522200Y-7874000D02*
X12623800Y-7874000D01*
X12522200Y-8077200D02*
X12623800Y-8178800D01*
X12623800Y-8077200D02*
X12522200Y-8178800D01*
X12573000Y-8077200D02*
X12573000Y-8178800D01*
X12522200Y-8128000D02*
X12623800Y-8128000D01*
X12928600Y-10871200D02*
X13030200Y-10972800D01*
X13030200Y-10871200D02*
X12928600Y-10972800D01*
X12979400Y-10871200D02*
X12979400Y-10972800D01*
X12928600Y-10922000D02*
X13030200Y-10922000D01*
X12928600Y-11125200D02*
X13030200Y-11226800D01*
X13030200Y-11125200D02*
X12928600Y-11226800D01*
X12979400Y-11125200D02*
X12979400Y-11226800D01*
X12928600Y-11176000D02*
X13030200Y-11176000D01*
X13919200Y-8153400D02*
X14020800Y-8255000D01*
X14020800Y-8153400D02*
X13919200Y-8255000D01*
X13970000Y-8153400D02*
X13970000Y-8255000D01*
X13919200Y-8204200D02*
X14020800Y-8204200D01*
X13919200Y-8407400D02*
X14020800Y-8509000D01*
X14020800Y-8407400D02*
X13919200Y-8509000D01*
X13970000Y-8407400D02*
X13970000Y-8509000D01*
X13919200Y-8458200D02*
X14020800Y-8458200D01*
X15570200Y-7835900D02*
X15671800Y-7937500D01*
X15671800Y-7835900D02*
X15570200Y-7937500D01*
X15621000Y-7835900D02*
X15621000Y-7937500D01*
X15570200Y-7886700D02*
X15671800Y-7886700D01*
X15951200Y-7493000D02*
X16052800Y-7594600D01*
X16052800Y-7493000D02*
X15951200Y-7594600D01*
X16002000Y-7493000D02*
X16002000Y-7594600D01*
X15951200Y-7543800D02*
X16052800Y-7543800D01*
X16205200Y-7493000D02*
X16306800Y-7594600D01*
X16306800Y-7493000D02*
X16205200Y-7594600D01*
X16256000Y-7493000D02*
X16256000Y-7594600D01*
X16205200Y-7543800D02*
X16306800Y-7543800D01*
X16408400Y-9321800D02*
X16510000Y-9423400D01*
X16510000Y-9321800D02*
X16408400Y-9423400D01*
X16459200Y-9321800D02*
X16459200Y-9423400D01*
X16408400Y-9372600D02*
X16510000Y-9372600D01*
X16459200Y-7493000D02*
X16560800Y-7594600D01*
X16560800Y-7493000D02*
X16459200Y-7594600D01*
X16510000Y-7493000D02*
X16510000Y-7594600D01*
X16459200Y-7543800D02*
X16560800Y-7543800D01*
X16662400Y-9321800D02*
X16764000Y-9423400D01*
X16764000Y-9321800D02*
X16662400Y-9423400D01*
X16713200Y-9321800D02*
X16713200Y-9423400D01*
X16662400Y-9372600D02*
X16764000Y-9372600D01*
X16713200Y-7493000D02*
X16814800Y-7594600D01*
X16814800Y-7493000D02*
X16713200Y-7594600D01*
X16764000Y-7493000D02*
X16764000Y-7594600D01*
X16713200Y-7543800D02*
X16814800Y-7543800D01*
X16916400Y-9321800D02*
X17018000Y-9423400D01*
X17018000Y-9321800D02*
X16916400Y-9423400D01*
X16967200Y-9321800D02*
X16967200Y-9423400D01*
X16916400Y-9372600D02*
X17018000Y-9372600D01*
X16967200Y-7493000D02*
X17068800Y-7594600D01*
X17068800Y-7493000D02*
X16967200Y-7594600D01*
X17018000Y-7493000D02*
X17018000Y-7594600D01*
X16967200Y-7543800D02*
X17068800Y-7543800D01*
X16967200Y-13106400D02*
X17068800Y-13208000D01*
X17068800Y-13106400D02*
X16967200Y-13208000D01*
X17018000Y-13106400D02*
X17018000Y-13208000D01*
X16967200Y-13157200D02*
X17068800Y-13157200D01*
X16967200Y-13360400D02*
X17068800Y-13462000D01*
X17068800Y-13360400D02*
X16967200Y-13462000D01*
X17018000Y-13360400D02*
X17018000Y-13462000D01*
X16967200Y-13411200D02*
X17068800Y-13411200D01*
X16967200Y-13614400D02*
X17068800Y-13716000D01*
X17068800Y-13614400D02*
X16967200Y-13716000D01*
X17018000Y-13614400D02*
X17018000Y-13716000D01*
X16967200Y-13665200D02*
X17068800Y-13665200D01*
X16967200Y-13868400D02*
X17068800Y-13970000D01*
X17068800Y-13868400D02*
X16967200Y-13970000D01*
X17018000Y-13868400D02*
X17018000Y-13970000D01*
X16967200Y-13919200D02*
X17068800Y-13919200D01*
X17170400Y-9321800D02*
X17272000Y-9423400D01*
X17272000Y-9321800D02*
X17170400Y-9423400D01*
X17221200Y-9321800D02*
X17221200Y-9423400D01*
X17170400Y-9372600D02*
X17272000Y-9372600D01*
X17221200Y-7493000D02*
X17322800Y-7594600D01*
X17322800Y-7493000D02*
X17221200Y-7594600D01*
X17272000Y-7493000D02*
X17272000Y-7594600D01*
X17221200Y-7543800D02*
X17322800Y-7543800D01*
X17424400Y-9321800D02*
X17526000Y-9423400D01*
X17526000Y-9321800D02*
X17424400Y-9423400D01*
X17475200Y-9321800D02*
X17475200Y-9423400D01*
X17424400Y-9372600D02*
X17526000Y-9372600D01*
X17475200Y-7493000D02*
X17576800Y-7594600D01*
X17576800Y-7493000D02*
X17475200Y-7594600D01*
X17526000Y-7493000D02*
X17526000Y-7594600D01*
X17475200Y-7543800D02*
X17576800Y-7543800D01*
X17729200Y-7493000D02*
X17830800Y-7594600D01*
X17830800Y-7493000D02*
X17729200Y-7594600D01*
X17780000Y-7493000D02*
X17780000Y-7594600D01*
X17729200Y-7543800D02*
X17830800Y-7543800D01*
X17983200Y-7493000D02*
X18084800Y-7594600D01*
X18084800Y-7493000D02*
X17983200Y-7594600D01*
X18034000Y-7493000D02*
X18034000Y-7594600D01*
X17983200Y-7543800D02*
X18084800Y-7543800D01*
X18237200Y-7493000D02*
X18338800Y-7594600D01*
X18338800Y-7493000D02*
X18237200Y-7594600D01*
X18288000Y-7493000D02*
X18288000Y-7594600D01*
X18237200Y-7543800D02*
X18338800Y-7543800D01*
X18288000Y-5384800D02*
X18389600Y-5486400D01*
X18389600Y-5384800D02*
X18288000Y-5486400D01*
X18338800Y-5384800D02*
X18338800Y-5486400D01*
X18288000Y-5435600D02*
X18389600Y-5435600D01*
X18288000Y-5638800D02*
X18389600Y-5740400D01*
X18389600Y-5638800D02*
X18288000Y-5740400D01*
X18338800Y-5638800D02*
X18338800Y-5740400D01*
X18288000Y-5689600D02*
X18389600Y-5689600D01*
X18288000Y-5892800D02*
X18389600Y-5994400D01*
X18389600Y-5892800D02*
X18288000Y-5994400D01*
X18338800Y-5892800D02*
X18338800Y-5994400D01*
X18288000Y-5943600D02*
X18389600Y-5943600D01*
X18288000Y-6146800D02*
X18389600Y-6248400D01*
X18389600Y-6146800D02*
X18288000Y-6248400D01*
X18338800Y-6146800D02*
X18338800Y-6248400D01*
X18288000Y-6197600D02*
X18389600Y-6197600D01*
X18288000Y-6400800D02*
X18389600Y-6502400D01*
X18389600Y-6400800D02*
X18288000Y-6502400D01*
X18338800Y-6400800D02*
X18338800Y-6502400D01*
X18288000Y-6451600D02*
X18389600Y-6451600D01*
X18288000Y-6654800D02*
X18389600Y-6756400D01*
X18389600Y-6654800D02*
X18288000Y-6756400D01*
X18338800Y-6654800D02*
X18338800Y-6756400D01*
X18288000Y-6705600D02*
X18389600Y-6705600D01*
X18542000Y-9982200D02*
X18643600Y-10083800D01*
X18643600Y-9982200D02*
X18542000Y-10083800D01*
X18592800Y-9982200D02*
X18592800Y-10083800D01*
X18542000Y-10033000D02*
X18643600Y-10033000D01*
X18542000Y-10236200D02*
X18643600Y-10337800D01*
X18643600Y-10236200D02*
X18542000Y-10337800D01*
X18592800Y-10236200D02*
X18592800Y-10337800D01*
X18542000Y-10287000D02*
X18643600Y-10287000D01*
X18542000Y-10490200D02*
X18643600Y-10591800D01*
X18643600Y-10490200D02*
X18542000Y-10591800D01*
X18592800Y-10490200D02*
X18592800Y-10591800D01*
X18542000Y-10541000D02*
X18643600Y-10541000D01*
X19634200Y-13766800D02*
X19735800Y-13868400D01*
X19735800Y-13766800D02*
X19634200Y-13868400D01*
X19685000Y-13766800D02*
X19685000Y-13868400D01*
X19634200Y-13817600D02*
X19735800Y-13817600D01*
X19888200Y-7670800D02*
X19989800Y-7772400D01*
X19989800Y-7670800D02*
X19888200Y-7772400D01*
X19939000Y-7670800D02*
X19939000Y-7772400D01*
X19888200Y-7721600D02*
X19989800Y-7721600D01*
X19888200Y-7924800D02*
X19989800Y-8026400D01*
X19989800Y-7924800D02*
X19888200Y-8026400D01*
X19939000Y-7924800D02*
X19939000Y-8026400D01*
X19888200Y-7975600D02*
X19989800Y-7975600D01*
X19888200Y-8178800D02*
X19989800Y-8280400D01*
X19989800Y-8178800D02*
X19888200Y-8280400D01*
X19939000Y-8178800D02*
X19939000Y-8280400D01*
X19888200Y-8229600D02*
X19989800Y-8229600D01*
X19888200Y-8432800D02*
X19989800Y-8534400D01*
X19989800Y-8432800D02*
X19888200Y-8534400D01*
X19939000Y-8432800D02*
X19939000Y-8534400D01*
X19888200Y-8483600D02*
X19989800Y-8483600D01*
X19888200Y-8686800D02*
X19989800Y-8788400D01*
X19989800Y-8686800D02*
X19888200Y-8788400D01*
X19939000Y-8686800D02*
X19939000Y-8788400D01*
X19888200Y-8737600D02*
X19989800Y-8737600D01*
X19888200Y-8940800D02*
X19989800Y-9042400D01*
X19989800Y-8940800D02*
X19888200Y-9042400D01*
X19939000Y-8940800D02*
X19939000Y-9042400D01*
X19888200Y-8991600D02*
X19989800Y-8991600D01*
X19888200Y-9194800D02*
X19989800Y-9296400D01*
X19989800Y-9194800D02*
X19888200Y-9296400D01*
X19939000Y-9194800D02*
X19939000Y-9296400D01*
X19888200Y-9245600D02*
X19989800Y-9245600D01*
X19888200Y-9448800D02*
X19989800Y-9550400D01*
X19989800Y-9448800D02*
X19888200Y-9550400D01*
X19939000Y-9448800D02*
X19939000Y-9550400D01*
X19888200Y-9499600D02*
X19989800Y-9499600D01*
X19888200Y-9702800D02*
X19989800Y-9804400D01*
X19989800Y-9702800D02*
X19888200Y-9804400D01*
X19939000Y-9702800D02*
X19939000Y-9804400D01*
X19888200Y-9753600D02*
X19989800Y-9753600D01*
X19888200Y-9956800D02*
X19989800Y-10058400D01*
X19989800Y-9956800D02*
X19888200Y-10058400D01*
X19939000Y-9956800D02*
X19939000Y-10058400D01*
X19888200Y-10007600D02*
X19989800Y-10007600D01*
X19888200Y-13766800D02*
X19989800Y-13868400D01*
X19989800Y-13766800D02*
X19888200Y-13868400D01*
X19939000Y-13766800D02*
X19939000Y-13868400D01*
X19888200Y-13817600D02*
X19989800Y-13817600D01*
X20142200Y-13766800D02*
X20243800Y-13868400D01*
X20243800Y-13766800D02*
X20142200Y-13868400D01*
X20193000Y-13766800D02*
X20193000Y-13868400D01*
X20142200Y-13817600D02*
X20243800Y-13817600D01*
X20396200Y-13766800D02*
X20497800Y-13868400D01*
X20497800Y-13766800D02*
X20396200Y-13868400D01*
X20447000Y-13766800D02*
X20447000Y-13868400D01*
X20396200Y-13817600D02*
X20497800Y-13817600D01*
X20650200Y-13766800D02*
X20751800Y-13868400D01*
X20751800Y-13766800D02*
X20650200Y-13868400D01*
X20701000Y-13766800D02*
X20701000Y-13868400D01*
X20650200Y-13817600D02*
X20751800Y-13817600D01*
X20802600Y-7391400D02*
X20904200Y-7493000D01*
X20904200Y-7391400D02*
X20802600Y-7493000D01*
X20853400Y-7391400D02*
X20853400Y-7493000D01*
X20802600Y-7442200D02*
X20904200Y-7442200D01*
X21056600Y-7391400D02*
X21158200Y-7493000D01*
X21158200Y-7391400D02*
X21056600Y-7493000D01*
X21107400Y-7391400D02*
X21107400Y-7493000D01*
X21056600Y-7442200D02*
X21158200Y-7442200D01*
X21259800Y-13766800D02*
X21361400Y-13868400D01*
X21361400Y-13766800D02*
X21259800Y-13868400D01*
X21310600Y-13766800D02*
X21310600Y-13868400D01*
X21259800Y-13817600D02*
X21361400Y-13817600D01*
X21310600Y-7391400D02*
X21412200Y-7493000D01*
X21412200Y-7391400D02*
X21310600Y-7493000D01*
X21361400Y-7391400D02*
X21361400Y-7493000D01*
X21310600Y-7442200D02*
X21412200Y-7442200D01*
X21513800Y-13766800D02*
X21615400Y-13868400D01*
X21615400Y-13766800D02*
X21513800Y-13868400D01*
X21564600Y-13766800D02*
X21564600Y-13868400D01*
X21513800Y-13817600D02*
X21615400Y-13817600D01*
X23164800Y-10922000D02*
X23266400Y-11023600D01*
X23266400Y-10922000D02*
X23164800Y-11023600D01*
X23215600Y-10922000D02*
X23215600Y-11023600D01*
X23164800Y-10972800D02*
X23266400Y-10972800D01*
X23164800Y-11176000D02*
X23266400Y-11277600D01*
X23266400Y-11176000D02*
X23164800Y-11277600D01*
X23215600Y-11176000D02*
X23215600Y-11277600D01*
X23164800Y-11226800D02*
X23266400Y-11226800D01*
X23164800Y-11430000D02*
X23266400Y-11531600D01*
X23266400Y-11430000D02*
X23164800Y-11531600D01*
X23215600Y-11430000D02*
X23215600Y-11531600D01*
X23164800Y-11480800D02*
X23266400Y-11480800D01*
X23164800Y-11684000D02*
X23266400Y-11785600D01*
X23266400Y-11684000D02*
X23164800Y-11785600D01*
X23215600Y-11684000D02*
X23215600Y-11785600D01*
X23164800Y-11734800D02*
X23266400Y-11734800D01*
X23164800Y-11938000D02*
X23266400Y-12039600D01*
X23266400Y-11938000D02*
X23164800Y-12039600D01*
X23215600Y-11938000D02*
X23215600Y-12039600D01*
X23164800Y-11988800D02*
X23266400Y-11988800D01*
X23164800Y-12192000D02*
X23266400Y-12293600D01*
X23266400Y-12192000D02*
X23164800Y-12293600D01*
X23215600Y-12192000D02*
X23215600Y-12293600D01*
X23164800Y-12242800D02*
X23266400Y-12242800D01*
X23164800Y-12446000D02*
X23266400Y-12547600D01*
X23266400Y-12446000D02*
X23164800Y-12547600D01*
X23215600Y-12446000D02*
X23215600Y-12547600D01*
X23164800Y-12496800D02*
X23266400Y-12496800D01*
X23228300Y-8978900D02*
X23329900Y-9080500D01*
X23329900Y-8978900D02*
X23228300Y-9080500D01*
X23279100Y-8978900D02*
X23279100Y-9080500D01*
X23228300Y-9029700D02*
X23329900Y-9029700D01*
X23228300Y-9232900D02*
X23329900Y-9334500D01*
X23329900Y-9232900D02*
X23228300Y-9334500D01*
X23279100Y-9232900D02*
X23279100Y-9334500D01*
X23228300Y-9283700D02*
X23329900Y-9283700D01*
X23228300Y-9486900D02*
X23329900Y-9588500D01*
X23329900Y-9486900D02*
X23228300Y-9588500D01*
X23279100Y-9486900D02*
X23279100Y-9588500D01*
X23228300Y-9537700D02*
X23329900Y-9537700D01*
X23228300Y-9740900D02*
X23329900Y-9842500D01*
X23329900Y-9740900D02*
X23228300Y-9842500D01*
X23279100Y-9740900D02*
X23279100Y-9842500D01*
X23228300Y-9791700D02*
X23329900Y-9791700D01*
X22269450Y-13811250D02*
X22383750Y-13925550D01*
X22383750Y-13811250D02*
X22269450Y-13925550D01*
X22367012Y-13908811D02*
X22367012Y-13827988D01*
X22286189Y-13827988D01*
X22286189Y-13908811D01*
X22367012Y-13908811D01*
X22523450Y-13811250D02*
X22637750Y-13925550D01*
X22637750Y-13811250D02*
X22523450Y-13925550D01*
X22621011Y-13908811D02*
X22621011Y-13827988D01*
X22540188Y-13827988D01*
X22540188Y-13908811D01*
X22621011Y-13908811D01*
X22777450Y-13811250D02*
X22891750Y-13925550D01*
X22891750Y-13811250D02*
X22777450Y-13925550D01*
X22875011Y-13908811D02*
X22875011Y-13827988D01*
X22794188Y-13827988D01*
X22794188Y-13908811D01*
X22875011Y-13908811D01*
X5844000Y-4904200D02*
X6094000Y-5154200D01*
X6094000Y-4904200D02*
X5844000Y-5154200D01*
X5969000Y-5154200D02*
X6094000Y-5029200D01*
X5969000Y-4904200D01*
X5844000Y-5029200D01*
X5969000Y-5154200D01*
X5844000Y-14048200D02*
X6094000Y-14298200D01*
X6094000Y-14048200D02*
X5844000Y-14298200D01*
X5969000Y-14298200D02*
X6094000Y-14173200D01*
X5969000Y-14048200D01*
X5844000Y-14173200D01*
X5969000Y-14298200D01*
X23573200Y-4904200D02*
X23823200Y-5154200D01*
X23823200Y-4904200D02*
X23573200Y-5154200D01*
X23698200Y-5154200D02*
X23823200Y-5029200D01*
X23698200Y-4904200D01*
X23573200Y-5029200D01*
X23698200Y-5154200D01*
X23573200Y-14048200D02*
X23823200Y-14298200D01*
X23823200Y-14048200D02*
X23573200Y-14298200D01*
X23698200Y-14298200D02*
X23823200Y-14173200D01*
X23698200Y-14048200D01*
X23573200Y-14173200D01*
X23698200Y-14298200D01*
D13*
X5993928Y-14900414D02*
X5993928Y-14600414D01*
X6065357Y-14600414D01*
X6108214Y-14614700D01*
X6136786Y-14643271D01*
X6151071Y-14671843D01*
X6165357Y-14728986D01*
X6165357Y-14771843D01*
X6151071Y-14828986D01*
X6136786Y-14857557D01*
X6108214Y-14886129D01*
X6065357Y-14900414D01*
X5993928Y-14900414D01*
X6293928Y-14900414D02*
X6293928Y-14700414D01*
X6293928Y-14757557D02*
X6308214Y-14728986D01*
X6322500Y-14714700D01*
X6351071Y-14700414D01*
X6379643Y-14700414D01*
X6479643Y-14900414D02*
X6479643Y-14700414D01*
X6479643Y-14600414D02*
X6465357Y-14614700D01*
X6479643Y-14628986D01*
X6493928Y-14614700D01*
X6479643Y-14600414D01*
X6479643Y-14628986D01*
X6665357Y-14900414D02*
X6636786Y-14886129D01*
X6622500Y-14857557D01*
X6622500Y-14600414D01*
X6822500Y-14900414D02*
X6793928Y-14886129D01*
X6779643Y-14857557D01*
X6779643Y-14600414D01*
X7165357Y-14900414D02*
X7165357Y-14600414D01*
X7265357Y-14814700D01*
X7365357Y-14600414D01*
X7365357Y-14900414D01*
X7636786Y-14900414D02*
X7636786Y-14743271D01*
X7622500Y-14714700D01*
X7593928Y-14700414D01*
X7536786Y-14700414D01*
X7508214Y-14714700D01*
X7636786Y-14886129D02*
X7608214Y-14900414D01*
X7536786Y-14900414D01*
X7508214Y-14886129D01*
X7493928Y-14857557D01*
X7493928Y-14828986D01*
X7508214Y-14800414D01*
X7536786Y-14786129D01*
X7608214Y-14786129D01*
X7636786Y-14771843D01*
X7779643Y-14700414D02*
X7779643Y-15000414D01*
X7779643Y-14714700D02*
X7808214Y-14700414D01*
X7865357Y-14700414D01*
X7893928Y-14714700D01*
X7908214Y-14728986D01*
X7922500Y-14757557D01*
X7922500Y-14843271D01*
X7908214Y-14871843D01*
X7893928Y-14886129D01*
X7865357Y-14900414D01*
X7808214Y-14900414D01*
X7779643Y-14886129D01*
X8051071Y-14871843D02*
X8065357Y-14886129D01*
X8051071Y-14900414D01*
X8036786Y-14886129D01*
X8051071Y-14871843D01*
X8051071Y-14900414D01*
X8051071Y-14714700D02*
X8065357Y-14728986D01*
X8051071Y-14743271D01*
X8036786Y-14728986D01*
X8051071Y-14714700D01*
X8051071Y-14743271D01*
X5677500Y-15379700D02*
X5707500Y-15409700D01*
X5707500Y-15379700D02*
X5677500Y-15409700D01*
X6051071Y-15230414D02*
X6079643Y-15230414D01*
X6108214Y-15244700D01*
X6122500Y-15258986D01*
X6136786Y-15287557D01*
X6151071Y-15344700D01*
X6151071Y-15416129D01*
X6136786Y-15473271D01*
X6122500Y-15501843D01*
X6108214Y-15516129D01*
X6079643Y-15530414D01*
X6051071Y-15530414D01*
X6022500Y-15516129D01*
X6008214Y-15501843D01*
X5993928Y-15473271D01*
X5979643Y-15416129D01*
X5979643Y-15344700D01*
X5993928Y-15287557D01*
X6008214Y-15258986D01*
X6022500Y-15244700D01*
X6051071Y-15230414D01*
X6279643Y-15501843D02*
X6293928Y-15516129D01*
X6279643Y-15530414D01*
X6265357Y-15516129D01*
X6279643Y-15501843D01*
X6279643Y-15530414D01*
X6393928Y-15230414D02*
X6579643Y-15230414D01*
X6479643Y-15344700D01*
X6522500Y-15344700D01*
X6551071Y-15358986D01*
X6565357Y-15373271D01*
X6579643Y-15401843D01*
X6579643Y-15473271D01*
X6565357Y-15501843D01*
X6551071Y-15516129D01*
X6522500Y-15530414D01*
X6436786Y-15530414D01*
X6408214Y-15516129D01*
X6393928Y-15501843D01*
X6765357Y-15230414D02*
X6793928Y-15230414D01*
X6822500Y-15244700D01*
X6836786Y-15258986D01*
X6851071Y-15287557D01*
X6865357Y-15344700D01*
X6865357Y-15416129D01*
X6851071Y-15473271D01*
X6836786Y-15501843D01*
X6822500Y-15516129D01*
X6793928Y-15530414D01*
X6765357Y-15530414D01*
X6736786Y-15516129D01*
X6722500Y-15501843D01*
X6708214Y-15473271D01*
X6693928Y-15416129D01*
X6693928Y-15344700D01*
X6708214Y-15287557D01*
X6722500Y-15258986D01*
X6736786Y-15244700D01*
X6765357Y-15230414D01*
X6993928Y-15530414D02*
X6993928Y-15330414D01*
X6993928Y-15358986D02*
X7008214Y-15344700D01*
X7036786Y-15330414D01*
X7079643Y-15330414D01*
X7108214Y-15344700D01*
X7122500Y-15373271D01*
X7122500Y-15530414D01*
X7122500Y-15373271D02*
X7136786Y-15344700D01*
X7165357Y-15330414D01*
X7208214Y-15330414D01*
X7236786Y-15344700D01*
X7251071Y-15373271D01*
X7251071Y-15530414D01*
X7393928Y-15530414D02*
X7393928Y-15330414D01*
X7393928Y-15358986D02*
X7408214Y-15344700D01*
X7436786Y-15330414D01*
X7479643Y-15330414D01*
X7508214Y-15344700D01*
X7522500Y-15373271D01*
X7522500Y-15530414D01*
X7522500Y-15373271D02*
X7536786Y-15344700D01*
X7565357Y-15330414D01*
X7608214Y-15330414D01*
X7636786Y-15344700D01*
X7651071Y-15373271D01*
X7651071Y-15530414D01*
X8236786Y-15216129D02*
X7979643Y-15601843D01*
X8622500Y-15230414D02*
X8651071Y-15230414D01*
X8679643Y-15244700D01*
X8693928Y-15258986D01*
X8708214Y-15287557D01*
X8722500Y-15344700D01*
X8722500Y-15416129D01*
X8708214Y-15473271D01*
X8693928Y-15501843D01*
X8679643Y-15516129D01*
X8651071Y-15530414D01*
X8622500Y-15530414D01*
X8593928Y-15516129D01*
X8579643Y-15501843D01*
X8565357Y-15473271D01*
X8551071Y-15416129D01*
X8551071Y-15344700D01*
X8565357Y-15287557D01*
X8579643Y-15258986D01*
X8593928Y-15244700D01*
X8622500Y-15230414D01*
X8851071Y-15501843D02*
X8865357Y-15516129D01*
X8851071Y-15530414D01*
X8836786Y-15516129D01*
X8851071Y-15501843D01*
X8851071Y-15530414D01*
X9051071Y-15230414D02*
X9079643Y-15230414D01*
X9108214Y-15244700D01*
X9122500Y-15258986D01*
X9136786Y-15287557D01*
X9151071Y-15344700D01*
X9151071Y-15416129D01*
X9136786Y-15473271D01*
X9122500Y-15501843D01*
X9108214Y-15516129D01*
X9079643Y-15530414D01*
X9051071Y-15530414D01*
X9022500Y-15516129D01*
X9008214Y-15501843D01*
X8993928Y-15473271D01*
X8979643Y-15416129D01*
X8979643Y-15344700D01*
X8993928Y-15287557D01*
X9008214Y-15258986D01*
X9022500Y-15244700D01*
X9051071Y-15230414D01*
X9436786Y-15530414D02*
X9265357Y-15530414D01*
X9351071Y-15530414D02*
X9351071Y-15230414D01*
X9322500Y-15273271D01*
X9293928Y-15301843D01*
X9265357Y-15316129D01*
X9551071Y-15258986D02*
X9565357Y-15244700D01*
X9593928Y-15230414D01*
X9665357Y-15230414D01*
X9693928Y-15244700D01*
X9708214Y-15258986D01*
X9722500Y-15287557D01*
X9722500Y-15316129D01*
X9708214Y-15358986D01*
X9536786Y-15530414D01*
X9722500Y-15530414D01*
X9836786Y-15230414D02*
X9836786Y-15287557D01*
X9951071Y-15230414D02*
X9951071Y-15287557D01*
X10393928Y-15644700D02*
X10379643Y-15630414D01*
X10351071Y-15587557D01*
X10336786Y-15558986D01*
X10322500Y-15516129D01*
X10308214Y-15444700D01*
X10308214Y-15387557D01*
X10322500Y-15316129D01*
X10336786Y-15273271D01*
X10351071Y-15244700D01*
X10379643Y-15201843D01*
X10393928Y-15187557D01*
X10493928Y-15258986D02*
X10508214Y-15244700D01*
X10536786Y-15230414D01*
X10608214Y-15230414D01*
X10636786Y-15244700D01*
X10651071Y-15258986D01*
X10665357Y-15287557D01*
X10665357Y-15316129D01*
X10651071Y-15358986D01*
X10479643Y-15530414D01*
X10665357Y-15530414D01*
X11022500Y-15530414D02*
X11022500Y-15230414D01*
X11151071Y-15530414D02*
X11151071Y-15373271D01*
X11136786Y-15344700D01*
X11108214Y-15330414D01*
X11065357Y-15330414D01*
X11036786Y-15344700D01*
X11022500Y-15358986D01*
X11336786Y-15530414D02*
X11308214Y-15516129D01*
X11293928Y-15501843D01*
X11279643Y-15473271D01*
X11279643Y-15387557D01*
X11293928Y-15358986D01*
X11308214Y-15344700D01*
X11336786Y-15330414D01*
X11379643Y-15330414D01*
X11408214Y-15344700D01*
X11422500Y-15358986D01*
X11436786Y-15387557D01*
X11436786Y-15473271D01*
X11422500Y-15501843D01*
X11408214Y-15516129D01*
X11379643Y-15530414D01*
X11336786Y-15530414D01*
X11608214Y-15530414D02*
X11579643Y-15516129D01*
X11565357Y-15487557D01*
X11565357Y-15230414D01*
X11836786Y-15516129D02*
X11808214Y-15530414D01*
X11751071Y-15530414D01*
X11722500Y-15516129D01*
X11708214Y-15487557D01*
X11708214Y-15373271D01*
X11722500Y-15344700D01*
X11751071Y-15330414D01*
X11808214Y-15330414D01*
X11836786Y-15344700D01*
X11851071Y-15373271D01*
X11851071Y-15401843D01*
X11708214Y-15430414D01*
X11965357Y-15516129D02*
X11993928Y-15530414D01*
X12051071Y-15530414D01*
X12079643Y-15516129D01*
X12093928Y-15487557D01*
X12093928Y-15473271D01*
X12079643Y-15444700D01*
X12051071Y-15430414D01*
X12008214Y-15430414D01*
X11979643Y-15416129D01*
X11965357Y-15387557D01*
X11965357Y-15373271D01*
X11979643Y-15344700D01*
X12008214Y-15330414D01*
X12051071Y-15330414D01*
X12079643Y-15344700D01*
X12193928Y-15644700D02*
X12208214Y-15630414D01*
X12236786Y-15587557D01*
X12251071Y-15558986D01*
X12265357Y-15516129D01*
X12279643Y-15444700D01*
X12279643Y-15387557D01*
X12265357Y-15316129D01*
X12251071Y-15273271D01*
X12236786Y-15244700D01*
X12208214Y-15201843D01*
X12193928Y-15187557D01*
X5707500Y-15790700D02*
G75*
G03X5707500Y-15790700I-25000J0D01*
G01*
X6051071Y-15626414D02*
X6079643Y-15626414D01*
X6108214Y-15640700D01*
X6122500Y-15654986D01*
X6136786Y-15683557D01*
X6151071Y-15740700D01*
X6151071Y-15812129D01*
X6136786Y-15869271D01*
X6122500Y-15897843D01*
X6108214Y-15912129D01*
X6079643Y-15926414D01*
X6051071Y-15926414D01*
X6022500Y-15912129D01*
X6008214Y-15897843D01*
X5993928Y-15869271D01*
X5979643Y-15812129D01*
X5979643Y-15740700D01*
X5993928Y-15683557D01*
X6008214Y-15654986D01*
X6022500Y-15640700D01*
X6051071Y-15626414D01*
X6279643Y-15897843D02*
X6293928Y-15912129D01*
X6279643Y-15926414D01*
X6265357Y-15912129D01*
X6279643Y-15897843D01*
X6279643Y-15926414D01*
X6565357Y-15626414D02*
X6422500Y-15626414D01*
X6408214Y-15769271D01*
X6422500Y-15754986D01*
X6451071Y-15740700D01*
X6522500Y-15740700D01*
X6551071Y-15754986D01*
X6565357Y-15769271D01*
X6579643Y-15797843D01*
X6579643Y-15869271D01*
X6565357Y-15897843D01*
X6551071Y-15912129D01*
X6522500Y-15926414D01*
X6451071Y-15926414D01*
X6422500Y-15912129D01*
X6408214Y-15897843D01*
X6765357Y-15626414D02*
X6793928Y-15626414D01*
X6822500Y-15640700D01*
X6836786Y-15654986D01*
X6851071Y-15683557D01*
X6865357Y-15740700D01*
X6865357Y-15812129D01*
X6851071Y-15869271D01*
X6836786Y-15897843D01*
X6822500Y-15912129D01*
X6793928Y-15926414D01*
X6765357Y-15926414D01*
X6736786Y-15912129D01*
X6722500Y-15897843D01*
X6708214Y-15869271D01*
X6693928Y-15812129D01*
X6693928Y-15740700D01*
X6708214Y-15683557D01*
X6722500Y-15654986D01*
X6736786Y-15640700D01*
X6765357Y-15626414D01*
X6993928Y-15926414D02*
X6993928Y-15726414D01*
X6993928Y-15754986D02*
X7008214Y-15740700D01*
X7036786Y-15726414D01*
X7079643Y-15726414D01*
X7108214Y-15740700D01*
X7122500Y-15769271D01*
X7122500Y-15926414D01*
X7122500Y-15769271D02*
X7136786Y-15740700D01*
X7165357Y-15726414D01*
X7208214Y-15726414D01*
X7236786Y-15740700D01*
X7251071Y-15769271D01*
X7251071Y-15926414D01*
X7393928Y-15926414D02*
X7393928Y-15726414D01*
X7393928Y-15754986D02*
X7408214Y-15740700D01*
X7436786Y-15726414D01*
X7479643Y-15726414D01*
X7508214Y-15740700D01*
X7522500Y-15769271D01*
X7522500Y-15926414D01*
X7522500Y-15769271D02*
X7536786Y-15740700D01*
X7565357Y-15726414D01*
X7608214Y-15726414D01*
X7636786Y-15740700D01*
X7651071Y-15769271D01*
X7651071Y-15926414D01*
X8236786Y-15612129D02*
X7979643Y-15997843D01*
X8622500Y-15626414D02*
X8651071Y-15626414D01*
X8679643Y-15640700D01*
X8693928Y-15654986D01*
X8708214Y-15683557D01*
X8722500Y-15740700D01*
X8722500Y-15812129D01*
X8708214Y-15869271D01*
X8693928Y-15897843D01*
X8679643Y-15912129D01*
X8651071Y-15926414D01*
X8622500Y-15926414D01*
X8593928Y-15912129D01*
X8579643Y-15897843D01*
X8565357Y-15869271D01*
X8551071Y-15812129D01*
X8551071Y-15740700D01*
X8565357Y-15683557D01*
X8579643Y-15654986D01*
X8593928Y-15640700D01*
X8622500Y-15626414D01*
X8851071Y-15897843D02*
X8865357Y-15912129D01*
X8851071Y-15926414D01*
X8836786Y-15912129D01*
X8851071Y-15897843D01*
X8851071Y-15926414D01*
X9051071Y-15626414D02*
X9079643Y-15626414D01*
X9108214Y-15640700D01*
X9122500Y-15654986D01*
X9136786Y-15683557D01*
X9151071Y-15740700D01*
X9151071Y-15812129D01*
X9136786Y-15869271D01*
X9122500Y-15897843D01*
X9108214Y-15912129D01*
X9079643Y-15926414D01*
X9051071Y-15926414D01*
X9022500Y-15912129D01*
X9008214Y-15897843D01*
X8993928Y-15869271D01*
X8979643Y-15812129D01*
X8979643Y-15740700D01*
X8993928Y-15683557D01*
X9008214Y-15654986D01*
X9022500Y-15640700D01*
X9051071Y-15626414D01*
X9265357Y-15654986D02*
X9279643Y-15640700D01*
X9308214Y-15626414D01*
X9379643Y-15626414D01*
X9408214Y-15640700D01*
X9422500Y-15654986D01*
X9436786Y-15683557D01*
X9436786Y-15712129D01*
X9422500Y-15754986D01*
X9251071Y-15926414D01*
X9436786Y-15926414D01*
X9622500Y-15626414D02*
X9651071Y-15626414D01*
X9679643Y-15640700D01*
X9693928Y-15654986D01*
X9708214Y-15683557D01*
X9722500Y-15740700D01*
X9722500Y-15812129D01*
X9708214Y-15869271D01*
X9693928Y-15897843D01*
X9679643Y-15912129D01*
X9651071Y-15926414D01*
X9622500Y-15926414D01*
X9593928Y-15912129D01*
X9579643Y-15897843D01*
X9565357Y-15869271D01*
X9551071Y-15812129D01*
X9551071Y-15740700D01*
X9565357Y-15683557D01*
X9579643Y-15654986D01*
X9593928Y-15640700D01*
X9622500Y-15626414D01*
X9836786Y-15626414D02*
X9836786Y-15683557D01*
X9951071Y-15626414D02*
X9951071Y-15683557D01*
X10393928Y-16040700D02*
X10379643Y-16026414D01*
X10351071Y-15983557D01*
X10336786Y-15954986D01*
X10322500Y-15912129D01*
X10308214Y-15840700D01*
X10308214Y-15783557D01*
X10322500Y-15712129D01*
X10336786Y-15669271D01*
X10351071Y-15640700D01*
X10379643Y-15597843D01*
X10393928Y-15583557D01*
X10665357Y-15926414D02*
X10493928Y-15926414D01*
X10579643Y-15926414D02*
X10579643Y-15626414D01*
X10551071Y-15669271D01*
X10522500Y-15697843D01*
X10493928Y-15712129D01*
X10808214Y-15926414D02*
X10865357Y-15926414D01*
X10893928Y-15912129D01*
X10908214Y-15897843D01*
X10936786Y-15854986D01*
X10951071Y-15797843D01*
X10951071Y-15683557D01*
X10936786Y-15654986D01*
X10922500Y-15640700D01*
X10893928Y-15626414D01*
X10836786Y-15626414D01*
X10808214Y-15640700D01*
X10793928Y-15654986D01*
X10779643Y-15683557D01*
X10779643Y-15754986D01*
X10793928Y-15783557D01*
X10808214Y-15797843D01*
X10836786Y-15812129D01*
X10893928Y-15812129D01*
X10922500Y-15797843D01*
X10936786Y-15783557D01*
X10951071Y-15754986D01*
X11093928Y-15926414D02*
X11151071Y-15926414D01*
X11179643Y-15912129D01*
X11193928Y-15897843D01*
X11222500Y-15854986D01*
X11236786Y-15797843D01*
X11236786Y-15683557D01*
X11222500Y-15654986D01*
X11208214Y-15640700D01*
X11179643Y-15626414D01*
X11122500Y-15626414D01*
X11093928Y-15640700D01*
X11079643Y-15654986D01*
X11065357Y-15683557D01*
X11065357Y-15754986D01*
X11079643Y-15783557D01*
X11093928Y-15797843D01*
X11122500Y-15812129D01*
X11179643Y-15812129D01*
X11208214Y-15797843D01*
X11222500Y-15783557D01*
X11236786Y-15754986D01*
X11593928Y-15926414D02*
X11593928Y-15626414D01*
X11722500Y-15926414D02*
X11722500Y-15769271D01*
X11708214Y-15740700D01*
X11679643Y-15726414D01*
X11636786Y-15726414D01*
X11608214Y-15740700D01*
X11593928Y-15754986D01*
X11908214Y-15926414D02*
X11879643Y-15912129D01*
X11865357Y-15897843D01*
X11851071Y-15869271D01*
X11851071Y-15783557D01*
X11865357Y-15754986D01*
X11879643Y-15740700D01*
X11908214Y-15726414D01*
X11951071Y-15726414D01*
X11979643Y-15740700D01*
X11993928Y-15754986D01*
X12008214Y-15783557D01*
X12008214Y-15869271D01*
X11993928Y-15897843D01*
X11979643Y-15912129D01*
X11951071Y-15926414D01*
X11908214Y-15926414D01*
X12179643Y-15926414D02*
X12151071Y-15912129D01*
X12136786Y-15883557D01*
X12136786Y-15626414D01*
X12408214Y-15912129D02*
X12379643Y-15926414D01*
X12322500Y-15926414D01*
X12293928Y-15912129D01*
X12279643Y-15883557D01*
X12279643Y-15769271D01*
X12293928Y-15740700D01*
X12322500Y-15726414D01*
X12379643Y-15726414D01*
X12408214Y-15740700D01*
X12422500Y-15769271D01*
X12422500Y-15797843D01*
X12279643Y-15826414D01*
X12536786Y-15912129D02*
X12565357Y-15926414D01*
X12622500Y-15926414D01*
X12651071Y-15912129D01*
X12665357Y-15883557D01*
X12665357Y-15869271D01*
X12651071Y-15840700D01*
X12622500Y-15826414D01*
X12579643Y-15826414D01*
X12551071Y-15812129D01*
X12536786Y-15783557D01*
X12536786Y-15769271D01*
X12551071Y-15740700D01*
X12579643Y-15726414D01*
X12622500Y-15726414D01*
X12651071Y-15740700D01*
X12765357Y-16040700D02*
X12779643Y-16026414D01*
X12808214Y-15983557D01*
X12822500Y-15954986D01*
X12836786Y-15912129D01*
X12851071Y-15840700D01*
X12851071Y-15783557D01*
X12836786Y-15712129D01*
X12822500Y-15669271D01*
X12808214Y-15640700D01*
X12779643Y-15597843D01*
X12765357Y-15583557D01*
X5669400Y-16148600D02*
X5669400Y-16224800D01*
X5631300Y-16186700D02*
X5707500Y-16186700D01*
X6051071Y-16022414D02*
X6079643Y-16022414D01*
X6108214Y-16036700D01*
X6122500Y-16050986D01*
X6136786Y-16079557D01*
X6151071Y-16136700D01*
X6151071Y-16208129D01*
X6136786Y-16265271D01*
X6122500Y-16293843D01*
X6108214Y-16308129D01*
X6079643Y-16322414D01*
X6051071Y-16322414D01*
X6022500Y-16308129D01*
X6008214Y-16293843D01*
X5993928Y-16265271D01*
X5979643Y-16208129D01*
X5979643Y-16136700D01*
X5993928Y-16079557D01*
X6008214Y-16050986D01*
X6022500Y-16036700D01*
X6051071Y-16022414D01*
X6279643Y-16293843D02*
X6293928Y-16308129D01*
X6279643Y-16322414D01*
X6265357Y-16308129D01*
X6279643Y-16293843D01*
X6279643Y-16322414D01*
X6393928Y-16022414D02*
X6593928Y-16022414D01*
X6465357Y-16322414D01*
X6836786Y-16022414D02*
X6779643Y-16022414D01*
X6751071Y-16036700D01*
X6736786Y-16050986D01*
X6708214Y-16093843D01*
X6693928Y-16150986D01*
X6693928Y-16265271D01*
X6708214Y-16293843D01*
X6722500Y-16308129D01*
X6751071Y-16322414D01*
X6808214Y-16322414D01*
X6836786Y-16308129D01*
X6851071Y-16293843D01*
X6865357Y-16265271D01*
X6865357Y-16193843D01*
X6851071Y-16165271D01*
X6836786Y-16150986D01*
X6808214Y-16136700D01*
X6751071Y-16136700D01*
X6722500Y-16150986D01*
X6708214Y-16165271D01*
X6693928Y-16193843D01*
X6993928Y-16322414D02*
X6993928Y-16122414D01*
X6993928Y-16150986D02*
X7008214Y-16136700D01*
X7036786Y-16122414D01*
X7079643Y-16122414D01*
X7108214Y-16136700D01*
X7122500Y-16165271D01*
X7122500Y-16322414D01*
X7122500Y-16165271D02*
X7136786Y-16136700D01*
X7165357Y-16122414D01*
X7208214Y-16122414D01*
X7236786Y-16136700D01*
X7251071Y-16165271D01*
X7251071Y-16322414D01*
X7393928Y-16322414D02*
X7393928Y-16122414D01*
X7393928Y-16150986D02*
X7408214Y-16136700D01*
X7436786Y-16122414D01*
X7479643Y-16122414D01*
X7508214Y-16136700D01*
X7522500Y-16165271D01*
X7522500Y-16322414D01*
X7522500Y-16165271D02*
X7536786Y-16136700D01*
X7565357Y-16122414D01*
X7608214Y-16122414D01*
X7636786Y-16136700D01*
X7651071Y-16165271D01*
X7651071Y-16322414D01*
X8236786Y-16008129D02*
X7979643Y-16393843D01*
X8622500Y-16022414D02*
X8651071Y-16022414D01*
X8679643Y-16036700D01*
X8693928Y-16050986D01*
X8708214Y-16079557D01*
X8722500Y-16136700D01*
X8722500Y-16208129D01*
X8708214Y-16265271D01*
X8693928Y-16293843D01*
X8679643Y-16308129D01*
X8651071Y-16322414D01*
X8622500Y-16322414D01*
X8593928Y-16308129D01*
X8579643Y-16293843D01*
X8565357Y-16265271D01*
X8551071Y-16208129D01*
X8551071Y-16136700D01*
X8565357Y-16079557D01*
X8579643Y-16050986D01*
X8593928Y-16036700D01*
X8622500Y-16022414D01*
X8851071Y-16293843D02*
X8865357Y-16308129D01*
X8851071Y-16322414D01*
X8836786Y-16308129D01*
X8851071Y-16293843D01*
X8851071Y-16322414D01*
X9051071Y-16022414D02*
X9079643Y-16022414D01*
X9108214Y-16036700D01*
X9122500Y-16050986D01*
X9136786Y-16079557D01*
X9151071Y-16136700D01*
X9151071Y-16208129D01*
X9136786Y-16265271D01*
X9122500Y-16293843D01*
X9108214Y-16308129D01*
X9079643Y-16322414D01*
X9051071Y-16322414D01*
X9022500Y-16308129D01*
X9008214Y-16293843D01*
X8993928Y-16265271D01*
X8979643Y-16208129D01*
X8979643Y-16136700D01*
X8993928Y-16079557D01*
X9008214Y-16050986D01*
X9022500Y-16036700D01*
X9051071Y-16022414D01*
X9251071Y-16022414D02*
X9436786Y-16022414D01*
X9336786Y-16136700D01*
X9379643Y-16136700D01*
X9408214Y-16150986D01*
X9422500Y-16165271D01*
X9436786Y-16193843D01*
X9436786Y-16265271D01*
X9422500Y-16293843D01*
X9408214Y-16308129D01*
X9379643Y-16322414D01*
X9293928Y-16322414D01*
X9265357Y-16308129D01*
X9251071Y-16293843D01*
X9622500Y-16022414D02*
X9651071Y-16022414D01*
X9679643Y-16036700D01*
X9693928Y-16050986D01*
X9708214Y-16079557D01*
X9722500Y-16136700D01*
X9722500Y-16208129D01*
X9708214Y-16265271D01*
X9693928Y-16293843D01*
X9679643Y-16308129D01*
X9651071Y-16322414D01*
X9622500Y-16322414D01*
X9593928Y-16308129D01*
X9579643Y-16293843D01*
X9565357Y-16265271D01*
X9551071Y-16208129D01*
X9551071Y-16136700D01*
X9565357Y-16079557D01*
X9579643Y-16050986D01*
X9593928Y-16036700D01*
X9622500Y-16022414D01*
X9836786Y-16022414D02*
X9836786Y-16079557D01*
X9951071Y-16022414D02*
X9951071Y-16079557D01*
X10393928Y-16436700D02*
X10379643Y-16422414D01*
X10351071Y-16379557D01*
X10336786Y-16350986D01*
X10322500Y-16308129D01*
X10308214Y-16236700D01*
X10308214Y-16179557D01*
X10322500Y-16108129D01*
X10336786Y-16065271D01*
X10351071Y-16036700D01*
X10379643Y-15993843D01*
X10393928Y-15979557D01*
X10493928Y-16050986D02*
X10508214Y-16036700D01*
X10536786Y-16022414D01*
X10608214Y-16022414D01*
X10636786Y-16036700D01*
X10651071Y-16050986D01*
X10665357Y-16079557D01*
X10665357Y-16108129D01*
X10651071Y-16150986D01*
X10479643Y-16322414D01*
X10665357Y-16322414D01*
X11022500Y-16322414D02*
X11022500Y-16022414D01*
X11151071Y-16322414D02*
X11151071Y-16165271D01*
X11136786Y-16136700D01*
X11108214Y-16122414D01*
X11065357Y-16122414D01*
X11036786Y-16136700D01*
X11022500Y-16150986D01*
X11336786Y-16322414D02*
X11308214Y-16308129D01*
X11293928Y-16293843D01*
X11279643Y-16265271D01*
X11279643Y-16179557D01*
X11293928Y-16150986D01*
X11308214Y-16136700D01*
X11336786Y-16122414D01*
X11379643Y-16122414D01*
X11408214Y-16136700D01*
X11422500Y-16150986D01*
X11436786Y-16179557D01*
X11436786Y-16265271D01*
X11422500Y-16293843D01*
X11408214Y-16308129D01*
X11379643Y-16322414D01*
X11336786Y-16322414D01*
X11608214Y-16322414D02*
X11579643Y-16308129D01*
X11565357Y-16279557D01*
X11565357Y-16022414D01*
X11836786Y-16308129D02*
X11808214Y-16322414D01*
X11751071Y-16322414D01*
X11722500Y-16308129D01*
X11708214Y-16279557D01*
X11708214Y-16165271D01*
X11722500Y-16136700D01*
X11751071Y-16122414D01*
X11808214Y-16122414D01*
X11836786Y-16136700D01*
X11851071Y-16165271D01*
X11851071Y-16193843D01*
X11708214Y-16222414D01*
X11965357Y-16308129D02*
X11993928Y-16322414D01*
X12051071Y-16322414D01*
X12079643Y-16308129D01*
X12093928Y-16279557D01*
X12093928Y-16265271D01*
X12079643Y-16236700D01*
X12051071Y-16222414D01*
X12008214Y-16222414D01*
X11979643Y-16208129D01*
X11965357Y-16179557D01*
X11965357Y-16165271D01*
X11979643Y-16136700D01*
X12008214Y-16122414D01*
X12051071Y-16122414D01*
X12079643Y-16136700D01*
X12193928Y-16436700D02*
X12208214Y-16422414D01*
X12236786Y-16379557D01*
X12251071Y-16350986D01*
X12265357Y-16308129D01*
X12279643Y-16236700D01*
X12279643Y-16179557D01*
X12265357Y-16108129D01*
X12251071Y-16065271D01*
X12236786Y-16036700D01*
X12208214Y-15993843D01*
X12193928Y-15979557D01*
X5695784Y-16610985D02*
X5695784Y-16554416D01*
X5639215Y-16554416D01*
X5639215Y-16610985D01*
X5695784Y-16610985D01*
X6051071Y-16418414D02*
X6079643Y-16418414D01*
X6108214Y-16432700D01*
X6122500Y-16446986D01*
X6136786Y-16475557D01*
X6151071Y-16532700D01*
X6151071Y-16604129D01*
X6136786Y-16661271D01*
X6122500Y-16689843D01*
X6108214Y-16704129D01*
X6079643Y-16718414D01*
X6051071Y-16718414D01*
X6022500Y-16704129D01*
X6008214Y-16689843D01*
X5993928Y-16661271D01*
X5979643Y-16604129D01*
X5979643Y-16532700D01*
X5993928Y-16475557D01*
X6008214Y-16446986D01*
X6022500Y-16432700D01*
X6051071Y-16418414D01*
X6279643Y-16689843D02*
X6293928Y-16704129D01*
X6279643Y-16718414D01*
X6265357Y-16704129D01*
X6279643Y-16689843D01*
X6279643Y-16718414D01*
X6465357Y-16546986D02*
X6436786Y-16532700D01*
X6422500Y-16518414D01*
X6408214Y-16489843D01*
X6408214Y-16475557D01*
X6422500Y-16446986D01*
X6436786Y-16432700D01*
X6465357Y-16418414D01*
X6522500Y-16418414D01*
X6551071Y-16432700D01*
X6565357Y-16446986D01*
X6579643Y-16475557D01*
X6579643Y-16489843D01*
X6565357Y-16518414D01*
X6551071Y-16532700D01*
X6522500Y-16546986D01*
X6465357Y-16546986D01*
X6436786Y-16561271D01*
X6422500Y-16575557D01*
X6408214Y-16604129D01*
X6408214Y-16661271D01*
X6422500Y-16689843D01*
X6436786Y-16704129D01*
X6465357Y-16718414D01*
X6522500Y-16718414D01*
X6551071Y-16704129D01*
X6565357Y-16689843D01*
X6579643Y-16661271D01*
X6579643Y-16604129D01*
X6565357Y-16575557D01*
X6551071Y-16561271D01*
X6522500Y-16546986D01*
X6765357Y-16418414D02*
X6793928Y-16418414D01*
X6822500Y-16432700D01*
X6836786Y-16446986D01*
X6851071Y-16475557D01*
X6865357Y-16532700D01*
X6865357Y-16604129D01*
X6851071Y-16661271D01*
X6836786Y-16689843D01*
X6822500Y-16704129D01*
X6793928Y-16718414D01*
X6765357Y-16718414D01*
X6736786Y-16704129D01*
X6722500Y-16689843D01*
X6708214Y-16661271D01*
X6693928Y-16604129D01*
X6693928Y-16532700D01*
X6708214Y-16475557D01*
X6722500Y-16446986D01*
X6736786Y-16432700D01*
X6765357Y-16418414D01*
X6993928Y-16718414D02*
X6993928Y-16518414D01*
X6993928Y-16546986D02*
X7008214Y-16532700D01*
X7036786Y-16518414D01*
X7079643Y-16518414D01*
X7108214Y-16532700D01*
X7122500Y-16561271D01*
X7122500Y-16718414D01*
X7122500Y-16561271D02*
X7136786Y-16532700D01*
X7165357Y-16518414D01*
X7208214Y-16518414D01*
X7236786Y-16532700D01*
X7251071Y-16561271D01*
X7251071Y-16718414D01*
X7393928Y-16718414D02*
X7393928Y-16518414D01*
X7393928Y-16546986D02*
X7408214Y-16532700D01*
X7436786Y-16518414D01*
X7479643Y-16518414D01*
X7508214Y-16532700D01*
X7522500Y-16561271D01*
X7522500Y-16718414D01*
X7522500Y-16561271D02*
X7536786Y-16532700D01*
X7565357Y-16518414D01*
X7608214Y-16518414D01*
X7636786Y-16532700D01*
X7651071Y-16561271D01*
X7651071Y-16718414D01*
X8236786Y-16404129D02*
X7979643Y-16789843D01*
X8622500Y-16418414D02*
X8651071Y-16418414D01*
X8679643Y-16432700D01*
X8693928Y-16446986D01*
X8708214Y-16475557D01*
X8722500Y-16532700D01*
X8722500Y-16604129D01*
X8708214Y-16661271D01*
X8693928Y-16689843D01*
X8679643Y-16704129D01*
X8651071Y-16718414D01*
X8622500Y-16718414D01*
X8593928Y-16704129D01*
X8579643Y-16689843D01*
X8565357Y-16661271D01*
X8551071Y-16604129D01*
X8551071Y-16532700D01*
X8565357Y-16475557D01*
X8579643Y-16446986D01*
X8593928Y-16432700D01*
X8622500Y-16418414D01*
X8851071Y-16689843D02*
X8865357Y-16704129D01*
X8851071Y-16718414D01*
X8836786Y-16704129D01*
X8851071Y-16689843D01*
X8851071Y-16718414D01*
X9051071Y-16418414D02*
X9079643Y-16418414D01*
X9108214Y-16432700D01*
X9122500Y-16446986D01*
X9136786Y-16475557D01*
X9151071Y-16532700D01*
X9151071Y-16604129D01*
X9136786Y-16661271D01*
X9122500Y-16689843D01*
X9108214Y-16704129D01*
X9079643Y-16718414D01*
X9051071Y-16718414D01*
X9022500Y-16704129D01*
X9008214Y-16689843D01*
X8993928Y-16661271D01*
X8979643Y-16604129D01*
X8979643Y-16532700D01*
X8993928Y-16475557D01*
X9008214Y-16446986D01*
X9022500Y-16432700D01*
X9051071Y-16418414D01*
X9251071Y-16418414D02*
X9436786Y-16418414D01*
X9336786Y-16532700D01*
X9379643Y-16532700D01*
X9408214Y-16546986D01*
X9422500Y-16561271D01*
X9436786Y-16589843D01*
X9436786Y-16661271D01*
X9422500Y-16689843D01*
X9408214Y-16704129D01*
X9379643Y-16718414D01*
X9293928Y-16718414D01*
X9265357Y-16704129D01*
X9251071Y-16689843D01*
X9722500Y-16718414D02*
X9551071Y-16718414D01*
X9636786Y-16718414D02*
X9636786Y-16418414D01*
X9608214Y-16461271D01*
X9579643Y-16489843D01*
X9551071Y-16504129D01*
X9836786Y-16418414D02*
X9836786Y-16475557D01*
X9951071Y-16418414D02*
X9951071Y-16475557D01*
X10393928Y-16832700D02*
X10379643Y-16818414D01*
X10351071Y-16775557D01*
X10336786Y-16746986D01*
X10322500Y-16704129D01*
X10308214Y-16632700D01*
X10308214Y-16575557D01*
X10322500Y-16504129D01*
X10336786Y-16461271D01*
X10351071Y-16432700D01*
X10379643Y-16389843D01*
X10393928Y-16375557D01*
X10479643Y-16418414D02*
X10665357Y-16418414D01*
X10565357Y-16532700D01*
X10608214Y-16532700D01*
X10636786Y-16546986D01*
X10651071Y-16561271D01*
X10665357Y-16589843D01*
X10665357Y-16661271D01*
X10651071Y-16689843D01*
X10636786Y-16704129D01*
X10608214Y-16718414D01*
X10522500Y-16718414D01*
X10493928Y-16704129D01*
X10479643Y-16689843D01*
X10779643Y-16446986D02*
X10793928Y-16432700D01*
X10822500Y-16418414D01*
X10893928Y-16418414D01*
X10922500Y-16432700D01*
X10936786Y-16446986D01*
X10951071Y-16475557D01*
X10951071Y-16504129D01*
X10936786Y-16546986D01*
X10765357Y-16718414D01*
X10951071Y-16718414D01*
X11308214Y-16718414D02*
X11308214Y-16418414D01*
X11436786Y-16718414D02*
X11436786Y-16561271D01*
X11422500Y-16532700D01*
X11393928Y-16518414D01*
X11351071Y-16518414D01*
X11322500Y-16532700D01*
X11308214Y-16546986D01*
X11622500Y-16718414D02*
X11593928Y-16704129D01*
X11579643Y-16689843D01*
X11565357Y-16661271D01*
X11565357Y-16575557D01*
X11579643Y-16546986D01*
X11593928Y-16532700D01*
X11622500Y-16518414D01*
X11665357Y-16518414D01*
X11693928Y-16532700D01*
X11708214Y-16546986D01*
X11722500Y-16575557D01*
X11722500Y-16661271D01*
X11708214Y-16689843D01*
X11693928Y-16704129D01*
X11665357Y-16718414D01*
X11622500Y-16718414D01*
X11893928Y-16718414D02*
X11865357Y-16704129D01*
X11851071Y-16675557D01*
X11851071Y-16418414D01*
X12122500Y-16704129D02*
X12093928Y-16718414D01*
X12036786Y-16718414D01*
X12008214Y-16704129D01*
X11993928Y-16675557D01*
X11993928Y-16561271D01*
X12008214Y-16532700D01*
X12036786Y-16518414D01*
X12093928Y-16518414D01*
X12122500Y-16532700D01*
X12136786Y-16561271D01*
X12136786Y-16589843D01*
X11993928Y-16618414D01*
X12251071Y-16704129D02*
X12279643Y-16718414D01*
X12336786Y-16718414D01*
X12365357Y-16704129D01*
X12379643Y-16675557D01*
X12379643Y-16661271D01*
X12365357Y-16632700D01*
X12336786Y-16618414D01*
X12293928Y-16618414D01*
X12265357Y-16604129D01*
X12251071Y-16575557D01*
X12251071Y-16561271D01*
X12265357Y-16532700D01*
X12293928Y-16518414D01*
X12336786Y-16518414D01*
X12365357Y-16532700D01*
X12479643Y-16832700D02*
X12493928Y-16818414D01*
X12522500Y-16775557D01*
X12536786Y-16746986D01*
X12551071Y-16704129D01*
X12565357Y-16632700D01*
X12565357Y-16575557D01*
X12551071Y-16504129D01*
X12536786Y-16461271D01*
X12522500Y-16432700D01*
X12493928Y-16389843D01*
X12479643Y-16375557D01*
X5667495Y-17018705D02*
X5707500Y-16978700D01*
X5667495Y-16938695D01*
X5627490Y-16978700D01*
X5667495Y-17018705D01*
X6051071Y-16814414D02*
X6079643Y-16814414D01*
X6108214Y-16828700D01*
X6122500Y-16842986D01*
X6136786Y-16871557D01*
X6151071Y-16928700D01*
X6151071Y-17000129D01*
X6136786Y-17057272D01*
X6122500Y-17085843D01*
X6108214Y-17100129D01*
X6079643Y-17114414D01*
X6051071Y-17114414D01*
X6022500Y-17100129D01*
X6008214Y-17085843D01*
X5993928Y-17057272D01*
X5979643Y-17000129D01*
X5979643Y-16928700D01*
X5993928Y-16871557D01*
X6008214Y-16842986D01*
X6022500Y-16828700D01*
X6051071Y-16814414D01*
X6279643Y-17085843D02*
X6293928Y-17100129D01*
X6279643Y-17114414D01*
X6265357Y-17100129D01*
X6279643Y-17085843D01*
X6279643Y-17114414D01*
X6465357Y-16942986D02*
X6436786Y-16928700D01*
X6422500Y-16914414D01*
X6408214Y-16885843D01*
X6408214Y-16871557D01*
X6422500Y-16842986D01*
X6436786Y-16828700D01*
X6465357Y-16814414D01*
X6522500Y-16814414D01*
X6551071Y-16828700D01*
X6565357Y-16842986D01*
X6579643Y-16871557D01*
X6579643Y-16885843D01*
X6565357Y-16914414D01*
X6551071Y-16928700D01*
X6522500Y-16942986D01*
X6465357Y-16942986D01*
X6436786Y-16957272D01*
X6422500Y-16971557D01*
X6408214Y-17000129D01*
X6408214Y-17057272D01*
X6422500Y-17085843D01*
X6436786Y-17100129D01*
X6465357Y-17114414D01*
X6522500Y-17114414D01*
X6551071Y-17100129D01*
X6565357Y-17085843D01*
X6579643Y-17057272D01*
X6579643Y-17000129D01*
X6565357Y-16971557D01*
X6551071Y-16957272D01*
X6522500Y-16942986D01*
X6765357Y-16814414D02*
X6793928Y-16814414D01*
X6822500Y-16828700D01*
X6836786Y-16842986D01*
X6851071Y-16871557D01*
X6865357Y-16928700D01*
X6865357Y-17000129D01*
X6851071Y-17057272D01*
X6836786Y-17085843D01*
X6822500Y-17100129D01*
X6793928Y-17114414D01*
X6765357Y-17114414D01*
X6736786Y-17100129D01*
X6722500Y-17085843D01*
X6708214Y-17057272D01*
X6693928Y-17000129D01*
X6693928Y-16928700D01*
X6708214Y-16871557D01*
X6722500Y-16842986D01*
X6736786Y-16828700D01*
X6765357Y-16814414D01*
X6993928Y-17114414D02*
X6993928Y-16914414D01*
X6993928Y-16942986D02*
X7008214Y-16928700D01*
X7036786Y-16914414D01*
X7079643Y-16914414D01*
X7108214Y-16928700D01*
X7122500Y-16957272D01*
X7122500Y-17114414D01*
X7122500Y-16957272D02*
X7136786Y-16928700D01*
X7165357Y-16914414D01*
X7208214Y-16914414D01*
X7236786Y-16928700D01*
X7251071Y-16957272D01*
X7251071Y-17114414D01*
X7393928Y-17114414D02*
X7393928Y-16914414D01*
X7393928Y-16942986D02*
X7408214Y-16928700D01*
X7436786Y-16914414D01*
X7479643Y-16914414D01*
X7508214Y-16928700D01*
X7522500Y-16957272D01*
X7522500Y-17114414D01*
X7522500Y-16957272D02*
X7536786Y-16928700D01*
X7565357Y-16914414D01*
X7608214Y-16914414D01*
X7636786Y-16928700D01*
X7651071Y-16957272D01*
X7651071Y-17114414D01*
X8236786Y-16800129D02*
X7979643Y-17185843D01*
X8622500Y-16814414D02*
X8651071Y-16814414D01*
X8679643Y-16828700D01*
X8693928Y-16842986D01*
X8708214Y-16871557D01*
X8722500Y-16928700D01*
X8722500Y-17000129D01*
X8708214Y-17057272D01*
X8693928Y-17085843D01*
X8679643Y-17100129D01*
X8651071Y-17114414D01*
X8622500Y-17114414D01*
X8593928Y-17100129D01*
X8579643Y-17085843D01*
X8565357Y-17057272D01*
X8551071Y-17000129D01*
X8551071Y-16928700D01*
X8565357Y-16871557D01*
X8579643Y-16842986D01*
X8593928Y-16828700D01*
X8622500Y-16814414D01*
X8851071Y-17085843D02*
X8865357Y-17100129D01*
X8851071Y-17114414D01*
X8836786Y-17100129D01*
X8851071Y-17085843D01*
X8851071Y-17114414D01*
X9051071Y-16814414D02*
X9079643Y-16814414D01*
X9108214Y-16828700D01*
X9122500Y-16842986D01*
X9136786Y-16871557D01*
X9151071Y-16928700D01*
X9151071Y-17000129D01*
X9136786Y-17057272D01*
X9122500Y-17085843D01*
X9108214Y-17100129D01*
X9079643Y-17114414D01*
X9051071Y-17114414D01*
X9022500Y-17100129D01*
X9008214Y-17085843D01*
X8993928Y-17057272D01*
X8979643Y-17000129D01*
X8979643Y-16928700D01*
X8993928Y-16871557D01*
X9008214Y-16842986D01*
X9022500Y-16828700D01*
X9051071Y-16814414D01*
X9251071Y-16814414D02*
X9436786Y-16814414D01*
X9336786Y-16928700D01*
X9379643Y-16928700D01*
X9408214Y-16942986D01*
X9422500Y-16957272D01*
X9436786Y-16985843D01*
X9436786Y-17057272D01*
X9422500Y-17085843D01*
X9408214Y-17100129D01*
X9379643Y-17114414D01*
X9293928Y-17114414D01*
X9265357Y-17100129D01*
X9251071Y-17085843D01*
X9551071Y-16842986D02*
X9565357Y-16828700D01*
X9593928Y-16814414D01*
X9665357Y-16814414D01*
X9693928Y-16828700D01*
X9708214Y-16842986D01*
X9722500Y-16871557D01*
X9722500Y-16900129D01*
X9708214Y-16942986D01*
X9536786Y-17114414D01*
X9722500Y-17114414D01*
X9836786Y-16814414D02*
X9836786Y-16871557D01*
X9951071Y-16814414D02*
X9951071Y-16871557D01*
X10393928Y-17228700D02*
X10379643Y-17214414D01*
X10351071Y-17171557D01*
X10336786Y-17142986D01*
X10322500Y-17100129D01*
X10308214Y-17028700D01*
X10308214Y-16971557D01*
X10322500Y-16900129D01*
X10336786Y-16857272D01*
X10351071Y-16828700D01*
X10379643Y-16785843D01*
X10393928Y-16771557D01*
X10493928Y-16842986D02*
X10508214Y-16828700D01*
X10536786Y-16814414D01*
X10608214Y-16814414D01*
X10636786Y-16828700D01*
X10651071Y-16842986D01*
X10665357Y-16871557D01*
X10665357Y-16900129D01*
X10651071Y-16942986D01*
X10479643Y-17114414D01*
X10665357Y-17114414D01*
X11022500Y-17114414D02*
X11022500Y-16814414D01*
X11151071Y-17114414D02*
X11151071Y-16957272D01*
X11136786Y-16928700D01*
X11108214Y-16914414D01*
X11065357Y-16914414D01*
X11036786Y-16928700D01*
X11022500Y-16942986D01*
X11336786Y-17114414D02*
X11308214Y-17100129D01*
X11293928Y-17085843D01*
X11279643Y-17057272D01*
X11279643Y-16971557D01*
X11293928Y-16942986D01*
X11308214Y-16928700D01*
X11336786Y-16914414D01*
X11379643Y-16914414D01*
X11408214Y-16928700D01*
X11422500Y-16942986D01*
X11436786Y-16971557D01*
X11436786Y-17057272D01*
X11422500Y-17085843D01*
X11408214Y-17100129D01*
X11379643Y-17114414D01*
X11336786Y-17114414D01*
X11608214Y-17114414D02*
X11579643Y-17100129D01*
X11565357Y-17071557D01*
X11565357Y-16814414D01*
X11836786Y-17100129D02*
X11808214Y-17114414D01*
X11751071Y-17114414D01*
X11722500Y-17100129D01*
X11708214Y-17071557D01*
X11708214Y-16957272D01*
X11722500Y-16928700D01*
X11751071Y-16914414D01*
X11808214Y-16914414D01*
X11836786Y-16928700D01*
X11851071Y-16957272D01*
X11851071Y-16985843D01*
X11708214Y-17014414D01*
X11965357Y-17100129D02*
X11993928Y-17114414D01*
X12051071Y-17114414D01*
X12079643Y-17100129D01*
X12093928Y-17071557D01*
X12093928Y-17057272D01*
X12079643Y-17028700D01*
X12051071Y-17014414D01*
X12008214Y-17014414D01*
X11979643Y-17000129D01*
X11965357Y-16971557D01*
X11965357Y-16957272D01*
X11979643Y-16928700D01*
X12008214Y-16914414D01*
X12051071Y-16914414D01*
X12079643Y-16928700D01*
X12193928Y-17228700D02*
X12208214Y-17214414D01*
X12236786Y-17171557D01*
X12251071Y-17142986D01*
X12265357Y-17100129D01*
X12279643Y-17028700D01*
X12279643Y-16971557D01*
X12265357Y-16900129D01*
X12251071Y-16857272D01*
X12236786Y-16828700D01*
X12208214Y-16785843D01*
X12193928Y-16771557D01*
X5626220Y-17334060D02*
X5707500Y-17415340D01*
X5707500Y-17334060D02*
X5626220Y-17415340D01*
X5707500Y-17374700D02*
G75*
G03X5707500Y-17374700I-40640J0D01*
G01*
X6051071Y-17210414D02*
X6079643Y-17210414D01*
X6108214Y-17224700D01*
X6122500Y-17238986D01*
X6136786Y-17267557D01*
X6151071Y-17324700D01*
X6151071Y-17396129D01*
X6136786Y-17453272D01*
X6122500Y-17481843D01*
X6108214Y-17496129D01*
X6079643Y-17510414D01*
X6051071Y-17510414D01*
X6022500Y-17496129D01*
X6008214Y-17481843D01*
X5993928Y-17453272D01*
X5979643Y-17396129D01*
X5979643Y-17324700D01*
X5993928Y-17267557D01*
X6008214Y-17238986D01*
X6022500Y-17224700D01*
X6051071Y-17210414D01*
X6279643Y-17481843D02*
X6293928Y-17496129D01*
X6279643Y-17510414D01*
X6265357Y-17496129D01*
X6279643Y-17481843D01*
X6279643Y-17510414D01*
X6465357Y-17338986D02*
X6436786Y-17324700D01*
X6422500Y-17310414D01*
X6408214Y-17281843D01*
X6408214Y-17267557D01*
X6422500Y-17238986D01*
X6436786Y-17224700D01*
X6465357Y-17210414D01*
X6522500Y-17210414D01*
X6551071Y-17224700D01*
X6565357Y-17238986D01*
X6579643Y-17267557D01*
X6579643Y-17281843D01*
X6565357Y-17310414D01*
X6551071Y-17324700D01*
X6522500Y-17338986D01*
X6465357Y-17338986D01*
X6436786Y-17353272D01*
X6422500Y-17367557D01*
X6408214Y-17396129D01*
X6408214Y-17453272D01*
X6422500Y-17481843D01*
X6436786Y-17496129D01*
X6465357Y-17510414D01*
X6522500Y-17510414D01*
X6551071Y-17496129D01*
X6565357Y-17481843D01*
X6579643Y-17453272D01*
X6579643Y-17396129D01*
X6565357Y-17367557D01*
X6551071Y-17353272D01*
X6522500Y-17338986D01*
X6865357Y-17510414D02*
X6693928Y-17510414D01*
X6779643Y-17510414D02*
X6779643Y-17210414D01*
X6751071Y-17253272D01*
X6722500Y-17281843D01*
X6693928Y-17296129D01*
X6993928Y-17510414D02*
X6993928Y-17310414D01*
X6993928Y-17338986D02*
X7008214Y-17324700D01*
X7036786Y-17310414D01*
X7079643Y-17310414D01*
X7108214Y-17324700D01*
X7122500Y-17353272D01*
X7122500Y-17510414D01*
X7122500Y-17353272D02*
X7136786Y-17324700D01*
X7165357Y-17310414D01*
X7208214Y-17310414D01*
X7236786Y-17324700D01*
X7251071Y-17353272D01*
X7251071Y-17510414D01*
X7393928Y-17510414D02*
X7393928Y-17310414D01*
X7393928Y-17338986D02*
X7408214Y-17324700D01*
X7436786Y-17310414D01*
X7479643Y-17310414D01*
X7508214Y-17324700D01*
X7522500Y-17353272D01*
X7522500Y-17510414D01*
X7522500Y-17353272D02*
X7536786Y-17324700D01*
X7565357Y-17310414D01*
X7608214Y-17310414D01*
X7636786Y-17324700D01*
X7651071Y-17353272D01*
X7651071Y-17510414D01*
X8236786Y-17196129D02*
X7979643Y-17581843D01*
X8622500Y-17210414D02*
X8651071Y-17210414D01*
X8679643Y-17224700D01*
X8693928Y-17238986D01*
X8708214Y-17267557D01*
X8722500Y-17324700D01*
X8722500Y-17396129D01*
X8708214Y-17453272D01*
X8693928Y-17481843D01*
X8679643Y-17496129D01*
X8651071Y-17510414D01*
X8622500Y-17510414D01*
X8593928Y-17496129D01*
X8579643Y-17481843D01*
X8565357Y-17453272D01*
X8551071Y-17396129D01*
X8551071Y-17324700D01*
X8565357Y-17267557D01*
X8579643Y-17238986D01*
X8593928Y-17224700D01*
X8622500Y-17210414D01*
X8851071Y-17481843D02*
X8865357Y-17496129D01*
X8851071Y-17510414D01*
X8836786Y-17496129D01*
X8851071Y-17481843D01*
X8851071Y-17510414D01*
X9051071Y-17210414D02*
X9079643Y-17210414D01*
X9108214Y-17224700D01*
X9122500Y-17238986D01*
X9136786Y-17267557D01*
X9151071Y-17324700D01*
X9151071Y-17396129D01*
X9136786Y-17453272D01*
X9122500Y-17481843D01*
X9108214Y-17496129D01*
X9079643Y-17510414D01*
X9051071Y-17510414D01*
X9022500Y-17496129D01*
X9008214Y-17481843D01*
X8993928Y-17453272D01*
X8979643Y-17396129D01*
X8979643Y-17324700D01*
X8993928Y-17267557D01*
X9008214Y-17238986D01*
X9022500Y-17224700D01*
X9051071Y-17210414D01*
X9251071Y-17210414D02*
X9436786Y-17210414D01*
X9336786Y-17324700D01*
X9379643Y-17324700D01*
X9408214Y-17338986D01*
X9422500Y-17353272D01*
X9436786Y-17381843D01*
X9436786Y-17453272D01*
X9422500Y-17481843D01*
X9408214Y-17496129D01*
X9379643Y-17510414D01*
X9293928Y-17510414D01*
X9265357Y-17496129D01*
X9251071Y-17481843D01*
X9551071Y-17238986D02*
X9565357Y-17224700D01*
X9593928Y-17210414D01*
X9665357Y-17210414D01*
X9693928Y-17224700D01*
X9708214Y-17238986D01*
X9722500Y-17267557D01*
X9722500Y-17296129D01*
X9708214Y-17338986D01*
X9536786Y-17510414D01*
X9722500Y-17510414D01*
X9836786Y-17210414D02*
X9836786Y-17267557D01*
X9951071Y-17210414D02*
X9951071Y-17267557D01*
X10393928Y-17624700D02*
X10379643Y-17610414D01*
X10351071Y-17567557D01*
X10336786Y-17538986D01*
X10322500Y-17496129D01*
X10308214Y-17424700D01*
X10308214Y-17367557D01*
X10322500Y-17296129D01*
X10336786Y-17253272D01*
X10351071Y-17224700D01*
X10379643Y-17181843D01*
X10393928Y-17167557D01*
X10636786Y-17310414D02*
X10636786Y-17510414D01*
X10565357Y-17196129D02*
X10493928Y-17410414D01*
X10679643Y-17410414D01*
X11022500Y-17510414D02*
X11022500Y-17210414D01*
X11151071Y-17510414D02*
X11151071Y-17353272D01*
X11136786Y-17324700D01*
X11108214Y-17310414D01*
X11065357Y-17310414D01*
X11036786Y-17324700D01*
X11022500Y-17338986D01*
X11336786Y-17510414D02*
X11308214Y-17496129D01*
X11293928Y-17481843D01*
X11279643Y-17453272D01*
X11279643Y-17367557D01*
X11293928Y-17338986D01*
X11308214Y-17324700D01*
X11336786Y-17310414D01*
X11379643Y-17310414D01*
X11408214Y-17324700D01*
X11422500Y-17338986D01*
X11436786Y-17367557D01*
X11436786Y-17453272D01*
X11422500Y-17481843D01*
X11408214Y-17496129D01*
X11379643Y-17510414D01*
X11336786Y-17510414D01*
X11608214Y-17510414D02*
X11579643Y-17496129D01*
X11565357Y-17467557D01*
X11565357Y-17210414D01*
X11836786Y-17496129D02*
X11808214Y-17510414D01*
X11751071Y-17510414D01*
X11722500Y-17496129D01*
X11708214Y-17467557D01*
X11708214Y-17353272D01*
X11722500Y-17324700D01*
X11751071Y-17310414D01*
X11808214Y-17310414D01*
X11836786Y-17324700D01*
X11851071Y-17353272D01*
X11851071Y-17381843D01*
X11708214Y-17410414D01*
X11965357Y-17496129D02*
X11993928Y-17510414D01*
X12051071Y-17510414D01*
X12079643Y-17496129D01*
X12093928Y-17467557D01*
X12093928Y-17453272D01*
X12079643Y-17424700D01*
X12051071Y-17410414D01*
X12008214Y-17410414D01*
X11979643Y-17396129D01*
X11965357Y-17367557D01*
X11965357Y-17353272D01*
X11979643Y-17324700D01*
X12008214Y-17310414D01*
X12051071Y-17310414D01*
X12079643Y-17324700D01*
X12193928Y-17624700D02*
X12208214Y-17610414D01*
X12236786Y-17567557D01*
X12251071Y-17538986D01*
X12265357Y-17496129D01*
X12279643Y-17424700D01*
X12279643Y-17367557D01*
X12265357Y-17296129D01*
X12251071Y-17253272D01*
X12236786Y-17224700D01*
X12208214Y-17181843D01*
X12193928Y-17167557D01*
X5605900Y-17719900D02*
X5707500Y-17821500D01*
X5707500Y-17719900D02*
X5605900Y-17821500D01*
X5656700Y-17719900D02*
X5656700Y-17821500D01*
X5605900Y-17770700D02*
X5707500Y-17770700D01*
X6151071Y-17906414D02*
X5979643Y-17906414D01*
X6065357Y-17906414D02*
X6065357Y-17606414D01*
X6036786Y-17649272D01*
X6008214Y-17677843D01*
X5979643Y-17692129D01*
X6279643Y-17877843D02*
X6293928Y-17892129D01*
X6279643Y-17906414D01*
X6265357Y-17892129D01*
X6279643Y-17877843D01*
X6279643Y-17906414D01*
X6479643Y-17606414D02*
X6508214Y-17606414D01*
X6536786Y-17620700D01*
X6551071Y-17634986D01*
X6565357Y-17663557D01*
X6579643Y-17720700D01*
X6579643Y-17792129D01*
X6565357Y-17849272D01*
X6551071Y-17877843D01*
X6536786Y-17892129D01*
X6508214Y-17906414D01*
X6479643Y-17906414D01*
X6451071Y-17892129D01*
X6436786Y-17877843D01*
X6422500Y-17849272D01*
X6408214Y-17792129D01*
X6408214Y-17720700D01*
X6422500Y-17663557D01*
X6436786Y-17634986D01*
X6451071Y-17620700D01*
X6479643Y-17606414D01*
X6693928Y-17634986D02*
X6708214Y-17620700D01*
X6736786Y-17606414D01*
X6808214Y-17606414D01*
X6836786Y-17620700D01*
X6851071Y-17634986D01*
X6865357Y-17663557D01*
X6865357Y-17692129D01*
X6851071Y-17734986D01*
X6679643Y-17906414D01*
X6865357Y-17906414D01*
X6993928Y-17906414D02*
X6993928Y-17706414D01*
X6993928Y-17734986D02*
X7008214Y-17720700D01*
X7036786Y-17706414D01*
X7079643Y-17706414D01*
X7108214Y-17720700D01*
X7122500Y-17749272D01*
X7122500Y-17906414D01*
X7122500Y-17749272D02*
X7136786Y-17720700D01*
X7165357Y-17706414D01*
X7208214Y-17706414D01*
X7236786Y-17720700D01*
X7251071Y-17749272D01*
X7251071Y-17906414D01*
X7393928Y-17906414D02*
X7393928Y-17706414D01*
X7393928Y-17734986D02*
X7408214Y-17720700D01*
X7436786Y-17706414D01*
X7479643Y-17706414D01*
X7508214Y-17720700D01*
X7522500Y-17749272D01*
X7522500Y-17906414D01*
X7522500Y-17749272D02*
X7536786Y-17720700D01*
X7565357Y-17706414D01*
X7608214Y-17706414D01*
X7636786Y-17720700D01*
X7651071Y-17749272D01*
X7651071Y-17906414D01*
X8236786Y-17592129D02*
X7979643Y-17977843D01*
X8622500Y-17606414D02*
X8651071Y-17606414D01*
X8679643Y-17620700D01*
X8693928Y-17634986D01*
X8708214Y-17663557D01*
X8722500Y-17720700D01*
X8722500Y-17792129D01*
X8708214Y-17849272D01*
X8693928Y-17877843D01*
X8679643Y-17892129D01*
X8651071Y-17906414D01*
X8622500Y-17906414D01*
X8593928Y-17892129D01*
X8579643Y-17877843D01*
X8565357Y-17849272D01*
X8551071Y-17792129D01*
X8551071Y-17720700D01*
X8565357Y-17663557D01*
X8579643Y-17634986D01*
X8593928Y-17620700D01*
X8622500Y-17606414D01*
X8851071Y-17877843D02*
X8865357Y-17892129D01*
X8851071Y-17906414D01*
X8836786Y-17892129D01*
X8851071Y-17877843D01*
X8851071Y-17906414D01*
X9051071Y-17606414D02*
X9079643Y-17606414D01*
X9108214Y-17620700D01*
X9122500Y-17634986D01*
X9136786Y-17663557D01*
X9151071Y-17720700D01*
X9151071Y-17792129D01*
X9136786Y-17849272D01*
X9122500Y-17877843D01*
X9108214Y-17892129D01*
X9079643Y-17906414D01*
X9051071Y-17906414D01*
X9022500Y-17892129D01*
X9008214Y-17877843D01*
X8993928Y-17849272D01*
X8979643Y-17792129D01*
X8979643Y-17720700D01*
X8993928Y-17663557D01*
X9008214Y-17634986D01*
X9022500Y-17620700D01*
X9051071Y-17606414D01*
X9408214Y-17706414D02*
X9408214Y-17906414D01*
X9336786Y-17592129D02*
X9265357Y-17806414D01*
X9451071Y-17806414D01*
X9622500Y-17606414D02*
X9651071Y-17606414D01*
X9679643Y-17620700D01*
X9693928Y-17634986D01*
X9708214Y-17663557D01*
X9722500Y-17720700D01*
X9722500Y-17792129D01*
X9708214Y-17849272D01*
X9693928Y-17877843D01*
X9679643Y-17892129D01*
X9651071Y-17906414D01*
X9622500Y-17906414D01*
X9593928Y-17892129D01*
X9579643Y-17877843D01*
X9565357Y-17849272D01*
X9551071Y-17792129D01*
X9551071Y-17720700D01*
X9565357Y-17663557D01*
X9579643Y-17634986D01*
X9593928Y-17620700D01*
X9622500Y-17606414D01*
X9836786Y-17606414D02*
X9836786Y-17663557D01*
X9951071Y-17606414D02*
X9951071Y-17663557D01*
X10393928Y-18020700D02*
X10379643Y-18006414D01*
X10351071Y-17963557D01*
X10336786Y-17934986D01*
X10322500Y-17892129D01*
X10308214Y-17820700D01*
X10308214Y-17763557D01*
X10322500Y-17692129D01*
X10336786Y-17649272D01*
X10351071Y-17620700D01*
X10379643Y-17577843D01*
X10393928Y-17563557D01*
X10522500Y-17906414D02*
X10579643Y-17906414D01*
X10608214Y-17892129D01*
X10622500Y-17877843D01*
X10651071Y-17834986D01*
X10665357Y-17777843D01*
X10665357Y-17663557D01*
X10651071Y-17634986D01*
X10636786Y-17620700D01*
X10608214Y-17606414D01*
X10551071Y-17606414D01*
X10522500Y-17620700D01*
X10508214Y-17634986D01*
X10493928Y-17663557D01*
X10493928Y-17734986D01*
X10508214Y-17763557D01*
X10522500Y-17777843D01*
X10551071Y-17792129D01*
X10608214Y-17792129D01*
X10636786Y-17777843D01*
X10651071Y-17763557D01*
X10665357Y-17734986D01*
X10936786Y-17606414D02*
X10793928Y-17606414D01*
X10779643Y-17749272D01*
X10793928Y-17734986D01*
X10822500Y-17720700D01*
X10893928Y-17720700D01*
X10922500Y-17734986D01*
X10936786Y-17749272D01*
X10951071Y-17777843D01*
X10951071Y-17849272D01*
X10936786Y-17877843D01*
X10922500Y-17892129D01*
X10893928Y-17906414D01*
X10822500Y-17906414D01*
X10793928Y-17892129D01*
X10779643Y-17877843D01*
X11308214Y-17906414D02*
X11308214Y-17606414D01*
X11436786Y-17906414D02*
X11436786Y-17749272D01*
X11422500Y-17720700D01*
X11393928Y-17706414D01*
X11351071Y-17706414D01*
X11322500Y-17720700D01*
X11308214Y-17734986D01*
X11622500Y-17906414D02*
X11593928Y-17892129D01*
X11579643Y-17877843D01*
X11565357Y-17849272D01*
X11565357Y-17763557D01*
X11579643Y-17734986D01*
X11593928Y-17720700D01*
X11622500Y-17706414D01*
X11665357Y-17706414D01*
X11693928Y-17720700D01*
X11708214Y-17734986D01*
X11722500Y-17763557D01*
X11722500Y-17849272D01*
X11708214Y-17877843D01*
X11693928Y-17892129D01*
X11665357Y-17906414D01*
X11622500Y-17906414D01*
X11893928Y-17906414D02*
X11865357Y-17892129D01*
X11851071Y-17863557D01*
X11851071Y-17606414D01*
X12122500Y-17892129D02*
X12093928Y-17906414D01*
X12036786Y-17906414D01*
X12008214Y-17892129D01*
X11993928Y-17863557D01*
X11993928Y-17749272D01*
X12008214Y-17720700D01*
X12036786Y-17706414D01*
X12093928Y-17706414D01*
X12122500Y-17720700D01*
X12136786Y-17749272D01*
X12136786Y-17777843D01*
X11993928Y-17806414D01*
X12251071Y-17892129D02*
X12279643Y-17906414D01*
X12336786Y-17906414D01*
X12365357Y-17892129D01*
X12379643Y-17863557D01*
X12379643Y-17849272D01*
X12365357Y-17820700D01*
X12336786Y-17806414D01*
X12293928Y-17806414D01*
X12265357Y-17792129D01*
X12251071Y-17763557D01*
X12251071Y-17749272D01*
X12265357Y-17720700D01*
X12293928Y-17706414D01*
X12336786Y-17706414D01*
X12365357Y-17720700D01*
X12479643Y-18020700D02*
X12493928Y-18006414D01*
X12522500Y-17963557D01*
X12536786Y-17934986D01*
X12551071Y-17892129D01*
X12565357Y-17820700D01*
X12565357Y-17763557D01*
X12551071Y-17692129D01*
X12536786Y-17649272D01*
X12522500Y-17620700D01*
X12493928Y-17577843D01*
X12479643Y-17563557D01*
X5593200Y-18109550D02*
X5707500Y-18223850D01*
X5707500Y-18109550D02*
X5593200Y-18223850D01*
X5690761Y-18207112D02*
X5690761Y-18126289D01*
X5609938Y-18126289D01*
X5609938Y-18207112D01*
X5690761Y-18207112D01*
X6151071Y-18302414D02*
X5979643Y-18302414D01*
X6065357Y-18302414D02*
X6065357Y-18002414D01*
X6036786Y-18045272D01*
X6008214Y-18073843D01*
X5979643Y-18088129D01*
X6279643Y-18273843D02*
X6293928Y-18288129D01*
X6279643Y-18302414D01*
X6265357Y-18288129D01*
X6279643Y-18273843D01*
X6279643Y-18302414D01*
X6579643Y-18302414D02*
X6408214Y-18302414D01*
X6493928Y-18302414D02*
X6493928Y-18002414D01*
X6465357Y-18045272D01*
X6436786Y-18073843D01*
X6408214Y-18088129D01*
X6836786Y-18102414D02*
X6836786Y-18302414D01*
X6765357Y-17988129D02*
X6693928Y-18202414D01*
X6879643Y-18202414D01*
X6993928Y-18302414D02*
X6993928Y-18102414D01*
X6993928Y-18130986D02*
X7008214Y-18116700D01*
X7036786Y-18102414D01*
X7079643Y-18102414D01*
X7108214Y-18116700D01*
X7122500Y-18145272D01*
X7122500Y-18302414D01*
X7122500Y-18145272D02*
X7136786Y-18116700D01*
X7165357Y-18102414D01*
X7208214Y-18102414D01*
X7236786Y-18116700D01*
X7251071Y-18145272D01*
X7251071Y-18302414D01*
X7393928Y-18302414D02*
X7393928Y-18102414D01*
X7393928Y-18130986D02*
X7408214Y-18116700D01*
X7436786Y-18102414D01*
X7479643Y-18102414D01*
X7508214Y-18116700D01*
X7522500Y-18145272D01*
X7522500Y-18302414D01*
X7522500Y-18145272D02*
X7536786Y-18116700D01*
X7565357Y-18102414D01*
X7608214Y-18102414D01*
X7636786Y-18116700D01*
X7651071Y-18145272D01*
X7651071Y-18302414D01*
X8236786Y-17988129D02*
X7979643Y-18373843D01*
X8622500Y-18002414D02*
X8651071Y-18002414D01*
X8679643Y-18016700D01*
X8693928Y-18030986D01*
X8708214Y-18059557D01*
X8722500Y-18116700D01*
X8722500Y-18188129D01*
X8708214Y-18245272D01*
X8693928Y-18273843D01*
X8679643Y-18288129D01*
X8651071Y-18302414D01*
X8622500Y-18302414D01*
X8593928Y-18288129D01*
X8579643Y-18273843D01*
X8565357Y-18245272D01*
X8551071Y-18188129D01*
X8551071Y-18116700D01*
X8565357Y-18059557D01*
X8579643Y-18030986D01*
X8593928Y-18016700D01*
X8622500Y-18002414D01*
X8851071Y-18273843D02*
X8865357Y-18288129D01*
X8851071Y-18302414D01*
X8836786Y-18288129D01*
X8851071Y-18273843D01*
X8851071Y-18302414D01*
X9051071Y-18002414D02*
X9079643Y-18002414D01*
X9108214Y-18016700D01*
X9122500Y-18030986D01*
X9136786Y-18059557D01*
X9151071Y-18116700D01*
X9151071Y-18188129D01*
X9136786Y-18245272D01*
X9122500Y-18273843D01*
X9108214Y-18288129D01*
X9079643Y-18302414D01*
X9051071Y-18302414D01*
X9022500Y-18288129D01*
X9008214Y-18273843D01*
X8993928Y-18245272D01*
X8979643Y-18188129D01*
X8979643Y-18116700D01*
X8993928Y-18059557D01*
X9008214Y-18030986D01*
X9022500Y-18016700D01*
X9051071Y-18002414D01*
X9408214Y-18102414D02*
X9408214Y-18302414D01*
X9336786Y-17988129D02*
X9265357Y-18202414D01*
X9451071Y-18202414D01*
X9708214Y-18002414D02*
X9565357Y-18002414D01*
X9551071Y-18145272D01*
X9565357Y-18130986D01*
X9593928Y-18116700D01*
X9665357Y-18116700D01*
X9693928Y-18130986D01*
X9708214Y-18145272D01*
X9722500Y-18173843D01*
X9722500Y-18245272D01*
X9708214Y-18273843D01*
X9693928Y-18288129D01*
X9665357Y-18302414D01*
X9593928Y-18302414D01*
X9565357Y-18288129D01*
X9551071Y-18273843D01*
X9836786Y-18002414D02*
X9836786Y-18059557D01*
X9951071Y-18002414D02*
X9951071Y-18059557D01*
X10393928Y-18416700D02*
X10379643Y-18402414D01*
X10351071Y-18359557D01*
X10336786Y-18330986D01*
X10322500Y-18288129D01*
X10308214Y-18216700D01*
X10308214Y-18159557D01*
X10322500Y-18088129D01*
X10336786Y-18045272D01*
X10351071Y-18016700D01*
X10379643Y-17973843D01*
X10393928Y-17959557D01*
X10479643Y-18002414D02*
X10665357Y-18002414D01*
X10565357Y-18116700D01*
X10608214Y-18116700D01*
X10636786Y-18130986D01*
X10651071Y-18145272D01*
X10665357Y-18173843D01*
X10665357Y-18245272D01*
X10651071Y-18273843D01*
X10636786Y-18288129D01*
X10608214Y-18302414D01*
X10522500Y-18302414D01*
X10493928Y-18288129D01*
X10479643Y-18273843D01*
X11022500Y-18302414D02*
X11022500Y-18002414D01*
X11151071Y-18302414D02*
X11151071Y-18145272D01*
X11136786Y-18116700D01*
X11108214Y-18102414D01*
X11065357Y-18102414D01*
X11036786Y-18116700D01*
X11022500Y-18130986D01*
X11336786Y-18302414D02*
X11308214Y-18288129D01*
X11293928Y-18273843D01*
X11279643Y-18245272D01*
X11279643Y-18159557D01*
X11293928Y-18130986D01*
X11308214Y-18116700D01*
X11336786Y-18102414D01*
X11379643Y-18102414D01*
X11408214Y-18116700D01*
X11422500Y-18130986D01*
X11436786Y-18159557D01*
X11436786Y-18245272D01*
X11422500Y-18273843D01*
X11408214Y-18288129D01*
X11379643Y-18302414D01*
X11336786Y-18302414D01*
X11608214Y-18302414D02*
X11579643Y-18288129D01*
X11565357Y-18259557D01*
X11565357Y-18002414D01*
X11836786Y-18288129D02*
X11808214Y-18302414D01*
X11751071Y-18302414D01*
X11722500Y-18288129D01*
X11708214Y-18259557D01*
X11708214Y-18145272D01*
X11722500Y-18116700D01*
X11751071Y-18102414D01*
X11808214Y-18102414D01*
X11836786Y-18116700D01*
X11851071Y-18145272D01*
X11851071Y-18173843D01*
X11708214Y-18202414D01*
X11965357Y-18288129D02*
X11993928Y-18302414D01*
X12051071Y-18302414D01*
X12079643Y-18288129D01*
X12093928Y-18259557D01*
X12093928Y-18245272D01*
X12079643Y-18216700D01*
X12051071Y-18202414D01*
X12008214Y-18202414D01*
X11979643Y-18188129D01*
X11965357Y-18159557D01*
X11965357Y-18145272D01*
X11979643Y-18116700D01*
X12008214Y-18102414D01*
X12051071Y-18102414D01*
X12079643Y-18116700D01*
X12193928Y-18416700D02*
X12208214Y-18402414D01*
X12236786Y-18359557D01*
X12251071Y-18330986D01*
X12265357Y-18288129D01*
X12279643Y-18216700D01*
X12279643Y-18159557D01*
X12265357Y-18088129D01*
X12251071Y-18045272D01*
X12236786Y-18016700D01*
X12208214Y-17973843D01*
X12193928Y-17959557D01*
X5457500Y-18437700D02*
X5707500Y-18687700D01*
X5707500Y-18437700D02*
X5457500Y-18687700D01*
X5582500Y-18687700D02*
X5707500Y-18562700D01*
X5582500Y-18437700D01*
X5457500Y-18562700D01*
X5582500Y-18687700D01*
X5979643Y-18426986D02*
X5993928Y-18412700D01*
X6022500Y-18398414D01*
X6093928Y-18398414D01*
X6122500Y-18412700D01*
X6136786Y-18426986D01*
X6151071Y-18455557D01*
X6151071Y-18484129D01*
X6136786Y-18526986D01*
X5965357Y-18698414D01*
X6151071Y-18698414D01*
X6279643Y-18669843D02*
X6293928Y-18684129D01*
X6279643Y-18698414D01*
X6265357Y-18684129D01*
X6279643Y-18669843D01*
X6279643Y-18698414D01*
X6565357Y-18398414D02*
X6422500Y-18398414D01*
X6408214Y-18541272D01*
X6422500Y-18526986D01*
X6451071Y-18512700D01*
X6522500Y-18512700D01*
X6551071Y-18526986D01*
X6565357Y-18541272D01*
X6579643Y-18569843D01*
X6579643Y-18641272D01*
X6565357Y-18669843D01*
X6551071Y-18684129D01*
X6522500Y-18698414D01*
X6451071Y-18698414D01*
X6422500Y-18684129D01*
X6408214Y-18669843D01*
X6765357Y-18398414D02*
X6793928Y-18398414D01*
X6822500Y-18412700D01*
X6836786Y-18426986D01*
X6851071Y-18455557D01*
X6865357Y-18512700D01*
X6865357Y-18584129D01*
X6851071Y-18641272D01*
X6836786Y-18669843D01*
X6822500Y-18684129D01*
X6793928Y-18698414D01*
X6765357Y-18698414D01*
X6736786Y-18684129D01*
X6722500Y-18669843D01*
X6708214Y-18641272D01*
X6693928Y-18584129D01*
X6693928Y-18512700D01*
X6708214Y-18455557D01*
X6722500Y-18426986D01*
X6736786Y-18412700D01*
X6765357Y-18398414D01*
X6993928Y-18698414D02*
X6993928Y-18498414D01*
X6993928Y-18526986D02*
X7008214Y-18512700D01*
X7036786Y-18498414D01*
X7079643Y-18498414D01*
X7108214Y-18512700D01*
X7122500Y-18541272D01*
X7122500Y-18698414D01*
X7122500Y-18541272D02*
X7136786Y-18512700D01*
X7165357Y-18498414D01*
X7208214Y-18498414D01*
X7236786Y-18512700D01*
X7251071Y-18541272D01*
X7251071Y-18698414D01*
X7393928Y-18698414D02*
X7393928Y-18498414D01*
X7393928Y-18526986D02*
X7408214Y-18512700D01*
X7436786Y-18498414D01*
X7479643Y-18498414D01*
X7508214Y-18512700D01*
X7522500Y-18541272D01*
X7522500Y-18698414D01*
X7522500Y-18541272D02*
X7536786Y-18512700D01*
X7565357Y-18498414D01*
X7608214Y-18498414D01*
X7636786Y-18512700D01*
X7651071Y-18541272D01*
X7651071Y-18698414D01*
X8236786Y-18384129D02*
X7979643Y-18769843D01*
X8622500Y-18398414D02*
X8651071Y-18398414D01*
X8679643Y-18412700D01*
X8693928Y-18426986D01*
X8708214Y-18455557D01*
X8722500Y-18512700D01*
X8722500Y-18584129D01*
X8708214Y-18641272D01*
X8693928Y-18669843D01*
X8679643Y-18684129D01*
X8651071Y-18698414D01*
X8622500Y-18698414D01*
X8593928Y-18684129D01*
X8579643Y-18669843D01*
X8565357Y-18641272D01*
X8551071Y-18584129D01*
X8551071Y-18512700D01*
X8565357Y-18455557D01*
X8579643Y-18426986D01*
X8593928Y-18412700D01*
X8622500Y-18398414D01*
X8851071Y-18669843D02*
X8865357Y-18684129D01*
X8851071Y-18698414D01*
X8836786Y-18684129D01*
X8851071Y-18669843D01*
X8851071Y-18698414D01*
X9051071Y-18398414D02*
X9079643Y-18398414D01*
X9108214Y-18412700D01*
X9122500Y-18426986D01*
X9136786Y-18455557D01*
X9151071Y-18512700D01*
X9151071Y-18584129D01*
X9136786Y-18641272D01*
X9122500Y-18669843D01*
X9108214Y-18684129D01*
X9079643Y-18698414D01*
X9051071Y-18698414D01*
X9022500Y-18684129D01*
X9008214Y-18669843D01*
X8993928Y-18641272D01*
X8979643Y-18584129D01*
X8979643Y-18512700D01*
X8993928Y-18455557D01*
X9008214Y-18426986D01*
X9022500Y-18412700D01*
X9051071Y-18398414D01*
X9293928Y-18698414D02*
X9351071Y-18698414D01*
X9379643Y-18684129D01*
X9393928Y-18669843D01*
X9422500Y-18626986D01*
X9436786Y-18569843D01*
X9436786Y-18455557D01*
X9422500Y-18426986D01*
X9408214Y-18412700D01*
X9379643Y-18398414D01*
X9322500Y-18398414D01*
X9293928Y-18412700D01*
X9279643Y-18426986D01*
X9265357Y-18455557D01*
X9265357Y-18526986D01*
X9279643Y-18555557D01*
X9293928Y-18569843D01*
X9322500Y-18584129D01*
X9379643Y-18584129D01*
X9408214Y-18569843D01*
X9422500Y-18555557D01*
X9436786Y-18526986D01*
X9608214Y-18526986D02*
X9579643Y-18512700D01*
X9565357Y-18498414D01*
X9551071Y-18469843D01*
X9551071Y-18455557D01*
X9565357Y-18426986D01*
X9579643Y-18412700D01*
X9608214Y-18398414D01*
X9665357Y-18398414D01*
X9693928Y-18412700D01*
X9708214Y-18426986D01*
X9722500Y-18455557D01*
X9722500Y-18469843D01*
X9708214Y-18498414D01*
X9693928Y-18512700D01*
X9665357Y-18526986D01*
X9608214Y-18526986D01*
X9579643Y-18541272D01*
X9565357Y-18555557D01*
X9551071Y-18584129D01*
X9551071Y-18641272D01*
X9565357Y-18669843D01*
X9579643Y-18684129D01*
X9608214Y-18698414D01*
X9665357Y-18698414D01*
X9693928Y-18684129D01*
X9708214Y-18669843D01*
X9722500Y-18641272D01*
X9722500Y-18584129D01*
X9708214Y-18555557D01*
X9693928Y-18541272D01*
X9665357Y-18526986D01*
X9836786Y-18398414D02*
X9836786Y-18455557D01*
X9951071Y-18398414D02*
X9951071Y-18455557D01*
X10393928Y-18812700D02*
X10379643Y-18798414D01*
X10351071Y-18755557D01*
X10336786Y-18726986D01*
X10322500Y-18684129D01*
X10308214Y-18612700D01*
X10308214Y-18555557D01*
X10322500Y-18484129D01*
X10336786Y-18441272D01*
X10351071Y-18412700D01*
X10379643Y-18369843D01*
X10393928Y-18355557D01*
X10636786Y-18498414D02*
X10636786Y-18698414D01*
X10565357Y-18384129D02*
X10493928Y-18598414D01*
X10679643Y-18598414D01*
X11022500Y-18698414D02*
X11022500Y-18398414D01*
X11151071Y-18698414D02*
X11151071Y-18541272D01*
X11136786Y-18512700D01*
X11108214Y-18498414D01*
X11065357Y-18498414D01*
X11036786Y-18512700D01*
X11022500Y-18526986D01*
X11336786Y-18698414D02*
X11308214Y-18684129D01*
X11293928Y-18669843D01*
X11279643Y-18641272D01*
X11279643Y-18555557D01*
X11293928Y-18526986D01*
X11308214Y-18512700D01*
X11336786Y-18498414D01*
X11379643Y-18498414D01*
X11408214Y-18512700D01*
X11422500Y-18526986D01*
X11436786Y-18555557D01*
X11436786Y-18641272D01*
X11422500Y-18669843D01*
X11408214Y-18684129D01*
X11379643Y-18698414D01*
X11336786Y-18698414D01*
X11608214Y-18698414D02*
X11579643Y-18684129D01*
X11565357Y-18655557D01*
X11565357Y-18398414D01*
X11836786Y-18684129D02*
X11808214Y-18698414D01*
X11751071Y-18698414D01*
X11722500Y-18684129D01*
X11708214Y-18655557D01*
X11708214Y-18541272D01*
X11722500Y-18512700D01*
X11751071Y-18498414D01*
X11808214Y-18498414D01*
X11836786Y-18512700D01*
X11851071Y-18541272D01*
X11851071Y-18569843D01*
X11708214Y-18598414D01*
X11965357Y-18684129D02*
X11993928Y-18698414D01*
X12051071Y-18698414D01*
X12079643Y-18684129D01*
X12093928Y-18655557D01*
X12093928Y-18641272D01*
X12079643Y-18612700D01*
X12051071Y-18598414D01*
X12008214Y-18598414D01*
X11979643Y-18584129D01*
X11965357Y-18555557D01*
X11965357Y-18541272D01*
X11979643Y-18512700D01*
X12008214Y-18498414D01*
X12051071Y-18498414D01*
X12079643Y-18512700D01*
X12193928Y-18812700D02*
X12208214Y-18798414D01*
X12236786Y-18755557D01*
X12251071Y-18726986D01*
X12265357Y-18684129D01*
X12279643Y-18612700D01*
X12279643Y-18555557D01*
X12265357Y-18484129D01*
X12251071Y-18441272D01*
X12236786Y-18412700D01*
X12208214Y-18369843D01*
X12193928Y-18355557D01*
X12736786Y-18812700D02*
X12722500Y-18798414D01*
X12693928Y-18755557D01*
X12679643Y-18726986D01*
X12665357Y-18684129D01*
X12651071Y-18612700D01*
X12651071Y-18555557D01*
X12665357Y-18484129D01*
X12679643Y-18441272D01*
X12693928Y-18412700D01*
X12722500Y-18369843D01*
X12736786Y-18355557D01*
X12851071Y-18498414D02*
X12851071Y-18698414D01*
X12851071Y-18526986D02*
X12865357Y-18512700D01*
X12893928Y-18498414D01*
X12936786Y-18498414D01*
X12965357Y-18512700D01*
X12979643Y-18541272D01*
X12979643Y-18698414D01*
X13165357Y-18698414D02*
X13136786Y-18684129D01*
X13122500Y-18669843D01*
X13108214Y-18641272D01*
X13108214Y-18555557D01*
X13122500Y-18526986D01*
X13136786Y-18512700D01*
X13165357Y-18498414D01*
X13208214Y-18498414D01*
X13236786Y-18512700D01*
X13251071Y-18526986D01*
X13265357Y-18555557D01*
X13265357Y-18641272D01*
X13251071Y-18669843D01*
X13236786Y-18684129D01*
X13208214Y-18698414D01*
X13165357Y-18698414D01*
X13351071Y-18498414D02*
X13465357Y-18498414D01*
X13393928Y-18398414D02*
X13393928Y-18655557D01*
X13408214Y-18684129D01*
X13436786Y-18698414D01*
X13465357Y-18698414D01*
X13793928Y-18498414D02*
X13793928Y-18798414D01*
X13793928Y-18512700D02*
X13822500Y-18498414D01*
X13879643Y-18498414D01*
X13908214Y-18512700D01*
X13922500Y-18526986D01*
X13936786Y-18555557D01*
X13936786Y-18641272D01*
X13922500Y-18669843D01*
X13908214Y-18684129D01*
X13879643Y-18698414D01*
X13822500Y-18698414D01*
X13793928Y-18684129D01*
X14108214Y-18698414D02*
X14079643Y-18684129D01*
X14065357Y-18655557D01*
X14065357Y-18398414D01*
X14351071Y-18698414D02*
X14351071Y-18541272D01*
X14336786Y-18512700D01*
X14308214Y-18498414D01*
X14251071Y-18498414D01*
X14222500Y-18512700D01*
X14351071Y-18684129D02*
X14322500Y-18698414D01*
X14251071Y-18698414D01*
X14222500Y-18684129D01*
X14208214Y-18655557D01*
X14208214Y-18626986D01*
X14222500Y-18598414D01*
X14251071Y-18584129D01*
X14322500Y-18584129D01*
X14351071Y-18569843D01*
X14451071Y-18498414D02*
X14565357Y-18498414D01*
X14493928Y-18398414D02*
X14493928Y-18655557D01*
X14508214Y-18684129D01*
X14536786Y-18698414D01*
X14565357Y-18698414D01*
X14779643Y-18684129D02*
X14751071Y-18698414D01*
X14693928Y-18698414D01*
X14665357Y-18684129D01*
X14651071Y-18655557D01*
X14651071Y-18541272D01*
X14665357Y-18512700D01*
X14693928Y-18498414D01*
X14751071Y-18498414D01*
X14779643Y-18512700D01*
X14793928Y-18541272D01*
X14793928Y-18569843D01*
X14651071Y-18598414D01*
X15051071Y-18698414D02*
X15051071Y-18398414D01*
X15051071Y-18684129D02*
X15022500Y-18698414D01*
X14965357Y-18698414D01*
X14936786Y-18684129D01*
X14922500Y-18669843D01*
X14908214Y-18641272D01*
X14908214Y-18555557D01*
X14922500Y-18526986D01*
X14936786Y-18512700D01*
X14965357Y-18498414D01*
X15022500Y-18498414D01*
X15051071Y-18512700D01*
X15165357Y-18812700D02*
X15179643Y-18798414D01*
X15208214Y-18755557D01*
X15222500Y-18726986D01*
X15236786Y-18684129D01*
X15251071Y-18612700D01*
X15251071Y-18555557D01*
X15236786Y-18484129D01*
X15222500Y-18441272D01*
X15208214Y-18412700D01*
X15179643Y-18369843D01*
X15165357Y-18355557D01*
M02*
