<?xml version="1.0" standalone="no"?>
 <!DOCTYPE svg PUBLIC "-//W3C//DTD SVG 1.1//EN" 
 "http://www.w3.org/Graphics/SVG/1.1/DTD/svg11.dtd"> 
<svg xmlns="http://www.w3.org/2000/svg" version="1.1" 
    width="29.7002cm" height="21.0007cm" viewBox="0 0 116930 82680 ">
<title>SVG Picture created as Weather Balloon-drl_map.svg date 2016/10/03 11:58:35 </title>
  <desc>Picture generated by PCBNEW </desc>
<g style="fill:#000000; fill-opacity:1;stroke:#000000; stroke-opacity:1;
stroke-linecap:round; stroke-linejoin:round; "
 transform="translate(0 0) scale(1 1)">
</g>
<g style="fill:#000000; fill-opacity:0.0; 
stroke:#000000; stroke-width:-0.000393701; stroke-opacity:1; 
stroke-linecap:round; stroke-linejoin:round;">
</g>
<g style="fill:#000000; fill-opacity:0.0; 
stroke:#000000; stroke-width:59.0551; stroke-opacity:1; 
stroke-linecap:round; stroke-linejoin:round;">
<path d="M84200 36900
L19200 36900
" />
<path d="M84200 9300
L84200 36900
" />
<path d="M19200 9300
L84200 9300
" />
<path d="M19200 9300
L19200 36900
" />
</g>
<g style="fill:#000000; fill-opacity:0.0; 
stroke:#000000; stroke-width:78.7402; stroke-opacity:1; 
stroke-linecap:round; stroke-linejoin:round;">
<path d="M19980 33105
L20019 33144
" />
<path d="M20019 33105
L19980 33144
" />
<path d="M83380 14305
L83419 14344
" />
<path d="M83419 14305
L83380 14344
" />
<circle cx="21500" cy="22275" r="98.4252" /> 
<circle cx="22100" cy="24200" r="98.4252" /> 
<circle cx="22600" cy="25800" r="98.4252" /> 
<circle cx="23300" cy="19700" r="98.4252" /> 
<circle cx="23375" cy="17675" r="98.4252" /> 
<circle cx="23400" cy="22200" r="98.4252" /> 
<circle cx="23400" cy="24200" r="98.4252" /> 
<circle cx="23400" cy="26600" r="98.4252" /> 
<circle cx="23500" cy="28700" r="98.4252" /> 
<circle cx="26499.6" cy="15583.5" r="98.4252" /> 
<circle cx="27000" cy="19350" r="98.4252" /> 
<circle cx="27167.1" cy="29095.9" r="98.4252" /> 
<circle cx="27300" cy="17400" r="98.4252" /> 
<circle cx="27300" cy="18400" r="98.4252" /> 
<circle cx="27500" cy="20200" r="98.4252" /> 
<circle cx="27500" cy="22500" r="98.4252" /> 
<circle cx="27500" cy="24800" r="98.4252" /> 
<circle cx="27500" cy="27100" r="98.4252" /> 
<circle cx="31200" cy="19400" r="98.4252" /> 
<circle cx="31200" cy="21800" r="98.4252" /> 
<circle cx="31200" cy="24200" r="98.4252" /> 
<circle cx="31200" cy="26400" r="98.4252" /> 
<circle cx="31300" cy="18000" r="98.4252" /> 
<circle cx="31645.5" cy="25868" r="98.4252" /> 
<circle cx="32075" cy="16250" r="98.4252" /> 
<circle cx="32724.7" cy="11877" r="98.4252" /> 
<circle cx="32996.6" cy="11265.4" r="98.4252" /> 
<circle cx="33000" cy="23600" r="98.4252" /> 
<circle cx="33477.1" cy="16918.4" r="98.4252" /> 
<circle cx="33775" cy="21100" r="98.4252" /> 
<circle cx="34425" cy="16125" r="98.4252" /> 
<circle cx="34666.3" cy="35619.7" r="98.4252" /> 
<circle cx="35300" cy="27800" r="98.4252" /> 
<circle cx="35482.7" cy="17914.5" r="98.4252" /> 
<circle cx="36198" cy="28002" r="98.4252" /> 
<circle cx="37000" cy="28850" r="98.4252" /> 
<circle cx="37350" cy="24800" r="98.4252" /> 
<circle cx="37400" cy="25900" r="98.4252" /> 
<circle cx="37450" cy="26900" r="98.4252" /> 
<circle cx="37720.2" cy="21598.6" r="98.4252" /> 
<circle cx="38400" cy="33700" r="98.4252" /> 
<circle cx="38600" cy="27450" r="98.4252" /> 
<circle cx="39433.7" cy="14298.7" r="98.4252" /> 
<circle cx="39700" cy="16050" r="98.4252" /> 
<circle cx="40325" cy="35325" r="98.4252" /> 
<circle cx="41150" cy="17625" r="98.4252" /> 
<circle cx="42525.2" cy="33400" r="98.4252" /> 
<circle cx="42780" cy="17660" r="98.4252" /> 
<circle cx="42926.6" cy="29927.6" r="98.4252" /> 
<circle cx="43776" cy="17691.9" r="98.4252" /> 
<circle cx="44125" cy="30150" r="98.4252" /> 
<circle cx="46250" cy="25400" r="98.4252" /> 
<circle cx="46278.6" cy="26040.1" r="98.4252" /> 
<circle cx="46282.3" cy="34500" r="98.4252" /> 
<circle cx="46325" cy="24600" r="98.4252" /> 
<circle cx="46325" cy="32650" r="98.4252" /> 
<circle cx="46800" cy="17800" r="98.4252" /> 
<circle cx="46900" cy="31575" r="98.4252" /> 
<circle cx="47550" cy="26450" r="98.4252" /> 
<circle cx="47850" cy="17000" r="98.4252" /> 
<circle cx="47850" cy="20090.4" r="98.4252" /> 
<circle cx="48475" cy="19550" r="98.4252" /> 
<circle cx="48550" cy="20375" r="98.4252" /> 
<circle cx="49100" cy="24175" r="98.4252" /> 
<circle cx="49325" cy="31600" r="98.4252" /> 
<circle cx="49400" cy="27675" r="98.4252" /> 
<circle cx="50100" cy="27725" r="98.4252" /> 
<circle cx="50900" cy="23100" r="98.4252" /> 
<circle cx="51000" cy="21200" r="98.4252" /> 
<circle cx="51000" cy="27550" r="98.4252" /> 
<circle cx="51262.4" cy="35510.2" r="98.4252" /> 
<circle cx="51800" cy="25575" r="98.4252" /> 
<circle cx="53575" cy="18400" r="98.4252" /> 
<circle cx="54450" cy="27000" r="98.4252" /> 
<circle cx="55300" cy="19425" r="98.4252" /> 
<circle cx="55300" cy="26350" r="98.4252" /> 
<circle cx="55925" cy="20475" r="98.4252" /> 
<circle cx="56200" cy="26925" r="98.4252" /> 
<circle cx="56400" cy="25400" r="98.4252" /> 
<circle cx="56525" cy="23700" r="98.4252" /> 
<circle cx="56775" cy="24575" r="98.4252" /> 
<circle cx="56800" cy="26350" r="98.4252" /> 
<circle cx="56850" cy="17700" r="98.4252" /> 
<circle cx="56900" cy="27450" r="98.4252" /> 
<circle cx="57015" cy="22881.1" r="98.4252" /> 
<circle cx="57180.3" cy="23923.9" r="98.4252" /> 
<circle cx="57362.6" cy="25046.2" r="98.4252" /> 
<circle cx="57390.2" cy="26034.3" r="98.4252" /> 
<circle cx="57550" cy="20100" r="98.4252" /> 
<circle cx="58150" cy="28900" r="98.4252" /> 
<circle cx="58150" cy="29950" r="98.4252" /> 
<circle cx="59100" cy="19150" r="98.4252" /> 
<circle cx="59600" cy="30000" r="98.4252" /> 
<circle cx="60375" cy="30625" r="98.4252" /> 
<circle cx="60875" cy="15100" r="98.4252" /> 
<circle cx="61675" cy="15100" r="98.4252" /> 
<circle cx="63193.1" cy="36261" r="98.4252" /> 
<circle cx="63675" cy="13900" r="98.4252" /> 
<circle cx="63775" cy="14750" r="98.4252" /> 
<circle cx="63775" cy="15625" r="98.4252" /> 
<circle cx="65725" cy="23950" r="98.4252" /> 
<circle cx="65825.2" cy="19675" r="98.4252" /> 
<circle cx="66450" cy="18950" r="98.4252" /> 
<circle cx="66505.7" cy="23852.9" r="98.4252" /> 
<circle cx="66825" cy="17125" r="98.4252" /> 
<circle cx="67200" cy="18850" r="98.4252" /> 
<circle cx="67400" cy="21150" r="98.4252" /> 
<circle cx="67475" cy="16975" r="98.4252" /> 
<circle cx="69225.6" cy="29125.6" r="98.4252" /> 
<circle cx="70425.2" cy="18450" r="98.4252" /> 
<circle cx="70600" cy="15325" r="98.4252" /> 
<circle cx="72475" cy="16250" r="98.4252" /> 
<circle cx="73293.8" cy="14133.5" r="98.4252" /> 
<circle cx="73356.3" cy="26327.8" r="98.4252" /> 
<circle cx="74305.1" cy="22320.8" r="98.4252" /> 
<circle cx="76167.7" cy="16837.9" r="98.4252" /> 
<circle cx="76562.5" cy="24164.9" r="98.4252" /> 
<circle cx="76625" cy="33825" r="98.4252" /> 
<circle cx="77536" cy="22643.9" r="98.4252" /> 
<circle cx="77850" cy="30250" r="98.4252" /> 
<circle cx="78912.2" cy="19220.1" r="98.4252" /> 
<path d="M50450 29500
L50450 29800
" />
<path d="M50300 29650
L50600 29650
" />
<path d="M52450 29500
L52450 29800
" />
<path d="M52300 29650
L52600 29650
" />
<polyline fill="none;"
points="36061,21811
36061,21588
35838,21588
35838,21811
36061,21811
" /> 
<polyline fill="none;"
points="36061,22811
36061,22588
35838,22588
35838,22811
36061,22811
" /> 
<polyline fill="none;"
points="36061,23811
36061,23588
35838,23588
35838,23811
36061,23811
" /> 
<polyline fill="none;"
points="36061,24811
36061,24588
35838,24588
35838,24811
36061,24811
" /> 
<polyline fill="none;"
points="36061,25811
36061,25588
35838,25588
35838,25811
36061,25811
" /> 
<polyline fill="none;"
points="36061,26811
36061,26588
35838,26588
35838,26811
36061,26811
" /> 
<polyline fill="none;"
points="39061,21811
39061,21588
38838,21588
38838,21811
39061,21811
" /> 
<polyline fill="none;"
points="39061,22811
39061,22588
38838,22588
38838,22811
39061,22811
" /> 
<polyline fill="none;"
points="39061,23811
39061,23588
38838,23588
38838,23811
39061,23811
" /> 
<polyline fill="none;"
points="39061,24811
39061,24588
38838,24588
38838,24811
39061,24811
" /> 
<polyline fill="none;"
points="39061,25811
39061,25588
38838,25588
38838,25811
39061,25811
" /> 
<polyline fill="none;"
points="39061,26811
39061,26588
38838,26588
38838,26811
39061,26811
" /> 
<polyline fill="none;"
points="51245,31511
51245,31288
51022,31288
51022,31511
51245,31511
" /> 
<polyline fill="none;"
points="52077,31511
52077,31288
51854,31288
51854,31511
52077,31511
" /> 
<polyline fill="none;"
points="59411,31311
59411,31088
59188,31088
59188,31311
59411,31311
" /> 
<polyline fill="none;"
points="59411,32311
59411,32088
59188,32088
59188,32311
59411,32311
" /> 
<polyline fill="none;"
points="59411,33311
59411,33088
59188,33088
59188,33311
59411,33311
" /> 
<polyline fill="none;"
points="62411,31311
62411,31088
62188,31088
62188,31311
62411,31311
" /> 
<polyline fill="none;"
points="62411,32311
62411,32088
62188,32088
62188,32311
62411,32311
" /> 
<polyline fill="none;"
points="62411,33311
62411,33088
62188,33088
62188,33311
62411,33311
" /> 
<polyline fill="none;"
points="64461,30061
64461,29838
64238,29838
64238,30061
64461,30061
" /> 
<polyline fill="none;"
points="64461,31061
64461,30838
64238,30838
64238,31061
64461,31061
" /> 
<polyline fill="none;"
points="64461,32061
64461,31838
64238,31838
64238,32061
64461,32061
" /> 
<polyline fill="none;"
points="64461,33061
64461,32838
64238,32838
64238,33061
64461,33061
" /> 
<polyline fill="none;"
points="64461,34061
64461,33838
64238,33838
64238,34061
64461,34061
" /> 
<polyline fill="none;"
points="64461,35061
64461,34838
64238,34838
64238,35061
64461,35061
" /> 
<polyline fill="none;"
points="67461,30061
67461,29838
67238,29838
67238,30061
67461,30061
" /> 
<polyline fill="none;"
points="67461,31061
67461,30838
67238,30838
67238,31061
67461,31061
" /> 
<polyline fill="none;"
points="67461,32061
67461,31838
67238,31838
67238,32061
67461,32061
" /> 
<polyline fill="none;"
points="67461,33061
67461,32838
67238,32838
67238,33061
67461,33061
" /> 
<polyline fill="none;"
points="67461,34061
67461,33838
67238,33838
67238,34061
67461,34061
" /> 
<polyline fill="none;"
points="67461,35061
67461,34838
67238,34838
67238,35061
67461,35061
" /> 
<polyline fill="none;"
points="50150,31557
50307,31400
50150,31242
49992,31400
50150,31557
" /> 
<polyline fill="none;"
points="52950,31557
53107,31400
52950,31242
52792,31400
52950,31557
" /> 
<path d="M20850 10800
L21250 11200
" />
<path d="M21250 10800
L20850 11200
" />
<circle cx="21050" cy="11000" r="200" /> 
<path d="M20850 11800
L21250 12200
" />
<path d="M21250 11800
L20850 12200
" />
<circle cx="21050" cy="12000" r="200" /> 
<path d="M20900 13900
L21300 14300
" />
<path d="M21300 13900
L20900 14300
" />
<circle cx="21100" cy="14100" r="200" /> 
<path d="M20900 14900
L21300 15300
" />
<path d="M21300 14900
L20900 15300
" />
<circle cx="21100" cy="15100" r="200" /> 
<path d="M21225 27100
L21625 27500
" />
<path d="M21625 27100
L21225 27500
" />
<circle cx="21425" cy="27300" r="200" /> 
<path d="M21225 28100
L21625 28500
" />
<path d="M21625 28100
L21225 28500
" />
<circle cx="21425" cy="28300" r="200" /> 
<path d="M23750 14950
L24150 15350
" />
<path d="M24150 14950
L23750 15350
" />
<circle cx="23950" cy="15150" r="200" /> 
<path d="M24750 14950
L25150 15350
" />
<path d="M25150 14950
L24750 15350
" />
<circle cx="24950" cy="15150" r="200" /> 
<path d="M36900 17200
L37300 17600
" />
<path d="M37300 17200
L36900 17600
" />
<circle cx="37100" cy="17400" r="200" /> 
<path d="M37300 11050
L37700 11450
" />
<path d="M37700 11050
L37300 11450
" />
<circle cx="37500" cy="11250" r="200" /> 
<path d="M37900 17200
L38300 17600
" />
<path d="M38300 17200
L37900 17600
" />
<circle cx="38100" cy="17400" r="200" /> 
<path d="M38300 11050
L38700 11450
" />
<path d="M38700 11050
L38300 11450
" />
<circle cx="38500" cy="11250" r="200" /> 
<path d="M38900 17200
L39300 17600
" />
<path d="M39300 17200
L38900 17600
" />
<circle cx="39100" cy="17400" r="200" /> 
<path d="M39350 29750
L39750 30150
" />
<path d="M39750 29750
L39350 30150
" />
<circle cx="39550" cy="29950" r="200" /> 
<path d="M39350 30750
L39750 31150
" />
<path d="M39750 30750
L39350 31150
" />
<circle cx="39550" cy="30950" r="200" /> 
<path d="M39350 31750
L39750 32150
" />
<path d="M39750 31750
L39350 32150
" />
<circle cx="39550" cy="31950" r="200" /> 
<path d="M39350 32750
L39750 33150
" />
<path d="M39750 32750
L39350 33150
" />
<circle cx="39550" cy="32950" r="200" /> 
<path d="M39350 33750
L39750 34150
" />
<path d="M39750 33750
L39350 34150
" />
<circle cx="39550" cy="33950" r="200" /> 
<path d="M39350 34750
L39750 35150
" />
<path d="M39750 34750
L39350 35150
" />
<circle cx="39550" cy="34950" r="200" /> 
<path d="M40600 24700
L41000 25100
" />
<path d="M41000 24700
L40600 25100
" />
<circle cx="40800" cy="24900" r="200" /> 
<path d="M40600 26200
L41000 26600
" />
<path d="M41000 26200
L40600 26600
" />
<circle cx="40800" cy="26400" r="200" /> 
<path d="M41025 28550
L41425 28950
" />
<path d="M41425 28550
L41025 28950
" />
<circle cx="41225.2" cy="28750" r="200" /> 
<path d="M41025 29550
L41425 29950
" />
<path d="M41425 29550
L41025 29950
" />
<circle cx="41225.2" cy="29750" r="200" /> 
<path d="M41025 30550
L41425 30950
" />
<path d="M41425 30550
L41025 30950
" />
<circle cx="41225.2" cy="30750" r="200" /> 
<path d="M41025 31550
L41425 31950
" />
<path d="M41425 31550
L41025 31950
" />
<circle cx="41225.2" cy="31750" r="200" /> 
<path d="M41025 32550
L41425 32950
" />
<path d="M41425 32550
L41025 32950
" />
<circle cx="41225.2" cy="32750" r="200" /> 
<path d="M41600 24700
L42000 25100
" />
<path d="M42000 24700
L41600 25100
" />
<circle cx="41800" cy="24900" r="200" /> 
<path d="M41600 26200
L42000 26600
" />
<path d="M42000 26200
L41600 26600
" />
<circle cx="41800" cy="26400" r="200" /> 
<path d="M42100 16300
L42500 16700
" />
<path d="M42500 16300
L42100 16700
" />
<circle cx="42300" cy="16500" r="200" /> 
<path d="M43100 16300
L43500 16700
" />
<path d="M43500 16300
L43100 16700
" />
<circle cx="43300" cy="16500" r="200" /> 
<path d="M43800 27200
L44200 27600
" />
<path d="M44200 27200
L43800 27600
" />
<circle cx="44000" cy="27400" r="200" /> 
<path d="M44800 27200
L45200 27600
" />
<path d="M45200 27200
L44800 27600
" />
<circle cx="45000" cy="27400" r="200" /> 
<path d="M45225 34100
L45625 34500
" />
<path d="M45625 34100
L45225 34500
" />
<circle cx="45425.2" cy="34300" r="200" /> 
<path d="M45225 35100
L45625 35500
" />
<path d="M45625 35100
L45225 35500
" />
<circle cx="45425.2" cy="35300" r="200" /> 
<path d="M45350 16300
L45750 16700
" />
<path d="M45750 16300
L45350 16700
" />
<circle cx="45550" cy="16500" r="200" /> 
<path d="M47300 29075
L47700 29475
" />
<path d="M47700 29075
L47300 29475
" />
<circle cx="47500" cy="29275" r="200" /> 
<path d="M47300 30075
L47700 30475
" />
<path d="M47700 30075
L47300 30475
" />
<circle cx="47500" cy="30275" r="200" /> 
<path d="M47800 15050
L48200 15450
" />
<path d="M48200 15050
L47800 15450
" />
<circle cx="48000" cy="15250" r="200" /> 
<path d="M48800 15050
L49200 15450
" />
<path d="M49200 15050
L48800 15450
" />
<circle cx="49000" cy="15250" r="200" /> 
<path d="M49800 11025
L50200 11425
" />
<path d="M50200 11025
L49800 11425
" />
<circle cx="50000" cy="11225" r="200" /> 
<path d="M49800 15050
L50200 15450
" />
<path d="M50200 15050
L49800 15450
" />
<circle cx="50000" cy="15250" r="200" /> 
<path d="M50800 11025
L51200 11425
" />
<path d="M51200 11025
L50800 11425
" />
<circle cx="51000" cy="11225" r="200" /> 
<path d="M50800 15050
L51200 15450
" />
<path d="M51200 15050
L50800 15450
" />
<circle cx="51000" cy="15250" r="200" /> 
<path d="M51800 11025
L52200 11425
" />
<path d="M52200 11025
L51800 11425
" />
<circle cx="52000" cy="11225" r="200" /> 
<path d="M51800 15050
L52200 15450
" />
<path d="M52200 15050
L51800 15450
" />
<circle cx="52000" cy="15250" r="200" /> 
<path d="M52800 15050
L53200 15450
" />
<path d="M53200 15050
L52800 15450
" />
<circle cx="53000" cy="15250" r="200" /> 
<path d="M53800 15050
L54200 15450
" />
<path d="M54200 15050
L53800 15450
" />
<circle cx="54000" cy="15250" r="200" /> 
<path d="M54800 15050
L55200 15450
" />
<path d="M55200 15050
L54800 15450
" />
<circle cx="55000" cy="15250" r="200" /> 
<path d="M55500 31150
L55900 31550
" />
<path d="M55900 31150
L55500 31550
" />
<circle cx="55700" cy="31350" r="200" /> 
<path d="M55500 32150
L55900 32550
" />
<path d="M55900 32150
L55500 32550
" />
<circle cx="55700" cy="32350" r="200" /> 
<path d="M55500 33150
L55900 33550
" />
<path d="M55900 33150
L55500 33550
" />
<circle cx="55700" cy="33350" r="200" /> 
<path d="M55500 34150
L55900 34550
" />
<path d="M55900 34150
L55500 34550
" />
<circle cx="55700" cy="34350" r="200" /> 
<path d="M55800 15050
L56200 15450
" />
<path d="M56200 15050
L55800 15450
" />
<circle cx="56000" cy="15250" r="200" /> 
<path d="M56800 15050
L57200 15450
" />
<path d="M57200 15050
L56800 15450
" />
<circle cx="57000" cy="15250" r="200" /> 
<path d="M57650 17200
L58050 17600
" />
<path d="M58050 17200
L57650 17600
" />
<circle cx="57850" cy="17400" r="200" /> 
<path d="M58650 17200
L59050 17600
" />
<path d="M59050 17200
L58650 17600
" />
<circle cx="58850" cy="17400" r="200" /> 
<path d="M59650 17200
L60050 17600
" />
<path d="M60050 17200
L59650 17600
" />
<circle cx="59850" cy="17400" r="200" /> 
<path d="M60650 17200
L61050 17600
" />
<path d="M61050 17200
L60650 17600
" />
<circle cx="60850" cy="17400" r="200" /> 
<path d="M61650 17200
L62050 17600
" />
<path d="M62050 17200
L61650 17600
" />
<circle cx="61850" cy="17400" r="200" /> 
<path d="M61700 19000
L62100 19400
" />
<path d="M62100 19000
L61700 19400
" />
<circle cx="61900" cy="19200" r="200" /> 
<path d="M61700 20000
L62100 20400
" />
<path d="M62100 20000
L61700 20400
" />
<circle cx="61900" cy="20200" r="200" /> 
<path d="M61700 21000
L62100 21400
" />
<path d="M62100 21000
L61700 21400
" />
<circle cx="61900" cy="21200" r="200" /> 
<path d="M61700 22000
L62100 22400
" />
<path d="M62100 22000
L61700 22400
" />
<circle cx="61900" cy="22200" r="200" /> 
<path d="M61700 23000
L62100 23400
" />
<path d="M62100 23000
L61700 23400
" />
<circle cx="61900" cy="23200" r="200" /> 
<path d="M61700 24000
L62100 24400
" />
<path d="M62100 24000
L61700 24400
" />
<circle cx="61900" cy="24200" r="200" /> 
<path d="M61700 25000
L62100 25400
" />
<path d="M62100 25000
L61700 25400
" />
<circle cx="61900" cy="25200" r="200" /> 
<path d="M61700 26000
L62100 26400
" />
<path d="M62100 26000
L61700 26400
" />
<circle cx="61900" cy="26200" r="200" /> 
<path d="M61700 27000
L62100 27400
" />
<path d="M62100 27000
L61700 27400
" />
<circle cx="61900" cy="27200" r="200" /> 
<path d="M61700 28000
L62100 28400
" />
<path d="M62100 28000
L61700 28400
" />
<circle cx="61900" cy="28200" r="200" /> 
<path d="M64400 27000
L64800 27400
" />
<path d="M64800 27000
L64400 27400
" />
<circle cx="64600" cy="27200" r="200" /> 
<path d="M65100 10750
L65500 11150
" />
<path d="M65500 10750
L65100 11150
" />
<circle cx="65300" cy="10950" r="200" /> 
<path d="M65400 27000
L65800 27400
" />
<path d="M65800 27000
L65400 27400
" />
<circle cx="65600" cy="27200" r="200" /> 
<path d="M66100 10750
L66500 11150
" />
<path d="M66500 10750
L66100 11150
" />
<circle cx="66300" cy="10950" r="200" /> 
<path d="M66400 27000
L66800 27400
" />
<path d="M66800 27000
L66400 27400
" />
<circle cx="66600" cy="27200" r="200" /> 
<path d="M67100 10750
L67500 11150
" />
<path d="M67500 10750
L67100 11150
" />
<circle cx="67300" cy="10950" r="200" /> 
<path d="M69500 34550
L69900 34950
" />
<path d="M69900 34550
L69500 34950
" />
<circle cx="69700" cy="34750" r="200" /> 
<path d="M70500 34550
L70900 34950
" />
<path d="M70900 34550
L70500 34950
" />
<circle cx="70700" cy="34750" r="200" /> 
<path d="M71500 34550
L71900 34950
" />
<path d="M71900 34550
L71500 34950
" />
<circle cx="71700" cy="34750" r="200" /> 
<path d="M72500 34550
L72900 34950
" />
<path d="M72900 34550
L72500 34950
" />
<circle cx="72700" cy="34750" r="200" /> 
<path d="M73500 34550
L73900 34950
" />
<path d="M73900 34550
L73500 34950
" />
<circle cx="73700" cy="34750" r="200" /> 
<path d="M76800 10550
L77200 10950
" />
<path d="M77200 10550
L76800 10950
" />
<circle cx="77000" cy="10750" r="200" /> 
<path d="M77800 10550
L78200 10950
" />
<path d="M78200 10550
L77800 10950
" />
<circle cx="78000" cy="10750" r="200" /> 
<path d="M82200 28150
L82600 28550
" />
<path d="M82600 28150
L82200 28550
" />
<circle cx="82400" cy="28350" r="200" /> 
<path d="M82200 29150
L82600 29550
" />
<path d="M82600 29150
L82200 29550
" />
<circle cx="82400" cy="29350" r="200" /> 
<path d="M82200 30150
L82600 30550
" />
<path d="M82600 30150
L82200 30550
" />
<circle cx="82400" cy="30350" r="200" /> 
<path d="M82200 31150
L82600 31550
" />
<path d="M82600 31150
L82200 31550
" />
<circle cx="82400" cy="31350" r="200" /> 
<path d="M82200 32150
L82600 32550
" />
<path d="M82600 32150
L82200 32550
" />
<circle cx="82400" cy="32350" r="200" /> 
<path d="M82200 33150
L82600 33550
" />
<path d="M82600 33150
L82200 33550
" />
<circle cx="82400" cy="33350" r="200" /> 
<path d="M82200 34150
L82600 34550
" />
<path d="M82600 34150
L82200 34550
" />
<circle cx="82400" cy="34350" r="200" /> 
<path d="M82450 21200
L82850 21600
" />
<path d="M82850 21200
L82450 21600
" />
<circle cx="82650" cy="21400" r="200" /> 
<path d="M82450 22200
L82850 22600
" />
<path d="M82850 22200
L82450 22600
" />
<circle cx="82650" cy="22400" r="200" /> 
<path d="M82450 23200
L82850 23600
" />
<path d="M82850 23200
L82450 23600
" />
<circle cx="82650" cy="23400" r="200" /> 
<path d="M82450 24200
L82850 24600
" />
<path d="M82850 24200
L82450 24600
" />
<circle cx="82650" cy="24400" r="200" /> 
<path d="M42923 12283
L43356 12716
" />
<path d="M43356 12283
L42923 12716
" />
<path d="M43140 12283
L43140 12716
" />
<path d="M42923 12500
L43356 12500
" />
<path d="M42923 14055
L43356 14488
" />
<path d="M43356 14055
L42923 14488
" />
<path d="M43140 14055
L43140 14488
" />
<path d="M42923 14271
L43356 14271
" />
<path d="M45482 12283
L45915 12716
" />
<path d="M45915 12283
L45482 12716
" />
<path d="M45699 12283
L45699 12716
" />
<path d="M45482 12500
L45915 12500
" />
<path d="M45482 14055
L45915 14488
" />
<path d="M45915 14055
L45482 14488
" />
<path d="M45699 14055
L45699 14488
" />
<path d="M45482 14271
L45915 14271
" />
<path d="M69875 27575
L70325 28025
" />
<path d="M70325 27575
L69875 28025
" />
<polyline fill="none;"
points="70259,27959
70259,27640
69940,27640
69940,27959
70259,27959
" /> 
<path d="M70875 27575
L71325 28025
" />
<path d="M71325 27575
L70875 28025
" />
<polyline fill="none;"
points="71259,27959
71259,27640
70940,27640
70940,27959
71259,27959
" /> 
<path d="M71875 27575
L72325 28025
" />
<path d="M72325 27575
L71875 28025
" />
<polyline fill="none;"
points="72259,27959
72259,27640
71940,27640
71940,27959
72259,27959
" /> 
<path d="M19766 24391
L20633 25258
" />
<path d="M20633 24391
L19766 25258
" />
<polyline fill="none;"
points="20200,25258
20633,24825
20200,24391
19766,24825
20200,25258
" /> 
<path d="M83141 35791
L84008 36658
" />
<path d="M84008 35791
L83141 36658
" />
<polyline fill="none;"
points="83575,36658
84008,36225
83575,35791
83141,36225
83575,36658
" /> 
<path d="M20575 34895
L20575 36154
" />
<path d="M19945 35525
L21204 35525
" />
<circle cx="20575" cy="35525" r="629.921" /> 
<path d="M47875 12095
L47875 13354
" />
<path d="M47245 12725
L48504 12725
" />
<circle cx="47875" cy="12725" r="629.921" /> 
<path d="M82850 10045
L82850 11304
" />
<path d="M82220 10675
L83479 10675
" />
<circle cx="82850" cy="10675" r="629.921" /> 
</g>
<g style="fill:#000000; fill-opacity:0.0; 
stroke:#000000; stroke-width:118.11; stroke-opacity:1; 
stroke-linecap:round; stroke-linejoin:round;">
<path d="M20298 38763
L20298 37581
L20579 37581
L20748 37638
L20860 37750
L20916 37863
L20973 38088
L20973 38256
L20916 38481
L20860 38594
L20748 38706
L20579 38763
L20298 38763
" />
<path d="M21479 38763
L21479 37975
" />
<path d="M21479 38200
L21535 38088
L21591 38031
L21704 37975
L21816 37975
" />
<path d="M22210 38763
L22210 37975
" />
<path d="M22210 37581
L22154 37638
L22210 37694
L22266 37638
L22210 37581
L22210 37694
" />
<path d="M22941 38763
L22829 38706
L22772 38594
L22772 37581
" />
<path d="M23560 38763
L23447 38706
L23391 38594
L23391 37581
" />
<path d="M24910 38763
L24910 37581
L25303 38425
L25697 37581
L25697 38763
" />
<path d="M26766 38763
L26766 38144
L26709 38031
L26597 37975
L26372 37975
L26259 38031
" />
<path d="M26766 38706
L26653 38763
L26372 38763
L26259 38706
L26203 38594
L26203 38481
L26259 38369
L26372 38313
L26653 38313
L26766 38256
" />
<path d="M27328 37975
L27328 39156
" />
<path d="M27328 38031
L27441 37975
L27665 37975
L27778 38031
L27834 38088
L27890 38200
L27890 38538
L27834 38650
L27778 38706
L27665 38763
L27441 38763
L27328 38706
" />
<path d="M28397 38650
L28453 38706
L28397 38763
L28340 38706
L28397 38650
L28397 38763
" />
<path d="M28397 38031
L28453 38088
L28397 38144
L28340 38088
L28397 38031
L28397 38144
" />
<path d="M19131 40689
L19170 40728
" />
<path d="M19170 40689
L19131 40728
" />
<path d="M20523 40062
L20635 40062
L20748 40118
L20804 40174
L20860 40287
L20916 40512
L20916 40793
L20860 41018
L20804 41130
L20748 41187
L20635 41243
L20523 41243
L20410 41187
L20354 41130
L20298 41018
L20241 40793
L20241 40512
L20298 40287
L20354 40174
L20410 40118
L20523 40062
" />
<path d="M21423 41130
L21479 41187
L21423 41243
L21366 41187
L21423 41130
L21423 41243
" />
<path d="M22604 41243
L21929 41243
" />
<path d="M22266 41243
L22266 40062
L22154 40230
L22041 40343
L21929 40399
" />
<path d="M23335 40062
L23447 40062
L23560 40118
L23616 40174
L23672 40287
L23728 40512
L23728 40793
L23672 41018
L23616 41130
L23560 41187
L23447 41243
L23335 41243
L23222 41187
L23166 41130
L23110 41018
L23054 40793
L23054 40512
L23110 40287
L23166 40174
L23222 40118
L23335 40062
" />
<path d="M24235 41243
L24235 40455
" />
<path d="M24235 40568
L24291 40512
L24403 40455
L24572 40455
L24685 40512
L24741 40624
L24741 41243
" />
<path d="M24741 40624
L24797 40512
L24910 40455
L25078 40455
L25191 40512
L25247 40624
L25247 41243
" />
<path d="M25809 41243
L25809 40455
" />
<path d="M25809 40568
L25866 40512
L25978 40455
L26147 40455
L26259 40512
L26316 40624
L26316 41243
" />
<path d="M26316 40624
L26372 40512
L26484 40455
L26653 40455
L26766 40512
L26822 40624
L26822 41243
" />
<path d="M29128 40006
L28115 41524
" />
<path d="M30646 40062
L30759 40062
L30871 40118
L30928 40174
L30984 40287
L31040 40512
L31040 40793
L30984 41018
L30928 41130
L30871 41187
L30759 41243
L30646 41243
L30534 41187
L30478 41130
L30421 41018
L30365 40793
L30365 40512
L30421 40287
L30478 40174
L30534 40118
L30646 40062
" />
<path d="M31546 41130
L31602 41187
L31546 41243
L31490 41187
L31546 41130
L31546 41243
" />
<path d="M32334 40062
L32446 40062
L32559 40118
L32615 40174
L32671 40287
L32727 40512
L32727 40793
L32671 41018
L32615 41130
L32559 41187
L32446 41243
L32334 41243
L32221 41187
L32165 41130
L32109 41018
L32052 40793
L32052 40512
L32109 40287
L32165 40174
L32221 40118
L32334 40062
" />
<path d="M33458 40062
L33571 40062
L33683 40118
L33740 40174
L33796 40287
L33852 40512
L33852 40793
L33796 41018
L33740 41130
L33683 41187
L33571 41243
L33458 41243
L33346 41187
L33290 41130
L33234 41018
L33177 40793
L33177 40512
L33234 40287
L33290 40174
L33346 40118
L33458 40062
" />
<path d="M34865 40455
L34865 41243
" />
<path d="M34583 40006
L34302 40849
L35033 40849
" />
<path d="M35427 40062
L35427 40287
" />
<path d="M35877 40062
L35877 40287
" />
<path d="M37620 41693
L37564 41637
L37452 41468
L37396 41355
L37339 41187
L37283 40905
L37283 40680
L37339 40399
L37396 40230
L37452 40118
L37564 39949
L37620 39893
" />
<path d="M38014 40174
L38070 40118
L38183 40062
L38464 40062
L38577 40118
L38633 40174
L38689 40287
L38689 40399
L38633 40568
L37958 41243
L38689 41243
" />
<path d="M40095 41243
L40095 40062
" />
<path d="M40601 41243
L40601 40624
L40545 40512
L40433 40455
L40264 40455
L40151 40512
L40095 40568
" />
<path d="M41333 41243
L41220 41187
L41164 41130
L41108 41018
L41108 40680
L41164 40568
L41220 40512
L41333 40455
L41501 40455
L41614 40512
L41670 40568
L41726 40680
L41726 41018
L41670 41130
L41614 41187
L41501 41243
L41333 41243
" />
<path d="M42401 41243
L42289 41187
L42232 41074
L42232 40062
" />
<path d="M43301 41187
L43189 41243
L42964 41243
L42851 41187
L42795 41074
L42795 40624
L42851 40512
L42964 40455
L43189 40455
L43301 40512
L43357 40624
L43357 40737
L42795 40849
" />
<path d="M43807 41187
L43920 41243
L44145 41243
L44257 41187
L44313 41074
L44313 41018
L44257 40905
L44145 40849
L43976 40849
L43863 40793
L43807 40680
L43807 40624
L43863 40512
L43976 40455
L44145 40455
L44257 40512
" />
<path d="M44707 41693
L44763 41637
L44876 41468
L44932 41355
L44988 41187
L45045 40905
L45045 40680
L44988 40399
L44932 40230
L44876 40118
L44763 39949
L44707 39893
" />
<circle cx="19072" cy="42268.1" r="98.4252" /> 
<path d="M20523 41621
L20635 41621
L20748 41677
L20804 41733
L20860 41846
L20916 42071
L20916 42352
L20860 42577
L20804 42689
L20748 42746
L20635 42802
L20523 42802
L20410 42746
L20354 42689
L20298 42577
L20241 42352
L20241 42071
L20298 41846
L20354 41733
L20410 41677
L20523 41621
" />
<path d="M21423 42689
L21479 42746
L21423 42802
L21366 42746
L21423 42689
L21423 42802
" />
<path d="M22547 41621
L21985 41621
L21929 42183
L21985 42127
L22097 42071
L22379 42071
L22491 42127
L22547 42183
L22604 42296
L22604 42577
L22547 42689
L22491 42746
L22379 42802
L22097 42802
L21985 42746
L21929 42689
" />
<path d="M23335 41621
L23447 41621
L23560 41677
L23616 41733
L23672 41846
L23728 42071
L23728 42352
L23672 42577
L23616 42689
L23560 42746
L23447 42802
L23335 42802
L23222 42746
L23166 42689
L23110 42577
L23054 42352
L23054 42071
L23110 41846
L23166 41733
L23222 41677
L23335 41621
" />
<path d="M24235 42802
L24235 42015
" />
<path d="M24235 42127
L24291 42071
L24403 42015
L24572 42015
L24685 42071
L24741 42183
L24741 42802
" />
<path d="M24741 42183
L24797 42071
L24910 42015
L25078 42015
L25191 42071
L25247 42183
L25247 42802
" />
<path d="M25809 42802
L25809 42015
" />
<path d="M25809 42127
L25866 42071
L25978 42015
L26147 42015
L26259 42071
L26316 42183
L26316 42802
" />
<path d="M26316 42183
L26372 42071
L26484 42015
L26653 42015
L26766 42071
L26822 42183
L26822 42802
" />
<path d="M29128 41565
L28115 43083
" />
<path d="M30646 41621
L30759 41621
L30871 41677
L30928 41733
L30984 41846
L31040 42071
L31040 42352
L30984 42577
L30928 42689
L30871 42746
L30759 42802
L30646 42802
L30534 42746
L30478 42689
L30421 42577
L30365 42352
L30365 42071
L30421 41846
L30478 41733
L30534 41677
L30646 41621
" />
<path d="M31546 42689
L31602 42746
L31546 42802
L31490 42746
L31546 42689
L31546 42802
" />
<path d="M32334 41621
L32446 41621
L32559 41677
L32615 41733
L32671 41846
L32727 42071
L32727 42352
L32671 42577
L32615 42689
L32559 42746
L32446 42802
L32334 42802
L32221 42746
L32165 42689
L32109 42577
L32052 42352
L32052 42071
L32109 41846
L32165 41733
L32221 41677
L32334 41621
" />
<path d="M33177 41733
L33234 41677
L33346 41621
L33627 41621
L33740 41677
L33796 41733
L33852 41846
L33852 41958
L33796 42127
L33121 42802
L33852 42802
" />
<path d="M34583 41621
L34696 41621
L34808 41677
L34865 41733
L34921 41846
L34977 42071
L34977 42352
L34921 42577
L34865 42689
L34808 42746
L34696 42802
L34583 42802
L34471 42746
L34415 42689
L34358 42577
L34302 42352
L34302 42071
L34358 41846
L34415 41733
L34471 41677
L34583 41621
" />
<path d="M35427 41621
L35427 41846
" />
<path d="M35877 41621
L35877 41846
" />
<path d="M37620 43252
L37564 43196
L37452 43027
L37396 42914
L37339 42746
L37283 42464
L37283 42239
L37339 41958
L37396 41790
L37452 41677
L37564 41508
L37620 41452
" />
<path d="M38689 42802
L38014 42802
" />
<path d="M38352 42802
L38352 41621
L38239 41790
L38127 41902
L38014 41958
" />
<path d="M39139 41733
L39195 41677
L39308 41621
L39589 41621
L39701 41677
L39758 41733
L39814 41846
L39814 41958
L39758 42127
L39083 42802
L39814 42802
" />
<path d="M40939 42802
L40264 42802
" />
<path d="M40601 42802
L40601 41621
L40489 41790
L40376 41902
L40264 41958
" />
<path d="M42345 42802
L42345 41621
" />
<path d="M42851 42802
L42851 42183
L42795 42071
L42682 42015
L42514 42015
L42401 42071
L42345 42127
" />
<path d="M43582 42802
L43470 42746
L43414 42689
L43357 42577
L43357 42239
L43414 42127
L43470 42071
L43582 42015
L43751 42015
L43863 42071
L43920 42127
L43976 42239
L43976 42577
L43920 42689
L43863 42746
L43751 42802
L43582 42802
" />
<path d="M44651 42802
L44538 42746
L44482 42633
L44482 41621
" />
<path d="M45551 42746
L45438 42802
L45213 42802
L45101 42746
L45045 42633
L45045 42183
L45101 42071
L45213 42015
L45438 42015
L45551 42071
L45607 42183
L45607 42296
L45045 42408
" />
<path d="M46057 42746
L46169 42802
L46394 42802
L46507 42746
L46563 42633
L46563 42577
L46507 42464
L46394 42408
L46226 42408
L46113 42352
L46057 42239
L46057 42183
L46113 42071
L46226 42015
L46394 42015
L46507 42071
" />
<path d="M46957 43252
L47013 43196
L47126 43027
L47182 42914
L47238 42746
L47294 42464
L47294 42239
L47238 41958
L47182 41790
L47126 41677
L47013 41508
L46957 41452
" />
<path d="M19020 43677
L19020 43977
" />
<path d="M18870 43827
L19170 43827
" />
<path d="M20523 43180
L20635 43180
L20748 43236
L20804 43292
L20860 43405
L20916 43630
L20916 43911
L20860 44136
L20804 44248
L20748 44305
L20635 44361
L20523 44361
L20410 44305
L20354 44248
L20298 44136
L20241 43911
L20241 43630
L20298 43405
L20354 43292
L20410 43236
L20523 43180
" />
<path d="M21423 44248
L21479 44305
L21423 44361
L21366 44305
L21423 44248
L21423 44361
" />
<path d="M21872 43180
L22660 43180
L22154 44361
" />
<path d="M23616 43180
L23391 43180
L23279 43236
L23222 43292
L23110 43461
L23054 43686
L23054 44136
L23110 44248
L23166 44305
L23279 44361
L23503 44361
L23616 44305
L23672 44248
L23728 44136
L23728 43855
L23672 43742
L23616 43686
L23503 43630
L23279 43630
L23166 43686
L23110 43742
L23054 43855
" />
<path d="M24235 44361
L24235 43574
" />
<path d="M24235 43686
L24291 43630
L24403 43574
L24572 43574
L24685 43630
L24741 43742
L24741 44361
" />
<path d="M24741 43742
L24797 43630
L24910 43574
L25078 43574
L25191 43630
L25247 43742
L25247 44361
" />
<path d="M25809 44361
L25809 43574
" />
<path d="M25809 43686
L25866 43630
L25978 43574
L26147 43574
L26259 43630
L26316 43742
L26316 44361
" />
<path d="M26316 43742
L26372 43630
L26484 43574
L26653 43574
L26766 43630
L26822 43742
L26822 44361
" />
<path d="M29128 43124
L28115 44642
" />
<path d="M30646 43180
L30759 43180
L30871 43236
L30928 43292
L30984 43405
L31040 43630
L31040 43911
L30984 44136
L30928 44248
L30871 44305
L30759 44361
L30646 44361
L30534 44305
L30478 44248
L30421 44136
L30365 43911
L30365 43630
L30421 43405
L30478 43292
L30534 43236
L30646 43180
" />
<path d="M31546 44248
L31602 44305
L31546 44361
L31490 44305
L31546 44248
L31546 44361
" />
<path d="M32334 43180
L32446 43180
L32559 43236
L32615 43292
L32671 43405
L32727 43630
L32727 43911
L32671 44136
L32615 44248
L32559 44305
L32446 44361
L32334 44361
L32221 44305
L32165 44248
L32109 44136
L32052 43911
L32052 43630
L32109 43405
L32165 43292
L32221 43236
L32334 43180
" />
<path d="M33121 43180
L33852 43180
L33458 43630
L33627 43630
L33740 43686
L33796 43742
L33852 43855
L33852 44136
L33796 44248
L33740 44305
L33627 44361
L33290 44361
L33177 44305
L33121 44248
" />
<path d="M34583 43180
L34696 43180
L34808 43236
L34865 43292
L34921 43405
L34977 43630
L34977 43911
L34921 44136
L34865 44248
L34808 44305
L34696 44361
L34583 44361
L34471 44305
L34415 44248
L34358 44136
L34302 43911
L34302 43630
L34358 43405
L34415 43292
L34471 43236
L34583 43180
" />
<path d="M35427 43180
L35427 43405
" />
<path d="M35877 43180
L35877 43405
" />
<path d="M37620 44811
L37564 44755
L37452 44586
L37396 44473
L37339 44305
L37283 44024
L37283 43799
L37339 43517
L37396 43349
L37452 43236
L37564 43067
L37620 43011
" />
<path d="M38014 43292
L38070 43236
L38183 43180
L38464 43180
L38577 43236
L38633 43292
L38689 43405
L38689 43517
L38633 43686
L37958 44361
L38689 44361
" />
<path d="M40095 44361
L40095 43180
" />
<path d="M40601 44361
L40601 43742
L40545 43630
L40433 43574
L40264 43574
L40151 43630
L40095 43686
" />
<path d="M41333 44361
L41220 44305
L41164 44248
L41108 44136
L41108 43799
L41164 43686
L41220 43630
L41333 43574
L41501 43574
L41614 43630
L41670 43686
L41726 43799
L41726 44136
L41670 44248
L41614 44305
L41501 44361
L41333 44361
" />
<path d="M42401 44361
L42289 44305
L42232 44192
L42232 43180
" />
<path d="M43301 44305
L43189 44361
L42964 44361
L42851 44305
L42795 44192
L42795 43742
L42851 43630
L42964 43574
L43189 43574
L43301 43630
L43357 43742
L43357 43855
L42795 43967
" />
<path d="M43807 44305
L43920 44361
L44145 44361
L44257 44305
L44313 44192
L44313 44136
L44257 44024
L44145 43967
L43976 43967
L43863 43911
L43807 43799
L43807 43742
L43863 43630
L43976 43574
L44145 43574
L44257 43630
" />
<path d="M44707 44811
L44763 44755
L44876 44586
L44932 44473
L44988 44305
L45045 44024
L45045 43799
L44988 43517
L44932 43349
L44876 43236
L44763 43067
L44707 43011
" />
<polyline fill="none;"
points="19124,45497
19124,45274
18901,45274
18901,45497
19124,45497
" /> 
<path d="M20523 44739
L20635 44739
L20748 44795
L20804 44851
L20860 44964
L20916 45189
L20916 45470
L20860 45695
L20804 45808
L20748 45864
L20635 45920
L20523 45920
L20410 45864
L20354 45808
L20298 45695
L20241 45470
L20241 45189
L20298 44964
L20354 44851
L20410 44795
L20523 44739
" />
<path d="M21423 45808
L21479 45864
L21423 45920
L21366 45864
L21423 45808
L21423 45920
" />
<path d="M22154 45245
L22041 45189
L21985 45133
L21929 45020
L21929 44964
L21985 44851
L22041 44795
L22154 44739
L22379 44739
L22491 44795
L22547 44851
L22604 44964
L22604 45020
L22547 45133
L22491 45189
L22379 45245
L22154 45245
L22041 45301
L21985 45358
L21929 45470
L21929 45695
L21985 45808
L22041 45864
L22154 45920
L22379 45920
L22491 45864
L22547 45808
L22604 45695
L22604 45470
L22547 45358
L22491 45301
L22379 45245
" />
<path d="M23335 44739
L23447 44739
L23560 44795
L23616 44851
L23672 44964
L23728 45189
L23728 45470
L23672 45695
L23616 45808
L23560 45864
L23447 45920
L23335 45920
L23222 45864
L23166 45808
L23110 45695
L23054 45470
L23054 45189
L23110 44964
L23166 44851
L23222 44795
L23335 44739
" />
<path d="M24235 45920
L24235 45133
" />
<path d="M24235 45245
L24291 45189
L24403 45133
L24572 45133
L24685 45189
L24741 45301
L24741 45920
" />
<path d="M24741 45301
L24797 45189
L24910 45133
L25078 45133
L25191 45189
L25247 45301
L25247 45920
" />
<path d="M25809 45920
L25809 45133
" />
<path d="M25809 45245
L25866 45189
L25978 45133
L26147 45133
L26259 45189
L26316 45301
L26316 45920
" />
<path d="M26316 45301
L26372 45189
L26484 45133
L26653 45133
L26766 45189
L26822 45301
L26822 45920
" />
<path d="M29128 44683
L28115 46201
" />
<path d="M30646 44739
L30759 44739
L30871 44795
L30928 44851
L30984 44964
L31040 45189
L31040 45470
L30984 45695
L30928 45808
L30871 45864
L30759 45920
L30646 45920
L30534 45864
L30478 45808
L30421 45695
L30365 45470
L30365 45189
L30421 44964
L30478 44851
L30534 44795
L30646 44739
" />
<path d="M31546 45808
L31602 45864
L31546 45920
L31490 45864
L31546 45808
L31546 45920
" />
<path d="M32334 44739
L32446 44739
L32559 44795
L32615 44851
L32671 44964
L32727 45189
L32727 45470
L32671 45695
L32615 45808
L32559 45864
L32446 45920
L32334 45920
L32221 45864
L32165 45808
L32109 45695
L32052 45470
L32052 45189
L32109 44964
L32165 44851
L32221 44795
L32334 44739
" />
<path d="M33121 44739
L33852 44739
L33458 45189
L33627 45189
L33740 45245
L33796 45301
L33852 45414
L33852 45695
L33796 45808
L33740 45864
L33627 45920
L33290 45920
L33177 45864
L33121 45808
" />
<path d="M34977 45920
L34302 45920
" />
<path d="M34640 45920
L34640 44739
L34527 44908
L34415 45020
L34302 45076
" />
<path d="M35427 44739
L35427 44964
" />
<path d="M35877 44739
L35877 44964
" />
<path d="M37620 46370
L37564 46314
L37452 46145
L37396 46033
L37339 45864
L37283 45583
L37283 45358
L37339 45076
L37396 44908
L37452 44795
L37564 44626
L37620 44570
" />
<path d="M37958 44739
L38689 44739
L38295 45189
L38464 45189
L38577 45245
L38633 45301
L38689 45414
L38689 45695
L38633 45808
L38577 45864
L38464 45920
L38127 45920
L38014 45864
L37958 45808
" />
<path d="M39139 44851
L39195 44795
L39308 44739
L39589 44739
L39701 44795
L39758 44851
L39814 44964
L39814 45076
L39758 45245
L39083 45920
L39814 45920
" />
<path d="M41220 45920
L41220 44739
" />
<path d="M41726 45920
L41726 45301
L41670 45189
L41557 45133
L41389 45133
L41276 45189
L41220 45245
" />
<path d="M42457 45920
L42345 45864
L42289 45808
L42232 45695
L42232 45358
L42289 45245
L42345 45189
L42457 45133
L42626 45133
L42739 45189
L42795 45245
L42851 45358
L42851 45695
L42795 45808
L42739 45864
L42626 45920
L42457 45920
" />
<path d="M43526 45920
L43414 45864
L43357 45751
L43357 44739
" />
<path d="M44426 45864
L44313 45920
L44088 45920
L43976 45864
L43920 45751
L43920 45301
L43976 45189
L44088 45133
L44313 45133
L44426 45189
L44482 45301
L44482 45414
L43920 45526
" />
<path d="M44932 45864
L45045 45920
L45270 45920
L45382 45864
L45438 45751
L45438 45695
L45382 45583
L45270 45526
L45101 45526
L44988 45470
L44932 45358
L44932 45301
L44988 45189
L45101 45133
L45270 45133
L45382 45189
" />
<path d="M45832 46370
L45888 46314
L46001 46145
L46057 46033
L46113 45864
L46169 45583
L46169 45358
L46113 45076
L46057 44908
L46001 44795
L45888 44626
L45832 44570
" />
<polyline fill="none;"
points="19012,47102
19170,46945
19012,46787
18855,46945
19012,47102
" /> 
<path d="M20523 46298
L20635 46298
L20748 46354
L20804 46410
L20860 46523
L20916 46748
L20916 47029
L20860 47254
L20804 47367
L20748 47423
L20635 47479
L20523 47479
L20410 47423
L20354 47367
L20298 47254
L20241 47029
L20241 46748
L20298 46523
L20354 46410
L20410 46354
L20523 46298
" />
<path d="M21423 47367
L21479 47423
L21423 47479
L21366 47423
L21423 47367
L21423 47479
" />
<path d="M22154 46804
L22041 46748
L21985 46692
L21929 46579
L21929 46523
L21985 46410
L22041 46354
L22154 46298
L22379 46298
L22491 46354
L22547 46410
L22604 46523
L22604 46579
L22547 46692
L22491 46748
L22379 46804
L22154 46804
L22041 46860
L21985 46917
L21929 47029
L21929 47254
L21985 47367
L22041 47423
L22154 47479
L22379 47479
L22491 47423
L22547 47367
L22604 47254
L22604 47029
L22547 46917
L22491 46860
L22379 46804
" />
<path d="M23335 46298
L23447 46298
L23560 46354
L23616 46410
L23672 46523
L23728 46748
L23728 47029
L23672 47254
L23616 47367
L23560 47423
L23447 47479
L23335 47479
L23222 47423
L23166 47367
L23110 47254
L23054 47029
L23054 46748
L23110 46523
L23166 46410
L23222 46354
L23335 46298
" />
<path d="M24235 47479
L24235 46692
" />
<path d="M24235 46804
L24291 46748
L24403 46692
L24572 46692
L24685 46748
L24741 46860
L24741 47479
" />
<path d="M24741 46860
L24797 46748
L24910 46692
L25078 46692
L25191 46748
L25247 46860
L25247 47479
" />
<path d="M25809 47479
L25809 46692
" />
<path d="M25809 46804
L25866 46748
L25978 46692
L26147 46692
L26259 46748
L26316 46860
L26316 47479
" />
<path d="M26316 46860
L26372 46748
L26484 46692
L26653 46692
L26766 46748
L26822 46860
L26822 47479
" />
<path d="M29128 46242
L28115 47760
" />
<path d="M30646 46298
L30759 46298
L30871 46354
L30928 46410
L30984 46523
L31040 46748
L31040 47029
L30984 47254
L30928 47367
L30871 47423
L30759 47479
L30646 47479
L30534 47423
L30478 47367
L30421 47254
L30365 47029
L30365 46748
L30421 46523
L30478 46410
L30534 46354
L30646 46298
" />
<path d="M31546 47367
L31602 47423
L31546 47479
L31490 47423
L31546 47367
L31546 47479
" />
<path d="M32334 46298
L32446 46298
L32559 46354
L32615 46410
L32671 46523
L32727 46748
L32727 47029
L32671 47254
L32615 47367
L32559 47423
L32446 47479
L32334 47479
L32221 47423
L32165 47367
L32109 47254
L32052 47029
L32052 46748
L32109 46523
L32165 46410
L32221 46354
L32334 46298
" />
<path d="M33121 46298
L33852 46298
L33458 46748
L33627 46748
L33740 46804
L33796 46860
L33852 46973
L33852 47254
L33796 47367
L33740 47423
L33627 47479
L33290 47479
L33177 47423
L33121 47367
" />
<path d="M34302 46410
L34358 46354
L34471 46298
L34752 46298
L34865 46354
L34921 46410
L34977 46523
L34977 46635
L34921 46804
L34246 47479
L34977 47479
" />
<path d="M35427 46298
L35427 46523
" />
<path d="M35877 46298
L35877 46523
" />
<path d="M37620 47929
L37564 47873
L37452 47704
L37396 47592
L37339 47423
L37283 47142
L37283 46917
L37339 46635
L37396 46467
L37452 46354
L37564 46185
L37620 46129
" />
<path d="M38014 46410
L38070 46354
L38183 46298
L38464 46298
L38577 46354
L38633 46410
L38689 46523
L38689 46635
L38633 46804
L37958 47479
L38689 47479
" />
<path d="M40095 47479
L40095 46298
" />
<path d="M40601 47479
L40601 46860
L40545 46748
L40433 46692
L40264 46692
L40151 46748
L40095 46804
" />
<path d="M41333 47479
L41220 47423
L41164 47367
L41108 47254
L41108 46917
L41164 46804
L41220 46748
L41333 46692
L41501 46692
L41614 46748
L41670 46804
L41726 46917
L41726 47254
L41670 47367
L41614 47423
L41501 47479
L41333 47479
" />
<path d="M42401 47479
L42289 47423
L42232 47310
L42232 46298
" />
<path d="M43301 47423
L43189 47479
L42964 47479
L42851 47423
L42795 47310
L42795 46860
L42851 46748
L42964 46692
L43189 46692
L43301 46748
L43357 46860
L43357 46973
L42795 47085
" />
<path d="M43807 47423
L43920 47479
L44145 47479
L44257 47423
L44313 47310
L44313 47254
L44257 47142
L44145 47085
L43976 47085
L43863 47029
L43807 46917
L43807 46860
L43863 46748
L43976 46692
L44145 46692
L44257 46748
" />
<path d="M44707 47929
L44763 47873
L44876 47704
L44932 47592
L44988 47423
L45045 47142
L45045 46917
L44988 46635
L44932 46467
L44876 46354
L44763 46185
L44707 46129
" />
<path d="M18770 48304
L19170 48704
" />
<path d="M19170 48304
L18770 48704
" />
<circle cx="18970.5" cy="48504.3" r="200" /> 
<path d="M20916 49038
L20241 49038
" />
<path d="M20579 49038
L20579 47857
L20466 48026
L20354 48138
L20241 48194
" />
<path d="M21423 48926
L21479 48982
L21423 49038
L21366 48982
L21423 48926
L21423 49038
" />
<path d="M22210 47857
L22322 47857
L22435 47913
L22491 47970
L22547 48082
L22604 48307
L22604 48588
L22547 48813
L22491 48926
L22435 48982
L22322 49038
L22210 49038
L22097 48982
L22041 48926
L21985 48813
L21929 48588
L21929 48307
L21985 48082
L22041 47970
L22097 47913
L22210 47857
" />
<path d="M23054 47970
L23110 47913
L23222 47857
L23503 47857
L23616 47913
L23672 47970
L23728 48082
L23728 48194
L23672 48363
L22997 49038
L23728 49038
" />
<path d="M24235 49038
L24235 48251
" />
<path d="M24235 48363
L24291 48307
L24403 48251
L24572 48251
L24685 48307
L24741 48419
L24741 49038
" />
<path d="M24741 48419
L24797 48307
L24910 48251
L25078 48251
L25191 48307
L25247 48419
L25247 49038
" />
<path d="M25809 49038
L25809 48251
" />
<path d="M25809 48363
L25866 48307
L25978 48251
L26147 48251
L26259 48307
L26316 48419
L26316 49038
" />
<path d="M26316 48419
L26372 48307
L26484 48251
L26653 48251
L26766 48307
L26822 48419
L26822 49038
" />
<path d="M29128 47801
L28115 49319
" />
<path d="M30646 47857
L30759 47857
L30871 47913
L30928 47970
L30984 48082
L31040 48307
L31040 48588
L30984 48813
L30928 48926
L30871 48982
L30759 49038
L30646 49038
L30534 48982
L30478 48926
L30421 48813
L30365 48588
L30365 48307
L30421 48082
L30478 47970
L30534 47913
L30646 47857
" />
<path d="M31546 48926
L31602 48982
L31546 49038
L31490 48982
L31546 48926
L31546 49038
" />
<path d="M32334 47857
L32446 47857
L32559 47913
L32615 47970
L32671 48082
L32727 48307
L32727 48588
L32671 48813
L32615 48926
L32559 48982
L32446 49038
L32334 49038
L32221 48982
L32165 48926
L32109 48813
L32052 48588
L32052 48307
L32109 48082
L32165 47970
L32221 47913
L32334 47857
" />
<path d="M33740 48251
L33740 49038
" />
<path d="M33458 47801
L33177 48644
L33908 48644
" />
<path d="M34583 47857
L34696 47857
L34808 47913
L34865 47970
L34921 48082
L34977 48307
L34977 48588
L34921 48813
L34865 48926
L34808 48982
L34696 49038
L34583 49038
L34471 48982
L34415 48926
L34358 48813
L34302 48588
L34302 48307
L34358 48082
L34415 47970
L34471 47913
L34583 47857
" />
<path d="M35427 47857
L35427 48082
" />
<path d="M35877 47857
L35877 48082
" />
<path d="M37620 49488
L37564 49432
L37452 49263
L37396 49151
L37339 48982
L37283 48701
L37283 48476
L37339 48194
L37396 48026
L37452 47913
L37564 47745
L37620 47688
" />
<path d="M38127 49038
L38352 49038
L38464 48982
L38520 48926
L38633 48757
L38689 48532
L38689 48082
L38633 47970
L38577 47913
L38464 47857
L38239 47857
L38127 47913
L38070 47970
L38014 48082
L38014 48363
L38070 48476
L38127 48532
L38239 48588
L38464 48588
L38577 48532
L38633 48476
L38689 48363
" />
<path d="M39083 47857
L39814 47857
L39420 48307
L39589 48307
L39701 48363
L39758 48419
L39814 48532
L39814 48813
L39758 48926
L39701 48982
L39589 49038
L39252 49038
L39139 48982
L39083 48926
" />
<path d="M41220 49038
L41220 47857
" />
<path d="M41726 49038
L41726 48419
L41670 48307
L41557 48251
L41389 48251
L41276 48307
L41220 48363
" />
<path d="M42457 49038
L42345 48982
L42289 48926
L42232 48813
L42232 48476
L42289 48363
L42345 48307
L42457 48251
L42626 48251
L42739 48307
L42795 48363
L42851 48476
L42851 48813
L42795 48926
L42739 48982
L42626 49038
L42457 49038
" />
<path d="M43526 49038
L43414 48982
L43357 48869
L43357 47857
" />
<path d="M44426 48982
L44313 49038
L44088 49038
L43976 48982
L43920 48869
L43920 48419
L43976 48307
L44088 48251
L44313 48251
L44426 48307
L44482 48419
L44482 48532
L43920 48644
" />
<path d="M44932 48982
L45045 49038
L45270 49038
L45382 48982
L45438 48869
L45438 48813
L45382 48701
L45270 48644
L45101 48644
L44988 48588
L44932 48476
L44932 48419
L44988 48307
L45101 48251
L45270 48251
L45382 48307
" />
<path d="M45832 49488
L45888 49432
L46001 49263
L46057 49151
L46113 48982
L46169 48701
L46169 48476
L46113 48194
L46057 48026
L46001 47913
L45888 47745
L45832 47688
" />
<path d="M18737 49846
L19170 50279
" />
<path d="M19170 49846
L18737 50279
" />
<path d="M18953 49846
L18953 50279
" />
<path d="M18737 50063
L19170 50063
" />
<path d="M20916 50597
L20241 50597
" />
<path d="M20579 50597
L20579 49416
L20466 49585
L20354 49697
L20241 49754
" />
<path d="M21423 50485
L21479 50541
L21423 50597
L21366 50541
L21423 50485
L21423 50597
" />
<path d="M22604 50597
L21929 50597
" />
<path d="M22266 50597
L22266 49416
L22154 49585
L22041 49697
L21929 49754
" />
<path d="M23335 49416
L23447 49416
L23560 49472
L23616 49529
L23672 49641
L23728 49866
L23728 50147
L23672 50372
L23616 50485
L23560 50541
L23447 50597
L23335 50597
L23222 50541
L23166 50485
L23110 50372
L23054 50147
L23054 49866
L23110 49641
L23166 49529
L23222 49472
L23335 49416
" />
<path d="M24235 50597
L24235 49810
" />
<path d="M24235 49922
L24291 49866
L24403 49810
L24572 49810
L24685 49866
L24741 49979
L24741 50597
" />
<path d="M24741 49979
L24797 49866
L24910 49810
L25078 49810
L25191 49866
L25247 49979
L25247 50597
" />
<path d="M25809 50597
L25809 49810
" />
<path d="M25809 49922
L25866 49866
L25978 49810
L26147 49810
L26259 49866
L26316 49979
L26316 50597
" />
<path d="M26316 49979
L26372 49866
L26484 49810
L26653 49810
L26766 49866
L26822 49979
L26822 50597
" />
<path d="M29128 49360
L28115 50878
" />
<path d="M30646 49416
L30759 49416
L30871 49472
L30928 49529
L30984 49641
L31040 49866
L31040 50147
L30984 50372
L30928 50485
L30871 50541
L30759 50597
L30646 50597
L30534 50541
L30478 50485
L30421 50372
L30365 50147
L30365 49866
L30421 49641
L30478 49529
L30534 49472
L30646 49416
" />
<path d="M31546 50485
L31602 50541
L31546 50597
L31490 50541
L31546 50485
L31546 50597
" />
<path d="M32334 49416
L32446 49416
L32559 49472
L32615 49529
L32671 49641
L32727 49866
L32727 50147
L32671 50372
L32615 50485
L32559 50541
L32446 50597
L32334 50597
L32221 50541
L32165 50485
L32109 50372
L32052 50147
L32052 49866
L32109 49641
L32165 49529
L32221 49472
L32334 49416
" />
<path d="M33740 49810
L33740 50597
" />
<path d="M33458 49360
L33177 50203
L33908 50203
" />
<path d="M34246 49416
L34977 49416
L34583 49866
L34752 49866
L34865 49922
L34921 49979
L34977 50091
L34977 50372
L34921 50485
L34865 50541
L34752 50597
L34415 50597
L34302 50541
L34246 50485
" />
<path d="M35427 49416
L35427 49641
" />
<path d="M35877 49416
L35877 49641
" />
<path d="M37620 51047
L37564 50991
L37452 50822
L37396 50710
L37339 50541
L37283 50260
L37283 50035
L37339 49754
L37396 49585
L37452 49472
L37564 49304
L37620 49247
" />
<path d="M38577 49810
L38577 50597
" />
<path d="M38295 49360
L38014 50203
L38745 50203
" />
<path d="M40095 50597
L40095 49416
" />
<path d="M40601 50597
L40601 49979
L40545 49866
L40433 49810
L40264 49810
L40151 49866
L40095 49922
" />
<path d="M41333 50597
L41220 50541
L41164 50485
L41108 50372
L41108 50035
L41164 49922
L41220 49866
L41333 49810
L41501 49810
L41614 49866
L41670 49922
L41726 50035
L41726 50372
L41670 50485
L41614 50541
L41501 50597
L41333 50597
" />
<path d="M42401 50597
L42289 50541
L42232 50428
L42232 49416
" />
<path d="M43301 50541
L43189 50597
L42964 50597
L42851 50541
L42795 50428
L42795 49979
L42851 49866
L42964 49810
L43189 49810
L43301 49866
L43357 49979
L43357 50091
L42795 50203
" />
<path d="M43807 50541
L43920 50597
L44145 50597
L44257 50541
L44313 50428
L44313 50372
L44257 50260
L44145 50203
L43976 50203
L43863 50147
L43807 50035
L43807 49979
L43863 49866
L43976 49810
L44145 49810
L44257 49866
" />
<path d="M44707 51047
L44763 50991
L44876 50822
L44932 50710
L44988 50541
L45045 50260
L45045 50035
L44988 49754
L44932 49585
L44876 49472
L44763 49304
L44707 49247
" />
<path d="M18720 51397
L19170 51847
" />
<path d="M19170 51397
L18720 51847
" />
<polyline fill="none;"
points="19104,51781
19104,51463
18786,51463
18786,51781
19104,51781
" /> 
<path d="M20916 52156
L20241 52156
" />
<path d="M20579 52156
L20579 50975
L20466 51144
L20354 51256
L20241 51313
" />
<path d="M21423 52044
L21479 52100
L21423 52156
L21366 52100
L21423 52044
L21423 52156
" />
<path d="M22604 52156
L21929 52156
" />
<path d="M22266 52156
L22266 50975
L22154 51144
L22041 51256
L21929 51313
" />
<path d="M23616 51369
L23616 52156
" />
<path d="M23335 50919
L23054 51763
L23785 51763
" />
<path d="M24235 52156
L24235 51369
" />
<path d="M24235 51481
L24291 51425
L24403 51369
L24572 51369
L24685 51425
L24741 51538
L24741 52156
" />
<path d="M24741 51538
L24797 51425
L24910 51369
L25078 51369
L25191 51425
L25247 51538
L25247 52156
" />
<path d="M25809 52156
L25809 51369
" />
<path d="M25809 51481
L25866 51425
L25978 51369
L26147 51369
L26259 51425
L26316 51538
L26316 52156
" />
<path d="M26316 51538
L26372 51425
L26484 51369
L26653 51369
L26766 51425
L26822 51538
L26822 52156
" />
<path d="M29128 50919
L28115 52437
" />
<path d="M30646 50975
L30759 50975
L30871 51031
L30928 51088
L30984 51200
L31040 51425
L31040 51706
L30984 51931
L30928 52044
L30871 52100
L30759 52156
L30646 52156
L30534 52100
L30478 52044
L30421 51931
L30365 51706
L30365 51425
L30421 51200
L30478 51088
L30534 51031
L30646 50975
" />
<path d="M31546 52044
L31602 52100
L31546 52156
L31490 52100
L31546 52044
L31546 52156
" />
<path d="M32334 50975
L32446 50975
L32559 51031
L32615 51088
L32671 51200
L32727 51425
L32727 51706
L32671 51931
L32615 52044
L32559 52100
L32446 52156
L32334 52156
L32221 52100
L32165 52044
L32109 51931
L32052 51706
L32052 51425
L32109 51200
L32165 51088
L32221 51031
L32334 50975
" />
<path d="M33740 51369
L33740 52156
" />
<path d="M33458 50919
L33177 51763
L33908 51763
" />
<path d="M34921 50975
L34358 50975
L34302 51538
L34358 51481
L34471 51425
L34752 51425
L34865 51481
L34921 51538
L34977 51650
L34977 51931
L34921 52044
L34865 52100
L34752 52156
L34471 52156
L34358 52100
L34302 52044
" />
<path d="M35427 50975
L35427 51200
" />
<path d="M35877 50975
L35877 51200
" />
<path d="M37620 52606
L37564 52550
L37452 52381
L37396 52269
L37339 52100
L37283 51819
L37283 51594
L37339 51313
L37396 51144
L37452 51031
L37564 50863
L37620 50806
" />
<path d="M37958 50975
L38689 50975
L38295 51425
L38464 51425
L38577 51481
L38633 51538
L38689 51650
L38689 51931
L38633 52044
L38577 52100
L38464 52156
L38127 52156
L38014 52100
L37958 52044
" />
<path d="M40095 52156
L40095 50975
" />
<path d="M40601 52156
L40601 51538
L40545 51425
L40433 51369
L40264 51369
L40151 51425
L40095 51481
" />
<path d="M41333 52156
L41220 52100
L41164 52044
L41108 51931
L41108 51594
L41164 51481
L41220 51425
L41333 51369
L41501 51369
L41614 51425
L41670 51481
L41726 51594
L41726 51931
L41670 52044
L41614 52100
L41501 52156
L41333 52156
" />
<path d="M42401 52156
L42289 52100
L42232 51988
L42232 50975
" />
<path d="M43301 52100
L43189 52156
L42964 52156
L42851 52100
L42795 51988
L42795 51538
L42851 51425
L42964 51369
L43189 51369
L43301 51425
L43357 51538
L43357 51650
L42795 51763
" />
<path d="M43807 52100
L43920 52156
L44145 52156
L44257 52100
L44313 51988
L44313 51931
L44257 51819
L44145 51763
L43976 51763
L43863 51706
L43807 51594
L43807 51538
L43863 51425
L43976 51369
L44145 51369
L44257 51425
" />
<path d="M44707 52606
L44763 52550
L44876 52381
L44932 52269
L44988 52100
L45045 51819
L45045 51594
L44988 51313
L44932 51144
L44876 51031
L44763 50863
L44707 50806
" />
<path d="M18304 52748
L19170 53614
" />
<path d="M19170 52748
L18304 53614
" />
<polyline fill="none;"
points="18737,53614
19170,53181
18737,52748
18304,53181
18737,53614
" /> 
<path d="M20241 52647
L20298 52590
L20410 52534
L20691 52534
L20804 52590
L20860 52647
L20916 52759
L20916 52872
L20860 53040
L20185 53715
L20916 53715
" />
<path d="M21423 53603
L21479 53659
L21423 53715
L21366 53659
L21423 53603
L21423 53715
" />
<path d="M21929 52647
L21985 52590
L22097 52534
L22379 52534
L22491 52590
L22547 52647
L22604 52759
L22604 52872
L22547 53040
L21872 53715
L22604 53715
" />
<path d="M23335 52534
L23447 52534
L23560 52590
L23616 52647
L23672 52759
L23728 52984
L23728 53265
L23672 53490
L23616 53603
L23560 53659
L23447 53715
L23335 53715
L23222 53659
L23166 53603
L23110 53490
L23054 53265
L23054 52984
L23110 52759
L23166 52647
L23222 52590
L23335 52534
" />
<path d="M24235 53715
L24235 52928
" />
<path d="M24235 53040
L24291 52984
L24403 52928
L24572 52928
L24685 52984
L24741 53097
L24741 53715
" />
<path d="M24741 53097
L24797 52984
L24910 52928
L25078 52928
L25191 52984
L25247 53097
L25247 53715
" />
<path d="M25809 53715
L25809 52928
" />
<path d="M25809 53040
L25866 52984
L25978 52928
L26147 52928
L26259 52984
L26316 53097
L26316 53715
" />
<path d="M26316 53097
L26372 52984
L26484 52928
L26653 52928
L26766 52984
L26822 53097
L26822 53715
" />
<path d="M29128 52478
L28115 53997
" />
<path d="M30646 52534
L30759 52534
L30871 52590
L30928 52647
L30984 52759
L31040 52984
L31040 53265
L30984 53490
L30928 53603
L30871 53659
L30759 53715
L30646 53715
L30534 53659
L30478 53603
L30421 53490
L30365 53265
L30365 52984
L30421 52759
L30478 52647
L30534 52590
L30646 52534
" />
<path d="M31546 53603
L31602 53659
L31546 53715
L31490 53659
L31546 53603
L31546 53715
" />
<path d="M32334 52534
L32446 52534
L32559 52590
L32615 52647
L32671 52759
L32727 52984
L32727 53265
L32671 53490
L32615 53603
L32559 53659
L32446 53715
L32334 53715
L32221 53659
L32165 53603
L32109 53490
L32052 53265
L32052 52984
L32109 52759
L32165 52647
L32221 52590
L32334 52534
" />
<path d="M33402 53040
L33290 52984
L33234 52928
L33177 52815
L33177 52759
L33234 52647
L33290 52590
L33402 52534
L33627 52534
L33740 52590
L33796 52647
L33852 52759
L33852 52815
L33796 52928
L33740 52984
L33627 53040
L33402 53040
L33290 53097
L33234 53153
L33177 53265
L33177 53490
L33234 53603
L33290 53659
L33402 53715
L33627 53715
L33740 53659
L33796 53603
L33852 53490
L33852 53265
L33796 53153
L33740 53097
L33627 53040
" />
<path d="M34246 52534
L35033 52534
L34527 53715
" />
<path d="M35427 52534
L35427 52759
" />
<path d="M35877 52534
L35877 52759
" />
<path d="M37620 54165
L37564 54109
L37452 53940
L37396 53828
L37339 53659
L37283 53378
L37283 53153
L37339 52872
L37396 52703
L37452 52590
L37564 52422
L37620 52365
" />
<path d="M38014 52647
L38070 52590
L38183 52534
L38464 52534
L38577 52590
L38633 52647
L38689 52759
L38689 52872
L38633 53040
L37958 53715
L38689 53715
" />
<path d="M40095 53715
L40095 52534
" />
<path d="M40601 53715
L40601 53097
L40545 52984
L40433 52928
L40264 52928
L40151 52984
L40095 53040
" />
<path d="M41333 53715
L41220 53659
L41164 53603
L41108 53490
L41108 53153
L41164 53040
L41220 52984
L41333 52928
L41501 52928
L41614 52984
L41670 53040
L41726 53153
L41726 53490
L41670 53603
L41614 53659
L41501 53715
L41333 53715
" />
<path d="M42401 53715
L42289 53659
L42232 53547
L42232 52534
" />
<path d="M43301 53659
L43189 53715
L42964 53715
L42851 53659
L42795 53547
L42795 53097
L42851 52984
L42964 52928
L43189 52928
L43301 52984
L43357 53097
L43357 53209
L42795 53322
" />
<path d="M43807 53659
L43920 53715
L44145 53715
L44257 53659
L44313 53547
L44313 53490
L44257 53378
L44145 53322
L43976 53322
L43863 53265
L43807 53153
L43807 53097
L43863 52984
L43976 52928
L44145 52928
L44257 52984
" />
<path d="M44707 54165
L44763 54109
L44876 53940
L44932 53828
L44988 53659
L45045 53378
L45045 53153
L44988 52872
L44932 52703
L44876 52590
L44763 52422
L44707 52365
" />
<path d="M46844 54165
L46788 54109
L46676 53940
L46619 53828
L46563 53659
L46507 53378
L46507 53153
L46563 52872
L46619 52703
L46676 52590
L46788 52422
L46844 52365
" />
<path d="M47294 52928
L47294 53715
" />
<path d="M47294 53040
L47351 52984
L47463 52928
L47632 52928
L47744 52984
L47800 53097
L47800 53715
" />
<path d="M48532 53715
L48419 53659
L48363 53603
L48307 53490
L48307 53153
L48363 53040
L48419 52984
L48532 52928
L48700 52928
L48813 52984
L48869 53040
L48925 53153
L48925 53490
L48869 53603
L48813 53659
L48700 53715
L48532 53715
" />
<path d="M49263 52928
L49713 52928
" />
<path d="M49432 52534
L49432 53547
L49488 53659
L49600 53715
L49713 53715
" />
<path d="M51006 52928
L51006 54109
" />
<path d="M51006 52984
L51119 52928
L51344 52928
L51456 52984
L51512 53040
L51569 53153
L51569 53490
L51512 53603
L51456 53659
L51344 53715
L51119 53715
L51006 53659
" />
<path d="M52244 53715
L52131 53659
L52075 53547
L52075 52534
" />
<path d="M53200 53715
L53200 53097
L53144 52984
L53031 52928
L52806 52928
L52694 52984
" />
<path d="M53200 53659
L53087 53715
L52806 53715
L52694 53659
L52637 53547
L52637 53434
L52694 53322
L52806 53265
L53087 53265
L53200 53209
" />
<path d="M53593 52928
L54043 52928
" />
<path d="M53762 52534
L53762 53547
L53818 53659
L53931 53715
L54043 53715
" />
<path d="M54887 53659
L54775 53715
L54550 53715
L54437 53659
L54381 53547
L54381 53097
L54437 52984
L54550 52928
L54775 52928
L54887 52984
L54943 53097
L54943 53209
L54381 53322
" />
<path d="M55956 53715
L55956 52534
" />
<path d="M55956 53659
L55843 53715
L55618 53715
L55506 53659
L55449 53603
L55393 53490
L55393 53153
L55449 53040
L55506 52984
L55618 52928
L55843 52928
L55956 52984
" />
<path d="M56406 54165
L56462 54109
L56574 53940
L56631 53828
L56687 53659
L56743 53378
L56743 53153
L56687 52872
L56631 52703
L56574 52590
L56462 52422
L56406 52365
" />
<path d="M18540 54110
L18540 55370
" />
<path d="M17910 54740
L19170 54740
" />
<circle cx="18540.6" cy="54740.6" r="629.921" /> 
<path d="M20185 54093
L20916 54093
L20523 54543
L20691 54543
L20804 54599
L20860 54656
L20916 54768
L20916 55049
L20860 55162
L20804 55218
L20691 55274
L20354 55274
L20241 55218
L20185 55162
" />
<path d="M21423 55162
L21479 55218
L21423 55274
L21366 55218
L21423 55162
L21423 55274
" />
<path d="M21929 54206
L21985 54150
L22097 54093
L22379 54093
L22491 54150
L22547 54206
L22604 54318
L22604 54431
L22547 54599
L21872 55274
L22604 55274
" />
<path d="M23335 54093
L23447 54093
L23560 54150
L23616 54206
L23672 54318
L23728 54543
L23728 54824
L23672 55049
L23616 55162
L23560 55218
L23447 55274
L23335 55274
L23222 55218
L23166 55162
L23110 55049
L23054 54824
L23054 54543
L23110 54318
L23166 54206
L23222 54150
L23335 54093
" />
<path d="M24235 55274
L24235 54487
" />
<path d="M24235 54599
L24291 54543
L24403 54487
L24572 54487
L24685 54543
L24741 54656
L24741 55274
" />
<path d="M24741 54656
L24797 54543
L24910 54487
L25078 54487
L25191 54543
L25247 54656
L25247 55274
" />
<path d="M25809 55274
L25809 54487
" />
<path d="M25809 54599
L25866 54543
L25978 54487
L26147 54487
L26259 54543
L26316 54656
L26316 55274
" />
<path d="M26316 54656
L26372 54543
L26484 54487
L26653 54487
L26766 54543
L26822 54656
L26822 55274
" />
<path d="M29128 54037
L28115 55556
" />
<path d="M30646 54093
L30759 54093
L30871 54150
L30928 54206
L30984 54318
L31040 54543
L31040 54824
L30984 55049
L30928 55162
L30871 55218
L30759 55274
L30646 55274
L30534 55218
L30478 55162
L30421 55049
L30365 54824
L30365 54543
L30421 54318
L30478 54206
L30534 54150
L30646 54093
" />
<path d="M31546 55162
L31602 55218
L31546 55274
L31490 55218
L31546 55162
L31546 55274
" />
<path d="M32727 55274
L32052 55274
" />
<path d="M32390 55274
L32390 54093
L32277 54262
L32165 54374
L32052 54431
" />
<path d="M33177 54206
L33234 54150
L33346 54093
L33627 54093
L33740 54150
L33796 54206
L33852 54318
L33852 54431
L33796 54599
L33121 55274
L33852 55274
" />
<path d="M34865 54093
L34640 54093
L34527 54150
L34471 54206
L34358 54374
L34302 54599
L34302 55049
L34358 55162
L34415 55218
L34527 55274
L34752 55274
L34865 55218
L34921 55162
L34977 55049
L34977 54768
L34921 54656
L34865 54599
L34752 54543
L34527 54543
L34415 54599
L34358 54656
L34302 54768
" />
<path d="M35427 54093
L35427 54318
" />
<path d="M35877 54093
L35877 54318
" />
<path d="M37620 55724
L37564 55668
L37452 55499
L37396 55387
L37339 55218
L37283 54937
L37283 54712
L37339 54431
L37396 54262
L37452 54150
L37564 53981
L37620 53925
" />
<path d="M37958 54093
L38689 54093
L38295 54543
L38464 54543
L38577 54599
L38633 54656
L38689 54768
L38689 55049
L38633 55162
L38577 55218
L38464 55274
L38127 55274
L38014 55218
L37958 55162
" />
<path d="M40095 55274
L40095 54093
" />
<path d="M40601 55274
L40601 54656
L40545 54543
L40433 54487
L40264 54487
L40151 54543
L40095 54599
" />
<path d="M41333 55274
L41220 55218
L41164 55162
L41108 55049
L41108 54712
L41164 54599
L41220 54543
L41333 54487
L41501 54487
L41614 54543
L41670 54599
L41726 54712
L41726 55049
L41670 55162
L41614 55218
L41501 55274
L41333 55274
" />
<path d="M42401 55274
L42289 55218
L42232 55106
L42232 54093
" />
<path d="M43301 55218
L43189 55274
L42964 55274
L42851 55218
L42795 55106
L42795 54656
L42851 54543
L42964 54487
L43189 54487
L43301 54543
L43357 54656
L43357 54768
L42795 54881
" />
<path d="M43807 55218
L43920 55274
L44145 55274
L44257 55218
L44313 55106
L44313 55049
L44257 54937
L44145 54881
L43976 54881
L43863 54824
L43807 54712
L43807 54656
L43863 54543
L43976 54487
L44145 54487
L44257 54543
" />
<path d="M44707 55724
L44763 55668
L44876 55499
L44932 55387
L44988 55218
L45045 54937
L45045 54712
L44988 54431
L44932 54262
L44876 54150
L44763 53981
L44707 53925
" />
<path d="M46844 55724
L46788 55668
L46676 55499
L46619 55387
L46563 55218
L46507 54937
L46507 54712
L46563 54431
L46619 54262
L46676 54150
L46788 53981
L46844 53925
" />
<path d="M47294 54487
L47294 55274
" />
<path d="M47294 54599
L47351 54543
L47463 54487
L47632 54487
L47744 54543
L47800 54656
L47800 55274
" />
<path d="M48532 55274
L48419 55218
L48363 55162
L48307 55049
L48307 54712
L48363 54599
L48419 54543
L48532 54487
L48700 54487
L48813 54543
L48869 54599
L48925 54712
L48925 55049
L48869 55162
L48813 55218
L48700 55274
L48532 55274
" />
<path d="M49263 54487
L49713 54487
" />
<path d="M49432 54093
L49432 55106
L49488 55218
L49600 55274
L49713 55274
" />
<path d="M51006 54487
L51006 55668
" />
<path d="M51006 54543
L51119 54487
L51344 54487
L51456 54543
L51512 54599
L51569 54712
L51569 55049
L51512 55162
L51456 55218
L51344 55274
L51119 55274
L51006 55218
" />
<path d="M52244 55274
L52131 55218
L52075 55106
L52075 54093
" />
<path d="M53200 55274
L53200 54656
L53144 54543
L53031 54487
L52806 54487
L52694 54543
" />
<path d="M53200 55218
L53087 55274
L52806 55274
L52694 55218
L52637 55106
L52637 54993
L52694 54881
L52806 54824
L53087 54824
L53200 54768
" />
<path d="M53593 54487
L54043 54487
" />
<path d="M53762 54093
L53762 55106
L53818 55218
L53931 55274
L54043 55274
" />
<path d="M54887 55218
L54775 55274
L54550 55274
L54437 55218
L54381 55106
L54381 54656
L54437 54543
L54550 54487
L54775 54487
L54887 54543
L54943 54656
L54943 54768
L54381 54881
" />
<path d="M55956 55274
L55956 54093
" />
<path d="M55956 55218
L55843 55274
L55618 55274
L55506 55218
L55449 55162
L55393 55049
L55393 54712
L55449 54599
L55506 54543
L55618 54487
L55843 54487
L55956 54543
" />
<path d="M56406 55724
L56462 55668
L56574 55499
L56631 55387
L56687 55218
L56743 54937
L56743 54712
L56687 54431
L56631 54262
L56574 54150
L56462 53981
L56406 53925
" />
</g> 
</svg>
